<?xml version="1.0" encoding="UTF-8" standalone="no"?>
<!-- Created with Inkscape (http://www.inkscape.org/) -->

<svg
   width="17.5mm"
   height="4mm"
   viewBox="0 0 17.5 4"
   version="1.1"
   id="svg5"
   inkscape:export-filename="cgil_logo.png"
   inkscape:export-xdpi="96"
   inkscape:export-ydpi="96"
   inkscape:version="1.3 (0e150ed6c4, 2023-07-21)"
   sodipodi:docname="cgil_logo.svg"
   xmlns:inkscape="http://www.inkscape.org/namespaces/inkscape"
   xmlns:sodipodi="http://sodipodi.sourceforge.net/DTD/sodipodi-0.dtd"
   xmlns="http://www.w3.org/2000/svg"
   xmlns:svg="http://www.w3.org/2000/svg">
  <sodipodi:namedview
     id="namedview7"
     pagecolor="#ffffff"
     bordercolor="#000000"
     borderopacity="0.25"
     inkscape:showpageshadow="false"
     inkscape:pageopacity="0.0"
     inkscape:pagecheckerboard="0"
     inkscape:deskcolor="#d1d1d1"
     inkscape:document-units="mm"
     showgrid="false"
     inkscape:zoom="8.0731597"
     inkscape:cx="94.44877"
     inkscape:cy="18.765887"
     inkscape:window-width="2528"
     inkscape:window-height="1396"
     inkscape:window-x="32"
     inkscape:window-y="0"
     inkscape:window-maximized="1"
     inkscape:current-layer="layer1" />
  <defs
     id="defs2" />
  <g
     inkscape:label="Livello 1"
     inkscape:groupmode="layer"
     id="layer1">
    <rect
       style="fill:#d40000;stroke-width:0.167164;stroke-linecap:round;stroke-linejoin:round"
       id="rect234"
       width="3.7999985"
       height="3.7999985"
       x="0.1366237"
       y="0.10000058" />
    <path
       style="font-size:5.06008px;font-family:'Futura XBlk BT';-inkscape-font-specification:'Futura XBlk BT';stroke-width:0.542153;stroke-linecap:round;stroke-linejoin:round"
       d="M 7.8257264,1.6219757 Q 7.6478329,1.4514945 7.4625272,1.3674893 7.2772216,1.283484 7.07215,1.283484 q -0.3187258,0 -0.5139144,0.1976594 Q 6.3655177,1.676332 6.3655177,2.00247 q 0,0.3187258 0.1853057,0.5089729 0.1853056,0.1902472 0.4966192,0.1902472 0.1877764,0 0.3804943,-0.079064 0.1951886,-0.081535 0.4249676,-0.2569572 l -0.042003,1.361379 Q 7.5984181,3.813524 7.3859342,3.8555267 7.1734504,3.9 6.9609666,3.9 6.6965972,3.9 6.4519937,3.8407022 6.2073902,3.7814044 6.0097308,3.6726917 5.5304068,3.3959686 5.2833326,2.9734717 5.0387291,2.5509748 5.0387291,2.00247 q 0,-0.4052017 0.1383616,-0.7511056 Q 5.317923,0.90546047 5.5847632,0.64109105 5.8540741,0.37425089 6.2073902,0.23836007 6.5631771,0.0999985 6.975791,0.0999985 q 0.2198961,0 0.4323799,0.04694411 0.2149546,0.0444734 0.4175555,0.13589082 z M 10.70167,2.5089722 h -0.5658 V 1.6590368 h 1.998831 q 0.0049,0.1111834 0.0074,0.1655398 0.0025,0.054356 0.0025,0.096359 0,0.3113135 -0.0593,0.5682707 -0.0593,0.2569572 -0.172952,0.4546166 Q 11.635611,3.4083223 11.19829,3.6553965 10.760968,3.9 10.205051,3.9 9.794908,3.9 9.4415919,3.7641092 9.0907465,3.6257476 8.8189648,3.3589075 8.5496539,3.0920673 8.4112924,2.7486342 8.2729308,2.405201 8.2729308,2.00247 q 0,-0.4052017 0.1383616,-0.7486349 Q 8.5521247,0.90793121 8.8189648,0.64603253 9.0882757,0.38166312 9.4415919,0.24330155 9.794908,0.10493999 10.205051,0.10493999 q 0.555917,0 0.988297,0.24460348 0.43238,0.24213273 0.706632,0.71157373 l -1.158778,0.4299092 q -0.09142,-0.1507153 -0.219896,-0.2248376 -0.128478,-0.074122 -0.294018,-0.074122 -0.2890769,0 -0.4620289,0.219896 -0.1704812,0.2198961 -0.1704812,0.5905074 0,0.3829651 0.1729519,0.5954489 0.172952,0.2100131 0.4892072,0.2100131 0.187776,0 0.303901,-0.079064 0.118596,-0.079064 0.140832,-0.219896 z m 1.942004,1.2946689 V 0.18647448 h 1.321847 V 3.8036411 Z m 2.023538,0 V 0.18647448 h 1.302081 V 2.6300385 h 1.26502 v 1.1736026 z"
       id="path1"
       aria-label="CGIL" />
  </g>
</svg>
