<?xml version="1.0" encoding="UTF-8" standalone="no"?>
<svg
   aria-hidden="true"
   focusable="false"
   data-prefix="fab"
   data-icon="earlybirds"
   class="svg-inline--fa fa-earlybirds fa-w-15"
   role="img"
   viewBox="0 0 96 77"
   version="1.1"
   id="svg888"
   sodipodi:docname="error.svg"
   width="96"
   height="77"
   inkscape:version="1.2.1 (9c6d41e410, 2022-07-14, custom)"
   xml:space="preserve"
   xmlns:inkscape="http://www.inkscape.org/namespaces/inkscape"
   xmlns:sodipodi="http://sodipodi.sourceforge.net/DTD/sodipodi-0.dtd"
   xmlns="http://www.w3.org/2000/svg"
   xmlns:svg="http://www.w3.org/2000/svg"><defs
     id="defs892">














</defs><sodipodi:namedview
     id="namedview890"
     pagecolor="#ffffff"
     bordercolor="#666666"
     borderopacity="1.0"
     inkscape:pageshadow="2"
     inkscape:pageopacity="0.0"
     inkscape:pagecheckerboard="0"
     showgrid="false"
     inkscape:showpageshadow="false"
     inkscape:zoom="3.2292706"
     inkscape:cx="69.830011"
     inkscape:cy="130.98933"
     inkscape:window-width="2534"
     inkscape:window-height="1408"
     inkscape:window-x="26"
     inkscape:window-y="0"
     inkscape:window-maximized="1"
     inkscape:current-layer="svg888"
     inkscape:deskcolor="#d1d1d1" /><g
     id="g3203"
     transform="matrix(0.44829137,0,0,0.44829137,-9.3812555,-20.997274)"><path
       d="m 189.28783,157.3074 c 0,33.84927 -27.43856,61.28783 -61.28783,61.28783 -33.848041,0 -61.287827,-27.43856 -61.287827,-61.28783 0,-33.84804 27.439786,-61.287827 61.287827,-61.287827 33.84927,0 61.28783,27.439787 61.28783,61.287827 z"
       fill="#c0392b"
       id="path756"
       style="stroke-width:6.12878" /><path
       d="m 189.28783,151.17862 c 0,33.84926 -27.43856,61.28782 -61.28783,61.28782 -33.848041,0 -61.287827,-27.43856 -61.287827,-61.28782 0,-33.84804 27.439786,-61.287829 61.287827,-61.287829 33.84927,0 61.28783,27.439789 61.28783,61.287829 z"
       fill="#e74c3c"
       id="path758"
       style="stroke-width:6.12878" /><path
       d="M 97.664364,135.24378 119.3339,157.3074 97.664364,178.75814 106.33169,187.33843 128,165.8877 l 21.67137,21.45073 8.6661,-8.58029 -21.67137,-21.45074 21.67137,-22.06362 -8.6661,-8.58029 L 128,148.11423 106.33169,126.66349 Z"
       fill="#c0392b"
       id="path760"
       style="stroke-width:6.12878" /><path
       d="m 97.664364,129.115 21.669536,22.06362 -21.669536,21.45074 8.667326,8.58029 L 128,159.75891 l 21.67137,21.45074 8.6661,-8.58029 -21.67137,-21.45074 21.67137,-22.06362 -8.6661,-8.5803 L 128,141.98544 106.33169,120.5347 Z"
       fill="#ecf0f1"
       id="path762"
       style="stroke-width:6.12878" /><path
       d="m 50.574377,70.773515 v 5.546986 H 26.186765 q -5.240945,0 -5.260073,-5.145308 V 46.864092 h 29.647685 v 5.546986 H 31.446838 v 16.832234 q 0,1.530203 1.415438,1.530203 z m -18.171162,-12.4329 h 18.171162 v 5.546986 H 32.403215 Z"
       id="path3172"
       style="font-weight:bold;font-size:39.1732px;font-family:Interceptor;-inkscape-font-specification:'Interceptor Bold';letter-spacing:6.29569px;fill:#e74c3c;stroke-width:1.04928;stroke-linecap:round;stroke-linejoin:round" /><path
       d="m 76.95398,61.209746 v -7.268465 q 0,-1.530203 -1.434565,-1.530203 H 68.346588 V 76.320501 H 57.826442 V 46.864092 h 24.387611 q 5.260073,0 5.260073,5.164435 v 9.582897 q -0.01913,5.145308 -5.260073,5.145308 h 0.401679 l 5.107052,9.563769 H 77.126128 l -5.107053,-9.563769 h -2.71611 v -5.546986 z"
       id="path3169"
       style="font-weight:bold;font-size:39.1732px;font-family:Interceptor;-inkscape-font-specification:'Interceptor Bold';letter-spacing:6.29569px;fill:#e74c3c;stroke-width:1.04928;stroke-linecap:round;stroke-linejoin:round" /><path
       d="m 113.85373,61.209746 v -7.268465 q 0,-1.530203 -1.43457,-1.530203 h -7.17282 V 76.320501 H 94.726192 V 46.864092 H 119.1138 q 5.26008,0 5.26008,5.164435 v 9.582897 q -0.0191,5.145308 -5.26008,5.145308 h 0.40168 l 5.10705,9.563769 h -10.59665 l -5.10705,-9.563769 h -2.71612 v -5.546986 z"
       id="path3166"
       style="font-weight:bold;font-size:39.1732px;font-family:Interceptor;-inkscape-font-specification:'Interceptor Bold';letter-spacing:6.29569px;fill:#e74c3c;stroke-width:1.04928;stroke-linecap:round;stroke-linejoin:round" /><path
       d="m 136.88602,76.320501 q -5.24094,0 -5.26007,-5.145308 V 52.028527 q 0,-5.164435 5.26007,-5.183563 h 19.10841 q 5.2792,0.01913 5.2792,5.183563 v 19.127539 q 0,5.164435 -5.26007,5.164435 z m 5.26008,-23.909423 v 16.832234 q 0,1.530203 1.41543,1.530203 h 7.21108 l -0.0191,-16.832234 q 0,-1.511076 -1.4537,-1.530203 z"
       id="path3163"
       style="font-weight:bold;font-size:39.1732px;font-family:Interceptor;-inkscape-font-specification:'Interceptor Bold';letter-spacing:6.29569px;fill:#e74c3c;stroke-width:1.04928;stroke-linecap:round;stroke-linejoin:round" /><path
       d="m 187.65323,61.209746 v -7.268465 q 0,-1.530203 -1.43457,-1.530203 h -7.17282 V 76.320501 H 168.52569 V 46.864092 h 24.38761 q 5.26008,0 5.26008,5.164435 v 9.582897 q -0.0191,5.145308 -5.26008,5.145308 h 0.40168 l 5.10705,9.563769 h -10.59665 l -5.10706,-9.563769 h -2.71611 v -5.546986 z"
       id="path3160"
       style="font-weight:bold;font-size:39.1732px;font-family:Interceptor;-inkscape-font-specification:'Interceptor Bold';letter-spacing:6.29569px;fill:#e74c3c;stroke-width:1.04928;stroke-linecap:round;stroke-linejoin:round" /><path
       d="m 235.07313,70.773515 v 5.546986 h -24.38762 q -5.24094,0 -5.26007,-5.145308 V 46.864092 h 29.64769 v 5.546986 h -19.12754 v 16.832234 q 0,1.530203 1.41543,1.530203 z m -18.17117,-12.4329 h 18.17117 v 5.546986 h -18.17117 z"
       id="path3157"
       style="font-weight:bold;font-size:39.1732px;font-family:Interceptor;-inkscape-font-specification:'Interceptor Bold';letter-spacing:6.29569px;fill:#e74c3c;stroke-width:1.04928;stroke-linecap:round;stroke-linejoin:round" /></g></svg>
