<?xml version="1.0" encoding="UTF-8" standalone="no"?>
<!-- Generator: Adobe Illustrator 19.0.0, SVG Export Plug-In . SVG Version: 6.00 Build 0)  -->

<svg
   version="1.1"
   id="Layer_1"
   x="0px"
   y="0px"
   viewBox="0 0 260 60"
   xml:space="preserve"
   sodipodi:docname="holidays_logo.svg"
   inkscape:version="1.2.2 (b0a8486541, 2022-12-01)"
   width="260"
   height="60"
   xmlns:inkscape="http://www.inkscape.org/namespaces/inkscape"
   xmlns:sodipodi="http://sodipodi.sourceforge.net/DTD/sodipodi-0.dtd"
   xmlns="http://www.w3.org/2000/svg"
   xmlns:svg="http://www.w3.org/2000/svg"><defs
   id="defs53">










	
	






		
		
		
	














	
	
	
	
	
	
	
	
	
	
	
	
	
	

</defs><sodipodi:namedview
   id="namedview51"
   pagecolor="#ffffff"
   bordercolor="#000000"
   borderopacity="0.25"
   inkscape:showpageshadow="false"
   inkscape:pageopacity="0.0"
   inkscape:pagecheckerboard="0"
   inkscape:deskcolor="#d1d1d1"
   showgrid="false"
   inkscape:zoom="4.0117188"
   inkscape:cx="132.48685"
   inkscape:cy="7.2288217"
   inkscape:window-width="2528"
   inkscape:window-height="1404"
   inkscape:window-x="2592"
   inkscape:window-y="0"
   inkscape:window-maximized="1"
   inkscape:current-layer="Layer_1" />







<g
   id="g20">
</g>
<g
   id="g22">
</g>
<g
   id="g24">
</g>
<g
   id="g26">
</g>
<g
   id="g28">
</g>
<g
   id="g30">
</g>
<g
   id="g32">
</g>
<g
   id="g34">
</g>
<g
   id="g36">
</g>
<g
   id="g38">
</g>
<g
   id="g40">
</g>
<g
   id="g42">
</g>
<g
   id="g44">
</g>
<g
   id="g46">
</g>
<g
   id="g48">
</g>
<g
   id="g20-0"
   transform="translate(-244.02678,19.040465)">
</g><g
   id="g22-6"
   transform="translate(-244.02678,19.040465)">
</g><g
   id="g24-1"
   transform="translate(-244.02678,19.040465)">
</g><g
   id="g26-5"
   transform="translate(-244.02678,19.040465)">
</g><g
   id="g28-5"
   transform="translate(-244.02678,19.040465)">
</g><g
   id="g30-4"
   transform="translate(-244.02678,19.040465)">
</g><g
   id="g32-7"
   transform="translate(-244.02678,19.040465)">
</g><g
   id="g34-6"
   transform="translate(-244.02678,19.040465)">
</g><g
   id="g36-5"
   transform="translate(-244.02678,19.040465)">
</g><g
   id="g38-6"
   transform="translate(-244.02678,19.040465)">
</g><g
   id="g40-9"
   transform="translate(-244.02678,19.040465)">
</g><g
   id="g42-3"
   transform="translate(-244.02678,19.040465)">
</g><g
   id="g44-7"
   transform="translate(-244.02678,19.040465)">
</g><g
   id="g46-4"
   transform="translate(-244.02678,19.040465)">
</g><g
   id="g48-5"
   transform="translate(-244.02678,19.040465)">
</g><g
   id="g714"
   transform="translate(-894.28125,-113.6921)">
</g><g
   id="g716"
   transform="translate(-894.28125,-113.6921)">
</g><g
   id="g718"
   transform="translate(-894.28125,-113.6921)">
</g><g
   id="g720"
   transform="translate(-894.28125,-113.6921)">
</g><g
   id="g722"
   transform="translate(-894.28125,-113.6921)">
</g><g
   id="g724"
   transform="translate(-894.28125,-113.6921)">
</g><g
   id="g726"
   transform="translate(-894.28125,-113.6921)">
</g><g
   id="g728"
   transform="translate(-894.28125,-113.6921)">
</g><g
   id="g730"
   transform="translate(-894.28125,-113.6921)">
</g><g
   id="g732"
   transform="translate(-894.28125,-113.6921)">
</g><g
   id="g734"
   transform="translate(-894.28125,-113.6921)">
</g><g
   id="g736"
   transform="translate(-894.28125,-113.6921)">
</g><g
   id="g738"
   transform="translate(-894.28125,-113.6921)">
</g><g
   id="g740"
   transform="translate(-894.28125,-113.6921)">
</g><g
   id="g742"
   transform="translate(-894.28125,-113.6921)">
</g><g
   id="g11096"
   transform="matrix(0.09242855,-0.02476616,0.02476616,0.09242855,-126.48664,32.605948)">
</g><g
   id="g11098"
   transform="matrix(0.09242855,-0.02476616,0.02476616,0.09242855,-126.48664,32.605948)">
</g><g
   id="g11100"
   transform="matrix(0.09242855,-0.02476616,0.02476616,0.09242855,-126.48664,32.605948)">
</g><g
   id="g11102"
   transform="matrix(0.09242855,-0.02476616,0.02476616,0.09242855,-126.48664,32.605948)">
</g><g
   id="g11104"
   transform="matrix(0.09242855,-0.02476616,0.02476616,0.09242855,-126.48664,32.605948)">
</g><g
   id="g11106"
   transform="matrix(0.09242855,-0.02476616,0.02476616,0.09242855,-126.48664,32.605948)">
</g><g
   id="g11108"
   transform="matrix(0.09242855,-0.02476616,0.02476616,0.09242855,-126.48664,32.605948)">
</g><g
   id="g11110"
   transform="matrix(0.09242855,-0.02476616,0.02476616,0.09242855,-126.48664,32.605948)">
</g><g
   id="g11112"
   transform="matrix(0.09242855,-0.02476616,0.02476616,0.09242855,-126.48664,32.605948)">
</g><g
   id="g11114"
   transform="matrix(0.09242855,-0.02476616,0.02476616,0.09242855,-126.48664,32.605948)">
</g><g
   id="g11116"
   transform="matrix(0.09242855,-0.02476616,0.02476616,0.09242855,-126.48664,32.605948)">
</g><g
   id="g11118"
   transform="matrix(0.09242855,-0.02476616,0.02476616,0.09242855,-126.48664,32.605948)">
</g><g
   id="g11120"
   transform="matrix(0.09242855,-0.02476616,0.02476616,0.09242855,-126.48664,32.605948)">
</g><g
   id="g11122"
   transform="matrix(0.09242855,-0.02476616,0.02476616,0.09242855,-126.48664,32.605948)">
</g><g
   id="g11124"
   transform="matrix(0.09242855,-0.02476616,0.02476616,0.09242855,-126.48664,32.605948)">
</g><path
   d="m 110.46875,25.835937 v 13.90625 h 2.26172 v -13.90625 z"
   style="font-size:26.3239px;font-family:'Roboto Condensed';-inkscape-font-specification:'Roboto Condensed, ';text-align:justify;letter-spacing:0px;baseline-shift:baseline;display:inline;overflow:visible;vector-effect:none;fill:#0d7474;stroke-linecap:round;stroke-linejoin:round;enable-background:accumulate;stop-color:#000000;stop-opacity:1"
   id="path24" /><path
   d="m 110.46875,25.835937 h 2.26172 v 13.90625 h -2.26172 z"
   style="font-size:26.3239px;font-family:'Roboto Condensed';-inkscape-font-specification:'Roboto Condensed, ';text-align:justify;letter-spacing:0px;baseline-shift:baseline;display:inline;overflow:visible;vector-effect:none;fill:#0d7474;stroke-linecap:round;stroke-linejoin:round;enable-background:accumulate;stop-color:#000000;stop-opacity:1"
   id="path23" /><path
   d="m 121.04687,25.578125 c -1.31105,0 -2.49799,0.498186 -3.56054,1.492187 -1.06256,0.985433 -1.59375,2.70357 -1.59375,5.154297 v 1.63086 c 0.009,2.099399 0.49655,3.651726 1.46484,4.654297 0.9683,0.994001 2.28293,1.490234 3.94531,1.490234 1.19966,0 2.15597,-0.214129 2.86719,-0.642578 0.7198,-0.437018 1.2675,-0.921848 1.64453,-1.453125 l -1.19531,-1.425781 c -0.37703,0.462724 -0.81355,0.844616 -1.31055,1.144531 -0.48843,0.291345 -1.11431,0.435547 -1.87695,0.435547 -1.05399,0 -1.86414,-0.338677 -2.42969,-1.015625 -0.55698,-0.685519 -0.83398,-1.76952 -0.83398,-3.251953 v -0.333985 h 7.75 v -1.324219 c 0,-2.125106 -0.37679,-3.748557 -1.13086,-4.871093 -0.75407,-1.122536 -2.00073,-1.683594 -3.74024,-1.683594 z m 0,1.953125 c 0.99401,0 1.65801,0.343779 1.99219,1.029297 0.34275,0.685519 0.54352,1.563643 0.60352,2.634765 v 0.322266 h -5.46289 c 0.0771,-1.568123 0.37767,-2.622264 0.90039,-3.162109 0.5227,-0.548415 1.17845,-0.824219 1.96679,-0.824219 z"
   style="font-size:26.3239px;font-family:'Roboto Condensed';-inkscape-font-specification:'Roboto Condensed, ';text-align:justify;letter-spacing:0px;baseline-shift:baseline;display:inline;overflow:visible;vector-effect:none;fill:#0d7474;stroke-linecap:round;stroke-linejoin:round;enable-background:accumulate;stop-color:#000000;stop-opacity:1"
   id="path20" /><path
   id="path19"
   style="font-size:26.3239px;font-family:'Roboto Condensed';-inkscape-font-specification:'Roboto Condensed, ';text-align:justify;letter-spacing:0px;baseline-shift:baseline;display:inline;overflow:visible;vector-effect:none;fill:#0d7474;stroke-linecap:round;stroke-linejoin:round;enable-background:accumulate;stop-color:#000000;stop-opacity:1"
   d="m 121.04688,25.578125 c -1.31105,0 -2.498,0.498186 -3.56055,1.492187 -1.06256,0.985434 -1.59375,2.70357 -1.59375,5.154297 v 1.63086 c 0.009,2.099399 0.49655,3.651726 1.46484,4.654297 0.9683,0.994001 2.28293,1.490234 3.94531,1.490234 1.19966,0 2.15597,-0.214129 2.86719,-0.642578 0.7198,-0.437018 1.2675,-0.921848 1.64453,-1.453125 l -1.19531,-1.425781 c -0.37703,0.462724 -0.81355,0.844616 -1.31055,1.144531 -0.48843,0.291345 -1.11431,0.435547 -1.87695,0.435547 -1.05399,0 -1.86414,-0.338677 -2.42969,-1.015625 -0.55698,-0.685519 -0.83398,-1.76952 -0.83398,-3.251953 v -0.333985 h 7.75 v -1.324219 c 0,-2.125106 -0.37679,-3.748557 -1.13086,-4.871093 -0.75407,-1.122536 -2.00073,-1.683594 -3.74023,-1.683594 z m 0,1.953125 c 0.994,0 1.658,0.343779 1.99218,1.029297 0.34275,0.685519 0.54352,1.563644 0.60352,2.634765 v 0.322266 h -5.46289 c 0.0771,-1.568123 0.37767,-2.622264 0.90039,-3.162109 0.5227,-0.548415 1.17845,-0.824219 1.9668,-0.824219 z" /><path
   d="m 107.09961,25.578125 c -1.11397,0 -1.97363,0.552805 -2.58203,1.658203 l -0.0527,-1.400391 h -2.19726 v 13.90625 h 2.27539 v -9.972656 c 0.46272,-1.268208 1.27602,-1.902344 2.4414,-1.902344 0.35133,10e-7 0.69512,0.03301 1.0293,0.101563 L 108,25.757812 c -0.19709,-0.119966 -0.49765,-0.179687 -0.90039,-0.179687 z"
   style="font-size:26.3239px;font-family:'Roboto Condensed';-inkscape-font-specification:'Roboto Condensed, ';text-align:justify;letter-spacing:0px;baseline-shift:baseline;display:inline;overflow:visible;vector-effect:none;fill:#0d7474;stroke-linecap:round;stroke-linejoin:round;enable-background:accumulate;stop-color:#000000;stop-opacity:1"
   id="path18" /><path
   d="m 107.09961,25.578125 c 0.40274,0 0.7033,0.05972 0.90039,0.179687 l 0.0137,2.210938 c -0.33418,-0.06855 -0.67797,-0.101562 -1.0293,-0.101563 -1.16538,0 -1.97868,0.634136 -2.4414,1.902344 v 9.972656 h -2.27539 v -13.90625 h 2.19726 l 0.0527,1.400391 c 0.6084,-1.105398 1.46806,-1.658203 2.58203,-1.658203 z"
   style="font-size:26.3239px;font-family:'Roboto Condensed';-inkscape-font-specification:'Roboto Condensed, ';text-align:justify;letter-spacing:0px;baseline-shift:baseline;display:inline;overflow:visible;vector-effect:none;fill:#0d7474;stroke-linecap:round;stroke-linejoin:round;enable-background:accumulate;stop-color:#000000;stop-opacity:1"
   id="path17" /><path
   d="m 94.64453,25.578125 c -1.31105,0 -2.49604,0.498186 -3.55859,1.492187 -1.06256,0.985433 -1.59375,2.70357 -1.59375,5.154297 v 1.63086 c 0.009,2.099399 0.49654,3.651726 1.46484,4.654297 C 91.92532,39.503767 93.23996,40 94.90234,40 c 1.19966,0 2.15597,-0.214129 2.86719,-0.642578 0.71979,-0.437018 1.26749,-0.921848 1.64453,-1.453125 l -1.19531,-1.425781 c -0.37703,0.462724 -0.81355,0.844616 -1.31055,1.144531 -0.48843,0.291345 -1.11431,0.435547 -1.87695,0.435547 -1.05398,0 -1.86413,-0.338677 -2.42969,-1.015625 -0.55698,-0.685519 -0.83594,-1.76952 -0.83594,-3.251953 v -0.333985 h 7.75196 v -1.324219 c 0,-2.125106 -0.37679,-3.748557 -1.13086,-4.871093 -0.75407,-1.122536 -2.00269,-1.683594 -3.74219,-1.683594 z m 0,1.953125 c 0.994,0 1.65995,0.343779 1.99414,1.029297 0.34274,0.685519 0.54352,1.563643 0.60352,2.634765 v 0.322266 H 91.7793 c 0.0771,-1.568123 0.37768,-2.622264 0.90039,-3.162109 0.5227,-0.548415 1.17649,-0.824219 1.96484,-0.824219 z"
   style="font-size:26.3239px;font-family:'Roboto Condensed';-inkscape-font-specification:'Roboto Condensed, ';text-align:justify;letter-spacing:0px;baseline-shift:baseline;display:inline;overflow:visible;vector-effect:none;fill:#0d7474;stroke-linecap:round;stroke-linejoin:round;enable-background:accumulate;stop-color:#000000;stop-opacity:1"
   id="path16" /><path
   id="path15"
   style="font-size:26.3239px;font-family:'Roboto Condensed';-inkscape-font-specification:'Roboto Condensed, ';text-align:justify;letter-spacing:0px;baseline-shift:baseline;display:inline;overflow:visible;vector-effect:none;fill:#0d7474;stroke-linecap:round;stroke-linejoin:round;enable-background:accumulate;stop-color:#000000;stop-opacity:1"
   d="m 94.64453,25.578125 c -1.31105,0 -2.49604,0.498186 -3.55859,1.492187 -1.06256,0.985434 -1.59375,2.70357 -1.59375,5.154297 v 1.63086 c 0.009,2.099399 0.49654,3.651726 1.46484,4.654297 C 91.92532,39.503767 93.23996,40 94.90234,40 c 1.19966,0 2.15597,-0.214129 2.86719,-0.642578 0.71979,-0.437018 1.26749,-0.921848 1.64453,-1.453125 l -1.19531,-1.425781 c -0.37703,0.462724 -0.81355,0.844616 -1.31055,1.144531 -0.48843,0.291345 -1.11431,0.435547 -1.87695,0.435547 -1.05398,0 -1.86413,-0.338677 -2.42969,-1.015625 -0.55698,-0.685519 -0.83594,-1.76952 -0.83594,-3.251953 v -0.333985 h 7.75196 v -1.324219 c 0,-2.125106 -0.37679,-3.748557 -1.13086,-4.871093 -0.75407,-1.122536 -2.00269,-1.683594 -3.74219,-1.683594 z m 0,1.953125 c 0.994,0 1.65995,0.343779 1.99414,1.029297 0.34274,0.685519 0.54352,1.563644 0.60352,2.634765 v 0.322266 H 91.7793 c 0.0771,-1.568123 0.37768,-2.622264 0.90039,-3.162109 0.5227,-0.548415 1.17649,-0.824219 1.96484,-0.824219 z" /><path
   d="m 77.8457,21.027344 v 18.714843 h 2.36524 v -8.263671 h 6.31054 v -2.03125 h -6.31054 v -6.388672 h 7.3789 v -2.03125 z"
   style="font-size:26.3239px;font-family:'Roboto Condensed';-inkscape-font-specification:'Roboto Condensed, ';text-align:justify;letter-spacing:0px;baseline-shift:baseline;display:inline;overflow:visible;vector-effect:none;fill:#0d7474;stroke-linecap:round;stroke-linejoin:round;enable-background:accumulate;stop-color:#000000;stop-opacity:1"
   id="path8" /><path
   d="m 111.625,20.771484 c -0.42845,0 -0.75062,0.132799 -0.96484,0.398438 -0.21422,0.265638 -0.32032,0.590958 -0.32032,0.976562 0,0.368466 0.1061,0.685534 0.32032,0.951172 0.21422,0.25707 0.53639,0.384766 0.96484,0.384766 0.41988,0 0.74205,-0.127696 0.96484,-0.384766 0.2228,-0.265638 0.33399,-0.582706 0.33399,-0.951172 0,-0.385604 -0.11119,-0.710924 -0.33399,-0.976562 -0.22279,-0.265639 -0.54496,-0.398438 -0.96484,-0.398438 z"
   style="font-size:26.3239px;font-family:'Roboto Condensed';-inkscape-font-specification:'Roboto Condensed, ';text-align:justify;letter-spacing:0px;baseline-shift:baseline;display:inline;overflow:visible;vector-effect:none;fill:#0d7474;stroke-linecap:round;stroke-linejoin:round;enable-background:accumulate;stop-color:#000000;stop-opacity:1"
   id="path7" /><g
   style="fill:#0d7474;fill-opacity:1"
   id="g1"
   transform="matrix(0.20375984,0,0,0.20375984,0,-0.25830505)"><path
     d="m 287.116,252.811 h -64.3 L 155.456,137.665 257.268,78.104 c 2.262,-1.324 3.906,-3.492 4.57,-6.028 0.664,-2.537 0.293,-5.232 -1.03,-7.495 C 225.047,3.454 150.85,-15.858 85.111,17.42 L 80.045,8.759 C 77.288,4.048 71.235,2.462 66.524,5.218 c -4.712,2.757 -6.297,8.81 -3.541,13.521 l 5.067,8.662 C 6.824,68.394 -12.702,142.537 23.058,203.667 c 1.839,3.143 5.144,4.894 8.541,4.894 1.695,0 3.412,-0.437 4.981,-1.354 L 138.392,147.646 199.913,252.81 H 9.884 c -5.458,0 -9.884,4.425 -9.884,9.884 0,5.458 4.425,9.884 9.884,9.884 h 201.594 l 10.682,18.26 c 1.839,3.143 5.144,4.894 8.541,4.894 1.695,0 3.412,-0.437 4.981,-1.354 4.711,-2.757 6.296,-8.81 3.54,-13.522 l -4.843,-8.278 h 52.736 c 5.458,0 9.884,-4.425 9.884,-9.884 10e-4,-5.458 -4.424,-9.883 -9.883,-9.883 z M 86.408,39.208 c 1.816,-1.063 4.058,-1.605 6.668,-1.605 16.254,0 46.722,21.06 76.592,68.846 l -65.449,38.288 C 72.864,87.343 73.282,46.886 86.408,39.208 Z m 151.979,27.04 -51.653,30.218 C 165.152,61.808 141.246,37.022 119.479,25.317 c 10.38,-2.772 20.794,-4.146 31.008,-4.146 34.721,-0.002 67.112,15.72 87.9,45.077 z M 35.494,184.942 c -11.6,-24.417 -13.685,-51.347 -5.774,-76.817 5.405,-17.403 15.157,-33.39 28.371,-46.907 -0.467,24.712 9.423,57.702 29.06,93.504 z"
     id="path1"
     style="fill:#0d7474;fill-opacity:1" /></g></svg>
