<?xml version="1.0" encoding="UTF-8" standalone="no"?>
<!-- Created with Inkscape (http://www.inkscape.org/) -->

<svg
   width="680"
   height="190"
   viewBox="0 0 179.91666 50.270833"
   version="1.1"
   id="svg4981"
   inkscape:version="1.3 (0e150ed6c4, 2023-07-21)"
   sodipodi:docname="login_logo.svg"
   xml:space="preserve"
   xmlns:inkscape="http://www.inkscape.org/namespaces/inkscape"
   xmlns:sodipodi="http://sodipodi.sourceforge.net/DTD/sodipodi-0.dtd"
   xmlns="http://www.w3.org/2000/svg"
   xmlns:svg="http://www.w3.org/2000/svg"><sodipodi:namedview
     id="namedview4983"
     pagecolor="#ffffff"
     bordercolor="#000000"
     borderopacity="0.25"
     inkscape:showpageshadow="false"
     inkscape:pageopacity="0.0"
     inkscape:pagecheckerboard="0"
     inkscape:deskcolor="#d1d1d1"
     inkscape:document-units="px"
     showgrid="false"
     inkscape:zoom="1.5701613"
     inkscape:cx="418.74679"
     inkscape:cy="143.61582"
     inkscape:window-width="2528"
     inkscape:window-height="1396"
     inkscape:window-x="32"
     inkscape:window-y="0"
     inkscape:window-maximized="1"
     inkscape:current-layer="layer1" /><defs
     id="defs4978" /><g
     inkscape:label="Livello 1"
     inkscape:groupmode="layer"
     id="layer1"><g
       id="g1"
       transform="translate(-71.384425,-47.627066)"
       style="fill:#ffffff"><g
         id="g25621"
         style="fill:#ffffff;fill-opacity:1"
         transform="matrix(0.86667531,0,0,0.86667531,107.30299,44.194217)"><path
           d="m 33.55991,16.00256 v 3.62511 H 28.28886 V 35.2532 H 21.43849 V 19.62767 h -6.22761 v -3.62511 z"
           style="font-size:14.1111px;line-height:1.25;font-family:Interceptor;-inkscape-font-specification:Interceptor;fill:#ffffff;fill-opacity:1;stroke-width:0.479147"
           id="path4862"
           sodipodi:nodetypes="ccccccccc" /><path
           d="m 48.55099,25.37787 v -4.75016 c 0,-0.66668 -0.31137,-1.00004 -0.93413,-1.00004 H 42.94615 V 35.2532 H 36.09578 V 16.00256 h 15.88041 c 2.28344,0 3.42517,1.12503 3.42517,3.37511 v 6.26271 c -0.009,2.24174 -1.15003,3.36261 -3.42517,3.36261 h 0.26156 l 3.32554,6.25021 h -6.9002 l -3.32555,-6.25021 h -0.81206 v -3.62512 z"
           style="font-size:14.1111px;line-height:1.25;font-family:Interceptor;-inkscape-font-specification:Interceptor;fill:#ffffff;fill-opacity:1;stroke-width:0.479147"
           id="path4864"
           sodipodi:nodetypes="cssccccssccccccccc" /><path
           d="m 68.2128,16.00256 c 2.23364,0 3.78639,1.30838 4.65824,3.92513 l 5.08174,15.32551 h -6.86282 l -1.03378,-3.1251 h -3.37785 l 1.2206,-3.62511 h 0.94909 L 67.59004,24.72784 64.09013,35.2532 h -6.86284 l 6.38954,-19.25064 z"
           style="font-size:14.1111px;line-height:1.25;font-family:Interceptor;-inkscape-font-specification:Interceptor;fill:#ffffff;fill-opacity:1;stroke-width:0.479147"
           id="path4866"
           sodipodi:nodetypes="scccccccccccs" /><path
           d="M 86.62908,28.40048 V 35.2532 H 79.77873 V 18.08764 Z m -0.57293,-2.6351 -6.48917,-9.76282 h 6.93755 l 5.72939,8.62529 v -8.62529 h 6.85037 V 35.2532 h -6.7258 z"
           style="font-size:14.1111px;line-height:1.25;font-family:Interceptor;-inkscape-font-specification:Interceptor;fill:#ffffff;fill-opacity:1;stroke-width:0.479147"
           id="path4868"
           sodipodi:nodetypes="cccccccccccccc" /><path
           d="m 119.01264,16.00256 v 3.62511 H 113.7416 V 35.2532 h -6.85037 V 19.62767 h -5.27105 v -3.62511 z"
           style="font-size:14.1111px;line-height:1.25;font-family:Interceptor;-inkscape-font-specification:Interceptor;fill:#ffffff;fill-opacity:1;stroke-width:0.479147"
           id="path4870"
           sodipodi:nodetypes="ccccccccc" /><path
           d="m 124.9737,35.2532 c -2.27514,0 -3.41687,-1.12087 -3.42517,-3.36261 V 19.37767 c 0,-2.25008 1.14173,-3.37928 3.42517,-3.38762 h 12.44277 c 2.29175,0.009 3.43764,1.13756 3.43764,3.38762 v 12.50041 c 0,2.25009 -1.14173,3.37512 -3.42519,3.37512 z m 3.4252,-15.62553 v 11.00038 c 0,0.66669 0.30722,1.00003 0.92168,1.00003 h 4.69561 l -0.0123,-11.00036 c 0,-0.65837 -0.31553,-0.9917 -0.9466,-1.00005 z"
           style="font-size:14.1111px;line-height:1.25;font-family:Interceptor;-inkscape-font-specification:Interceptor;fill:#ffffff;fill-opacity:1;stroke-width:0.479147"
           id="path4872"
           sodipodi:nodetypes="scsccsssscsscccc" /><path
           d="m 155.8452,25.37787 v -4.75016 c 0,-0.66668 -0.31137,-1.00004 -0.93413,-1.00004 h -4.6707 V 35.2532 H 143.39 V 16.00256 h 15.88041 c 2.28344,0 3.42517,1.12503 3.42517,3.37511 v 6.26271 c -0.009,2.24174 -1.15017,3.36261 -3.42517,3.36261 h 0.26154 l 3.32555,6.25021 h -6.90019 l -3.32554,-6.25021 h -0.81209 v -3.62512 z"
           style="font-size:14.1111px;line-height:1.25;font-family:Interceptor;-inkscape-font-specification:Interceptor;fill:#ffffff;fill-opacity:1;stroke-width:0.479147"
           id="path4874"
           sodipodi:nodetypes="cssccccssccccccccc" /></g><path
         id="path4852"
         style="fill:#ffffff;fill-opacity:1;stroke:none;stroke-width:4.79147;stroke-linecap:round;stroke-linejoin:round;stroke-dasharray:none;paint-order:stroke markers fill"
         d="m 97.284499,49.477082 c -12.813651,5e-5 -23.201117,10.425249 -23.201167,23.2854 5e-5,12.860161 10.387516,23.28535 23.201167,23.2854 12.813641,-5e-5 23.201141,-10.425229 23.201171,-23.2854 -3e-5,-12.860151 -10.38753,-23.28535 -23.201171,-23.2854 z m 0,4.472595 v 12.298474 a 6.5370164,6.5370164 0 0 1 0.319877,-0.02274 6.5370164,6.5370164 0 0 1 6.537074,6.537068 h 11.70367 A 18.560763,18.812988 0 0 1 97.284499,91.575287 V 79.276813 A 6.5370164,6.5370164 0 0 1 91.067308,72.762482 H 78.723875 A 18.560763,18.812988 0 0 1 97.284499,53.949677 Z" /><path
         d="m 176.26172,86.678721 v -8.650383 h 3.46015 v 1.671097 h -1.70058 v 1.685841 h 1.63177 v 1.626862 h -1.63177 v 1.980741 h 1.81363 v 1.685842 z m 13.20002,0 v -8.650383 h 2.63444 l 0.72742,5.273785 0.7225,-5.273785 h 2.65901 v 8.650383 h -1.58263 v -6.232208 l -0.99282,6.232208 h -1.55314 l -1.05181,-6.232208 v 6.232208 z m 16.5668,0 v -8.650383 h 2.28547 q 0.71759,0 1.13536,0.319474 0.42269,0.319475 0.60454,0.909274 0.18186,0.589798 0.18186,1.405687 0,0.786398 -0.15237,1.371282 -0.15236,0.579969 -0.54556,0.899443 -0.38828,0.319475 -1.10587,0.319475 h -0.70285 v 3.425748 z m 1.70058,-4.978885 h 0.0983 q 0.48167,0 0.5898,-0.270325 0.10813,-0.270324 0.10813,-0.796228 0,-0.491499 -0.10813,-0.756909 -0.10321,-0.270324 -0.49641,-0.270324 h -0.19169 z m 12.03026,4.978885 v -8.650383 h 1.6711 v 8.650383 z m 11.41588,0 v -8.650383 h 2.6541 q 0.66352,0 1.00266,0.30473 0.33913,0.299814 0.45218,0.845378 0.11796,0.540649 0.11796,1.272982 0,0.707759 -0.18186,1.130448 -0.17694,0.422689 -0.67335,0.584884 0.40794,0.08356 0.57014,0.407944 0.16711,0.319474 0.16711,0.830633 v 3.273384 h -1.70551 v -3.386428 q 0,-0.378455 -0.15728,-0.466924 -0.15236,-0.09339 -0.49641,-0.09339 v 3.946737 z m 1.75957,-5.445809 h 0.41777 q 0.3588,0 0.3588,-0.781484 0,-0.506244 -0.0786,-0.663523 -0.0786,-0.15728 -0.2949,-0.15728 h -0.40303 z m 12.09415,5.445809 v -8.650383 h 3.46015 v 1.671097 h -1.70059 v 1.685841 h 1.63178 v 1.626862 h -1.63178 v 1.980741 h 1.81364 v 1.685842 z"
         id="path1"
         style="font-size:10.0659px;font-family:Anton;-inkscape-font-specification:Anton;letter-spacing:9.05669px;fill:#ffffff;stroke-width:0.83883"
         aria-label="EMPIRE" /><path
         id="path5"
         style="fill:#ffffff;stroke-width:0.264583"
         d="m 138.58631,78.02834 h 43.8031 v 1.671095 h -43.8031 z"
         sodipodi:nodetypes="ccccc" /><path
         id="path4"
         style="fill:#ffffff;stroke-width:0.264583"
         d="m 150.09987,81.358218 h 32.22074 v 1.671095 h -32.22074 z"
         sodipodi:nodetypes="ccccc" /><path
         id="path3"
         style="fill:#ffffff;stroke-width:0.264583"
         d="m 160.54601,84.99288 h 21.95645 v 1.671095 h -21.95645 z"
         sodipodi:nodetypes="ccccc" /></g></g></svg>
