<?xml version="1.0" encoding="UTF-8" standalone="no"?>
<!-- Created with Inkscape (http://www.inkscape.org/) -->

<svg
   width="680"
   height="190"
   viewBox="0 0 179.91666 50.270833"
   version="1.1"
   id="svg4981"
   inkscape:version="1.2.1 (9c6d41e410, 2022-07-14, custom)"
   sodipodi:docname="login_logo.svg"
   xml:space="preserve"
   xmlns:inkscape="http://www.inkscape.org/namespaces/inkscape"
   xmlns:sodipodi="http://sodipodi.sourceforge.net/DTD/sodipodi-0.dtd"
   xmlns="http://www.w3.org/2000/svg"
   xmlns:svg="http://www.w3.org/2000/svg"><sodipodi:namedview
     id="namedview4983"
     pagecolor="#ffffff"
     bordercolor="#000000"
     borderopacity="0.25"
     inkscape:showpageshadow="false"
     inkscape:pageopacity="0.0"
     inkscape:pagecheckerboard="0"
     inkscape:deskcolor="#d1d1d1"
     inkscape:document-units="px"
     showgrid="false"
     inkscape:zoom="1.5701613"
     inkscape:cx="418.42835"
     inkscape:cy="296.7848"
     inkscape:window-width="2534"
     inkscape:window-height="1408"
     inkscape:window-x="26"
     inkscape:window-y="0"
     inkscape:window-maximized="1"
     inkscape:current-layer="layer1" /><defs
     id="defs4978" /><g
     inkscape:label="Livello 1"
     inkscape:groupmode="layer"
     id="layer1"><g
       id="g23768"
       transform="translate(0,-7.7878799)"
       style="fill:#ffffff"><g
         id="g22788"
         style="fill:#ffffff;stroke:none"
         transform="translate(33.69669,0.64030607)"><path
           d="m 31.902639,17.466136 v 2.887638 h -4.198737 v 12.446761 h -5.45677 V 20.353774 h -4.9607 v -2.887638 z"
           style="font-size:14.1111px;line-height:1.25;font-family:Interceptor;-inkscape-font-specification:Interceptor;fill:#ffffff;fill-opacity:1;stroke:none;stroke-width:0.381672"
           id="path4862"
           sodipodi:nodetypes="ccccccccc" /><path
           d="m 43.844018,24.934186 v -3.783814 c 0,-0.531054 -0.248026,-0.796598 -0.744095,-0.796598 H 39.379395 V 32.800535 H 33.922626 V 17.466136 h 12.649789 c 1.81891,0 2.728373,0.896161 2.728373,2.688497 v 4.98866 c -0.0072,1.785693 -0.916074,2.678539 -2.728373,2.678539 h 0.20835 l 2.649011,4.978703 h -5.496462 l -2.649019,-4.978703 h -0.64686 v -2.887646 z"
           style="font-size:14.1111px;line-height:1.25;font-family:Interceptor;-inkscape-font-specification:Interceptor;fill:#ffffff;fill-opacity:1;stroke:none;stroke-width:0.381672"
           id="path4864"
           sodipodi:nodetypes="cssccccssccccccccc" /><path
           d="m 59.505941,17.466136 c 1.779241,0 3.016108,1.042211 3.710594,3.126624 l 4.04794,12.207775 h -5.466687 l -0.823474,-2.489347 h -2.690679 l 0.972288,-2.887638 h 0.756013 l -1.002064,-3.007155 -2.787908,8.38414 h -5.466703 l 5.089688,-15.334399 z"
           style="font-size:14.1111px;line-height:1.25;font-family:Interceptor;-inkscape-font-specification:Interceptor;fill:#ffffff;fill-opacity:1;stroke:none;stroke-width:0.381672"
           id="path4866"
           sodipodi:nodetypes="scccccccccccs" /><path
           d="m 74.175717,27.341894 v 5.458641 H 68.718964 V 19.127039 Z m -0.456376,-2.099031 -5.16905,-7.776727 h 5.526214 l 4.563835,6.87061 v -6.87061 h 5.45677 v 15.334399 h -5.357541 z"
           style="font-size:14.1111px;line-height:1.25;font-family:Interceptor;-inkscape-font-specification:Interceptor;fill:#ffffff;fill-opacity:1;stroke:none;stroke-width:0.381672"
           id="path4868"
           sodipodi:nodetypes="cccccccccccccc" /><path
           d="m 99.971349,17.466136 v 2.887638 H 95.77262 V 32.800535 H 90.31585 V 20.353774 h -4.198737 v -2.887638 z"
           style="font-size:14.1111px;line-height:1.25;font-family:Interceptor;-inkscape-font-specification:Interceptor;fill:#ffffff;fill-opacity:1;stroke:none;stroke-width:0.381672"
           id="path4870"
           sodipodi:nodetypes="ccccccccc" /><path
           d="m 104.71972,32.800535 c -1.81229,0 -2.72176,-0.892846 -2.72837,-2.67854 v -9.967362 c 0,-1.792336 0.90947,-2.691818 2.72837,-2.698462 h 9.91149 c 1.82553,0.0072 2.7383,0.906142 2.7383,2.698462 v 9.957397 c 0,1.792345 -0.90946,2.688505 -2.72838,2.688505 z m 2.7284,-12.446761 v 8.762525 c 0,0.531063 0.24472,0.79659 0.73418,0.79659 h 3.74036 l -0.01,-8.762509 c 0,-0.524435 -0.25134,-0.789954 -0.75402,-0.796606 z"
           style="font-size:14.1111px;line-height:1.25;font-family:Interceptor;-inkscape-font-specification:Interceptor;fill:#ffffff;fill-opacity:1;stroke:none;stroke-width:0.381672"
           id="path4872"
           sodipodi:nodetypes="scsccsssscsscccc" /><path
           d="m 129.3109,24.934186 v -3.783814 c 0,-0.531054 -0.24802,-0.796598 -0.74409,-0.796598 h -3.72052 v 12.446761 h -5.45677 V 17.466136 h 12.64979 c 1.81891,0 2.72837,0.896161 2.72837,2.688497 v 4.98866 c -0.007,1.785693 -0.91619,2.678539 -2.72837,2.678539 h 0.20833 l 2.64902,4.978703 h -5.49646 l -2.64901,-4.978703 h -0.64688 v -2.887646 z"
           style="font-size:14.1111px;line-height:1.25;font-family:Interceptor;-inkscape-font-specification:Interceptor;fill:#ffffff;fill-opacity:1;stroke:none;stroke-width:0.381672"
           id="path4874"
           sodipodi:nodetypes="cssccccssccccccccc" /></g><g
         id="g23747"
         transform="translate(0,1.5875)"
         style="fill:#ffffff"><path
           d="m 60.575458,38.39696 q 0,0.06476 -0.05162,0.116649 -0.03871,0.03887 -0.103362,0.03887 h -2.686832 q -0.0646,0 -0.0646,0.06476 V 40.6656 q 0,0.06476 0.0646,0.06476 h 1.537173 q 0.0646,0 0.103362,0.05186 0.05162,0.03887 0.05162,0.103784 v 1.257539 q 0,0.06476 -0.05162,0.116649 -0.03871,0.03887 -0.103362,0.03887 h -1.537173 q -0.0646,0 -0.0646,0.06476 v 3.539269 q 0,0.06476 -0.05162,0.116649 -0.03871,0.03887 -0.103362,0.03887 h -1.51134 q -0.0646,0 -0.116235,-0.03887 -0.03871,-0.05186 -0.03871,-0.116649 V 37.13918 q 0,-0.06476 0.03871,-0.103777 0.05162,-0.05186 0.116235,-0.05186 h 4.417769 q 0.0646,0 0.103362,0.05186 0.05162,0.03887 0.05162,0.103777 z"
           style="font-weight:bold;font-stretch:condensed;font-size:8.97089px;line-height:1.25;font-family:'Barlow Condensed';-inkscape-font-specification:'Barlow Condensed,  Bold Condensed';fill:#ffffff;fill-opacity:1;stroke:none;stroke-width:0.242642"
           id="path4876" /><path
           d="m 70.221513,46.162615 q -1.18842,0 -1.898877,-0.700078 -0.710457,-0.70007 -0.710457,-1.866863 V 39.44708 q 0,-1.166793 0.710457,-1.866863 0.710473,-0.700078 1.898877,-0.700078 1.188404,0 1.898861,0.700078 0.723385,0.70007 0.723385,1.866863 v 4.148594 q 0,1.166793 -0.723385,1.866863 -0.710457,0.700078 -1.898861,0.700078 z m 0,-1.568685 q 0.36168,0 0.581278,-0.246322 0.219605,-0.25929 0.219605,-0.67415 v -4.304162 q 0,-0.41486 -0.219605,-0.661182 -0.219598,-0.25929 -0.581278,-0.25929 -0.361705,0 -0.581294,0.25929 -0.206669,0.246322 -0.206669,0.661182 v 4.304162 q 0,0.41486 0.206669,0.67415 0.219589,0.246322 0.581294,0.246322 z"
           style="font-weight:bold;font-stretch:condensed;font-size:8.97089px;line-height:1.25;font-family:'Barlow Condensed';-inkscape-font-specification:'Barlow Condensed,  Bold Condensed';fill:#ffffff;fill-opacity:1;stroke:none;stroke-width:0.242642"
           id="path4878" /><path
           d="m 82.451046,46.162615 q -1.162571,0 -1.873028,-0.725998 -0.697553,-0.738982 -0.697553,-1.957624 v -6.339571 q 0,-0.06476 0.03871,-0.103785 0.05162,-0.05186 0.116227,-0.05186 h 1.511348 q 0.0646,0 0.103363,0.05186 0.05162,0.03887 0.05162,0.103785 v 6.521068 q 0,0.41486 0.206685,0.67415 0.206685,0.25929 0.542533,0.25929 0.335848,0 0.529628,-0.25929 0.206669,-0.25929 0.206669,-0.67415 v -6.521068 q 0,-0.06476 0.03871,-0.103785 0.05162,-0.05186 0.116235,-0.05186 h 1.51134 q 0.0646,0 0.103363,0.05186 0.05162,0.03887 0.05162,0.103785 v 6.339571 q 0,1.218642 -0.710457,1.957624 -0.697536,0.725998 -1.847196,0.725998 z"
           style="font-weight:bold;font-stretch:condensed;font-size:8.97089px;line-height:1.25;font-family:'Barlow Condensed';-inkscape-font-specification:'Barlow Condensed,  Bold Condensed';fill:#ffffff;fill-opacity:1;stroke:none;stroke-width:0.242642"
           id="path4880" /><path
           d="m 95.739976,37.139422 q 0,-0.06476 0.03871,-0.103785 0.0516,-0.05186 0.11623,-0.05186 h 1.49842 q 0.0646,0 0.10336,0.05186 0.0516,0.03887 0.0516,0.103785 v 8.763903 q 0,0.06492 -0.0516,0.116657 -0.0387,0.03887 -0.10336,0.03887 h -1.705149 q -0.129242,0 -0.167932,-0.129657 l -1.601766,-5.017209 q -0.01259,-0.03887 -0.05162,-0.02589 -0.02589,0 -0.02589,0.03887 l 0.01259,4.978313 q 0,0.06476 -0.05162,0.116649 -0.03871,0.03887 -0.103363,0.03887 h -1.498427 q -0.0646,0 -0.116227,-0.03887 -0.03871,-0.05194 -0.03871,-0.116649 V 37.1394 q 0,-0.06476 0.03871,-0.103785 0.05162,-0.05186 0.116227,-0.05186 h 1.692184 q 0.129235,0 0.167924,0.129657 l 1.614694,5.017208 q 0.01259,0.03887 0.03871,0.03887 0.03871,-0.01259 0.03871,-0.05186 z"
           style="font-weight:bold;font-stretch:condensed;font-size:8.97089px;line-height:1.25;font-family:'Barlow Condensed';-inkscape-font-specification:'Barlow Condensed,  Bold Condensed';fill:#ffffff;fill-opacity:1;stroke:none;stroke-width:0.242642"
           id="path4882" /><path
           d="m 104.73992,46.058902 q -0.0646,0 -0.11622,-0.03887 -0.0387,-0.05186 -0.0387,-0.116649 v -8.763911 q 0,-0.06476 0.0387,-0.103641 0.0516,-0.05186 0.11622,-0.05186 h 2.33807 q 1.17549,0 1.88595,0.687117 0.71046,0.687102 0.71046,1.827975 v 4.044873 q 0,1.140857 -0.71046,1.827975 -0.71046,0.687101 -1.88595,0.687101 z m 1.66636,-1.633501 q 0,0.06476 0.0646,0.06476 l 0.58128,-0.01259 q 0.34877,-0.01259 0.56837,-0.298171 0.2196,-0.285218 0.23251,-0.751926 v -3.811535 q 0,-0.492636 -0.21959,-0.777862 -0.21959,-0.285203 -0.5942,-0.285203 h -0.56837 q -0.0646,0 -0.0646,0.06476 z"
           style="font-weight:bold;font-stretch:condensed;font-size:8.97089px;line-height:1.25;font-family:'Barlow Condensed';-inkscape-font-specification:'Barlow Condensed,  Bold Condensed';fill:#ffffff;fill-opacity:1;stroke:none;stroke-width:0.242642"
           id="path4884" /><path
           d="m 120.90366,46.058902 q -0.15499,0 -0.16792,-0.142609 l -0.20668,-1.24457 q 0,-0.06476 -0.0775,-0.06476 h -1.64051 q -0.0775,0 -0.0775,0.06476 l -0.20668,1.24457 q -0.0126,0.142609 -0.16793,0.142609 h -1.51134 q -0.16793,0 -0.12924,-0.168538 l 1.89888,-8.763911 q 0.0259,-0.142593 0.16792,-0.142593 h 1.74385 q 0.14211,0 0.16794,0.142593 l 1.88595,8.763911 0.0126,0.05186 q 0,0.116649 -0.14209,0.116649 z m -1.91178,-2.929936 q 0,0.06476 0.0516,0.06476 h 1.16257 q 0.0646,0 0.0516,-0.06476 l -0.60711,-3.539277 q -0.0126,-0.03887 -0.0387,-0.03887 -0.0259,0 -0.0387,0.03887 z"
           style="font-weight:bold;font-stretch:condensed;font-size:8.97089px;line-height:1.25;font-family:'Barlow Condensed';-inkscape-font-specification:'Barlow Condensed,  Bold Condensed';fill:#ffffff;fill-opacity:1;stroke:none;stroke-width:0.242642"
           id="path4886" /><path
           d="m 134.90235,36.98386 q 0.0646,0 0.10336,0.05186 0.0516,0.03887 0.0516,0.103776 v 1.257554 q 0,0.06476 -0.0516,0.116649 -0.0387,0.03887 -0.10336,0.03887 h -1.61468 q -0.0646,0 -0.0646,0.06476 v 7.285963 q 0,0.06492 -0.0516,0.116649 -0.0387,0.03887 -0.10336,0.03887 h -1.51135 q -0.0646,0 -0.11622,-0.03887 -0.0387,-0.05186 -0.0387,-0.116649 v -7.285963 q 0,-0.06476 -0.0646,-0.06476 h -1.5501 q -0.0646,0 -0.11624,-0.03887 -0.0387,-0.05186 -0.0387,-0.116649 v -1.257554 q 0,-0.06476 0.0387,-0.103776 0.0516,-0.05186 0.11624,-0.05186 z"
           style="font-weight:bold;font-stretch:condensed;font-size:8.97089px;line-height:1.25;font-family:'Barlow Condensed';-inkscape-font-specification:'Barlow Condensed,  Bold Condensed';fill:#ffffff;fill-opacity:1;stroke:none;stroke-width:0.242642"
           id="path4888" /><path
           d="m 142.24895,46.058902 q -0.0646,0 -0.11623,-0.03887 -0.0387,-0.05186 -0.0387,-0.116649 v -8.763911 q 0,-0.06476 0.0387,-0.103641 0.0516,-0.05186 0.11623,-0.05186 h 1.51134 q 0.0646,0 0.10336,0.05186 0.0516,0.03887 0.0516,0.103641 v 8.763911 q 0,0.06492 -0.0516,0.116649 -0.0387,0.03887 -0.10336,0.03887 z"
           style="font-weight:bold;font-stretch:condensed;font-size:8.97089px;line-height:1.25;font-family:'Barlow Condensed';-inkscape-font-specification:'Barlow Condensed,  Bold Condensed';fill:#ffffff;fill-opacity:1;stroke:none;stroke-width:0.242642"
           id="path4890" /><path
           d="m 153.56127,46.162615 q -1.1884,0 -1.89887,-0.700078 -0.71045,-0.70007 -0.71045,-1.866863 V 39.44708 q 0,-1.166793 0.71045,-1.866863 0.71047,-0.700078 1.89887,-0.700078 1.18841,0 1.89887,0.700078 0.72337,0.70007 0.72337,1.866863 v 4.148594 q 0,1.166793 -0.72337,1.866863 -0.71047,0.700078 -1.89887,0.700078 z m 0,-1.568685 q 0.36169,0 0.5813,-0.246322 0.21959,-0.25929 0.21959,-0.67415 v -4.304162 q 0,-0.41486 -0.21959,-0.661182 -0.21961,-0.25929 -0.5813,-0.25929 -0.3617,0 -0.58129,0.25929 -0.20668,0.246322 -0.20668,0.661182 v 4.304162 q 0,0.41486 0.20668,0.67415 0.21959,0.246322 0.58129,0.246322 z"
           style="font-weight:bold;font-stretch:condensed;font-size:8.97089px;line-height:1.25;font-family:'Barlow Condensed';-inkscape-font-specification:'Barlow Condensed,  Bold Condensed';fill:#ffffff;fill-opacity:1;stroke:none;stroke-width:0.242642"
           id="path4892" /><path
           d="m 166.91507,37.139422 q 0,-0.06476 0.0387,-0.103785 0.0518,-0.05186 0.11624,-0.05186 h 1.49842 q 0.0644,0 0.10336,0.05186 0.0518,0.03887 0.0518,0.103785 v 8.763903 q 0,0.06492 -0.0518,0.116657 -0.0387,0.03887 -0.10336,0.03887 h -1.70511 q -0.12923,0 -0.16792,-0.129657 l -1.60177,-5.017209 q -0.0126,-0.03887 -0.0518,-0.02589 -0.0257,0 -0.0257,0.03887 l 0.0126,4.978313 q 0,0.06476 -0.0518,0.116649 -0.0387,0.03887 -0.10336,0.03887 h -1.49842 q -0.0645,0 -0.11623,-0.03887 -0.0387,-0.05194 -0.0387,-0.116649 V 37.1394 q 0,-0.06476 0.0387,-0.103785 0.0518,-0.05186 0.11623,-0.05186 h 1.69219 q 0.1291,0 0.16793,0.129657 l 1.61469,5.017208 q 0.0126,0.03887 0.0387,0.03887 0.0387,-0.01259 0.0387,-0.05186 z"
           style="font-weight:bold;font-stretch:condensed;font-size:8.97089px;line-height:1.25;font-family:'Barlow Condensed';-inkscape-font-specification:'Barlow Condensed,  Bold Condensed';fill:#ffffff;fill-opacity:1;stroke:none;stroke-width:0.242642"
           id="path4894" /></g></g><g
       id="g5577"
       transform="translate(6.498825,-78.336533)"><path
         id="path4852-3"
         style="fill:#ffffff;fill-opacity:1;stroke:none;stroke-width:4.79147;stroke-linecap:round;stroke-linejoin:round;stroke-dasharray:none;paint-order:stroke markers fill"
         d="m 18.289961,80.186458 c -12.81369,5e-5 -23.20123,10.42529 -23.20128,23.285482 5e-5,12.8602 10.38759,23.28545 23.20128,23.2855 12.81368,-5e-5 23.20124,-10.42529 23.20127,-23.2855 -3e-5,-12.860192 -10.38759,-23.285432 -23.20127,-23.285482 z"
         sodipodi:nodetypes="ccccc" /><g
         id="g2005"
         transform="matrix(1,0,0,-1,-4.911319,128.60734)"
         style="fill:#2c5aa0;fill-opacity:1"><path
           id="path4858-6"
           style="fill:#2c5aa0;fill-opacity:1;stroke-width:0.426927;stroke-linecap:round;stroke-linejoin:round;paint-order:stroke markers fill"
           d="m 4.64051,25.135406 a 18.560763,18.812988 0 0 0 18.56077,18.81299 v -18.81299 z" /><path
           id="path4860-7"
           style="fill:#2c5aa0;fill-opacity:1;stroke-width:0.426927;stroke-linecap:round;stroke-linejoin:round;paint-order:stroke markers fill"
           d="M 41.76204,25.135406 A 18.560763,18.812988 0 0 0 23.20128,6.3224161 V 25.135406 Z" /></g><path
         id="path2760"
         style="fill:#ffffff;fill-opacity:1;stroke:none;stroke-width:2.44635;stroke-linecap:round;stroke-linejoin:round;stroke-dasharray:none;paint-order:stroke markers fill"
         d="m 18.289959,91.58322 c -6.542206,2.6e-5 -11.845708,5.322776 -11.845733,11.88872 2.5e-5,6.56596 5.303527,11.88871 11.845733,11.88874 6.5422,-3e-5 11.845712,-5.32278 11.845727,-11.88874 -1.5e-5,-6.565944 -5.303527,-11.888694 -11.845727,-11.88872 z"
         sodipodi:nodetypes="ccccc" /></g></g></svg>
