<?xml version="1.0" encoding="UTF-8" standalone="no"?>
<svg
   inkscape:export-ydpi="96"
   inkscape:export-xdpi="96"
   inkscape:export-filename="/run/user/1000/gvfs/dav:host=cloud.cgil-fvg.net,ssl=true,user=davo%40fvg.cgil.it,prefix=%2Fremote.php%2Fwebdav/Loghi/logo_davo_istantmessaging_v2_27042020.svg.png"
   sodipodi:docname="logo_davosky_connection.svg"
   inkscape:version="1.3 (0e150ed6c4, 2023-07-21)"
   id="svg8"
   version="1.1"
   viewBox="0 0 173.00679 46.570903"
   height="176.01601"
   width="653.88397"
   xml:space="preserve"
   xmlns:inkscape="http://www.inkscape.org/namespaces/inkscape"
   xmlns:sodipodi="http://sodipodi.sourceforge.net/DTD/sodipodi-0.dtd"
   xmlns="http://www.w3.org/2000/svg"
   xmlns:svg="http://www.w3.org/2000/svg"
   xmlns:rdf="http://www.w3.org/1999/02/22-rdf-syntax-ns#"
   xmlns:cc="http://creativecommons.org/ns#"
   xmlns:dc="http://purl.org/dc/elements/1.1/"><defs
     id="defs2" /><sodipodi:namedview
     inkscape:document-rotation="0"
     inkscape:measure-end="0,0"
     inkscape:measure-start="550.341,241.548"
     inkscape:window-maximized="1"
     inkscape:window-y="0"
     inkscape:window-x="32"
     inkscape:window-height="1396"
     inkscape:window-width="2528"
     inkscape:showpageshadow="false"
     units="px"
     showgrid="false"
     inkscape:current-layer="layer1"
     inkscape:document-units="px"
     inkscape:cy="222.77778"
     inkscape:cx="81.666667"
     inkscape:zoom="0.9"
     inkscape:pageshadow="2"
     inkscape:pageopacity="0.0"
     borderopacity="1.0"
     bordercolor="#666666"
     pagecolor="#ffffff"
     id="base"
     inkscape:pagecheckerboard="0"
     inkscape:deskcolor="#d1d1d1" /><metadata
     id="metadata5"><rdf:RDF><cc:Work
         rdf:about=""><dc:format>image/svg+xml</dc:format><dc:type
           rdf:resource="http://purl.org/dc/dcmitype/StillImage" /></cc:Work></rdf:RDF></metadata><g
     transform="translate(0,-161.53331)"
     id="layer1"
     inkscape:groupmode="layer"
     inkscape:label="Livello 1"><g
       aria-label="by Davo Davosky"
       id="text3969"
       style="font-size:1.22231px;font-family:Dunkin;-inkscape-font-specification:Dunkin;fill:#3c629e;stroke-width:0.2151" /><g
       style="font-style:normal;font-weight:normal;font-size:17.7836px;line-height:1.25;font-family:sans-serif;fill:#d45500;fill-opacity:1;stroke:none;stroke-width:0.444589"
       id="text40"
       aria-label="The"
       transform="matrix(0.37868301,0,0,0.37868301,-2.3640051,98.022811)"><path
         id="path865"
         style="font-style:normal;font-variant:normal;font-weight:normal;font-stretch:normal;font-size:17.7836px;font-family:'Lobster Two';-inkscape-font-specification:'Lobster Two, Normal';font-variant-ligatures:normal;font-variant-caps:normal;font-variant-numeric:normal;font-variant-east-asian:normal;fill:#d45500;fill-opacity:1;stroke-width:0.444589"
         d="m 211.54146,186.66967 c 0,-2.79202 1.58274,-3.55672 3.57451,-3.62785 l -2.54306,11.80831 h 2.56084 l 2.50749,-11.64826 c 0.81804,0.1067 1.61831,0.24897 2.34743,0.30232 l -2.43635,11.34594 h 2.56084 c 0.4268,-2.36522 0.78248,-4.26807 1.0848,-5.81524 0.26675,-0.83583 0.72912,-1.52939 1.35155,-1.52939 0.42681,0 0.64021,0.32011 0.64021,0.90697 0,1.13815 -0.80026,3.32553 -0.80026,4.53481 0,1.01367 0.55129,2.00955 2.09846,2.00955 0.94253,0 2.31187,-0.37346 3.30775,-3.28997 h -0.74691 c -0.39124,0.92475 -0.71134,1.56496 -1.49382,1.56496 -0.53351,0 -0.71134,-0.30232 -0.71134,-0.74691 0,-0.99588 0.85361,-3.1477 0.85361,-4.58817 0,-1.42269 -0.83583,-2.00955 -1.97398,-2.00955 -0.56908,0 -1.35156,0.16006 -2.11625,1.03145 0.81805,-4.05466 1.06702,-4.57038 1.49382,-5.35286 -0.49794,0.3201 -1.28042,0.42681 -2.15181,0.42681 -1.81393,0 -3.98353,-0.46238 -4.80157,-0.46238 -4.39255,0 -6.25983,2.25852 -6.25983,4.62374 0,1.28042 0.67577,1.72501 1.90284,1.72501 -0.0178,-0.16006 -0.24897,-0.30232 -0.24897,-1.20929 z" /><path
         id="path867"
         style="font-style:normal;font-variant:normal;font-weight:normal;font-stretch:normal;font-size:17.7836px;font-family:'Lobster Two';-inkscape-font-specification:'Lobster Two, Normal';font-variant-ligatures:normal;font-variant-caps:normal;font-variant-numeric:normal;font-variant-east-asian:normal;fill:#d45500;fill-opacity:1;stroke-width:0.444589"
         d="m 229.46732,191.25784 c 2.13403,-0.12448 4.09023,-1.65387 4.09023,-3.6812 0,-0.88918 -0.37346,-1.70723 -1.9562,-1.70723 -3.64564,0 -4.80157,4.2325 -4.80157,6.25983 0,2.00954 1.10258,2.82759 2.75646,2.82759 1.42269,0 2.70311,-0.60464 3.07656,-2.63197 -0.56907,0.49794 -1.42269,0.94253 -2.09846,0.94253 -0.88918,0 -1.10259,-0.74691 -1.10259,-1.45826 0,-0.19562 0.0178,-0.37345 0.0356,-0.55129 z m 2.72089,-3.71677 c 0,1.45825 -1.20928,2.79202 -2.5964,2.86316 0.37345,-1.67166 1.26263,-3.59229 2.15181,-3.59229 0.33789,0 0.44459,0.28454 0.44459,0.72913 z" /></g><path
       inkscape:connector-curvature="0"
       id="path4564"
       d="M 23.285187,161.55674 C 10.433762,161.55751 -2.8941521e-6,171.99143 -1.367717e-7,184.843 2.5950774e-6,197.69492 10.434347,208.12764 23.286262,208.12764 c 12.851919,0 23.284649,-10.43272 23.284654,-23.28464 0,-8.57291 -4.642274,-16.07 -11.548029,-20.11191 -3.271842,-1.915 -12.335884,-4.01966 -20.638911,3.43999 v 1.41663 c 9.396372,-7.77673 16.726849,-5.47504 19.758975,-3.73799 6.580596,3.76993 11.012412,10.85857 11.012412,18.99328 -2e-6,12.08726 -9.781827,21.87125 -21.869101,21.87125 -12.087268,0 -21.8707087,-9.78399 -21.8707115,-21.87125 -2.8e-6,-12.08694 9.7828585,-21.87014 21.8696365,-21.8707 z m 0,8.89529 A 14.390434,14.390434 0 0 0 9.1124389,182.44405 H 19.619951 a 4.3838161,4.3838161 0 0 1 3.665775,-1.98564 4.3838161,4.3838161 0 0 1 3.667929,1.98564 h 10.51883 A 14.390434,14.390434 0 0 0 23.285187,170.45203 Z m -11.158978,13.01044 v 2.7589 h 7.00393 a 4.3838161,4.3838161 0 0 1 -0.22847,-1.37945 4.3838161,4.3838161 0 0 1 0.226853,-1.37945 z m 15.31456,0 a 4.3838161,4.3838161 0 0 1 0.229017,1.37945 4.3838161,4.3838161 0 0 1 -0.226845,1.37945 h 7.002314 v -2.7589 z m -18.34234,3.7784 a 14.390434,14.390434 0 0 0 14.186758,11.9915 14.390434,14.390434 0 0 0 14.173287,-11.9915 H 26.950962 a 4.3838161,4.3838161 0 0 1 -3.665236,1.98511 4.3838161,4.3838161 0 0 1 -3.667391,-1.98511 z"
       style="color:#000000;font-style:normal;font-variant:normal;font-weight:normal;font-stretch:normal;font-size:medium;line-height:normal;font-family:sans-serif;font-variant-ligatures:normal;font-variant-position:normal;font-variant-caps:normal;font-variant-numeric:normal;font-variant-alternates:normal;font-feature-settings:normal;text-indent:0;text-align:start;text-decoration:none;text-decoration-line:none;text-decoration-style:solid;text-decoration-color:#000000;letter-spacing:normal;word-spacing:normal;text-transform:none;writing-mode:lr-tb;direction:ltr;text-orientation:mixed;dominant-baseline:auto;baseline-shift:baseline;text-anchor:start;white-space:normal;shape-padding:0;clip-rule:nonzero;display:inline;overflow:visible;visibility:visible;isolation:auto;mix-blend-mode:normal;color-interpolation:sRGB;color-interpolation-filters:linearRGB;solid-color:#000000;solid-opacity:1;vector-effect:none;fill:#d45500;fill-opacity:1;fill-rule:nonzero;stroke:none;stroke-width:1.41485;stroke-linecap:round;stroke-linejoin:round;stroke-miterlimit:4;stroke-dasharray:none;stroke-dashoffset:0;stroke-opacity:1;color-rendering:auto;image-rendering:auto;shape-rendering:auto;text-rendering:auto;enable-background:accumulate" /><path
       id="path870"
       style="font-style:normal;font-variant:normal;font-weight:normal;font-stretch:normal;font-size:93.855px;line-height:1.25;font-family:'Lobster Two';-inkscape-font-specification:'Lobster Two';fill:#d45500;fill-opacity:1;stroke:none;stroke-width:0.88853"
       d="m 61.122978,170.79726 -4.833615,22.60426 h 5.117945 l 0.284332,-1.42164 c 1.528273,1.31503 2.985466,1.88368 4.336037,1.88368 5.260112,0 9.844936,-8.84979 9.844936,-16.66885 0,-5.86433 -2.594511,-10.44914 -9.631688,-10.44914 -7.001638,0 -13.079196,4.51372 -13.079196,9.38287 0,2.41682 1.457192,3.30536 3.802916,3.30536 -0.106614,-0.31988 -0.497577,-0.74637 -0.497577,-2.41681 0,-5.40227 4.158334,-8.63652 9.027487,-8.63652 3.696294,0 5.473359,1.84813 5.473359,7.17933 0,6.46852 -2.594511,15.17612 -6.823926,15.17612 -0.675282,0 -1.350571,-0.21318 -2.025853,-0.71082 l 4.264955,-19.93866 z" /><path
       id="path872"
       style="font-style:normal;font-variant:normal;font-weight:normal;font-stretch:normal;font-size:93.855px;line-height:1.25;font-family:'Lobster Two';-inkscape-font-specification:'Lobster Two';fill:#d45500;fill-opacity:1;stroke:none;stroke-width:0.88853"
       d="m 88.845127,175.63089 -0.355414,1.67045 c -0.248801,-1.63491 -1.741525,-1.84817 -2.914384,-1.84817 -6.184186,0 -9.134117,7.64139 -9.134117,12.43947 0,4.2294 2.310187,5.72215 4.726996,5.72215 2.523429,0 4.229413,-1.67045 5.295651,-3.30534 0.284329,2.02583 1.563815,3.09207 3.483046,3.09207 1.919229,0 5.117946,-0.56866 7.143801,-6.36188 h -1.492734 c -0.533121,1.77707 -1.492733,3.12763 -2.878845,3.12763 -0.995156,0 -1.457192,-0.31987 -1.457192,-1.31502 0,-0.31988 0.03557,-0.6753 0.142159,-1.13731 l 2.594513,-12.08405 z m -2.16802,2.02583 c 1.101779,0 1.421651,0.92408 1.457193,1.35059 l -1.705981,8.03233 c -0.426495,2.06139 -1.919231,3.12763 -2.94993,3.12763 -0.639742,0 -1.777065,-0.0355 -1.777065,-2.77221 0,-3.34088 1.954774,-9.73834 4.975783,-9.73834 z" /><path
       id="path874"
       style="font-style:normal;font-variant:normal;font-weight:normal;font-stretch:normal;font-size:93.855px;line-height:1.25;font-family:'Lobster Two';-inkscape-font-specification:'Lobster Two';fill:#d45500;fill-opacity:1;stroke:none;stroke-width:0.88853"
       d="m 107.53981,174.92005 c -1.49273,0 -2.20356,0.81746 -2.20356,1.91924 0,0.7819 0.4265,1.8126 1.27949,1.8126 0.28433,0 1.0307,-0.10677 1.13732,-0.3554 0,3.90953 -2.66559,11.87078 -6.14864,11.87078 -0.85299,0 -1.20841,-0.46205 -1.20841,-1.17286 0,-0.31988 0.0711,-0.78192 0.1777,-1.27947 l 2.55898,-12.08405 h -5.11795 l -2.558974,12.08405 c -0.142158,0.67527 -0.177698,1.31501 -0.177698,1.70597 0,2.80776 1.670439,4.19388 4.371579,4.19388 7.250423,0 10.129273,-9.91603 10.129273,-15.60265 0,-1.56382 -0.53312,-3.09209 -2.23911,-3.09209 z" /><path
       id="path876"
       style="font-style:normal;font-variant:normal;font-weight:normal;font-stretch:normal;font-size:93.855px;line-height:1.25;font-family:'Lobster Two';-inkscape-font-specification:'Lobster Two';fill:#d45500;fill-opacity:1;stroke:none;stroke-width:0.88853"
       d="m 129.78865,175.23993 c -1.99031,3.4475 -3.90954,5.47335 -5.68661,5.65108 -0.0711,-3.62522 -1.56381,-5.43784 -4.54928,-5.43784 -7.32151,0 -9.73832,8.45883 -9.73832,12.54608 0,4.05172 2.38127,5.61554 5.68661,5.61554 4.40712,0 7.99679,-4.19388 8.52991,-10.9112 2.16802,-0.67527 4.15834,-2.27462 5.86431,-4.86915 0.39096,6.57514 0.78191,7.67691 0.78191,9.66723 0,2.4879 -0.67528,3.30534 -2.2391,3.30534 -1.35057,0 -2.06139,-0.99513 -2.06139,-2.6656 0.1777,0.35542 0.6042,0.46204 0.95961,0.46204 0.92408,0 1.70598,-0.74636 1.70598,-1.59936 0,-1.03069 -0.63974,-1.49274 -1.84815,-1.49274 -1.24394,0 -2.55897,1.2795 -2.55897,3.37644 0,2.16802 0.71083,4.727 4.94024,4.727 1.91923,0 4.01617,-0.63976 5.22457,-2.41682 1.52828,-0.95963 3.26981,-2.23909 4.94024,-4.15833 h -1.49273 c -0.67528,0.53312 -1.56382,1.20842 -2.52344,1.74154 0.0711,-0.39097 0.10664,-0.853 0.10664,-1.31505 0,-2.34571 -0.35542,-3.73183 -0.78191,-12.93702 z m -12.86595,15.03396 c -1.35057,0 -1.8126,-0.53312 -1.8126,-2.87883 0,-3.48306 2.20356,-9.80941 4.72699,-9.80941 0.88853,0 1.27949,0.49758 1.35057,1.91924 -0.63975,0.24866 -1.10179,0.88854 -1.10179,1.88367 0,0.92408 0.31988,1.4572 0.95962,1.63493 -0.56866,4.15833 -2.38127,7.2504 -4.12279,7.2504 z" /><path
       id="path878"
       style="font-style:normal;font-variant:normal;font-weight:normal;font-stretch:normal;font-size:93.855px;line-height:1.25;font-family:'Lobster Two';-inkscape-font-specification:'Lobster Two';fill:#d45500;fill-opacity:1;stroke:none;stroke-width:0.88853"
       d="m 151.50435,175.63089 -6.85946,5.40227 2.66558,-12.51054 -5.2601,0.71082 -5.15348,24.16808 h 5.11794 l 1.84814,-8.77869 c 0.99516,-0.81745 1.81262,-1.31503 2.63006,-1.31503 0.92407,0 1.27949,0.67527 1.27949,1.70597 0,1.49275 -0.63974,2.91441 -0.63974,4.5493 0,2.59451 1.56381,4.05172 4.4782,4.05172 1.6349,0 4.51374,-0.60421 6.5396,-6.57515 h -1.49274 c -0.78191,1.84815 -1.42165,3.12763 -2.98547,3.12763 -1.10178,0 -1.38611,-0.6042 -1.38611,-1.31502 0,-1.38612 0.71082,-2.73667 0.71082,-4.26495 0,-2.27466 -1.27948,-4.15833 -3.90954,-4.15833 -0.39095,0 -0.7819,0.071 -1.17286,0.14221 l 7.10827,-4.94024 z" /><path
       id="path880"
       style="font-style:normal;font-variant:normal;font-weight:normal;font-stretch:normal;font-size:93.855px;line-height:1.25;font-family:'Lobster Two';-inkscape-font-specification:'Lobster Two';fill:#d45500;fill-opacity:1;stroke:none;stroke-width:0.88853"
       d="m 159.07464,175.63089 -2.41682,11.40875 c -0.17769,0.853 -0.28432,1.63489 -0.28432,2.31019 0,2.98545 1.67043,4.26496 3.80291,4.26496 1.20841,0 2.80777,-0.31988 4.33604,-2.0614 l -0.35541,1.56382 c -3.37643,0.99515 -6.14864,2.02585 -6.14864,5.33118 0,2.31018 2.02585,3.83846 4.19388,3.83846 2.34571,0 5.40227,-0.95962 6.4685,-6.04201 l 4.33605,-20.61395 h -5.1535 l -2.41681,11.40875 c -0.53312,1.77707 -1.45719,3.12763 -2.84329,3.12763 -0.81746,0 -1.06624,-0.74636 -1.06624,-1.56382 0,-0.28432 0.0355,-0.6042 0.10664,-0.88851 l 2.55897,-12.08405 z m 0.88853,22.31993 c 0,-1.91924 1.70597,-2.94994 3.94508,-3.6963 l -0.4265,2.09694 c -0.46203,2.09693 -1.3861,2.77221 -2.09693,2.77221 -0.7819,0 -1.42165,-0.67528 -1.42165,-1.17285 z" /><path
       style="color:#000000;font-size:1.22231px;font-family:Dunkin;-inkscape-font-specification:'Lobster Two, Normal';fill:#d45500;fill-opacity:1;stroke-width:0.549178;-inkscape-stroke:none"
       d="m 133.24765,205.10255 c -0.0156,0.0656 -0.022,0.12477 -0.022,0.17795 0,0.24969 0.14978,0.39946 0.43691,0.39946 0.66158,0 0.85506,-0.68967 0.85506,-1.0548 0,-0.39635 -0.14979,-0.53989 -0.36824,-0.53989 -0.0624,0 -0.12794,0.0153 -0.2559,0.0937 l 0.1498,-0.70216 -0.46187,0.0623 z m 0.95494,-0.48996 c 0,0.32767 -0.16228,0.76456 -0.36513,0.76456 -0.11238,0 -0.16539,-0.0531 -0.16539,-0.14348 0,-0.023 0.003,-0.0468 0.009,-0.0718 l 0.17165,-0.79264 c 0.0344,-0.0406 0.14042,-0.0562 0.18412,-0.0562 0.11239,0 0.1654,0.14655 0.1654,0.29958 z"
       id="path13069" /><path
       style="color:#000000;font-size:1.22231px;font-family:Dunkin;-inkscape-font-specification:'Lobster Two, Normal';fill:#d45500;fill-opacity:1;stroke-width:0.549178;-inkscape-stroke:none"
       d="m 134.84545,204.1008 -0.21222,1.00175 c -0.0156,0.0748 -0.025,0.14348 -0.025,0.20297 0,0.26213 0.14668,0.37449 0.33392,0.37449 0.10613,0 0.24653,-0.0281 0.38073,-0.18102 l -0.0312,0.13736 c -0.29647,0.0874 -0.53989,0.17796 -0.53989,0.46812 0,0.20297 0.17788,0.33703 0.36824,0.33703 0.20597,0 0.47435,-0.0843 0.56798,-0.53051 l 0.38072,-1.81001 h -0.4525 l -0.21222,1.00174 c -0.0467,0.15599 -0.12794,0.27461 -0.24965,0.27461 -0.0718,0 -0.0936,-0.0656 -0.0936,-0.13735 0,-0.0256 0.003,-0.0531 0.009,-0.0782 l 0.22471,-1.06103 z m 0.078,1.9598 c 0,-0.1685 0.1498,-0.25901 0.34641,-0.32455 l -0.0374,0.18408 c -0.0406,0.18408 -0.12171,0.24332 -0.18414,0.24332 -0.0686,0 -0.12477,-0.0593 -0.12477,-0.10294 z"
       id="path13071" /><path
       style="color:#000000;font-size:1.22231px;font-family:Dunkin;-inkscape-font-specification:'Lobster Two, Normal';fill:#d45500;fill-opacity:1;stroke-width:0.549178;-inkscape-stroke:none"
       d="m 137.63848,203.67636 -0.42441,1.98478 h 0.44938 l 0.025,-0.1249 c 0.1342,0.11545 0.26214,0.16544 0.38074,0.16544 0.46185,0 0.86442,-0.77704 0.86442,-1.4636 0,-0.51492 -0.22781,-0.9175 -0.8457,-0.9175 -0.61478,0 -1.14842,0.39633 -1.14842,0.82387 0,0.21217 0.12795,0.29024 0.33391,0.29024 -0.009,-0.0281 -0.0437,-0.0656 -0.0437,-0.21216 0,-0.47434 0.36513,-0.75833 0.79267,-0.75833 0.32456,0 0.48059,0.16238 0.48059,0.63037 0,0.56797 -0.22782,1.33255 -0.59918,1.33255 -0.0593,0 -0.11865,-0.0179 -0.17788,-0.0626 l 0.37449,-1.75071 z"
       id="path13073" /><path
       style="color:#000000;font-size:1.22231px;font-family:Dunkin;-inkscape-font-specification:'Lobster Two, Normal';fill:#d45500;fill-opacity:1;stroke-width:0.549178;-inkscape-stroke:none"
       d="m 140.07264,204.1008 -0.0312,0.14655 c -0.022,-0.14348 -0.15291,-0.16239 -0.25591,-0.16239 -0.543,0 -0.80202,0.67094 -0.80202,1.09226 0,0.37136 0.20285,0.50243 0.41505,0.50243 0.22157,0 0.37138,-0.14681 0.46499,-0.29024 0.025,0.17795 0.13732,0.2715 0.30583,0.2715 0.1685,0 0.44939,-0.0501 0.62727,-0.55859 h -0.13108 c -0.0469,0.15598 -0.13107,0.2746 -0.25278,0.2746 -0.0874,0 -0.12794,-0.0281 -0.12794,-0.11545 0,-0.0281 0.003,-0.0593 0.0128,-0.0999 l 0.22781,-1.06103 z m -0.19037,0.17795 c 0.0967,0 0.12478,0.0812 0.12797,0.11852 l -0.14979,0.70528 c -0.0374,0.18101 -0.1685,0.2746 -0.25903,0.2746 -0.0562,0 -0.15605,-0.003 -0.15605,-0.2433 0,-0.29333 0.17166,-0.85507 0.4369,-0.85507 z"
       id="path13075" /><path
       style="color:#000000;font-size:1.22231px;font-family:Dunkin;-inkscape-font-specification:'Lobster Two, Normal';fill:#d45500;fill-opacity:1;stroke-width:0.549178;-inkscape-stroke:none"
       d="m 141.71413,204.03837 c -0.13108,0 -0.19348,0.0718 -0.19348,0.16851 0,0.0687 0.0374,0.15906 0.11239,0.15906 0.025,0 0.0905,-0.0102 0.0999,-0.0312 0,0.34329 -0.23405,1.04231 -0.53989,1.04231 -0.075,0 -0.10613,-0.0406 -0.10613,-0.10294 0,-0.0281 0.006,-0.0687 0.0156,-0.11238 l 0.2247,-1.06103 h -0.44938 l -0.22471,1.06103 c -0.0128,0.0593 -0.0156,0.11545 -0.0156,0.14986 0,0.24663 0.14668,0.36826 0.38385,0.36826 0.63662,0 0.8894,-0.87069 0.8894,-1.37 0,-0.13737 -0.0468,-0.2715 -0.19659,-0.2715 z"
       id="path13077" /><path
       style="color:#000000;font-size:1.22231px;font-family:Dunkin;-inkscape-font-specification:'Lobster Two, Normal';fill:#d45500;fill-opacity:1;stroke-width:0.549178;-inkscape-stroke:none"
       d="m 142.76893,204.08519 c -0.64286,0 -0.85508,0.74274 -0.85508,1.10161 0,0.35578 0.20908,0.49308 0.49933,0.49308 0.3932,0 0.71463,-0.38072 0.74896,-0.98614 0.16227,-0.0937 0.25278,-0.28399 0.31519,-0.41506 h -0.0999 c -0.0312,0.0562 -0.10919,0.18713 -0.2122,0.21522 -0.022,-0.27149 -0.15291,-0.40881 -0.39634,-0.40881 z m -0.23093,1.30134 c -0.11864,0 -0.15917,-0.0468 -0.15917,-0.25276 0,-0.30582 0.19349,-0.8613 0.41507,-0.8613 0.078,0 0.10919,0.0437 0.11864,0.16544 -0.0562,0.023 -0.0967,0.0782 -0.0967,0.16545 0,0.0812 0.0281,0.1279 0.0843,0.14348 -0.0499,0.36512 -0.2091,0.63974 -0.36199,0.63974 z"
       id="path13079" /><path
       style="color:#000000;font-size:1.22231px;font-family:Dunkin;-inkscape-font-specification:'Lobster Two, Normal';fill:#d45500;fill-opacity:1;stroke-width:0.549178;-inkscape-stroke:none"
       d="m 144.95967,203.67636 -0.42442,1.98478 h 0.44939 l 0.025,-0.1249 c 0.13419,0.11545 0.26214,0.16544 0.38072,0.16544 0.46187,0 0.86444,-0.77704 0.86444,-1.4636 0,-0.51492 -0.22781,-0.9175 -0.84572,-0.9175 -0.61477,0 -1.14842,0.39633 -1.14842,0.82387 0,0.21217 0.12794,0.29024 0.33392,0.29024 -0.009,-0.0281 -0.0437,-0.0656 -0.0437,-0.21216 0,-0.47434 0.36512,-0.75833 0.79266,-0.75833 0.32455,0 0.48059,0.16238 0.48059,0.63037 0,0.56797 -0.22781,1.33255 -0.59917,1.33255 -0.0593,0 -0.11865,-0.0179 -0.17788,-0.0626 l 0.37448,-1.75071 z"
       id="path13081" /><path
       style="color:#000000;font-size:1.22231px;font-family:Dunkin;-inkscape-font-specification:'Lobster Two, Normal';fill:#d45500;fill-opacity:1;stroke-width:0.549178;-inkscape-stroke:none"
       d="m 147.39382,204.1008 -0.0312,0.14655 c -0.022,-0.14348 -0.15291,-0.16239 -0.2559,-0.16239 -0.543,0 -0.80202,0.67094 -0.80202,1.09226 0,0.37136 0.20285,0.50243 0.41505,0.50243 0.22156,0 0.37136,-0.14681 0.46499,-0.29024 0.025,0.17795 0.1373,0.2715 0.30583,0.2715 0.1685,0 0.44938,-0.0501 0.62726,-0.55859 h -0.13107 c -0.0469,0.15598 -0.13109,0.2746 -0.2528,0.2746 -0.0874,0 -0.12795,-0.0281 -0.12795,-0.11545 0,-0.0281 0.003,-0.0593 0.0128,-0.0999 l 0.22783,-1.06103 z m -0.19036,0.17795 c 0.0967,0 0.12478,0.0812 0.12793,0.11852 l -0.14979,0.70528 c -0.0374,0.18101 -0.16853,0.2746 -0.25901,0.2746 -0.0562,0 -0.15605,-0.003 -0.15605,-0.2433 0,-0.29333 0.17164,-0.85507 0.4369,-0.85507 z"
       id="path13083" /><path
       style="color:#000000;font-size:1.22231px;font-family:Dunkin;-inkscape-font-specification:'Lobster Two, Normal';fill:#d45500;fill-opacity:1;stroke-width:0.549178;-inkscape-stroke:none"
       d="m 149.03531,204.03837 c -0.13107,0 -0.19347,0.0718 -0.19347,0.16851 0,0.0687 0.0374,0.15906 0.11239,0.15906 0.025,0 0.0905,-0.0102 0.0999,-0.0312 0,0.34329 -0.23405,1.04231 -0.53989,1.04231 -0.0748,0 -0.10613,-0.0406 -0.10613,-0.10294 0,-0.0281 0.006,-0.0687 0.0156,-0.11238 l 0.22471,-1.06103 h -0.44939 l -0.2247,1.06103 c -0.0128,0.0593 -0.0156,0.11545 -0.0156,0.14986 0,0.24663 0.14669,0.36826 0.38385,0.36826 0.63663,0 0.88941,-0.87069 0.88941,-1.37 0,-0.13737 -0.0467,-0.2715 -0.1966,-0.2715 z"
       id="path13085" /><path
       style="color:#000000;font-size:1.22231px;font-family:Dunkin;-inkscape-font-specification:'Lobster Two, Normal';fill:#d45500;fill-opacity:1;stroke-width:0.549178;-inkscape-stroke:none"
       d="m 150.98888,204.06646 c -0.17476,0.30273 -0.34328,0.4806 -0.49932,0.4962 -0.006,-0.31832 -0.1373,-0.47747 -0.39944,-0.47747 -0.64288,0 -0.85508,0.74274 -0.85508,1.10161 0,0.35578 0.2091,0.49308 0.49931,0.49308 0.38697,0 0.70216,-0.36826 0.74898,-0.95806 0.19036,-0.0593 0.36512,-0.19966 0.51491,-0.42755 0.0343,0.57735 0.0687,0.67408 0.0687,0.84884 0,0.21855 -0.0593,0.29022 -0.19659,0.29022 -0.11864,0 -0.18099,-0.0874 -0.18099,-0.23413 0.0156,0.0312 0.053,0.0406 0.0843,0.0406 0.0811,0 0.14979,-0.0656 0.14979,-0.14042 0,-0.0904 -0.0562,-0.13098 -0.16228,-0.13098 -0.10919,0 -0.2247,0.11239 -0.2247,0.29647 0,0.19047 0.0624,0.41506 0.43379,0.41506 0.1685,0 0.35264,-0.0562 0.45874,-0.21216 0.13419,-0.0843 0.28711,-0.19659 0.43377,-0.36512 h -0.13107 c -0.0593,0.0467 -0.1373,0.10626 -0.22157,0.15294 0.006,-0.0342 0.009,-0.0748 0.009,-0.11546 0,-0.20603 -0.0312,-0.32765 -0.0687,-1.13593 z m -1.1297,1.32007 c -0.11865,0 -0.15916,-0.0468 -0.15916,-0.25276 0,-0.30582 0.19348,-0.8613 0.41505,-0.8613 0.078,0 0.11239,0.0437 0.11865,0.1685 -0.0562,0.023 -0.0967,0.0782 -0.0967,0.16545 0,0.0812 0.0281,0.12791 0.0843,0.14349 -0.0499,0.36511 -0.2091,0.63662 -0.36201,0.63662 z"
       id="path13087" /><path
       style="color:#000000;font-size:1.22231px;font-family:Dunkin;-inkscape-font-specification:'Lobster Two, Normal';fill:#d45500;fill-opacity:1;stroke-width:0.549178;-inkscape-stroke:none"
       d="m 152.89564,204.1008 -0.6023,0.47435 0.23404,-1.09849 -0.46185,0.0623 -0.45251,2.12209 h 0.44938 l 0.16228,-0.77082 c 0.0874,-0.0718 0.15916,-0.11545 0.23093,-0.11545 0.0811,0 0.11239,0.0593 0.11239,0.14987 0,0.13097 -0.0562,0.25589 -0.0562,0.39943 0,0.22774 0.13731,0.35578 0.39321,0.35578 0.14357,0 0.39633,-0.0531 0.57421,-0.57733 h -0.13107 c -0.0687,0.16237 -0.12478,0.2746 -0.26214,0.2746 -0.0967,0 -0.12171,-0.0531 -0.12171,-0.11545 0,-0.12184 0.0624,-0.24025 0.0624,-0.37449 0,-0.19965 -0.11239,-0.36513 -0.34328,-0.36513 -0.0343,0 -0.0687,0.005 -0.10293,0.0128 l 0.62414,-0.43377 z"
       id="path13089" /><path
       style="color:#000000;font-size:1.22231px;font-family:Dunkin;-inkscape-font-specification:'Lobster Two, Normal';fill:#d45500;fill-opacity:1;stroke-width:0.549178;-inkscape-stroke:none"
       d="m 153.56035,204.1008 -0.21221,1.00175 c -0.0156,0.0748 -0.025,0.14348 -0.025,0.20297 0,0.26213 0.14668,0.37449 0.33392,0.37449 0.10613,0 0.24652,-0.0281 0.38072,-0.18102 l -0.0312,0.13736 c -0.29647,0.0874 -0.53989,0.17796 -0.53989,0.46812 0,0.20297 0.17788,0.33703 0.36826,0.33703 0.20596,0 0.47434,-0.0843 0.56796,-0.53051 l 0.38073,-1.81001 h -0.45251 l -0.21222,1.00174 c -0.0469,0.15599 -0.12792,0.27461 -0.24966,0.27461 -0.0718,0 -0.0936,-0.0656 -0.0936,-0.13735 0,-0.0256 0.003,-0.0531 0.009,-0.0782 l 0.22469,-1.06103 z m 0.078,1.9598 c 0,-0.1685 0.14979,-0.25901 0.34639,-0.32455 l -0.0374,0.18408 c -0.0406,0.18408 -0.12171,0.24332 -0.18414,0.24332 -0.0687,0 -0.12477,-0.0593 -0.12477,-0.10294 z"
       id="path13091" /><path
       id="path883"
       style="font-style:normal;font-variant:normal;font-weight:normal;font-stretch:normal;font-size:28.1463px;line-height:1.25;font-family:'Lobster Two';-inkscape-font-specification:'Lobster Two, Normal';font-variant-ligatures:normal;font-variant-caps:normal;font-variant-numeric:normal;font-variant-east-asian:normal;fill:#d45500;fill-opacity:1;stroke:none;stroke-width:0.266463"
       d="m 114.55344,198.56538 c 0.12792,0.0853 0.3091,0.12791 0.42634,0.12791 0.3091,0 0.56491,-0.37304 0.56491,-0.89531 0,-0.4583 -0.23448,-0.93794 -1.1831,-0.93794 -2.16368,0 -2.86714,2.53672 -2.86714,3.7518 0,1.20441 0.66083,1.69469 1.66273,1.69469 1.41758,0 2.32356,-0.99122 2.93109,-1.97181 h -0.36239 c -0.53292,0.60753 -1.04453,1.07651 -1.88656,1.07651 -0.51161,0 -0.81004,-0.18127 -0.81004,-0.90599 0,-1.16177 0.67148,-3.08032 1.40692,-3.08032 0.20251,0 0.29844,0.14911 0.29844,0.39438 0,0.18127 -0.0746,0.5116 -0.1812,0.7461 z" /><path
       id="path885"
       style="font-style:normal;font-variant:normal;font-weight:normal;font-stretch:normal;font-size:28.1463px;line-height:1.25;font-family:'Lobster Two';-inkscape-font-specification:'Lobster Two, Normal';font-variant-ligatures:normal;font-variant-caps:normal;font-variant-numeric:normal;font-variant-east-asian:normal;fill:#d45500;fill-opacity:1;stroke:none;stroke-width:0.266463"
       d="m 118.49709,196.86002 c -2.19566,0 -2.92044,2.53671 -2.92044,3.76244 0,1.21508 0.71412,1.68404 1.70536,1.68404 1.311,0 2.38751,-1.24704 2.55805,-3.22952 0.76742,-0.12792 1.47088,-0.44767 1.8759,-0.88466 l -0.0959,-0.28776 c -0.45832,0.31975 -1.15112,0.6395 -1.64141,0.6395 -0.032,0 -0.0746,0 -0.11724,-0.0102 -0.0107,-1.10849 -0.45832,-1.6734 -1.36429,-1.6734 z m -0.78874,4.44458 c -0.40502,0 -0.54358,-0.15982 -0.54358,-0.86333 0,-1.04454 0.66083,-2.94175 1.41758,-2.94175 0.26647,0 0.38371,0.15983 0.40503,0.59687 -0.19184,0.0746 -0.33042,0.26648 -0.33042,0.56491 0,0.21319 0.064,0.39436 0.28778,0.44767 -0.15987,1.25769 -0.71412,2.19563 -1.23639,2.19563 z" /><path
       id="path887"
       style="font-style:normal;font-variant:normal;font-weight:normal;font-stretch:normal;font-size:28.1463px;line-height:1.25;font-family:'Lobster Two';-inkscape-font-specification:'Lobster Two, Normal';font-variant-ligatures:normal;font-variant-caps:normal;font-variant-numeric:normal;font-variant-east-asian:normal;fill:#d45500;fill-opacity:1;stroke:none;stroke-width:0.266463"
       d="m 123.47461,198.38418 c 0,0.68215 -0.47964,1.99313 -0.47964,2.71791 0,0.60755 0.33042,1.20441 1.25771,1.20441 0.5649,0 1.38561,-0.2239 1.98249,-1.9718 h -0.44766 c -0.23448,0.55423 -0.42634,0.93794 -0.89532,0.93794 -0.31975,0 -0.42634,-0.18126 -0.42634,-0.44766 0,-0.59687 0.51161,-1.88656 0.51161,-2.7499 0,-0.85267 -0.50095,-1.20441 -1.18309,-1.20441 -0.33042,0 -0.7994,0.0853 -1.24705,0.59686 l 0.11724,-0.55423 h -1.53483 l -1.12981,5.32926 h 1.53483 l 0.72478,-3.42139 c 0.15988,-0.53293 0.44766,-0.98057 0.83137,-0.98057 0.2558,0 0.3837,0.19173 0.3837,0.54358 z" /><path
       id="path889"
       style="font-style:normal;font-variant:normal;font-weight:normal;font-stretch:normal;font-size:28.1463px;line-height:1.25;font-family:'Lobster Two';-inkscape-font-specification:'Lobster Two, Normal';font-variant-ligatures:normal;font-variant-caps:normal;font-variant-numeric:normal;font-variant-east-asian:normal;fill:#d45500;fill-opacity:1;stroke:none;stroke-width:0.266463"
       d="m 128.85716,198.38418 c 0,0.68215 -0.47964,1.99313 -0.47964,2.71791 0,0.60755 0.33041,1.20441 1.25771,1.20441 0.5649,0 1.3856,-0.2239 1.98249,-1.9718 h -0.44767 c -0.23448,0.55423 -0.42634,0.93794 -0.89531,0.93794 -0.31975,0 -0.42634,-0.18126 -0.42634,-0.44766 0,-0.59687 0.51161,-1.88656 0.51161,-2.7499 0,-0.85267 -0.50095,-1.20441 -1.18309,-1.20441 -0.33042,0 -0.7994,0.0853 -1.24706,0.59686 l 0.11724,-0.55423 h -1.53483 l -1.1298,5.32926 h 1.53483 l 0.72478,-3.42139 c 0.15988,-0.53293 0.44765,-0.98057 0.83136,-0.98057 0.25581,0 0.38371,0.19173 0.38371,0.54358 z" /><path
       id="path891"
       style="font-style:normal;font-variant:normal;font-weight:normal;font-stretch:normal;font-size:28.1463px;line-height:1.25;font-family:'Lobster Two';-inkscape-font-specification:'Lobster Two, Normal';font-variant-ligatures:normal;font-variant-caps:normal;font-variant-numeric:normal;font-variant-east-asian:normal;fill:#d45500;fill-opacity:1;stroke:none;stroke-width:0.266463"
       d="m 132.60895,200.51589 c 0,-0.12791 0.0102,-0.27714 0.0215,-0.42634 1.27902,-0.0746 2.45145,-1.00191 2.45145,-2.20632 0,-0.53294 -0.22383,-1.02321 -1.17243,-1.02321 -2.185,0 -2.87781,2.53671 -2.87781,3.7518 0,1.20441 0.66083,1.69468 1.66273,1.69468 1.41759,0 2.32356,-0.99122 2.9311,-1.9718 h -0.36238 c -0.53294,0.60752 -1.04454,1.0765 -1.88657,1.0765 -0.5116,0 -0.76741,-0.17054 -0.76741,-0.89531 z m 1.65207,-2.65397 c 0,0.86334 -0.71413,1.66273 -1.54549,1.71601 0.22384,-1.04454 0.7461,-2.15303 1.27903,-2.15303 0.20251,0 0.26646,0.17055 0.26646,0.43702 z" /><path
       id="path893"
       style="font-style:normal;font-variant:normal;font-weight:normal;font-stretch:normal;font-size:28.1463px;line-height:1.25;font-family:'Lobster Two';-inkscape-font-specification:'Lobster Two, Normal';font-variant-ligatures:normal;font-variant-caps:normal;font-variant-numeric:normal;font-variant-east-asian:normal;fill:#d45500;fill-opacity:1;stroke:none;stroke-width:0.266463"
       d="m 138.18334,198.56538 c 0.12791,0.0853 0.3091,0.12791 0.42634,0.12791 0.3091,0 0.56491,-0.37304 0.56491,-0.89531 0,-0.4583 -0.23448,-0.93794 -1.1831,-0.93794 -2.16368,0 -2.86714,2.53672 -2.86714,3.7518 0,1.20441 0.66082,1.69469 1.66273,1.69469 1.41759,0 2.32356,-0.99122 2.93109,-1.97181 h -0.36239 c -0.53293,0.60753 -1.04454,1.07651 -1.88655,1.07651 -0.51162,0 -0.81005,-0.18127 -0.81005,-0.90599 0,-1.16177 0.67148,-3.08032 1.40692,-3.08032 0.20251,0 0.29844,0.14911 0.29844,0.39438 0,0.18127 -0.0746,0.5116 -0.1812,0.7461 z" /><path
       id="path895"
       style="font-style:normal;font-variant:normal;font-weight:normal;font-stretch:normal;font-size:28.1463px;line-height:1.25;font-family:'Lobster Two';-inkscape-font-specification:'Lobster Two, Normal';font-variant-ligatures:normal;font-variant-caps:normal;font-variant-numeric:normal;font-variant-east-asian:normal;fill:#d45500;fill-opacity:1;stroke:none;stroke-width:0.266463"
       d="m 140.40031,195.44242 -0.31976,1.47088 h -0.35173 l -0.0853,0.42635 h 0.35174 l -0.63951,2.99505 c -0.0532,0.2558 -0.0853,0.49028 -0.0853,0.69279 0,0.8953 0.50096,1.27901 1.14047,1.27901 0.57555,0 1.63076,-0.23438 2.23828,-1.9718 h -0.44765 c -0.15988,0.53291 -0.54358,0.93794 -0.95927,0.93794 -0.29844,0 -0.43699,-0.096 -0.43699,-0.39438 0,-0.096 0.0102,-0.20246 0.0427,-0.34108 l 0.68214,-3.19753 h 0.63952 l 0.0853,-0.42635 h -0.63952 l 0.3624,-1.68405 z" /><path
       id="path897"
       style="font-style:normal;font-variant:normal;font-weight:normal;font-stretch:normal;font-size:28.1463px;line-height:1.25;font-family:'Lobster Two';-inkscape-font-specification:'Lobster Two, Normal';font-variant-ligatures:normal;font-variant-caps:normal;font-variant-numeric:normal;font-variant-east-asian:normal;fill:#d45500;fill-opacity:1;stroke:none;stroke-width:0.266463"
       d="m 143.13952,195.49572 c 0,0.46896 0.37305,0.84203 0.84203,0.84203 0.46897,0 0.85268,-0.37307 0.85268,-0.84203 0,-0.46898 -0.38371,-0.85269 -0.85268,-0.85269 -0.46898,0 -0.84203,0.38371 -0.84203,0.85269 z m -0.21315,1.41758 -0.72479,3.4214 c -0.0533,0.2558 -0.0853,0.49028 -0.0853,0.69279 0,0.8953 0.50095,1.27901 1.14047,1.27901 0.57556,0 1.63075,-0.23438 2.23829,-1.9718 h -0.44767 c -0.15987,0.53291 -0.54358,0.93794 -0.95926,0.93794 -0.29843,0 -0.437,-0.096 -0.437,-0.39438 0,-0.096 0.0102,-0.20246 0.0426,-0.34108 l 0.76742,-3.62388 z" /><path
       id="path899"
       style="font-style:normal;font-variant:normal;font-weight:normal;font-stretch:normal;font-size:28.1463px;line-height:1.25;font-family:'Lobster Two';-inkscape-font-specification:'Lobster Two, Normal';font-variant-ligatures:normal;font-variant-caps:normal;font-variant-numeric:normal;font-variant-east-asian:normal;fill:#d45500;fill-opacity:1;stroke:none;stroke-width:0.266463"
       d="m 147.8186,196.86002 c -2.19566,0 -2.92043,2.53671 -2.92043,3.76244 0,1.21508 0.71412,1.68404 1.70536,1.68404 1.311,0 2.38752,-1.24704 2.55805,-3.22952 0.76741,-0.12792 1.47087,-0.44767 1.87589,-0.88466 l -0.0959,-0.28776 c -0.45832,0.31975 -1.15112,0.6395 -1.64141,0.6395 -0.0319,0 -0.0746,0 -0.11724,-0.0102 -0.0102,-1.10849 -0.45832,-1.6734 -1.3643,-1.6734 z m -0.78873,4.44458 c -0.40503,0 -0.54358,-0.15982 -0.54358,-0.86333 0,-1.04454 0.66083,-2.94175 1.41758,-2.94175 0.26646,0 0.38371,0.15983 0.40503,0.59687 -0.19185,0.0746 -0.33042,0.26648 -0.33042,0.56491 0,0.21319 0.064,0.39436 0.28778,0.44767 -0.15987,1.25769 -0.71412,2.19563 -1.23639,2.19563 z" /><path
       id="path901"
       style="font-style:normal;font-variant:normal;font-weight:normal;font-stretch:normal;font-size:28.1463px;line-height:1.25;font-family:'Lobster Two';-inkscape-font-specification:'Lobster Two, Normal';font-variant-ligatures:normal;font-variant-caps:normal;font-variant-numeric:normal;font-variant-east-asian:normal;fill:#d45500;fill-opacity:1;stroke:none;stroke-width:0.266463"
       d="m 152.79613,198.38418 c 0,0.68215 -0.47964,1.99313 -0.47964,2.71791 0,0.60755 0.25581,1.20441 1.07651,1.20441 0.5649,0 1.07652,-0.33039 1.17243,-1.09781 -0.064,0.0427 -0.17054,0.0639 -0.35173,0.0639 -0.31975,0 -0.42634,-0.18126 -0.42634,-0.44766 0,-0.59687 0.51162,-1.88656 0.51162,-2.7499 0,-0.85267 -0.50095,-1.20441 -1.1831,-1.20441 -0.33042,0 -0.79939,0.0853 -1.24704,0.59686 l 0.11724,-0.55423 h -1.53484 l -1.1298,5.32926 h 1.53482 l 0.72479,-3.42141 c 0.15987,-0.53294 0.44766,-0.98059 0.83137,-0.98059 0.25579,0 0.38369,0.19174 0.38369,0.54358 z" /></g></svg>
