<?xml version="1.0" encoding="UTF-8" standalone="no"?>
<svg
   inkscape:export-ydpi="96"
   inkscape:export-xdpi="96"
   inkscape:export-filename="/run/user/1000/gvfs/dav:host=cloud.cgil-fvg.net,ssl=true,user=davo%40fvg.cgil.it,prefix=%2Fremote.php%2Fwebdav/Loghi/logo_davo_istantmessaging_v2_27042020.svg.png"
   sodipodi:docname="logo_davosky_connection.svg"
   inkscape:version="1.2.2 (b0a8486541, 2022-12-01)"
   id="svg8"
   version="1.1"
   viewBox="0 0 173.00679 46.570903"
   height="176.01601"
   width="653.88397"
   xml:space="preserve"
   xmlns:inkscape="http://www.inkscape.org/namespaces/inkscape"
   xmlns:sodipodi="http://sodipodi.sourceforge.net/DTD/sodipodi-0.dtd"
   xmlns="http://www.w3.org/2000/svg"
   xmlns:svg="http://www.w3.org/2000/svg"
   xmlns:rdf="http://www.w3.org/1999/02/22-rdf-syntax-ns#"
   xmlns:cc="http://creativecommons.org/ns#"
   xmlns:dc="http://purl.org/dc/elements/1.1/"><defs
     id="defs2" /><sodipodi:namedview
     inkscape:document-rotation="0"
     inkscape:measure-end="0,0"
     inkscape:measure-start="550.341,241.548"
     inkscape:window-maximized="1"
     inkscape:window-y="0"
     inkscape:window-x="33"
     inkscape:window-height="1408"
     inkscape:window-width="2527"
     inkscape:showpageshadow="false"
     units="px"
     showgrid="false"
     inkscape:current-layer="layer1"
     inkscape:document-units="px"
     inkscape:cy="222.77778"
     inkscape:cx="81.111111"
     inkscape:zoom="0.9"
     inkscape:pageshadow="2"
     inkscape:pageopacity="0.0"
     borderopacity="1.0"
     bordercolor="#666666"
     pagecolor="#ffffff"
     id="base"
     inkscape:pagecheckerboard="0"
     inkscape:deskcolor="#d1d1d1" /><metadata
     id="metadata5"><rdf:RDF><cc:Work
         rdf:about=""><dc:format>image/svg+xml</dc:format><dc:type
           rdf:resource="http://purl.org/dc/dcmitype/StillImage" /></cc:Work></rdf:RDF></metadata><g
     transform="translate(0,-161.53331)"
     id="layer1"
     inkscape:groupmode="layer"
     inkscape:label="Livello 1"><g
       aria-label="by Davo Davosky"
       id="text3969"
       style="font-size:1.22231px;font-family:Dunkin;-inkscape-font-specification:Dunkin;fill:#3c629e;stroke-width:0.2151" /><g
       id="g2462"
       transform="matrix(1.2771173,0,0,1.2771173,3.7901955e-8,-44.770167)"><g
         style="font-style:normal;font-weight:normal;font-size:17.7836px;line-height:1.25;font-family:sans-serif;fill:#2c5aa0;fill-opacity:1;stroke:none;stroke-width:0.444589"
         id="text40"
         aria-label="The"
         transform="matrix(0.29651388,0,0,0.29651388,-1.8510478,111.80882)"><path
           id="path865"
           style="font-style:normal;font-variant:normal;font-weight:normal;font-stretch:normal;font-size:17.7836px;font-family:'Lobster Two';-inkscape-font-specification:'Lobster Two, Normal';font-variant-ligatures:normal;font-variant-caps:normal;font-variant-numeric:normal;font-variant-east-asian:normal;fill:#2c5aa0;fill-opacity:1;stroke-width:0.444589"
           d="m 211.54146,186.66967 c 0,-2.79202 1.58274,-3.55672 3.57451,-3.62785 l -2.54306,11.80831 h 2.56084 l 2.50749,-11.64826 c 0.81804,0.1067 1.61831,0.24897 2.34743,0.30232 l -2.43635,11.34594 h 2.56084 c 0.4268,-2.36522 0.78248,-4.26807 1.0848,-5.81524 0.26675,-0.83583 0.72912,-1.52939 1.35155,-1.52939 0.42681,0 0.64021,0.32011 0.64021,0.90697 0,1.13815 -0.80026,3.32553 -0.80026,4.53481 0,1.01367 0.55129,2.00955 2.09846,2.00955 0.94253,0 2.31187,-0.37346 3.30775,-3.28997 h -0.74691 c -0.39124,0.92475 -0.71134,1.56496 -1.49382,1.56496 -0.53351,0 -0.71134,-0.30232 -0.71134,-0.74691 0,-0.99588 0.85361,-3.1477 0.85361,-4.58817 0,-1.42269 -0.83583,-2.00955 -1.97398,-2.00955 -0.56908,0 -1.35156,0.16006 -2.11625,1.03145 0.81805,-4.05466 1.06702,-4.57038 1.49382,-5.35286 -0.49794,0.3201 -1.28042,0.42681 -2.15181,0.42681 -1.81393,0 -3.98353,-0.46238 -4.80157,-0.46238 -4.39255,0 -6.25983,2.25852 -6.25983,4.62374 0,1.28042 0.67577,1.72501 1.90284,1.72501 -0.0178,-0.16006 -0.24897,-0.30232 -0.24897,-1.20929 z" /><path
           id="path867"
           style="font-style:normal;font-variant:normal;font-weight:normal;font-stretch:normal;font-size:17.7836px;font-family:'Lobster Two';-inkscape-font-specification:'Lobster Two, Normal';font-variant-ligatures:normal;font-variant-caps:normal;font-variant-numeric:normal;font-variant-east-asian:normal;fill:#2c5aa0;fill-opacity:1;stroke-width:0.444589"
           d="m 229.46732,191.25784 c 2.13403,-0.12448 4.09023,-1.65387 4.09023,-3.6812 0,-0.88918 -0.37346,-1.70723 -1.9562,-1.70723 -3.64564,0 -4.80157,4.2325 -4.80157,6.25983 0,2.00954 1.10258,2.82759 2.75646,2.82759 1.42269,0 2.70311,-0.60464 3.07656,-2.63197 -0.56907,0.49794 -1.42269,0.94253 -2.09846,0.94253 -0.88918,0 -1.10259,-0.74691 -1.10259,-1.45826 0,-0.19562 0.0178,-0.37345 0.0356,-0.55129 z m 2.72089,-3.71677 c 0,1.45825 -1.20928,2.79202 -2.5964,2.86316 0.37345,-1.67166 1.26263,-3.59229 2.15181,-3.59229 0.33789,0 0.44459,0.28454 0.44459,0.72913 z" /></g><path
         inkscape:connector-curvature="0"
         id="path4564"
         d="M 18.232614,161.55674 C 8.1697758,161.55734 -2.2958377e-6,169.72724 -1.3677182e-7,179.79019 2.0023027e-6,189.85342 8.1702336,198.02238 18.233456,198.02238 c 10.063225,0 18.232193,-8.16896 18.232197,-18.23219 0,-6.7127 -3.634963,-12.58302 -9.042262,-15.74789 -2.561896,-1.49947 -9.659163,-3.14745 -16.160545,2.69356 v 1.10924 c 7.357486,-6.08929 13.097348,-4.28703 15.471543,-2.9269 5.152695,2.95191 8.622867,8.50241 8.622867,14.87199 -2e-6,9.46449 -7.659302,17.12549 -17.1238,17.12549 -9.4644935,0 -17.1250588,-7.661 -17.125061,-17.12549 -2.2e-6,-9.46423 7.6601095,-17.12461 17.124219,-17.12505 z m 0,6.96513 a 11.267903,11.267903 0 0 0 -11.097452,9.38991 h 8.227523 a 3.4325869,3.4325869 0 0 1 2.870351,-1.55478 3.4325869,3.4325869 0 0 1 2.872038,1.55478 h 8.236385 a 11.267903,11.267903 0 0 0 -11.108845,-9.38991 z m -8.7376294,10.18735 v 2.16026 h 5.4841714 a 3.4325869,3.4325869 0 0 1 -0.178895,-1.08013 3.4325869,3.4325869 0 0 1 0.177629,-1.08013 z m 11.9915064,0 a 3.4325869,3.4325869 0 0 1 0.179323,1.08013 3.4325869,3.4325869 0 0 1 -0.177623,1.08013 h 5.482906 v -2.16026 z m -14.3622989,2.95854 a 11.267903,11.267903 0 0 0 11.1084219,9.3895 11.267903,11.267903 0 0 0 11.097874,-9.3895 h -8.227523 a 3.4325869,3.4325869 0 0 1 -2.869929,1.55437 3.4325869,3.4325869 0 0 1 -2.871616,-1.55437 z"
         style="color:#000000;font-style:normal;font-variant:normal;font-weight:normal;font-stretch:normal;font-size:medium;line-height:normal;font-family:sans-serif;font-variant-ligatures:normal;font-variant-position:normal;font-variant-caps:normal;font-variant-numeric:normal;font-variant-alternates:normal;font-feature-settings:normal;text-indent:0;text-align:start;text-decoration:none;text-decoration-line:none;text-decoration-style:solid;text-decoration-color:#000000;letter-spacing:normal;word-spacing:normal;text-transform:none;writing-mode:lr-tb;direction:ltr;text-orientation:mixed;dominant-baseline:auto;baseline-shift:baseline;text-anchor:start;white-space:normal;shape-padding:0;clip-rule:nonzero;display:inline;overflow:visible;visibility:visible;isolation:auto;mix-blend-mode:normal;color-interpolation:sRGB;color-interpolation-filters:linearRGB;solid-color:#000000;solid-opacity:1;vector-effect:none;fill:#2c5aa0;fill-opacity:1;fill-rule:nonzero;stroke:none;stroke-width:1.10785;stroke-linecap:round;stroke-linejoin:round;stroke-miterlimit:4;stroke-dasharray:none;stroke-dashoffset:0;stroke-opacity:1;color-rendering:auto;image-rendering:auto;shape-rendering:auto;text-rendering:auto;enable-background:accumulate" /><path
         id="path870"
         style="font-style:normal;font-variant:normal;font-weight:normal;font-stretch:normal;font-size:93.855px;line-height:1.25;font-family:'Lobster Two';-inkscape-font-specification:'Lobster Two';fill:#2c5aa0;fill-opacity:1;stroke:none;stroke-width:0.695731"
         d="m 47.860113,168.79219 -3.784786,17.69944 h 4.00742 l 0.222636,-1.11316 c 1.196658,1.02968 2.33766,1.47494 3.395175,1.47494 4.118738,0 7.708717,-6.9295 7.708717,-13.05193 0,-4.59185 -2.031537,-8.18182 -7.541741,-8.18182 -5.482377,0 -10.241186,3.53431 -10.241186,7.34692 0,1.8924 1.141001,2.58814 2.977734,2.58814 -0.08348,-0.25047 -0.389609,-0.58442 -0.389609,-1.8924 0,-4.23005 3.256031,-6.76251 7.068643,-6.76251 2.894248,0 4.285714,1.44711 4.285714,5.62151 0,5.06494 -2.031537,11.88311 -5.343226,11.88311 -0.528755,0 -1.057515,-0.16692 -1.58627,-0.55658 l 3.339517,-15.61224 z" /><path
         id="path872"
         style="font-style:normal;font-variant:normal;font-weight:normal;font-stretch:normal;font-size:93.855px;line-height:1.25;font-family:'Lobster Two';-inkscape-font-specification:'Lobster Two';fill:#2c5aa0;fill-opacity:1;stroke:none;stroke-width:0.695731"
         d="m 69.566928,172.57699 -0.278294,1.30798 c -0.194815,-1.28015 -1.363638,-1.44714 -2.282002,-1.44714 -4.842301,0 -7.152136,5.98331 -7.152136,9.74027 0,3.31168 1.808907,4.48052 3.701301,4.48052 1.975879,0 3.311687,-1.30798 4.146566,-2.58812 0.222633,1.58625 1.224488,2.42113 2.727272,2.42113 1.502782,0 4.00742,-0.44527 5.593692,-4.98144 h -1.168831 c -0.417441,1.39147 -1.16883,2.44898 -2.254174,2.44898 -0.779221,0 -1.141001,-0.25046 -1.141001,-1.02968 0,-0.25047 0.02785,-0.52877 0.111312,-0.89053 l 2.031539,-9.46197 z m -1.697589,1.58625 c 0.862708,0 1.113172,0.72357 1.141002,1.05753 l -1.335806,6.28942 c -0.333952,1.6141 -1.502784,2.44898 -2.309835,2.44898 -0.500927,0 -1.391466,-0.0278 -1.391466,-2.17068 0,-2.61595 1.530614,-7.62525 3.896105,-7.62525 z" /><path
         id="path874"
         style="font-style:normal;font-variant:normal;font-weight:normal;font-stretch:normal;font-size:93.855px;line-height:1.25;font-family:'Lobster Two';-inkscape-font-specification:'Lobster Two';fill:#2c5aa0;fill-opacity:1;stroke:none;stroke-width:0.695731"
         d="m 84.205117,172.02039 c -1.16883,0 -1.725415,0.64008 -1.725415,1.50279 0,0.61224 0.333951,1.41929 1.001854,1.41929 0.222634,0 0.807051,-0.0836 0.890537,-0.27828 0,3.06121 -2.087195,9.29498 -4.814469,9.29498 -0.667903,0 -0.946197,-0.36179 -0.946197,-0.91837 0,-0.25047 0.05566,-0.61225 0.13914,-1.00184 l 2.003711,-9.46197 h -4.00742 l -2.003711,9.46197 c -0.111312,0.52875 -0.13914,1.02967 -0.13914,1.3358 0,2.19851 1.307976,3.28386 3.423005,3.28386 5.677178,0 7.931355,-7.76438 7.931355,-12.21708 0,-1.22449 -0.417442,-2.42115 -1.75325,-2.42115 z" /><path
         id="path876"
         style="font-style:normal;font-variant:normal;font-weight:normal;font-stretch:normal;font-size:93.855px;line-height:1.25;font-family:'Lobster Two';-inkscape-font-specification:'Lobster Two';fill:#2c5aa0;fill-opacity:1;stroke:none;stroke-width:0.695731"
         d="m 101.62626,172.27086 c -1.55844,2.69944 -3.061228,4.28571 -4.452694,4.42487 -0.05565,-2.83859 -1.224488,-4.2579 -3.56215,-4.2579 -5.732838,0 -7.625231,6.62338 -7.625231,9.82375 0,3.17255 1.864563,4.39704 4.452689,4.39704 3.450835,0 6.261593,-3.28386 6.679035,-8.54361 1.697587,-0.52875 3.256031,-1.78106 4.591831,-3.81261 0.30613,5.14842 0.61225,6.01112 0.61225,7.56957 0,1.94806 -0.52876,2.58812 -1.75325,2.58812 -1.057511,0 -1.614096,-0.7792 -1.614096,-2.0872 0.13914,0.2783 0.473095,0.36179 0.751389,0.36179 0.723567,0 1.335807,-0.58441 1.335807,-1.25232 0,-0.80705 -0.50093,-1.16884 -1.447125,-1.16884 -0.974023,0 -2.003709,1.00187 -2.003709,2.6438 0,1.69759 0.556585,3.7013 3.868274,3.7013 1.50278,0 3.14471,-0.50094 4.09091,-1.8924 1.19666,-0.7514 2.5603,-1.75324 3.86827,-3.25603 h -1.16883 c -0.52875,0.41744 -1.22449,0.94621 -1.97588,1.36365 0.0557,-0.30613 0.0835,-0.66791 0.0835,-1.0297 0,-1.83672 -0.2783,-2.92207 -0.61225,-10.12986 z m -10.074213,11.77179 c -1.057513,0 -1.419296,-0.41744 -1.419296,-2.25416 0,-2.72728 1.725417,-7.6809 3.7013,-7.6809 0.695731,0 1.001855,0.38961 1.057513,1.50279 -0.500928,0.19471 -0.862711,0.69574 -0.862711,1.47494 0,0.72357 0.250466,1.14101 0.751393,1.28017 -0.445267,3.25603 -1.864565,5.67716 -3.228199,5.67716 z" /><path
         id="path878"
         style="font-style:normal;font-variant:normal;font-weight:normal;font-stretch:normal;font-size:93.855px;line-height:1.25;font-family:'Lobster Two';-inkscape-font-specification:'Lobster Two';fill:#2c5aa0;fill-opacity:1;stroke:none;stroke-width:0.695731"
         d="m 118.62994,172.57699 -5.37105,4.23005 2.08719,-9.79592 -4.11873,0.55658 -4.03525,18.92393 h 4.00742 l 1.44712,-6.87383 c 0.77922,-0.64008 1.4193,-1.02969 2.05937,-1.02969 0.72356,0 1.00186,0.52875 1.00186,1.3358 0,1.16884 -0.50093,2.28202 -0.50093,3.56216 0,2.03154 1.22449,3.17255 3.50649,3.17255 1.28015,0 3.53432,-0.4731 5.1206,-5.14843 h -1.16884 c -0.61224,1.44713 -1.11317,2.44898 -2.33766,2.44898 -0.86271,0 -1.08534,-0.4731 -1.08534,-1.02968 0,-1.08535 0.55658,-2.14285 0.55658,-3.33951 0,-1.78109 -1.00185,-3.25603 -3.06122,-3.25603 -0.30612,0 -0.61224,0.0556 -0.91837,0.11135 l 5.56587,-3.86827 z" /><path
         id="path880"
         style="font-style:normal;font-variant:normal;font-weight:normal;font-stretch:normal;font-size:93.855px;line-height:1.25;font-family:'Lobster Two';-inkscape-font-specification:'Lobster Two';fill:#2c5aa0;fill-opacity:1;stroke:none;stroke-width:0.695731"
         d="m 124.55758,172.57699 -1.8924,8.9332 c -0.13914,0.66791 -0.22263,1.28014 -0.22263,1.80891 0,2.33765 1.30797,3.33952 2.97773,3.33952 0.9462,0 2.19852,-0.25047 3.39518,-1.6141 l -0.27829,1.22449 c -2.64379,0.77922 -4.81447,1.58627 -4.81447,4.17439 0,1.8089 1.58627,3.00556 3.28386,3.00556 1.83673,0 4.23005,-0.75139 5.06493,-4.73097 l 3.39518,-16.141 h -4.03526 l -1.89239,8.9332 c -0.41744,1.39147 -1.141,2.44898 -2.22634,2.44898 -0.64008,0 -0.83488,-0.58441 -0.83488,-1.22449 0,-0.22263 0.0278,-0.4731 0.0835,-0.69572 l 2.00371,-9.46197 z m 0.69573,17.4768 c 0,-1.50279 1.3358,-2.30984 3.08905,-2.89425 l -0.33395,1.64193 c -0.36178,1.64193 -1.08534,2.17068 -1.64193,2.17068 -0.61224,0 -1.11317,-0.52875 -1.11317,-0.91836 z" /><path
         style="color:#000000;font-size:1.22231px;font-family:Dunkin;-inkscape-font-specification:'Lobster Two, Normal';fill:#2c5aa0;fill-opacity:1;stroke-width:0.430014;-inkscape-stroke:none"
         d="m 104.3347,195.65369 c -0.0122,0.0514 -0.0172,0.0977 -0.0172,0.13934 0,0.19551 0.11728,0.31278 0.3421,0.31278 0.51803,0 0.66953,-0.54002 0.66953,-0.82592 0,-0.31035 -0.11729,-0.42274 -0.28834,-0.42274 -0.0489,0 -0.10018,0.012 -0.20037,0.0734 l 0.11729,-0.5498 -0.36165,0.0488 z m 0.74773,-0.38364 c 0,0.25657 -0.12707,0.59866 -0.2859,0.59866 -0.088,0 -0.1295,-0.0416 -0.1295,-0.11235 0,-0.018 0.002,-0.0366 0.007,-0.0562 l 0.1344,-0.62065 c 0.0269,-0.0318 0.10995,-0.044 0.14417,-0.044 0.088,0 0.12951,0.11475 0.12951,0.23458 z"
         id="path13069" /><path
         style="color:#000000;font-size:1.22231px;font-family:Dunkin;-inkscape-font-specification:'Lobster Two, Normal';fill:#2c5aa0;fill-opacity:1;stroke-width:0.430014;-inkscape-stroke:none"
         d="m 105.5858,194.86931 -0.16617,0.78438 c -0.0122,0.0586 -0.0196,0.11235 -0.0196,0.15893 0,0.20525 0.11485,0.29323 0.26146,0.29323 0.0831,0 0.19304,-0.022 0.29812,-0.14174 l -0.0244,0.10756 c -0.23214,0.0684 -0.42274,0.13934 -0.42274,0.36654 0,0.15893 0.13928,0.2639 0.28834,0.2639 0.16127,0 0.37142,-0.066 0.44473,-0.4154 l 0.29811,-1.41726 h -0.35431 l -0.16617,0.78438 c -0.0366,0.12214 -0.10018,0.21502 -0.19548,0.21502 -0.0562,0 -0.0733,-0.0514 -0.0733,-0.10755 0,-0.02 0.002,-0.0416 0.007,-0.0612 l 0.17595,-0.8308 z m 0.0611,1.53455 c 0,-0.13194 0.11729,-0.20281 0.27124,-0.25413 l -0.0293,0.14414 c -0.0318,0.14414 -0.0953,0.19052 -0.14418,0.19052 -0.0537,0 -0.0977,-0.0464 -0.0977,-0.0806 z"
         id="path13071" /><path
         style="color:#000000;font-size:1.22231px;font-family:Dunkin;-inkscape-font-specification:'Lobster Two, Normal';fill:#2c5aa0;fill-opacity:1;stroke-width:0.430014;-inkscape-stroke:none"
         d="m 107.77278,194.53697 -0.33232,1.55411 h 0.35187 l 0.0196,-0.0978 c 0.10508,0.0904 0.20526,0.12954 0.29812,0.12954 0.36164,0 0.67686,-0.60843 0.67686,-1.14602 0,-0.40319 -0.17838,-0.71841 -0.6622,-0.71841 -0.48138,0 -0.89923,0.31033 -0.89923,0.6451 0,0.16613 0.10019,0.22726 0.26146,0.22726 -0.007,-0.022 -0.0342,-0.0514 -0.0342,-0.16612 0,-0.37142 0.2859,-0.59379 0.62067,-0.59379 0.25413,0 0.37631,0.12715 0.37631,0.49359 0,0.44473 -0.17839,1.04341 -0.46917,1.04341 -0.0464,0 -0.0929,-0.014 -0.13928,-0.049 l 0.29323,-1.37083 z"
         id="path13073" /><path
         style="color:#000000;font-size:1.22231px;font-family:Dunkin;-inkscape-font-specification:'Lobster Two, Normal';fill:#2c5aa0;fill-opacity:1;stroke-width:0.430014;-inkscape-stroke:none"
         d="m 109.67876,194.86931 -0.0244,0.11475 c -0.0172,-0.11235 -0.11973,-0.12715 -0.20038,-0.12715 -0.42518,0 -0.62799,0.52535 -0.62799,0.85525 0,0.29078 0.15883,0.39341 0.32499,0.39341 0.17349,0 0.29079,-0.11495 0.36409,-0.22726 0.0196,0.13934 0.10752,0.21259 0.23947,0.21259 0.13194,0 0.35188,-0.0392 0.49116,-0.43739 h -0.10264 c -0.0367,0.12214 -0.10263,0.21502 -0.19793,0.21502 -0.0684,0 -0.10018,-0.022 -0.10018,-0.0904 0,-0.022 0.002,-0.0464 0.01,-0.0782 l 0.17838,-0.8308 z m -0.14906,0.13934 c 0.0757,0 0.0977,0.0636 0.1002,0.0928 l -0.11729,0.55224 c -0.0293,0.14174 -0.13194,0.21502 -0.20282,0.21502 -0.044,0 -0.12219,-0.002 -0.12219,-0.19051 0,-0.22968 0.13441,-0.66953 0.3421,-0.66953 z"
         id="path13075" /><path
         style="color:#000000;font-size:1.22231px;font-family:Dunkin;-inkscape-font-specification:'Lobster Two, Normal';fill:#2c5aa0;fill-opacity:1;stroke-width:0.430014;-inkscape-stroke:none"
         d="m 110.96407,194.82043 c -0.10264,0 -0.1515,0.0562 -0.1515,0.13194 0,0.0538 0.0293,0.12455 0.088,0.12455 0.0196,0 0.0709,-0.008 0.0782,-0.0244 0,0.2688 -0.18326,0.81614 -0.42274,0.81614 -0.0587,0 -0.0831,-0.0318 -0.0831,-0.0806 0,-0.022 0.005,-0.0538 0.0122,-0.088 l 0.17594,-0.8308 h -0.35187 l -0.17595,0.8308 c -0.01,0.0464 -0.0122,0.0904 -0.0122,0.11735 0,0.19311 0.11485,0.28835 0.30056,0.28835 0.49848,0 0.69641,-0.68176 0.69641,-1.07273 0,-0.10756 -0.0366,-0.21259 -0.15393,-0.21259 z"
         id="path13077" /><path
         style="color:#000000;font-size:1.22231px;font-family:Dunkin;-inkscape-font-specification:'Lobster Two, Normal';fill:#2c5aa0;fill-opacity:1;stroke-width:0.430014;-inkscape-stroke:none"
         d="m 111.78999,194.85709 c -0.50337,0 -0.66954,0.58157 -0.66954,0.86257 0,0.27858 0.16371,0.38609 0.39098,0.38609 0.30788,0 0.55957,-0.29811 0.58645,-0.77216 0.12706,-0.0734 0.19793,-0.22237 0.2468,-0.325 h -0.0782 c -0.0244,0.044 -0.0855,0.14653 -0.16616,0.16852 -0.0172,-0.21258 -0.11973,-0.3201 -0.31034,-0.3201 z m -0.18082,1.01896 c -0.0929,0 -0.12463,-0.0366 -0.12463,-0.19791 0,-0.23946 0.1515,-0.67441 0.325,-0.67441 0.0611,0 0.0855,0.0342 0.0929,0.12954 -0.044,0.018 -0.0757,0.0612 -0.0757,0.12955 0,0.0636 0.022,0.10015 0.066,0.11235 -0.0391,0.28589 -0.16373,0.50092 -0.28345,0.50092 z"
         id="path13079" /><path
         style="color:#000000;font-size:1.22231px;font-family:Dunkin;-inkscape-font-specification:'Lobster Two, Normal';fill:#2c5aa0;fill-opacity:1;stroke-width:0.430014;-inkscape-stroke:none"
         d="m 113.50537,194.53697 -0.33233,1.55411 h 0.35188 l 0.0196,-0.0978 c 0.10507,0.0904 0.20526,0.12954 0.29811,0.12954 0.36165,0 0.67687,-0.60843 0.67687,-1.14602 0,-0.40319 -0.17838,-0.71841 -0.66221,-0.71841 -0.48138,0 -0.89923,0.31033 -0.89923,0.6451 0,0.16613 0.10018,0.22726 0.26146,0.22726 -0.007,-0.022 -0.0342,-0.0514 -0.0342,-0.16612 0,-0.37142 0.28589,-0.59379 0.62066,-0.59379 0.25413,0 0.37631,0.12715 0.37631,0.49359 0,0.44473 -0.17838,1.04341 -0.46916,1.04341 -0.0464,0 -0.0929,-0.014 -0.13928,-0.049 l 0.29322,-1.37083 z"
         id="path13081" /><path
         style="color:#000000;font-size:1.22231px;font-family:Dunkin;-inkscape-font-specification:'Lobster Two, Normal';fill:#2c5aa0;fill-opacity:1;stroke-width:0.430014;-inkscape-stroke:none"
         d="m 115.41134,194.86931 -0.0244,0.11475 c -0.0172,-0.11235 -0.11973,-0.12715 -0.20037,-0.12715 -0.42518,0 -0.62799,0.52535 -0.62799,0.85525 0,0.29078 0.15883,0.39341 0.32499,0.39341 0.17348,0 0.29078,-0.11495 0.36409,-0.22726 0.0196,0.13934 0.10751,0.21259 0.23947,0.21259 0.13194,0 0.35187,-0.0392 0.49115,-0.43739 h -0.10263 c -0.0367,0.12214 -0.10264,0.21502 -0.19794,0.21502 -0.0684,0 -0.10019,-0.022 -0.10019,-0.0904 0,-0.022 0.002,-0.0464 0.01,-0.0782 l 0.17839,-0.8308 z m -0.14905,0.13934 c 0.0757,0 0.0977,0.0636 0.10017,0.0928 l -0.11729,0.55224 c -0.0293,0.14174 -0.13196,0.21502 -0.20281,0.21502 -0.044,0 -0.12219,-0.002 -0.12219,-0.19051 0,-0.22968 0.1344,-0.66953 0.3421,-0.66953 z"
         id="path13083" /><path
         style="color:#000000;font-size:1.22231px;font-family:Dunkin;-inkscape-font-specification:'Lobster Two, Normal';fill:#2c5aa0;fill-opacity:1;stroke-width:0.430014;-inkscape-stroke:none"
         d="m 116.69665,194.82043 c -0.10263,0 -0.15149,0.0562 -0.15149,0.13194 0,0.0538 0.0293,0.12455 0.088,0.12455 0.0196,0 0.0709,-0.008 0.0782,-0.0244 0,0.2688 -0.18326,0.81614 -0.42274,0.81614 -0.0586,0 -0.0831,-0.0318 -0.0831,-0.0806 0,-0.022 0.005,-0.0538 0.0122,-0.088 l 0.17595,-0.8308 h -0.35188 l -0.17594,0.8308 c -0.01,0.0464 -0.0122,0.0904 -0.0122,0.11735 0,0.19311 0.11486,0.28835 0.30056,0.28835 0.49849,0 0.69642,-0.68176 0.69642,-1.07273 0,-0.10756 -0.0366,-0.21259 -0.15394,-0.21259 z"
         id="path13085" /><path
         style="color:#000000;font-size:1.22231px;font-family:Dunkin;-inkscape-font-specification:'Lobster Two, Normal';fill:#2c5aa0;fill-opacity:1;stroke-width:0.430014;-inkscape-stroke:none"
         d="m 118.22632,194.84242 c -0.13684,0.23704 -0.26879,0.37632 -0.39097,0.38853 -0.005,-0.24925 -0.10751,-0.37386 -0.31277,-0.37386 -0.50338,0 -0.66954,0.58157 -0.66954,0.86257 0,0.27858 0.16373,0.38609 0.39097,0.38609 0.303,0 0.5498,-0.28835 0.58646,-0.75017 0.14905,-0.0464 0.28589,-0.15634 0.40318,-0.33478 0.0269,0.45207 0.0538,0.52781 0.0538,0.66465 0,0.17113 -0.0464,0.22725 -0.15393,0.22725 -0.0929,0 -0.14172,-0.0684 -0.14172,-0.18333 0.0122,0.0244 0.0415,0.0318 0.066,0.0318 0.0635,0 0.11729,-0.0514 0.11729,-0.10995 0,-0.0708 -0.044,-0.10256 -0.12707,-0.10256 -0.0855,0 -0.17594,0.088 -0.17594,0.23214 0,0.14914 0.0489,0.325 0.33966,0.325 0.13194,0 0.27612,-0.044 0.3592,-0.16613 0.10507,-0.066 0.22481,-0.15393 0.33965,-0.28589 h -0.10263 c -0.0464,0.0366 -0.10751,0.0832 -0.17349,0.11975 0.005,-0.0268 0.007,-0.0586 0.007,-0.0904 0,-0.16133 -0.0244,-0.25656 -0.0538,-0.88945 z m -0.88457,1.03363 c -0.0929,0 -0.12462,-0.0366 -0.12462,-0.19791 0,-0.23946 0.15149,-0.67441 0.32499,-0.67441 0.0611,0 0.088,0.0342 0.0929,0.13194 -0.044,0.018 -0.0757,0.0612 -0.0757,0.12955 0,0.0636 0.022,0.10015 0.066,0.11235 -0.0391,0.28589 -0.16373,0.49848 -0.28346,0.49848 z"
         id="path13087" /><path
         style="color:#000000;font-size:1.22231px;font-family:Dunkin;-inkscape-font-specification:'Lobster Two, Normal';fill:#2c5aa0;fill-opacity:1;stroke-width:0.430014;-inkscape-stroke:none"
         d="m 119.71934,194.86931 -0.47161,0.37142 0.18326,-0.86013 -0.36164,0.0488 -0.35432,1.66162 h 0.35187 l 0.12707,-0.60356 c 0.0684,-0.0562 0.12462,-0.0904 0.18082,-0.0904 0.0635,0 0.088,0.0464 0.088,0.11735 0,0.10255 -0.044,0.20037 -0.044,0.31276 0,0.17832 0.10751,0.27858 0.30789,0.27858 0.11241,0 0.31033,-0.0416 0.44961,-0.45206 h -0.10263 c -0.0538,0.12714 -0.0977,0.21502 -0.20526,0.21502 -0.0757,0 -0.0953,-0.0416 -0.0953,-0.0904 0,-0.0954 0.0489,-0.18812 0.0489,-0.29323 0,-0.15633 -0.088,-0.2859 -0.26879,-0.2859 -0.0269,0 -0.0538,0.004 -0.0806,0.01 l 0.48871,-0.33965 z"
         id="path13089" /><path
         style="color:#000000;font-size:1.22231px;font-family:Dunkin;-inkscape-font-specification:'Lobster Two, Normal';fill:#2c5aa0;fill-opacity:1;stroke-width:0.430014;-inkscape-stroke:none"
         d="m 120.23982,194.86931 -0.16617,0.78438 c -0.0122,0.0586 -0.0196,0.11235 -0.0196,0.15893 0,0.20525 0.11485,0.29323 0.26146,0.29323 0.0831,0 0.19303,-0.022 0.29811,-0.14174 l -0.0244,0.10756 c -0.23214,0.0684 -0.42274,0.13934 -0.42274,0.36654 0,0.15893 0.13928,0.2639 0.28835,0.2639 0.16127,0 0.37142,-0.066 0.44472,-0.4154 l 0.29812,-1.41726 h -0.35432 l -0.16617,0.78438 c -0.0367,0.12214 -0.10017,0.21502 -0.19549,0.21502 -0.0562,0 -0.0733,-0.0514 -0.0733,-0.10755 0,-0.02 0.002,-0.0416 0.007,-0.0612 l 0.17594,-0.8308 z m 0.0611,1.53455 c 0,-0.13194 0.11729,-0.20281 0.27123,-0.25413 l -0.0293,0.14414 c -0.0318,0.14414 -0.0953,0.19052 -0.14418,0.19052 -0.0538,0 -0.0977,-0.0464 -0.0977,-0.0806 z"
         id="path13091" /><path
         id="path883"
         style="font-style:normal;font-variant:normal;font-weight:normal;font-stretch:normal;font-size:28.1463px;line-height:1.25;font-family:'Lobster Two';-inkscape-font-specification:'Lobster Two, Normal';font-variant-ligatures:normal;font-variant-caps:normal;font-variant-numeric:normal;font-variant-east-asian:normal;fill:#2c5aa0;fill-opacity:1;stroke:none;stroke-width:0.208644"
         d="m 89.696885,190.535 c 0.100157,0.0668 0.242027,0.10016 0.33383,0.10016 0.242027,0 0.442328,-0.2921 0.442328,-0.70104 0,-0.35886 -0.1836,-0.73442 -0.926381,-0.73442 -1.694191,0 -2.245013,1.98628 -2.245013,2.93771 0,0.94307 0.517439,1.32696 1.301939,1.32696 1.109988,0 1.819379,-0.77614 2.295089,-1.54395 H 90.61492 c -0.417288,0.4757 -0.817884,0.84292 -1.477201,0.84292 -0.400597,0 -0.634278,-0.14194 -0.634278,-0.7094 0,-0.90968 0.525785,-2.41193 1.10164,-2.41193 0.158571,0 0.233683,0.11675 0.233683,0.3088 0,0.14194 -0.05841,0.40059 -0.141879,0.58421 z" /><path
         id="path885"
         style="font-style:normal;font-variant:normal;font-weight:normal;font-stretch:normal;font-size:28.1463px;line-height:1.25;font-family:'Lobster Two';-inkscape-font-specification:'Lobster Two, Normal';font-variant-ligatures:normal;font-variant-caps:normal;font-variant-numeric:normal;font-variant-east-asian:normal;fill:#2c5aa0;fill-opacity:1;stroke:none;stroke-width:0.208644"
         d="m 92.784811,189.19968 c -1.71923,0 -2.286742,1.98628 -2.286742,2.94604 0,0.95143 0.559166,1.31863 1.335324,1.31863 1.02653,0 1.869451,-0.97645 2.002983,-2.52876 0.600898,-0.10016 1.151716,-0.35053 1.468857,-0.6927 l -0.07511,-0.22532 c -0.358869,0.25037 -0.901344,0.50074 -1.285248,0.50074 -0.02503,0 -0.05841,0 -0.0918,-0.008 -0.0084,-0.86796 -0.358869,-1.31029 -1.068256,-1.31029 z m -0.617589,3.48017 c -0.317138,0 -0.425633,-0.12514 -0.425633,-0.676 0,-0.81789 0.517438,-2.30343 1.109987,-2.30343 0.208646,0 0.300448,0.12515 0.317139,0.46736 -0.150215,0.0584 -0.25872,0.20865 -0.25872,0.44233 0,0.16693 0.05008,0.30879 0.225337,0.35053 -0.125186,0.98479 -0.559167,1.71921 -0.96811,1.71921 z" /><path
         id="path887"
         style="font-style:normal;font-variant:normal;font-weight:normal;font-stretch:normal;font-size:28.1463px;line-height:1.25;font-family:'Lobster Two';-inkscape-font-specification:'Lobster Two, Normal';font-variant-ligatures:normal;font-variant-caps:normal;font-variant-numeric:normal;font-variant-east-asian:normal;fill:#2c5aa0;fill-opacity:1;stroke:none;stroke-width:0.208644"
         d="m 96.682277,190.39312 c 0,0.53413 -0.375562,1.56065 -0.375562,2.12816 0,0.47572 0.258723,0.94307 0.984804,0.94307 0.442325,0 1.084947,-0.17532 1.552313,-1.54395 h -0.350525 c -0.1836,0.43397 -0.333829,0.73442 -0.701044,0.73442 -0.25037,0 -0.33383,-0.14193 -0.33383,-0.35052 0,-0.46736 0.400595,-1.4772 0.400595,-2.15321 0,-0.66765 -0.392248,-0.94307 -0.926377,-0.94307 -0.25872,0 -0.625936,0.0668 -0.976456,0.46735 l 0.0918,-0.43397 h -1.201792 l -0.884651,4.17288 h 1.20179 l 0.567515,-2.67899 c 0.125185,-0.41729 0.35052,-0.7678 0.650968,-0.7678 0.200299,0 0.300448,0.15013 0.300448,0.42563 z" /><path
         id="path889"
         style="font-style:normal;font-variant:normal;font-weight:normal;font-stretch:normal;font-size:28.1463px;line-height:1.25;font-family:'Lobster Two';-inkscape-font-specification:'Lobster Two, Normal';font-variant-ligatures:normal;font-variant-caps:normal;font-variant-numeric:normal;font-variant-east-asian:normal;fill:#2c5aa0;fill-opacity:1;stroke:none;stroke-width:0.208644"
         d="m 100.89689,190.39312 c 0,0.53413 -0.37557,1.56065 -0.37557,2.12816 0,0.47572 0.25872,0.94307 0.98481,0.94307 0.44232,0 1.08494,-0.17532 1.55231,-1.54395 h -0.35053 c -0.1836,0.43397 -0.33383,0.73442 -0.70104,0.73442 -0.25037,0 -0.33383,-0.14193 -0.33383,-0.35052 0,-0.46736 0.4006,-1.4772 0.4006,-2.15321 0,-0.66765 -0.39225,-0.94307 -0.92638,-0.94307 -0.25872,0 -0.62594,0.0668 -0.97646,0.46735 l 0.0918,-0.43397 h -1.20179 l -0.884651,4.17288 h 1.20179 l 0.567514,-2.67899 c 0.125187,-0.41729 0.350517,-0.7678 0.650967,-0.7678 0.2003,0 0.30045,0.15013 0.30045,0.42563 z" /><path
         id="path891"
         style="font-style:normal;font-variant:normal;font-weight:normal;font-stretch:normal;font-size:28.1463px;line-height:1.25;font-family:'Lobster Two';-inkscape-font-specification:'Lobster Two, Normal';font-variant-ligatures:normal;font-variant-caps:normal;font-variant-numeric:normal;font-variant-east-asian:normal;fill:#2c5aa0;fill-opacity:1;stroke:none;stroke-width:0.208644"
         d="m 103.83459,192.06228 c 0,-0.10016 0.008,-0.21701 0.0168,-0.33383 1.00149,-0.0584 1.91952,-0.78451 1.91952,-1.72758 0,-0.4173 -0.17526,-0.80119 -0.91803,-0.80119 -1.71088,0 -2.25336,1.98628 -2.25336,2.93771 0,0.94307 0.51744,1.32696 1.30194,1.32696 1.10999,0 1.81938,-0.77614 2.29509,-1.54395 h -0.28375 c -0.4173,0.4757 -0.81789,0.84292 -1.47721,0.84292 -0.40059,0 -0.60089,-0.13354 -0.60089,-0.70104 z m 1.29359,-2.0781 c 0,0.67601 -0.55917,1.30194 -1.21014,1.34366 0.17527,-0.81789 0.58421,-1.68585 1.0015,-1.68585 0.15857,0 0.20864,0.13354 0.20864,0.34219 z" /><path
         id="path893"
         style="font-style:normal;font-variant:normal;font-weight:normal;font-stretch:normal;font-size:28.1463px;line-height:1.25;font-family:'Lobster Two';-inkscape-font-specification:'Lobster Two, Normal';font-variant-ligatures:normal;font-variant-caps:normal;font-variant-numeric:normal;font-variant-east-asian:normal;fill:#2c5aa0;fill-opacity:1;stroke:none;stroke-width:0.208644"
         d="m 108.19941,190.535 c 0.10016,0.0668 0.24203,0.10016 0.33383,0.10016 0.24203,0 0.44233,-0.2921 0.44233,-0.70104 0,-0.35886 -0.1836,-0.73442 -0.92638,-0.73442 -1.69419,0 -2.24501,1.98628 -2.24501,2.93771 0,0.94307 0.51743,1.32696 1.30194,1.32696 1.10999,0 1.81938,-0.77614 2.29508,-1.54395 h -0.28375 c -0.41729,0.4757 -0.81789,0.84292 -1.4772,0.84292 -0.4006,0 -0.63428,-0.14194 -0.63428,-0.7094 0,-0.90968 0.52578,-2.41193 1.10164,-2.41193 0.15857,0 0.23368,0.11675 0.23368,0.3088 0,0.14194 -0.0584,0.40059 -0.14188,0.58421 z" /><path
         id="path895"
         style="font-style:normal;font-variant:normal;font-weight:normal;font-stretch:normal;font-size:28.1463px;line-height:1.25;font-family:'Lobster Two';-inkscape-font-specification:'Lobster Two, Normal';font-variant-ligatures:normal;font-variant-caps:normal;font-variant-numeric:normal;font-variant-east-asian:normal;fill:#2c5aa0;fill-opacity:1;stroke:none;stroke-width:0.208644"
         d="m 109.93533,188.08968 -0.25038,1.15172 h -0.27541 l -0.0668,0.33384 h 0.27541 l -0.50074,2.34516 c -0.0417,0.2003 -0.0668,0.3839 -0.0668,0.54247 0,0.70103 0.39226,1.00148 0.893,1.00148 0.45067,0 1.27691,-0.18352 1.75261,-1.54395 h -0.35052 c -0.12519,0.41728 -0.42563,0.73442 -0.75112,0.73442 -0.23368,0 -0.34217,-0.0752 -0.34217,-0.3088 0,-0.0752 0.008,-0.15853 0.0334,-0.26707 l 0.53413,-2.50371 h 0.50075 l 0.0668,-0.33384 h -0.50075 l 0.28376,-1.31863 z" /><path
         id="path897"
         style="font-style:normal;font-variant:normal;font-weight:normal;font-stretch:normal;font-size:28.1463px;line-height:1.25;font-family:'Lobster Two';-inkscape-font-specification:'Lobster Two, Normal';font-variant-ligatures:normal;font-variant-caps:normal;font-variant-numeric:normal;font-variant-east-asian:normal;fill:#2c5aa0;fill-opacity:1;stroke:none;stroke-width:0.208644"
         d="m 112.08017,188.13142 c 0,0.3672 0.2921,0.65932 0.65932,0.65932 0.36721,0 0.66766,-0.29212 0.66766,-0.65932 0,-0.36722 -0.30045,-0.66767 -0.66766,-0.66767 -0.36722,0 -0.65932,0.30045 -0.65932,0.66767 z m -0.1669,1.10998 -0.56752,2.679 c -0.0417,0.2003 -0.0668,0.3839 -0.0668,0.54247 0,0.70103 0.39225,1.00148 0.893,1.00148 0.45067,0 1.2769,-0.18352 1.75261,-1.54395 h -0.35053 c -0.12518,0.41728 -0.42563,0.73442 -0.75111,0.73442 -0.23368,0 -0.34218,-0.0752 -0.34218,-0.3088 0,-0.0752 0.008,-0.15853 0.0334,-0.26707 l 0.6009,-2.83755 z" /><path
         id="path899"
         style="font-style:normal;font-variant:normal;font-weight:normal;font-stretch:normal;font-size:28.1463px;line-height:1.25;font-family:'Lobster Two';-inkscape-font-specification:'Lobster Two, Normal';font-variant-ligatures:normal;font-variant-caps:normal;font-variant-numeric:normal;font-variant-east-asian:normal;fill:#2c5aa0;fill-opacity:1;stroke:none;stroke-width:0.208644"
         d="m 115.74395,189.19968 c -1.71923,0 -2.28674,1.98628 -2.28674,2.94604 0,0.95143 0.55917,1.31863 1.33532,1.31863 1.02653,0 1.86946,-0.97645 2.00299,-2.52876 0.60089,-0.10016 1.15171,-0.35053 1.46885,-0.6927 l -0.0751,-0.22532 c -0.35887,0.25037 -0.90134,0.50074 -1.28525,0.50074 -0.025,0 -0.0584,0 -0.0918,-0.008 -0.008,-0.86796 -0.35887,-1.31029 -1.06826,-1.31029 z m -0.61759,3.48017 c -0.31714,0 -0.42563,-0.12514 -0.42563,-0.676 0,-0.81789 0.51744,-2.30343 1.10999,-2.30343 0.20864,0 0.30045,0.12515 0.31714,0.46736 -0.15022,0.0584 -0.25872,0.20865 -0.25872,0.44233 0,0.16693 0.0501,0.30879 0.22533,0.35053 -0.12518,0.98479 -0.55916,1.71921 -0.96811,1.71921 z" /><path
         id="path901"
         style="font-style:normal;font-variant:normal;font-weight:normal;font-stretch:normal;font-size:28.1463px;line-height:1.25;font-family:'Lobster Two';-inkscape-font-specification:'Lobster Two, Normal';font-variant-ligatures:normal;font-variant-caps:normal;font-variant-numeric:normal;font-variant-east-asian:normal;fill:#2c5aa0;fill-opacity:1;stroke:none;stroke-width:0.208644"
         d="m 119.64142,190.39312 c 0,0.53413 -0.37556,1.56065 -0.37556,2.12816 0,0.47572 0.2003,0.94307 0.84292,0.94307 0.44232,0 0.84293,-0.2587 0.91803,-0.8596 -0.0501,0.0334 -0.13354,0.05 -0.27541,0.05 -0.25037,0 -0.33383,-0.14193 -0.33383,-0.35052 0,-0.46736 0.4006,-1.4772 0.4006,-2.15321 0,-0.66765 -0.39225,-0.94307 -0.92638,-0.94307 -0.25872,0 -0.62593,0.0668 -0.97645,0.46735 l 0.0918,-0.43397 h -1.2018 l -0.88465,4.17288 h 1.20179 L 118.69,190.7352 c 0.12518,-0.4173 0.35052,-0.76781 0.65097,-0.76781 0.20029,0 0.30044,0.15013 0.30044,0.42563 z" /></g></g></svg>
