<?xml version="1.0" encoding="UTF-8" standalone="no"?>
<!-- Created with Inkscape (http://www.inkscape.org/) -->

<svg
   width="680"
   height="190"
   viewBox="0 0 179.91666 50.270833"
   version="1.1"
   id="svg4981"
   inkscape:version="1.2.1 (9c6d41e410, 2022-07-14, custom)"
   sodipodi:docname="main_logo.svg"
   xml:space="preserve"
   xmlns:inkscape="http://www.inkscape.org/namespaces/inkscape"
   xmlns:sodipodi="http://sodipodi.sourceforge.net/DTD/sodipodi-0.dtd"
   xmlns="http://www.w3.org/2000/svg"
   xmlns:svg="http://www.w3.org/2000/svg"><sodipodi:namedview
     id="namedview4983"
     pagecolor="#ffffff"
     bordercolor="#000000"
     borderopacity="0.25"
     inkscape:showpageshadow="false"
     inkscape:pageopacity="0.0"
     inkscape:pagecheckerboard="0"
     inkscape:deskcolor="#d1d1d1"
     inkscape:document-units="px"
     showgrid="false"
     inkscape:zoom="1.829812"
     inkscape:cx="212.8634"
     inkscape:cy="86.894173"
     inkscape:window-width="2534"
     inkscape:window-height="1408"
     inkscape:window-x="26"
     inkscape:window-y="0"
     inkscape:window-maximized="1"
     inkscape:current-layer="layer1" /><defs
     id="defs4978" /><g
     inkscape:label="Livello 1"
     inkscape:groupmode="layer"
     id="layer1"><g
       id="g24136"
       transform="translate(-2.6632131,-2.2445864)"
       style="fill:#2c5aa0;fill-opacity:1"><g
         id="g25621"
         style="fill:#2c5aa0;fill-opacity:1"
         transform="matrix(0.86667531,0,0,0.86667531,35.882869,-1.1882626)"><path
           d="m 33.55991,16.00256 v 3.62511 H 28.28886 V 35.2532 H 21.43849 V 19.62767 h -6.22761 v -3.62511 z"
           style="font-size:14.1111px;line-height:1.25;font-family:Interceptor;-inkscape-font-specification:Interceptor;fill:#2c5aa0;fill-opacity:1;stroke-width:0.479147"
           id="path4862"
           sodipodi:nodetypes="ccccccccc" /><path
           d="m 48.55099,25.37787 v -4.75016 c 0,-0.66668 -0.31137,-1.00004 -0.93413,-1.00004 H 42.94615 V 35.2532 H 36.09578 V 16.00256 h 15.88041 c 2.28344,0 3.42517,1.12503 3.42517,3.37511 v 6.26271 c -0.009,2.24174 -1.15003,3.36261 -3.42517,3.36261 h 0.26156 l 3.32554,6.25021 h -6.9002 l -3.32555,-6.25021 h -0.81206 v -3.62512 z"
           style="font-size:14.1111px;line-height:1.25;font-family:Interceptor;-inkscape-font-specification:Interceptor;fill:#2c5aa0;fill-opacity:1;stroke-width:0.479147"
           id="path4864"
           sodipodi:nodetypes="cssccccssccccccccc" /><path
           d="m 68.2128,16.00256 c 2.23364,0 3.78639,1.30838 4.65824,3.92513 l 5.08174,15.32551 h -6.86282 l -1.03378,-3.1251 h -3.37785 l 1.2206,-3.62511 h 0.94909 L 67.59004,24.72784 64.09013,35.2532 h -6.86284 l 6.38954,-19.25064 z"
           style="font-size:14.1111px;line-height:1.25;font-family:Interceptor;-inkscape-font-specification:Interceptor;fill:#2c5aa0;fill-opacity:1;stroke-width:0.479147"
           id="path4866"
           sodipodi:nodetypes="scccccccccccs" /><path
           d="M 86.62908,28.40048 V 35.2532 H 79.77873 V 18.08764 Z m -0.57293,-2.6351 -6.48917,-9.76282 h 6.93755 l 5.72939,8.62529 v -8.62529 h 6.85037 V 35.2532 h -6.7258 z"
           style="font-size:14.1111px;line-height:1.25;font-family:Interceptor;-inkscape-font-specification:Interceptor;fill:#2c5aa0;fill-opacity:1;stroke-width:0.479147"
           id="path4868"
           sodipodi:nodetypes="cccccccccccccc" /><path
           d="m 119.01264,16.00256 v 3.62511 H 113.7416 V 35.2532 h -6.85037 V 19.62767 h -5.27105 v -3.62511 z"
           style="font-size:14.1111px;line-height:1.25;font-family:Interceptor;-inkscape-font-specification:Interceptor;fill:#2c5aa0;fill-opacity:1;stroke-width:0.479147"
           id="path4870"
           sodipodi:nodetypes="ccccccccc" /><path
           d="m 124.9737,35.2532 c -2.27514,0 -3.41687,-1.12087 -3.42517,-3.36261 V 19.37767 c 0,-2.25008 1.14173,-3.37928 3.42517,-3.38762 h 12.44277 c 2.29175,0.009 3.43764,1.13756 3.43764,3.38762 v 12.50041 c 0,2.25009 -1.14173,3.37512 -3.42519,3.37512 z m 3.4252,-15.62553 v 11.00038 c 0,0.66669 0.30722,1.00003 0.92168,1.00003 h 4.69561 l -0.0123,-11.00036 c 0,-0.65837 -0.31553,-0.9917 -0.9466,-1.00005 z"
           style="font-size:14.1111px;line-height:1.25;font-family:Interceptor;-inkscape-font-specification:Interceptor;fill:#2c5aa0;fill-opacity:1;stroke-width:0.479147"
           id="path4872"
           sodipodi:nodetypes="scsccsssscsscccc" /><path
           d="m 155.8452,25.37787 v -4.75016 c 0,-0.66668 -0.31137,-1.00004 -0.93413,-1.00004 h -4.6707 V 35.2532 H 143.39 V 16.00256 h 15.88041 c 2.28344,0 3.42517,1.12503 3.42517,3.37511 v 6.26271 c -0.009,2.24174 -1.15017,3.36261 -3.42517,3.36261 h 0.26154 l 3.32555,6.25021 h -6.90019 l -3.32554,-6.25021 h -0.81209 v -3.62512 z"
           style="font-size:14.1111px;line-height:1.25;font-family:Interceptor;-inkscape-font-specification:Interceptor;fill:#2c5aa0;fill-opacity:1;stroke-width:0.479147"
           id="path4874"
           sodipodi:nodetypes="cssccccssccccccccc" /></g><path
         d="m 59.376932,34.018627 q 0,0.06731 -0.05365,0.121243 -0.04024,0.0404 -0.107433,0.0404 h -2.792637 q -0.06714,0 -0.06714,0.06731 v 2.129023 q 0,0.06731 0.06714,0.06731 h 1.597705 q 0.06715,0 0.107433,0.0539 0.05365,0.0404 0.05365,0.107871 v 1.307059 q 0,0.06731 -0.05365,0.121242 -0.04024,0.0404 -0.107433,0.0404 h -1.597705 q -0.06714,0 -0.06714,0.06731 v 3.678641 q 0,0.06731 -0.05365,0.121243 -0.04024,0.0404 -0.107433,0.0404 h -1.570855 q -0.06715,0 -0.120812,-0.0404 -0.04024,-0.0539 -0.04024,-0.121243 V 32.71132 q 0,-0.06731 0.04024,-0.107863 0.05365,-0.0539 0.120812,-0.0539 h 4.591736 q 0.06715,0 0.107433,0.0539 0.05365,0.0404 0.05365,0.107863 z"
         style="font-weight:bold;font-stretch:condensed;font-size:8.97089px;line-height:1.25;font-family:'Barlow Condensed';-inkscape-font-specification:'Barlow Condensed,  Bold Condensed';fill:#2c5aa0;fill-opacity:1;stroke:none;stroke-width:0.109529;stroke-dasharray:none"
         id="path4876" /><path
         d="m 69.985463,42.090086 q -1.235219,0 -1.973653,-0.727646 -0.738434,-0.727638 -0.738434,-1.940378 V 35.1101 q 0,-1.21274 0.738434,-1.940378 0.73845,-0.727646 1.973653,-0.727646 1.235202,0 1.973636,0.727646 0.751872,0.727638 0.751872,1.940378 v 4.311962 q 0,1.21274 -0.751872,1.940378 -0.738434,0.727646 -1.973636,0.727646 z m 0,-1.630458 q 0.375923,0 0.604168,-0.256022 0.228253,-0.269501 0.228253,-0.700697 v -4.473656 q 0,-0.431196 -0.228253,-0.687218 -0.228245,-0.269501 -0.604168,-0.269501 -0.375948,0 -0.604185,0.269501 -0.214807,0.256022 -0.214807,0.687218 v 4.473656 q 0,0.431196 0.214807,0.700697 0.228237,0.256022 0.604185,0.256022 z"
         style="font-weight:bold;font-stretch:condensed;font-size:8.97089px;line-height:1.25;font-family:'Barlow Condensed';-inkscape-font-specification:'Barlow Condensed,  Bold Condensed';fill:#2c5aa0;fill-opacity:1;stroke:none;stroke-width:0.109529;stroke-dasharray:none"
         id="path4878" /><path
         d="m 83.279203,42.090086 q -1.208353,0 -1.946787,-0.754587 -0.725021,-0.768082 -0.725021,-2.034713 v -6.589218 q 0,-0.06731 0.04024,-0.107871 0.05365,-0.0539 0.120804,-0.0539 h 1.570863 q 0.06715,0 0.107433,0.0539 0.05365,0.0404 0.05365,0.107871 v 6.777863 q 0,0.431196 0.214824,0.700696 0.214824,0.269501 0.563897,0.269501 0.349074,0 0.550485,-0.269501 0.214808,-0.2695 0.214808,-0.700696 v -6.777863 q 0,-0.06731 0.04024,-0.107871 0.05365,-0.0539 0.120812,-0.0539 h 1.570855 q 0.06715,0 0.107433,0.0539 0.05365,0.0404 0.05365,0.107871 v 6.589218 q 0,1.266631 -0.738434,2.034713 -0.725005,0.754587 -1.919937,0.754587 z"
         style="font-weight:bold;font-stretch:condensed;font-size:8.97089px;line-height:1.25;font-family:'Barlow Condensed';-inkscape-font-specification:'Barlow Condensed,  Bold Condensed';fill:#2c5aa0;fill-opacity:1;stroke:none;stroke-width:0.109529;stroke-dasharray:none"
         id="path4880" /><path
         d="m 97.674011,32.711568 q 0,-0.06731 0.04024,-0.107871 0.05365,-0.0539 0.120804,-0.0539 h 1.557426 q 0.06715,0 0.107433,0.0539 0.05365,0.0404 0.05365,0.107871 v 9.109017 q 0,0.06748 -0.05365,0.121251 -0.04024,0.0404 -0.107433,0.0404 H 97.62024 q -0.134333,0 -0.174545,-0.134762 l -1.664842,-5.214782 q -0.01308,-0.0404 -0.05365,-0.02691 -0.02691,0 -0.02691,0.0404 l 0.01308,5.174353 q 0,0.06731 -0.05365,0.121242 -0.04024,0.0404 -0.107433,0.0404 h -1.557434 q -0.06715,0 -0.120804,-0.0404 -0.04024,-0.05398 -0.04024,-0.121242 v -9.108992 q 0,-0.06731 0.04024,-0.107872 0.05365,-0.0539 0.120804,-0.0539 h 1.758821 q 0.134324,0 0.174536,0.134763 l 1.67828,5.214781 q 0.01308,0.0404 0.04024,0.0404 0.04024,-0.01308 0.04024,-0.0539 z"
         style="font-weight:bold;font-stretch:condensed;font-size:8.97089px;line-height:1.25;font-family:'Barlow Condensed';-inkscape-font-specification:'Barlow Condensed,  Bold Condensed';fill:#2c5aa0;fill-opacity:1;stroke:none;stroke-width:0.109529;stroke-dasharray:none"
         id="path4882" /><path
         d="m 107.61103,41.982289 q -0.0671,0 -0.1208,-0.0404 -0.0402,-0.0539 -0.0402,-0.121243 v -9.109025 q 0,-0.06731 0.0402,-0.107722 0.0537,-0.0539 0.1208,-0.0539 h 2.43014 q 1.22178,0 1.96022,0.714176 0.73843,0.714159 0.73843,1.899958 v 4.204156 q 0,1.185783 -0.73843,1.899959 -0.73844,0.714159 -1.96022,0.714159 z m 1.73198,-1.697827 q 0,0.06731 0.0671,0.06731 l 0.60417,-0.01308 q 0.3625,-0.01308 0.59075,-0.309912 0.22825,-0.29645 0.24167,-0.781537 v -3.961629 q 0,-0.512035 -0.22824,-0.808494 -0.22824,-0.296433 -0.6176,-0.296433 h -0.59075 q -0.0671,0 -0.0671,0.06731 z"
         style="font-weight:bold;font-stretch:condensed;font-size:8.97089px;line-height:1.25;font-family:'Barlow Condensed';-inkscape-font-specification:'Barlow Condensed,  Bold Condensed';fill:#2c5aa0;fill-opacity:1;stroke:none;stroke-width:0.109529;stroke-dasharray:none"
         id="path4884" /><path
         d="m 124.99392,41.982289 q -0.1611,0 -0.17454,-0.148225 l -0.21482,-1.29358 q 0,-0.06731 -0.0806,-0.06731 h -1.70511 q -0.0806,0 -0.0806,0.06731 l -0.21483,1.29358 q -0.0131,0.148225 -0.17454,0.148225 h -1.57085 q -0.17455,0 -0.13433,-0.175174 l 1.97365,-9.109025 q 0.0269,-0.148209 0.17454,-0.148209 h 1.81252 q 0.1477,0 0.17455,0.148209 l 1.96022,9.109025 0.0131,0.0539 q 0,0.121243 -0.14768,0.121243 z m -1.98707,-3.045314 q 0,0.06731 0.0537,0.06731 h 1.20835 q 0.0671,0 0.0537,-0.06731 l -0.63101,-3.67865 q -0.0131,-0.0404 -0.0402,-0.0404 -0.0269,0 -0.0402,0.0404 z"
         style="font-weight:bold;font-stretch:condensed;font-size:8.97089px;line-height:1.25;font-family:'Barlow Condensed';-inkscape-font-specification:'Barlow Condensed,  Bold Condensed';fill:#2c5aa0;fill-opacity:1;stroke:none;stroke-width:0.109529;stroke-dasharray:none"
         id="path4886" /><path
         d="m 140.12649,32.549881 q 0.0671,0 0.10743,0.0539 0.0536,0.0404 0.0536,0.107863 v 1.307075 q 0,0.06731 -0.0536,0.121243 -0.0402,0.0404 -0.10743,0.0404 h -1.67827 q -0.0671,0 -0.0671,0.06731 v 7.572877 q 0,0.06748 -0.0537,0.121243 -0.0402,0.0404 -0.10743,0.0404 h -1.57086 q -0.0671,0 -0.12081,-0.0404 -0.0402,-0.0539 -0.0402,-0.121243 v -7.572877 q 0,-0.06731 -0.0671,-0.06731 h -1.61114 q -0.0671,0 -0.12081,-0.0404 -0.0402,-0.0539 -0.0402,-0.121243 v -1.307075 q 0,-0.06731 0.0402,-0.107863 0.0537,-0.0539 0.12081,-0.0539 z"
         style="font-weight:bold;font-stretch:condensed;font-size:8.97089px;line-height:1.25;font-family:'Barlow Condensed';-inkscape-font-specification:'Barlow Condensed,  Bold Condensed';fill:#2c5aa0;fill-opacity:1;stroke:none;stroke-width:0.109529;stroke-dasharray:none"
         id="path4888" /><path
         d="m 148.34505,41.982289 q -0.0671,0 -0.12082,-0.0404 -0.0402,-0.0539 -0.0402,-0.121243 v -9.109025 q 0,-0.06731 0.0402,-0.107722 0.0537,-0.0539 0.12082,-0.0539 h 1.57085 q 0.0671,0 0.10743,0.0539 0.0537,0.0404 0.0537,0.107722 v 9.109025 q 0,0.06748 -0.0537,0.121243 -0.0402,0.0404 -0.10743,0.0404 z"
         style="font-weight:bold;font-stretch:condensed;font-size:8.97089px;line-height:1.25;font-family:'Barlow Condensed';-inkscape-font-specification:'Barlow Condensed,  Bold Condensed';fill:#2c5aa0;fill-opacity:1;stroke:none;stroke-width:0.109529;stroke-dasharray:none"
         id="path4890" /><path
         d="m 160.68548,42.090086 q -1.2352,0 -1.97363,-0.727646 -0.73844,-0.727638 -0.73844,-1.940378 V 35.1101 q 0,-1.21274 0.73844,-1.940378 0.73843,-0.727646 1.97363,-0.727646 1.23522,0 1.97366,0.727646 0.75185,0.727638 0.75185,1.940378 v 4.311962 q 0,1.21274 -0.75185,1.940378 -0.73844,0.727646 -1.97366,0.727646 z m 0,-1.630458 q 0.37594,0 0.60419,-0.256022 0.22825,-0.269501 0.22825,-0.700697 v -4.473656 q 0,-0.431196 -0.22825,-0.687218 -0.22825,-0.269501 -0.60419,-0.269501 -0.37593,0 -0.60416,0.269501 -0.21483,0.256022 -0.21483,0.687218 v 4.473656 q 0,0.431196 0.21483,0.700697 0.22823,0.256022 0.60416,0.256022 z"
         style="font-weight:bold;font-stretch:condensed;font-size:8.97089px;line-height:1.25;font-family:'Barlow Condensed';-inkscape-font-specification:'Barlow Condensed,  Bold Condensed';fill:#2c5aa0;fill-opacity:1;stroke:none;stroke-width:0.109529;stroke-dasharray:none"
         id="path4892" /><path
         d="m 175.14777,32.711568 q 0,-0.06731 0.0402,-0.107871 0.0538,-0.0539 0.12081,-0.0539 h 1.55743 q 0.067,0 0.10743,0.0539 0.0538,0.0404 0.0538,0.107871 v 9.109017 q 0,0.06748 -0.0538,0.121251 -0.0402,0.0404 -0.10743,0.0404 h -1.77225 q -0.13433,0 -0.17454,-0.134762 l -1.66485,-5.214782 q -0.0131,-0.0404 -0.0538,-0.02691 -0.0268,0 -0.0268,0.0404 l 0.0131,5.174353 q 0,0.06731 -0.0538,0.121242 -0.0402,0.0404 -0.10743,0.0404 h -1.55743 q -0.067,0 -0.1208,-0.0404 -0.0402,-0.05398 -0.0402,-0.121242 v -9.108992 q 0,-0.06731 0.0402,-0.107872 0.0538,-0.0539 0.1208,-0.0539 h 1.75883 q 0.13418,0 0.17454,0.134763 l 1.67828,5.214781 q 0.0131,0.0404 0.0402,0.0404 0.0402,-0.01308 0.0402,-0.0539 z"
         style="font-weight:bold;font-stretch:condensed;font-size:8.97089px;line-height:1.25;font-family:'Barlow Condensed';-inkscape-font-specification:'Barlow Condensed,  Bold Condensed';fill:#2c5aa0;fill-opacity:1;stroke:none;stroke-width:0.109529;stroke-dasharray:none"
         id="path4894" /></g><g
       id="g4450"><path
         id="path4852"
         style="fill:#2c5aa0;fill-opacity:1;stroke:none;stroke-width:4.79147;stroke-linecap:round;stroke-linejoin:round;stroke-dasharray:none;paint-order:stroke markers fill"
         d="M 23.20128,1.8499261 C 10.38759,1.8499761 5e-5,12.275216 0,25.135406 c 5e-5,12.8602 10.38759,23.28545 23.20128,23.2855 12.81368,-5e-5 23.20124,-10.42529 23.20127,-23.2855 C 46.40252,12.275216 36.01496,1.8499761 23.20128,1.8499261 Z"
         sodipodi:nodetypes="ccccc" /><g
         id="g2005"
         transform="matrix(1,0,0,-1,0,50.270812)"
         style="fill:#ffffff"><path
           id="path4858"
           style="fill:#ffffff;fill-opacity:1;stroke-width:0.426927;stroke-linecap:round;stroke-linejoin:round;paint-order:stroke markers fill"
           d="m 4.64051,25.135406 a 18.560763,18.812988 0 0 0 18.56077,18.81299 v -18.81299 z" /><path
           id="path4860"
           style="fill:#ffffff;fill-opacity:1;stroke-width:0.426927;stroke-linecap:round;stroke-linejoin:round;paint-order:stroke markers fill"
           d="M 41.76204,25.135406 A 18.560763,18.812988 0 0 0 23.20128,6.3224161 V 25.135406 Z" /></g><path
         id="path2760"
         style="fill:#2c5aa0;fill-opacity:1;stroke:none;stroke-width:2.44635;stroke-linecap:round;stroke-linejoin:round;stroke-dasharray:none;paint-order:stroke markers fill"
         d="m 23.201278,13.246688 c -6.542206,2.6e-5 -11.845708,5.322776 -11.845733,11.888723 2.5e-5,6.565952 5.303527,11.888707 11.845733,11.888733 6.5422,-2.6e-5 11.845712,-5.322776 11.845727,-11.888733 -1.5e-5,-6.565947 -5.303527,-11.888697 -11.845727,-11.888723 z"
         sodipodi:nodetypes="ccccc" /></g></g></svg>
