<?xml version="1.0" encoding="UTF-8" standalone="no"?>
<!-- Created with Inkscape (http://www.inkscape.org/) -->

<svg
   width="192"
   height="36"
   viewBox="0 0 50.799999 9.5249997"
   version="1.1"
   id="svg4981"
   inkscape:version="1.2.1 (9c6d41e410, 2022-07-14, custom)"
   sodipodi:docname="navbar_logo.svg"
   xml:space="preserve"
   xmlns:inkscape="http://www.inkscape.org/namespaces/inkscape"
   xmlns:sodipodi="http://sodipodi.sourceforge.net/DTD/sodipodi-0.dtd"
   xmlns="http://www.w3.org/2000/svg"
   xmlns:svg="http://www.w3.org/2000/svg"><sodipodi:namedview
     id="namedview4983"
     pagecolor="#ffffff"
     bordercolor="#000000"
     borderopacity="0.25"
     inkscape:showpageshadow="false"
     inkscape:pageopacity="0.0"
     inkscape:pagecheckerboard="0"
     inkscape:deskcolor="#d1d1d1"
     inkscape:document-units="px"
     showgrid="false"
     inkscape:zoom="7.1705047"
     inkscape:cx="70.84578"
     inkscape:cy="-4.8811069"
     inkscape:window-width="2534"
     inkscape:window-height="1408"
     inkscape:window-x="26"
     inkscape:window-y="0"
     inkscape:window-maximized="1"
     inkscape:current-layer="layer1" /><defs
     id="defs4978" /><g
     inkscape:label="Livello 1"
     inkscape:groupmode="layer"
     id="layer1"><g
       id="g10217"
       transform="matrix(0.82260342,0,0,0.82260342,1.3718866,0.91270427)"
       style="fill:#ffffff"><g
         id="g25621"
         style="fill:#ffffff;fill-opacity:1"
         transform="matrix(0.26957806,0,0,0.26957806,5.5716094,-3.2755168)"><path
           d="m 33.55991,16.00256 v 3.62511 H 28.28886 V 35.2532 H 21.43849 V 19.62767 h -6.22761 v -3.62511 z"
           style="font-size:14.1111px;line-height:1.25;font-family:Interceptor;-inkscape-font-specification:Interceptor;fill:#ffffff;fill-opacity:1;stroke-width:0.479147"
           id="path4862-1"
           sodipodi:nodetypes="ccccccccc" /><path
           d="m 48.55099,25.37787 v -4.75016 c 0,-0.66668 -0.31137,-1.00004 -0.93413,-1.00004 H 42.94615 V 35.2532 H 36.09578 V 16.00256 h 15.88041 c 2.28344,0 3.42517,1.12503 3.42517,3.37511 v 6.26271 c -0.009,2.24174 -1.15003,3.36261 -3.42517,3.36261 h 0.26156 l 3.32554,6.25021 h -6.9002 l -3.32555,-6.25021 h -0.81206 v -3.62512 z"
           style="font-size:14.1111px;line-height:1.25;font-family:Interceptor;-inkscape-font-specification:Interceptor;fill:#ffffff;fill-opacity:1;stroke-width:0.479147"
           id="path4864-2"
           sodipodi:nodetypes="cssccccssccccccccc" /><path
           d="m 68.2128,16.00256 c 2.23364,0 3.78639,1.30838 4.65824,3.92513 l 5.08174,15.32551 h -6.86282 l -1.03378,-3.1251 h -3.37785 l 1.2206,-3.62511 h 0.94909 L 67.59004,24.72784 64.09013,35.2532 h -6.86284 l 6.38954,-19.25064 z"
           style="font-size:14.1111px;line-height:1.25;font-family:Interceptor;-inkscape-font-specification:Interceptor;fill:#ffffff;fill-opacity:1;stroke-width:0.479147"
           id="path4866-7"
           sodipodi:nodetypes="scccccccccccs" /><path
           d="M 86.62908,28.40048 V 35.2532 H 79.77873 V 18.08764 Z m -0.57293,-2.6351 -6.48917,-9.76282 h 6.93755 l 5.72939,8.62529 v -8.62529 h 6.85037 V 35.2532 h -6.7258 z"
           style="font-size:14.1111px;line-height:1.25;font-family:Interceptor;-inkscape-font-specification:Interceptor;fill:#ffffff;fill-opacity:1;stroke-width:0.479147"
           id="path4868-0"
           sodipodi:nodetypes="cccccccccccccc" /><path
           d="m 119.01264,16.00256 v 3.62511 H 113.7416 V 35.2532 h -6.85037 V 19.62767 h -5.27105 v -3.62511 z"
           style="font-size:14.1111px;line-height:1.25;font-family:Interceptor;-inkscape-font-specification:Interceptor;fill:#ffffff;fill-opacity:1;stroke-width:0.479147"
           id="path4870-9"
           sodipodi:nodetypes="ccccccccc" /><path
           d="m 124.9737,35.2532 c -2.27514,0 -3.41687,-1.12087 -3.42517,-3.36261 V 19.37767 c 0,-2.25008 1.14173,-3.37928 3.42517,-3.38762 h 12.44277 c 2.29175,0.009 3.43764,1.13756 3.43764,3.38762 v 12.50041 c 0,2.25009 -1.14173,3.37512 -3.42519,3.37512 z m 3.4252,-15.62553 v 11.00038 c 0,0.66669 0.30722,1.00003 0.92168,1.00003 h 4.69561 l -0.0123,-11.00036 c 0,-0.65837 -0.31553,-0.9917 -0.9466,-1.00005 z"
           style="font-size:14.1111px;line-height:1.25;font-family:Interceptor;-inkscape-font-specification:Interceptor;fill:#ffffff;fill-opacity:1;stroke-width:0.479147"
           id="path4872-3"
           sodipodi:nodetypes="scsccsssscsscccc" /><path
           d="m 155.8452,25.37787 v -4.75016 c 0,-0.66668 -0.31137,-1.00004 -0.93413,-1.00004 h -4.6707 V 35.2532 H 143.39 V 16.00256 h 15.88041 c 2.28344,0 3.42517,1.12503 3.42517,3.37511 v 6.26271 c -0.009,2.24174 -1.15017,3.36261 -3.42517,3.36261 h 0.26154 l 3.32555,6.25021 h -6.90019 l -3.32554,-6.25021 h -0.81209 v -3.62512 z"
           style="font-size:14.1111px;line-height:1.25;font-family:Interceptor;-inkscape-font-specification:Interceptor;fill:#ffffff;fill-opacity:1;stroke-width:0.479147"
           id="path4874-6"
           sodipodi:nodetypes="cssccccssccccccccc" /></g><path
         d="m 12.256879,7.7628991 q 0,0.012443 -0.0099,0.022412 -0.0074,0.00747 -0.01986,0.00747 H 11.71089 q -0.01241,0 -0.01241,0.012443 v 0.3935576 q 0,0.012443 0.01241,0.012443 h 0.295341 q 0.01241,0 0.01986,0.00996 0.0099,0.00747 0.0099,0.019941 v 0.2416145 q 0,0.012443 -0.0099,0.022412 -0.0074,0.00747 -0.01986,0.00747 H 11.71089 q -0.01241,0 -0.01241,0.012443 v 0.6800102 q 0,0.012443 -0.0099,0.022412 -0.0074,0.00747 -0.01986,0.00747 h -0.290379 q -0.01241,0 -0.02233,-0.00747 -0.0074,-0.00996 -0.0074,-0.022412 V 7.5212386 q 0,-0.012443 0.0074,-0.019939 0.0099,-0.00996 0.02233,-0.00996 h 0.8488 q 0.01241,0 0.01986,0.00996 0.0099,0.00747 0.0099,0.019939 z"
         style="font-weight:bold;font-stretch:condensed;font-size:8.97089px;line-height:1.25;font-family:'Barlow Condensed';-inkscape-font-specification:'Barlow Condensed,  Bold Condensed';fill:#ffffff;fill-opacity:1;stroke:none;stroke-width:0.0202468;stroke-dasharray:none"
         id="path4876-0" /><path
         d="m 15.936098,9.2549375 q -0.228335,0 -0.364837,-0.134508 Q 15.434759,8.985923 15.434759,8.7617435 V 7.9646619 q 0,-0.2241795 0.136502,-0.358686 0.136505,-0.134508 0.364837,-0.134508 0.228332,0 0.364834,0.134508 0.138986,0.1345065 0.138986,0.358686 v 0.7970816 q 0,0.2241795 -0.138986,0.358686 -0.136502,0.134508 -0.364834,0.134508 z m 0,-0.3013961 q 0.06949,0 0.111683,-0.047327 0.04219,-0.049818 0.04219,-0.1295263 V 7.9497169 q 0,-0.079708 -0.04219,-0.1270348 -0.04219,-0.049818 -0.111683,-0.049818 -0.06949,0 -0.111686,0.049818 -0.03971,0.047327 -0.03971,0.1270348 v 0.8269716 q 0,0.079708 0.03971,0.1295263 0.04219,0.047327 0.111686,0.047327 z"
         style="font-weight:bold;font-stretch:condensed;font-size:8.97089px;line-height:1.25;font-family:'Barlow Condensed';-inkscape-font-specification:'Barlow Condensed,  Bold Condensed';fill:#ffffff;fill-opacity:1;stroke:none;stroke-width:0.0202468;stroke-dasharray:none"
         id="path4878-6" /><path
         d="m 20.111668,9.2549375 q -0.223368,0 -0.35987,-0.1394882 Q 19.617775,8.9734665 19.617775,8.7393252 V 7.5212845 q 0,-0.012443 0.0074,-0.01994 0.0099,-0.00996 0.02233,-0.00996 h 0.29038 q 0.01241,0 0.01986,0.00996 0.0099,0.00747 0.0099,0.01994 v 1.2529124 q 0,0.079708 0.03971,0.1295263 0.03971,0.049818 0.104239,0.049818 0.06453,0 0.101759,-0.049818 0.03971,-0.049818 0.03971,-0.1295263 V 7.5212845 q 0,-0.012443 0.0074,-0.01994 0.0099,-0.00996 0.02233,-0.00996 h 0.290379 q 0.01241,0 0.01986,0.00996 0.0099,0.00747 0.0099,0.01994 v 1.2180407 q 0,0.2341413 -0.136502,0.3761241 -0.13402,0.1394882 -0.354907,0.1394882 z"
         style="font-weight:bold;font-stretch:condensed;font-size:8.97089px;line-height:1.25;font-family:'Barlow Condensed';-inkscape-font-specification:'Barlow Condensed,  Bold Condensed';fill:#ffffff;fill-opacity:1;stroke:none;stroke-width:0.0202468;stroke-dasharray:none"
         id="path4880-2" /><path
         d="m 24.490636,7.5212845 q 0,-0.012443 0.0074,-0.01994 0.0099,-0.00996 0.02233,-0.00996 h 0.287895 q 0.01241,0 0.01986,0.00996 0.0099,0.00747 0.0099,0.01994 v 1.6838348 q 0,0.012473 -0.0099,0.022414 -0.0074,0.00747 -0.01986,0.00747 h -0.327605 q -0.02483,0 -0.03226,-0.024911 L 24.140678,8.246119 q -0.0024,-0.00747 -0.0099,-0.00497 -0.005,0 -0.005,0.00747 l 0.0024,0.956498 q 0,0.012443 -0.0099,0.022412 -0.0074,0.00747 -0.01986,0.00747 H 23.81052 q -0.01241,0 -0.02233,-0.00747 -0.0074,-0.00998 -0.0074,-0.022412 V 7.5212815 q 0,-0.012443 0.0074,-0.01994 0.0099,-0.00996 0.02233,-0.00996 h 0.325125 q 0.02483,0 0.03226,0.024911 l 0.310236,0.9639712 q 0.0024,0.00747 0.0074,0.00747 0.0074,-0.00242 0.0074,-0.00996 z"
         style="font-weight:bold;font-stretch:condensed;font-size:8.97089px;line-height:1.25;font-family:'Barlow Condensed';-inkscape-font-specification:'Barlow Condensed,  Bold Condensed';fill:#ffffff;fill-opacity:1;stroke:none;stroke-width:0.0202468;stroke-dasharray:none"
         id="path4882-6" /><path
         d="m 28.045609,9.2350108 q -0.01241,0 -0.02233,-0.00747 -0.0074,-0.00996 -0.0074,-0.022412 V 7.5212937 q 0,-0.012443 0.0074,-0.019913 0.0099,-0.00996 0.02233,-0.00996 h 0.44922 q 0.22585,0 0.362354,0.132018 0.136502,0.1320148 0.136502,0.3512142 v 0.7771534 q 0,0.2191963 -0.136502,0.3512143 -0.136504,0.1320148 -0.362354,0.1320148 z m 0.320163,-0.3138494 q 0,0.012443 0.01241,0.012443 l 0.111683,-0.00242 q 0.06701,-0.00242 0.109202,-0.057288 0.04219,-0.0548 0.04467,-0.1444698 V 7.9971062 q 0,-0.094652 -0.04219,-0.149453 -0.04219,-0.054797 -0.114165,-0.054797 H 28.37818 q -0.01241,0 -0.01241,0.012443 z"
         style="font-weight:bold;font-stretch:condensed;font-size:8.97089px;line-height:1.25;font-family:'Barlow Condensed';-inkscape-font-specification:'Barlow Condensed,  Bold Condensed';fill:#ffffff;fill-opacity:1;stroke:none;stroke-width:0.0202468;stroke-dasharray:none"
         id="path4884-1" /><path
         d="m 32.977063,9.2350108 q -0.02978,0 -0.03226,-0.0274 l -0.03971,-0.239123 q 0,-0.012443 -0.01489,-0.012443 h -0.315202 q -0.01489,0 -0.01489,0.012443 l -0.03971,0.239123 q -0.0024,0.0274 -0.03226,0.0274 h -0.290378 q -0.03226,0 -0.02483,-0.032382 l 0.364828,-1.6838359 q 0.005,-0.027397 0.03226,-0.027397 h 0.335051 q 0.0273,0 0.03227,0.027397 l 0.362353,1.6838363 0.0024,0.00996 q 0,0.022412 -0.0273,0.022412 z M 32.609747,8.6720735 q 0,0.012443 0.0099,0.012443 h 0.223369 q 0.01241,0 0.0099,-0.012443 L 32.736304,7.9920618 q -0.0024,-0.00747 -0.0074,-0.00747 -0.005,0 -0.0074,0.00747 z"
         style="font-weight:bold;font-stretch:condensed;font-size:8.97089px;line-height:1.25;font-family:'Barlow Condensed';-inkscape-font-specification:'Barlow Condensed,  Bold Condensed';fill:#ffffff;fill-opacity:1;stroke:none;stroke-width:0.0202468;stroke-dasharray:none"
         id="path4886-8" /><path
         d="m 37.492432,7.4913961 q 0.01241,0 0.01986,0.00996 0.0099,0.00747 0.0099,0.019939 v 0.2416176 q 0,0.012443 -0.0099,0.022412 -0.0074,0.00747 -0.01986,0.00747 h -0.310233 q -0.01241,0 -0.01241,0.012443 v 1.3998738 q 0,0.012473 -0.0099,0.022412 -0.0074,0.00747 -0.01986,0.00747 h -0.29038 q -0.01241,0 -0.02233,-0.00747 -0.0074,-0.00996 -0.0074,-0.022412 V 7.8052394 q 0,-0.012443 -0.01241,-0.012443 h -0.297826 q -0.01241,0 -0.02233,-0.00747 -0.0074,-0.00996 -0.0074,-0.022412 V 7.5212983 q 0,-0.012443 0.0074,-0.019939 0.0099,-0.00996 0.02233,-0.00996 z"
         style="font-weight:bold;font-stretch:condensed;font-size:8.97089px;line-height:1.25;font-family:'Barlow Condensed';-inkscape-font-specification:'Barlow Condensed,  Bold Condensed';fill:#ffffff;fill-opacity:1;stroke:none;stroke-width:0.0202468;stroke-dasharray:none"
         id="path4888-7" /><path
         d="m 40.72978,9.2350108 q -0.01241,0 -0.02233,-0.00747 -0.0074,-0.00996 -0.0074,-0.022412 V 7.5212937 q 0,-0.012443 0.0074,-0.019913 0.0099,-0.00996 0.02233,-0.00996 h 0.290378 q 0.01241,0 0.01986,0.00996 0.0099,0.00747 0.0099,0.019913 V 9.20513 q 0,0.012473 -0.0099,0.022412 -0.0074,0.00747 -0.01986,0.00747 z"
         style="font-weight:bold;font-stretch:condensed;font-size:8.97089px;line-height:1.25;font-family:'Barlow Condensed';-inkscape-font-specification:'Barlow Condensed,  Bold Condensed';fill:#ffffff;fill-opacity:1;stroke:none;stroke-width:0.0202468;stroke-dasharray:none"
         id="path4890-9" /><path
         d="m 44.729111,9.2549375 q -0.228332,0 -0.364834,-0.134508 Q 44.227775,8.985923 44.227775,8.7617435 V 7.9646619 q 0,-0.2241795 0.136502,-0.358686 0.136502,-0.134508 0.364834,-0.134508 0.228333,0 0.364836,0.134508 0.138984,0.1345065 0.138984,0.358686 v 0.7970816 q 0,0.2241795 -0.138984,0.358686 -0.136503,0.134508 -0.364836,0.134508 z m 0,-0.3013961 q 0.06949,0 0.111685,-0.047327 0.04219,-0.049818 0.04219,-0.1295263 V 7.9497169 q 0,-0.079708 -0.04219,-0.1270348 -0.04219,-0.049818 -0.111685,-0.049818 -0.06949,0 -0.111683,0.049818 -0.03971,0.047327 -0.03971,0.1270348 v 0.8269716 q 0,0.079708 0.03971,0.1295263 0.04219,0.047327 0.111683,0.047327 z"
         style="font-weight:bold;font-stretch:condensed;font-size:8.97089px;line-height:1.25;font-family:'Barlow Condensed';-inkscape-font-specification:'Barlow Condensed,  Bold Condensed';fill:#ffffff;fill-opacity:1;stroke:none;stroke-width:0.0202468;stroke-dasharray:none"
         id="path4892-2" /><path
         d="m 49.120533,7.5212845 q 0,-0.012443 0.0074,-0.01994 0.0099,-0.00996 0.02233,-0.00996 h 0.287896 q 0.01238,0 0.01986,0.00996 0.0099,0.00747 0.0099,0.01994 v 1.6838348 q 0,0.012473 -0.0099,0.022414 -0.0074,0.00747 -0.01986,0.00747 h -0.327607 q -0.02483,0 -0.03226,-0.024911 L 48.770575,8.246119 q -0.0024,-0.00747 -0.0099,-0.00497 -0.0049,0 -0.0049,0.00747 l 0.0024,0.956498 q 0,0.012443 -0.0099,0.022412 -0.0074,0.00747 -0.01986,0.00747 h -0.287896 q -0.01238,0 -0.02233,-0.00747 -0.0074,-0.00998 -0.0074,-0.022412 V 7.5212815 q 0,-0.012443 0.0074,-0.01994 0.0099,-0.00996 0.02233,-0.00996 h 0.325126 q 0.02481,0 0.03227,0.024911 l 0.310234,0.9639712 q 0.0024,0.00747 0.0074,0.00747 0.0074,-0.00242 0.0074,-0.00996 z"
         style="font-weight:bold;font-stretch:condensed;font-size:8.97089px;line-height:1.25;font-family:'Barlow Condensed';-inkscape-font-specification:'Barlow Condensed,  Bold Condensed';fill:#ffffff;fill-opacity:1;stroke:none;stroke-width:0.0202468;stroke-dasharray:none"
         id="path4894-0" /></g><g
       id="g5296"
       transform="translate(9.8927471,-0.91474303)"><path
         id="path4852"
         style="fill:#ffffff;fill-opacity:1;stroke:none;stroke-width:0.979983;stroke-linecap:round;stroke-linejoin:round;stroke-dasharray:none;paint-order:stroke markers fill"
         d="m -5.1474695,0.91474281 c -2.6207393,1.023e-5 -4.7452666,2.13224819 -4.7452768,4.76249789 1.02e-5,2.6302519 2.1245375,4.7624923 4.7452768,4.7625023 2.6207373,-10e-6 4.74526867,-2.1322484 4.74527481,-4.7625023 C -0.40220083,3.046991 -2.5267322,0.91475304 -5.1474695,0.91474281 Z"
         sodipodi:nodetypes="ccccc" /><g
         id="g2005"
         transform="matrix(0.20452651,0,0,-0.20452651,-9.8927463,10.818098)"
         style="fill:#2c5aa0;fill-opacity:1"><path
           id="path4858"
           style="fill:#2c5aa0;fill-opacity:1;stroke-width:0.426927;stroke-linecap:round;stroke-linejoin:round;paint-order:stroke markers fill"
           d="m 4.64051,25.135406 a 18.560763,18.812988 0 0 0 18.56077,18.81299 v -18.81299 z" /><path
           id="path4860"
           style="fill:#2c5aa0;fill-opacity:1;stroke-width:0.426927;stroke-linecap:round;stroke-linejoin:round;paint-order:stroke markers fill"
           d="M 41.76204,25.135406 A 18.560763,18.812988 0 0 0 23.20128,6.3224161 V 25.135406 Z" /></g><path
         id="path2760"
         style="fill:#ffffff;fill-opacity:1;stroke:none;stroke-width:0.500343;stroke-linecap:round;stroke-linejoin:round;stroke-dasharray:none;paint-order:stroke markers fill"
         d="m -5.1474699,3.2456827 c -1.3380545,5.4e-6 -2.4227613,1.0886488 -2.4227664,2.4315591 5.1e-6,1.3429112 1.0847119,2.4315557 2.4227664,2.431561 1.3380534,-5.3e-6 2.4227622,-1.0886488 2.4227652,-2.431561 -3e-6,-1.3429103 -1.0847118,-2.4315537 -2.4227652,-2.4315591 z"
         sodipodi:nodetypes="ccccc" /></g></g></svg>
