<?xml version="1.0" encoding="UTF-8" standalone="no"?>
<!-- Generator: Adobe Illustrator 19.0.0, SVG Export Plug-In . SVG Version: 6.00 Build 0)  -->

<svg
   version="1.1"
   id="Layer_1"
   x="0px"
   y="0px"
   viewBox="0 0 260 60"
   xml:space="preserve"
   sodipodi:docname="permits_form_icon_edit.svg"
   inkscape:version="1.4 (e7c3feb100, 2024-10-09)"
   width="260"
   height="60"
   xmlns:inkscape="http://www.inkscape.org/namespaces/inkscape"
   xmlns:sodipodi="http://sodipodi.sourceforge.net/DTD/sodipodi-0.dtd"
   xmlns="http://www.w3.org/2000/svg"
   xmlns:svg="http://www.w3.org/2000/svg"><defs
   id="defs53">










	
	






		
		
		
	
	
	

	
	
	

	
	















<filter
   id="filter0_iii_103_1650"
   x="2.7827101"
   y="2.34326"
   width="28.874001"
   height="25.8741"
   filterUnits="userSpaceOnUse"
   color-interpolation-filters="sRGB"><feFlood
     flood-opacity="0"
     result="BackgroundImageFix"
     id="feFlood3233" /><feBlend
     mode="normal"
     in="SourceGraphic"
     in2="BackgroundImageFix"
     result="shape"
     id="feBlend3235" /><feColorMatrix
     in="SourceAlpha"
     type="matrix"
     values="0 0 0 0 0 0 0 0 0 0 0 0 0 0 0 0 0 0 127 0"
     result="hardAlpha"
     id="feColorMatrix3237" /><feOffset
     dx="-1"
     id="feOffset3239" /><feGaussianBlur
     stdDeviation="0.5"
     id="feGaussianBlur3241" /><feComposite
     in2="hardAlpha"
     operator="arithmetic"
     k2="-1"
     k3="1"
     id="feComposite3243"
     k1="0"
     k4="0" /><feColorMatrix
     type="matrix"
     values="0 0 0 0 0.419608 0 0 0 0 0.823529 0 0 0 0 0.956863 0 0 0 1 0"
     id="feColorMatrix3245" /><feBlend
     mode="normal"
     in2="shape"
     result="effect1_innerShadow_103_1650"
     id="feBlend3247" /><feColorMatrix
     in="SourceAlpha"
     type="matrix"
     values="0 0 0 0 0 0 0 0 0 0 0 0 0 0 0 0 0 0 127 0"
     result="hardAlpha"
     id="feColorMatrix3249" /><feOffset
     id="feOffset3251" /><feGaussianBlur
     stdDeviation="1"
     id="feGaussianBlur3253" /><feComposite
     in2="hardAlpha"
     operator="arithmetic"
     k2="-1"
     k3="1"
     id="feComposite3255"
     k1="0"
     k4="0" /><feColorMatrix
     type="matrix"
     values="0 0 0 0 0.419608 0 0 0 0 0.823529 0 0 0 0 0.956863 0 0 0 1 0"
     id="feColorMatrix3257" /><feBlend
     mode="normal"
     in2="effect1_innerShadow_103_1650"
     result="effect2_innerShadow_103_1650"
     id="feBlend3259" /><feColorMatrix
     in="SourceAlpha"
     type="matrix"
     values="0 0 0 0 0 0 0 0 0 0 0 0 0 0 0 0 0 0 127 0"
     result="hardAlpha"
     id="feColorMatrix3261" /><feOffset
     dx="2"
     id="feOffset3263" /><feGaussianBlur
     stdDeviation="1"
     id="feGaussianBlur3265" /><feComposite
     in2="hardAlpha"
     operator="arithmetic"
     k2="-1"
     k3="1"
     id="feComposite3267"
     k1="0"
     k4="0" /><feColorMatrix
     type="matrix"
     values="0 0 0 0 1 0 0 0 0 1 0 0 0 0 1 0 0 0 1 0"
     id="feColorMatrix3269" /><feBlend
     mode="normal"
     in2="effect2_innerShadow_103_1650"
     result="effect3_innerShadow_103_1650"
     id="feBlend3271" /></filter><radialGradient
   id="paint0_radial_103_1650"
   cx="0"
   cy="0"
   r="1"
   gradientUnits="userSpaceOnUse"
   gradientTransform="matrix(-23.957781,24.915829,-8.3052522,-7.9859039,21.288,6.93591)"><stop
     stop-color="white"
     id="stop3274" /><stop
     offset="1"
     stop-color="#AEF1FD"
     id="stop3276" /></radialGradient><linearGradient
   id="paint1_linear_103_1650"
   x1="26.7873"
   y1="4.8737502"
   x2="12.2944"
   y2="-2.8248301"
   gradientUnits="userSpaceOnUse"><stop
     stop-color="#64CCF3"
     id="stop3279" /><stop
     offset="1"
     stop-color="#64CCF3"
     stop-opacity="0"
     id="stop3281" /></linearGradient><linearGradient
   id="paint2_linear_103_1650"
   x1="30.927099"
   y1="2.7374599"
   x2="26.6099"
   y2="-0.99310499"
   gradientUnits="userSpaceOnUse"><stop
     stop-color="#64CCF3"
     id="stop3284" /><stop
     offset="1"
     stop-color="#64CCF3"
     stop-opacity="0"
     id="stop3286" /></linearGradient><radialGradient
   id="paint3_radial_103_1650"
   cx="0"
   cy="0"
   r="1"
   gradientUnits="userSpaceOnUse"
   gradientTransform="matrix(-3.4442821,5.5557079,-2.9819538,-1.8486735,8.01294,23.162)"><stop
     stop-color="#FE6100"
     id="stop3289" /><stop
     offset="1"
     stop-color="#E94A09"
     id="stop3291" /></radialGradient></defs><sodipodi:namedview
   id="namedview51"
   pagecolor="#ffffff"
   bordercolor="#000000"
   borderopacity="0.25"
   inkscape:showpageshadow="false"
   inkscape:pageopacity="0.0"
   inkscape:pagecheckerboard="0"
   inkscape:deskcolor="#d1d1d1"
   showgrid="false"
   inkscape:zoom="4.3023028"
   inkscape:cx="142.13318"
   inkscape:cy="-19.756861"
   inkscape:window-width="2528"
   inkscape:window-height="1404"
   inkscape:window-x="2592"
   inkscape:window-y="0"
   inkscape:window-maximized="1"
   inkscape:current-layer="Layer_1" />







<g
   id="g20">
</g>
<g
   id="g22">
</g>
<g
   id="g24">
</g>
<g
   id="g26">
</g>
<g
   id="g28">
</g>
<g
   id="g30">
</g>
<g
   id="g32">
</g>
<g
   id="g34">
</g>
<g
   id="g36">
</g>
<g
   id="g38">
</g>
<g
   id="g40">
</g>
<g
   id="g42">
</g>
<g
   id="g44">
</g>
<g
   id="g46">
</g>
<g
   id="g48">
</g>
<g
   id="g20-3"
   transform="translate(-233.94037,-71.360017)">
</g><g
   id="g22-5"
   transform="translate(-233.94037,-71.360017)">
</g><g
   id="g24-6"
   transform="translate(-233.94037,-71.360017)">
</g><g
   id="g26-2"
   transform="translate(-233.94037,-71.360017)">
</g><g
   id="g28-9"
   transform="translate(-233.94037,-71.360017)">
</g><g
   id="g30-1"
   transform="translate(-233.94037,-71.360017)">
</g><g
   id="g32-2"
   transform="translate(-233.94037,-71.360017)">
</g><g
   id="g34-7"
   transform="translate(-233.94037,-71.360017)">
</g><g
   id="g36-0"
   transform="translate(-233.94037,-71.360017)">
</g><g
   id="g38-9"
   transform="translate(-233.94037,-71.360017)">
</g><g
   id="g40-3"
   transform="translate(-233.94037,-71.360017)">
</g><g
   id="g42-6"
   transform="translate(-233.94037,-71.360017)">
</g><g
   id="g44-0"
   transform="translate(-233.94037,-71.360017)">
</g><g
   id="g46-6"
   transform="translate(-233.94037,-71.360017)">
</g><g
   id="g48-2"
   transform="translate(-233.94037,-71.360017)">
</g><g
   id="g1038"
   transform="matrix(0.11472343,0,0,0.11472343,-320.98562,1.471168)">
</g><g
   id="g1040"
   transform="matrix(0.11472343,0,0,0.11472343,-320.98562,1.471168)">
</g><g
   id="g1042"
   transform="matrix(0.11472343,0,0,0.11472343,-320.98562,1.471168)">
</g><g
   id="g1044"
   transform="matrix(0.11472343,0,0,0.11472343,-320.98562,1.471168)">
</g><g
   id="g1046"
   transform="matrix(0.11472343,0,0,0.11472343,-320.98562,1.471168)">
</g><g
   id="g1048"
   transform="matrix(0.11472343,0,0,0.11472343,-320.98562,1.471168)">
</g><g
   id="g1050"
   transform="matrix(0.11472343,0,0,0.11472343,-320.98562,1.471168)">
</g><g
   id="g1052"
   transform="matrix(0.11472343,0,0,0.11472343,-320.98562,1.471168)">
</g><g
   id="g1054"
   transform="matrix(0.11472343,0,0,0.11472343,-320.98562,1.471168)">
</g><g
   id="g1056"
   transform="matrix(0.11472343,0,0,0.11472343,-320.98562,1.471168)">
</g><g
   id="g1058"
   transform="matrix(0.11472343,0,0,0.11472343,-320.98562,1.471168)">
</g><g
   id="g1060"
   transform="matrix(0.11472343,0,0,0.11472343,-320.98562,1.471168)">
</g><g
   id="g1062"
   transform="matrix(0.11472343,0,0,0.11472343,-320.98562,1.471168)">
</g><g
   id="g1064"
   transform="matrix(0.11472343,0,0,0.11472343,-320.98562,1.471168)">
</g><g
   id="g1066"
   transform="matrix(0.11472343,0,0,0.11472343,-320.98562,1.471168)">
</g><g
   id="g20-1"
   transform="translate(-348.42422,-113.54881)">
</g><g
   id="g22-2"
   transform="translate(-348.42422,-113.54881)">
</g><g
   id="g24-7"
   transform="translate(-348.42422,-113.54881)">
</g><g
   id="g26-0"
   transform="translate(-348.42422,-113.54881)">
</g><g
   id="g28-93"
   transform="translate(-348.42422,-113.54881)">
</g><g
   id="g30-6"
   transform="translate(-348.42422,-113.54881)">
</g><g
   id="g32-0"
   transform="translate(-348.42422,-113.54881)">
</g><g
   id="g34-6"
   transform="translate(-348.42422,-113.54881)">
</g><g
   id="g36-2"
   transform="translate(-348.42422,-113.54881)">
</g><g
   id="g38-6"
   transform="translate(-348.42422,-113.54881)">
</g><g
   id="g40-1"
   transform="translate(-348.42422,-113.54881)">
</g><g
   id="g42-8"
   transform="translate(-348.42422,-113.54881)">
</g><g
   id="g44-7"
   transform="translate(-348.42422,-113.54881)">
</g><g
   id="g46-9"
   transform="translate(-348.42422,-113.54881)">
</g><g
   id="g48-20"
   transform="translate(-348.42422,-113.54881)">
</g><g
   id="g1038-2"
   transform="matrix(0.11472343,0,0,0.11472343,-435.46947,-40.717625)">
</g><g
   id="g1040-3"
   transform="matrix(0.11472343,0,0,0.11472343,-435.46947,-40.717625)">
</g><g
   id="g1042-7"
   transform="matrix(0.11472343,0,0,0.11472343,-435.46947,-40.717625)">
</g><g
   id="g1044-5"
   transform="matrix(0.11472343,0,0,0.11472343,-435.46947,-40.717625)">
</g><g
   id="g1046-9"
   transform="matrix(0.11472343,0,0,0.11472343,-435.46947,-40.717625)">
</g><g
   id="g1048-2"
   transform="matrix(0.11472343,0,0,0.11472343,-435.46947,-40.717625)">
</g><g
   id="g1050-2"
   transform="matrix(0.11472343,0,0,0.11472343,-435.46947,-40.717625)">
</g><g
   id="g1052-8"
   transform="matrix(0.11472343,0,0,0.11472343,-435.46947,-40.717625)">
</g><g
   id="g1054-9"
   transform="matrix(0.11472343,0,0,0.11472343,-435.46947,-40.717625)">
</g><g
   id="g1056-7"
   transform="matrix(0.11472343,0,0,0.11472343,-435.46947,-40.717625)">
</g><g
   id="g1058-3"
   transform="matrix(0.11472343,0,0,0.11472343,-435.46947,-40.717625)">
</g><g
   id="g1060-6"
   transform="matrix(0.11472343,0,0,0.11472343,-435.46947,-40.717625)">
</g><g
   id="g1062-1"
   transform="matrix(0.11472343,0,0,0.11472343,-435.46947,-40.717625)">
</g><g
   id="g1064-2"
   transform="matrix(0.11472343,0,0,0.11472343,-435.46947,-40.717625)">
</g><g
   id="g1066-9"
   transform="matrix(0.11472343,0,0,0.11472343,-435.46947,-40.717625)">
</g><path
   d="m 42.625843,12.53405 c 0.08799,0.11291 0.230011,0.40378 0.230011,0.843862 v 44.263803 c 0,0.440078 -0.142022,0.730888 -0.230011,0.843788 H 1.744441 c -0.08799,-0.1129 -0.229873,-0.40371 -0.229873,-0.843788 V 13.377912 c 0,-0.440152 0.141954,-0.730952 0.229943,-0.843862 h 40.881332 m 0.131396,-1.51456 H 1.613115 C 0.722054,11.01949 0,12.07548 0,13.377912 v 44.263803 c 0,1.302361 0.722054,2.358287 1.613115,2.358287 H 42.75717 c 0.890853,0 1.613184,-1.055926 1.613184,-2.358287 V 13.377912 c 0,-1.302432 -0.722261,-2.358422 -1.613115,-2.358422 z"
   fill="#4e6dc4"
   id="path2"
   style="fill:#0d7474;fill-opacity:1;stroke-width:0.0674004" /><path
   d="m 35.039614,19.35986 c 0.09834,0 0.178254,0.07702 0.178254,0.171628 v 31.647071 c 0,0.09461 -0.07998,0.17156 -0.178254,0.17156 H 9.33074 c -0.09827,0 -0.178186,-0.07695 -0.178186,-0.17156 V 19.531488 c 0,-0.09461 0.07991,-0.171628 0.178186,-0.171628 h 25.708874 m 0,-1.514499 H 9.33074 c -0.935021,0 -1.692684,0.754972 -1.692684,1.686127 v 31.647071 c 0,0.931155 0.757663,1.686128 1.692684,1.686128 h 25.708944 c 0.934813,0 1.692752,-0.754973 1.692752,-1.686128 V 19.531488 c 0,-0.931155 -0.758009,-1.686127 -1.692822,-1.686127 z"
   fill="#4e6dc4"
   id="path4"
   style="fill:#0d7474;fill-opacity:1;stroke-width:0.0674004" /><path
   d="m 24.118257,44.790555 -0.410886,-6.87e-4 -0.647731,0.0038 -8.755193,-0.01566 6.87e-4,-0.421583 c 0,0 -0.185775,-2.355321 3.283508,-2.951983 0,0 2.640747,-0.351677 2.826937,-1.077389 0,0 0.100893,-0.0806 0.02802,-0.923978 -0.155274,-1.795647 -1.328517,-2.642541 -1.802548,-3.329814 -0.474032,-0.687342 -0.512194,-1.479442 -0.512194,-1.479442 3.37e-4,-0.197921 0.08343,-0.270382 0.221523,-0.397223 0.170593,-0.156998 0.119801,-0.32421 0.08757,-0.501222 -0.122632,-0.672159 -0.131603,-1.751687 -0.01277,-2.427643 0.02788,-0.805211 0.768291,-1.450733 0.768291,-1.450733 0.138918,-0.117386 0.278111,-0.246643 0.375761,-0.401709 0.02733,-0.0432 0.05245,-0.08957 0.06728,-0.13871 0.05604,-0.185224 -0.132224,-0.321726 -0.09406,-0.51882 0.0345,-0.177701 0.339185,-0.185913 0.523442,-0.195299 0.415028,-0.02105 0.832196,-0.03664 1.246464,-0.0041 3.100631,0.243261 4.118118,1.386692 4.118118,1.386692 0.240915,0.289498 0.399293,0.643313 0.49432,1.005824 0.0285,0.108346 0.05286,0.219039 0.06598,0.330421 0.09565,0.555533 0.09427,1.134736 0.06321,1.695928 -0.01484,0.267552 -0.04637,0.530896 -0.08612,0.795619 -0.02084,0.138504 -0.01049,0.267484 0.08192,0.378383 0.07729,0.09275 0.165625,0.157689 0.203373,0.279492 0.01774,0.05693 0.02222,0.118422 0.02208,0.177701 0,0 -0.04099,0.791962 -0.517439,1.477579 -0.476447,0.685617 -1.652796,1.528301 -1.814418,3.323396 -0.07591,0.843098 0.02477,0.924048 0.02477,0.924048 0.183498,0.726401 2.823002,1.087532 2.823002,1.087532 3.50586,0.656632 3.272812,2.963714 3.272812,2.963714 l -7.62e-4,0.421516 -2.308876,-0.0041 0.363822,-0.0043 -0.310684,-6.06e-4 -0.643866,-0.0011 z"
   fill="#4e6dc4"
   id="path5"
   style="fill:#0d7474;fill-opacity:1;stroke-width:0.0674004" /><path
   d="M 28.663342,15.505361 H 15.70708 c -0.418202,0 -0.75725,-0.338702 -0.75725,-0.757249 V 7.83142 c 0,-0.41855 0.339048,-0.75725 0.75725,-0.75725 h 12.956262 c 0.418203,0 0.75725,0.3387 0.75725,0.75725 v 6.916622 c 0,0.418617 -0.339047,0.757319 -0.75725,0.757319 z"
   fill="#4e6dc4"
   id="path7"
   style="fill:#0d7474;fill-opacity:1;stroke-width:0.0674004"
   sodipodi:nodetypes="sssssssss" /><path
   d="m 25.670575,10.06404 h -6.970658 c -0.418202,0 -0.75725,-0.3387 -0.75725,-0.75725 V 0.75725 C 17.942667,0.3387 18.281715,0 18.699917,0 h 6.970658 c 0.418201,0 0.757249,0.3387 0.757249,0.75725 v 8.54947 c 0,0.41862 -0.339116,0.75732 -0.757249,0.75732 z M 19.457167,8.54947 h 5.456089 V 1.5145 h -5.456089 z"
   fill="#4e6dc4"
   id="path9"
   style="fill:#0d7474;fill-opacity:1;stroke-width:0.0674004" /><g
   id="g20-2"
   transform="translate(51.803264,-108.18449)">
</g><g
   id="g22-54"
   transform="translate(51.803264,-108.18449)">
</g><g
   id="g24-74"
   transform="translate(51.803264,-108.18449)">
</g><g
   id="g26-4"
   transform="translate(51.803264,-108.18449)">
</g><g
   id="g28-3"
   transform="translate(51.803264,-108.18449)">
</g><g
   id="g30-0"
   transform="translate(51.803264,-108.18449)">
</g><g
   id="g32-7"
   transform="translate(51.803264,-108.18449)">
</g><g
   id="g34-8"
   transform="translate(51.803264,-108.18449)">
</g><g
   id="g36-6"
   transform="translate(51.803264,-108.18449)">
</g><g
   id="g38-8"
   transform="translate(51.803264,-108.18449)">
</g><g
   id="g40-8"
   transform="translate(51.803264,-108.18449)">
</g><g
   id="g42-4"
   transform="translate(51.803264,-108.18449)">
</g><g
   id="g44-3"
   transform="translate(51.803264,-108.18449)">
</g><g
   id="g46-1"
   transform="translate(51.803264,-108.18449)">
</g><g
   id="g48-4"
   transform="translate(51.803264,-108.18449)">
</g><g
   id="g20-3-9"
   transform="translate(-182.13711,-179.54451)">
</g><g
   id="g22-5-2"
   transform="translate(-182.13711,-179.54451)">
</g><g
   id="g24-6-0"
   transform="translate(-182.13711,-179.54451)">
</g><g
   id="g26-2-6"
   transform="translate(-182.13711,-179.54451)">
</g><g
   id="g28-9-8"
   transform="translate(-182.13711,-179.54451)">
</g><g
   id="g30-1-92"
   transform="translate(-182.13711,-179.54451)">
</g><g
   id="g32-2-6"
   transform="translate(-182.13711,-179.54451)">
</g><g
   id="g34-7-6"
   transform="translate(-182.13711,-179.54451)">
</g><g
   id="g36-0-4"
   transform="translate(-182.13711,-179.54451)">
</g><g
   id="g38-9-9"
   transform="translate(-182.13711,-179.54451)">
</g><g
   id="g40-3-5"
   transform="translate(-182.13711,-179.54451)">
</g><g
   id="g42-6-0"
   transform="translate(-182.13711,-179.54451)">
</g><g
   id="g44-0-4"
   transform="translate(-182.13711,-179.54451)">
</g><g
   id="g46-6-8"
   transform="translate(-182.13711,-179.54451)">
</g><g
   id="g48-2-7"
   transform="translate(-182.13711,-179.54451)">
</g><g
   id="g1038-1"
   transform="matrix(0.11472343,0,0,0.11472343,-269.18236,-106.71332)">
</g><g
   id="g1040-7"
   transform="matrix(0.11472343,0,0,0.11472343,-269.18236,-106.71332)">
</g><g
   id="g1042-2"
   transform="matrix(0.11472343,0,0,0.11472343,-269.18236,-106.71332)">
</g><g
   id="g1044-7"
   transform="matrix(0.11472343,0,0,0.11472343,-269.18236,-106.71332)">
</g><g
   id="g1046-2"
   transform="matrix(0.11472343,0,0,0.11472343,-269.18236,-106.71332)">
</g><g
   id="g1048-26"
   transform="matrix(0.11472343,0,0,0.11472343,-269.18236,-106.71332)">
</g><g
   id="g1050-1"
   transform="matrix(0.11472343,0,0,0.11472343,-269.18236,-106.71332)">
</g><g
   id="g1052-0"
   transform="matrix(0.11472343,0,0,0.11472343,-269.18236,-106.71332)">
</g><g
   id="g1054-6"
   transform="matrix(0.11472343,0,0,0.11472343,-269.18236,-106.71332)">
</g><g
   id="g1056-1"
   transform="matrix(0.11472343,0,0,0.11472343,-269.18236,-106.71332)">
</g><g
   id="g1058-5"
   transform="matrix(0.11472343,0,0,0.11472343,-269.18236,-106.71332)">
</g><g
   id="g1060-9"
   transform="matrix(0.11472343,0,0,0.11472343,-269.18236,-106.71332)">
</g><g
   id="g1062-4"
   transform="matrix(0.11472343,0,0,0.11472343,-269.18236,-106.71332)">
</g><g
   id="g1064-9"
   transform="matrix(0.11472343,0,0,0.11472343,-269.18236,-106.71332)">
</g><g
   id="g1066-0"
   transform="matrix(0.11472343,0,0,0.11472343,-269.18236,-106.71332)">
</g><g
   id="g20-1-9"
   transform="translate(-296.62096,-221.7333)">
</g><g
   id="g22-2-1"
   transform="translate(-296.62096,-221.7333)">
</g><g
   id="g24-7-7"
   transform="translate(-296.62096,-221.7333)">
</g><g
   id="g26-0-7"
   transform="translate(-296.62096,-221.7333)">
</g><g
   id="g28-93-1"
   transform="translate(-296.62096,-221.7333)">
</g><g
   id="g30-6-1"
   transform="translate(-296.62096,-221.7333)">
</g><g
   id="g32-0-5"
   transform="translate(-296.62096,-221.7333)">
</g><g
   id="g34-6-9"
   transform="translate(-296.62096,-221.7333)">
</g><g
   id="g36-2-7"
   transform="translate(-296.62096,-221.7333)">
</g><g
   id="g38-6-7"
   transform="translate(-296.62096,-221.7333)">
</g><g
   id="g40-1-6"
   transform="translate(-296.62096,-221.7333)">
</g><g
   id="g42-8-73"
   transform="translate(-296.62096,-221.7333)">
</g><g
   id="g44-7-65"
   transform="translate(-296.62096,-221.7333)">
</g><g
   id="g46-9-6"
   transform="translate(-296.62096,-221.7333)">
</g><g
   id="g48-20-3"
   transform="translate(-296.62096,-221.7333)">
</g><g
   id="g1038-2-94"
   transform="matrix(0.11472343,0,0,0.11472343,-383.66621,-148.90211)">
</g><g
   id="g1040-3-8"
   transform="matrix(0.11472343,0,0,0.11472343,-383.66621,-148.90211)">
</g><g
   id="g1042-7-1"
   transform="matrix(0.11472343,0,0,0.11472343,-383.66621,-148.90211)">
</g><g
   id="g1044-5-2"
   transform="matrix(0.11472343,0,0,0.11472343,-383.66621,-148.90211)">
</g><g
   id="g1046-9-9"
   transform="matrix(0.11472343,0,0,0.11472343,-383.66621,-148.90211)">
</g><g
   id="g1048-2-3"
   transform="matrix(0.11472343,0,0,0.11472343,-383.66621,-148.90211)">
</g><g
   id="g1050-2-9"
   transform="matrix(0.11472343,0,0,0.11472343,-383.66621,-148.90211)">
</g><g
   id="g1052-8-0"
   transform="matrix(0.11472343,0,0,0.11472343,-383.66621,-148.90211)">
</g><g
   id="g1054-9-8"
   transform="matrix(0.11472343,0,0,0.11472343,-383.66621,-148.90211)">
</g><g
   id="g1056-7-8"
   transform="matrix(0.11472343,0,0,0.11472343,-383.66621,-148.90211)">
</g><g
   id="g1058-3-5"
   transform="matrix(0.11472343,0,0,0.11472343,-383.66621,-148.90211)">
</g><g
   id="g1060-6-0"
   transform="matrix(0.11472343,0,0,0.11472343,-383.66621,-148.90211)">
</g><g
   id="g1062-1-9"
   transform="matrix(0.11472343,0,0,0.11472343,-383.66621,-148.90211)">
</g><g
   id="g1064-2-6"
   transform="matrix(0.11472343,0,0,0.11472343,-383.66621,-148.90211)">
</g><g
   id="g1066-9-3"
   transform="matrix(0.11472343,0,0,0.11472343,-383.66621,-148.90211)">
</g><g
   id="g20-5"
   transform="translate(37.177287,-193.25948)">
</g><g
   id="g22-3"
   transform="translate(37.177287,-193.25948)">
</g><g
   id="g24-5"
   transform="translate(37.177287,-193.25948)">
</g><g
   id="g26-6"
   transform="translate(37.177287,-193.25948)">
</g><g
   id="g28-2"
   transform="translate(37.177287,-193.25948)">
</g><g
   id="g30-9"
   transform="translate(37.177287,-193.25948)">
</g><g
   id="g32-1"
   transform="translate(37.177287,-193.25948)">
</g><g
   id="g34-2"
   transform="translate(37.177287,-193.25948)">
</g><g
   id="g36-7"
   transform="translate(37.177287,-193.25948)">
</g><g
   id="g38-0"
   transform="translate(37.177287,-193.25948)">
</g><g
   id="g40-9"
   transform="translate(37.177287,-193.25948)">
</g><g
   id="g42-3"
   transform="translate(37.177287,-193.25948)">
</g><g
   id="g44-6"
   transform="translate(37.177287,-193.25948)">
</g><g
   id="g46-0"
   transform="translate(37.177287,-193.25948)">
</g><g
   id="g48-6"
   transform="translate(37.177287,-193.25948)">
</g><g
   id="g20-3-2"
   transform="translate(-196.76309,-264.61949)">
</g><g
   id="g22-5-6"
   transform="translate(-196.76309,-264.61949)">
</g><g
   id="g24-6-1"
   transform="translate(-196.76309,-264.61949)">
</g><g
   id="g26-2-8"
   transform="translate(-196.76309,-264.61949)">
</g><g
   id="g28-9-7"
   transform="translate(-196.76309,-264.61949)">
</g><g
   id="g30-1-9"
   transform="translate(-196.76309,-264.61949)">
</g><g
   id="g32-2-2"
   transform="translate(-196.76309,-264.61949)">
</g><g
   id="g34-7-0"
   transform="translate(-196.76309,-264.61949)">
</g><g
   id="g36-0-2"
   transform="translate(-196.76309,-264.61949)">
</g><g
   id="g38-9-3"
   transform="translate(-196.76309,-264.61949)">
</g><g
   id="g40-3-7"
   transform="translate(-196.76309,-264.61949)">
</g><g
   id="g42-6-5"
   transform="translate(-196.76309,-264.61949)">
</g><g
   id="g44-0-9"
   transform="translate(-196.76309,-264.61949)">
</g><g
   id="g46-6-2"
   transform="translate(-196.76309,-264.61949)">
</g><g
   id="g48-2-2"
   transform="translate(-196.76309,-264.61949)">
</g><g
   id="g1038-8"
   transform="matrix(0.11472343,0,0,0.11472343,-283.80834,-191.78831)">
</g><g
   id="g1040-9"
   transform="matrix(0.11472343,0,0,0.11472343,-283.80834,-191.78831)">
</g><g
   id="g1042-73"
   transform="matrix(0.11472343,0,0,0.11472343,-283.80834,-191.78831)">
</g><g
   id="g1044-6"
   transform="matrix(0.11472343,0,0,0.11472343,-283.80834,-191.78831)">
</g><g
   id="g1046-1"
   transform="matrix(0.11472343,0,0,0.11472343,-283.80834,-191.78831)">
</g><g
   id="g1048-29"
   transform="matrix(0.11472343,0,0,0.11472343,-283.80834,-191.78831)">
</g><g
   id="g1050-3"
   transform="matrix(0.11472343,0,0,0.11472343,-283.80834,-191.78831)">
</g><g
   id="g1052-1"
   transform="matrix(0.11472343,0,0,0.11472343,-283.80834,-191.78831)">
</g><g
   id="g1054-94"
   transform="matrix(0.11472343,0,0,0.11472343,-283.80834,-191.78831)">
</g><g
   id="g1056-78"
   transform="matrix(0.11472343,0,0,0.11472343,-283.80834,-191.78831)">
</g><g
   id="g1058-4"
   transform="matrix(0.11472343,0,0,0.11472343,-283.80834,-191.78831)">
</g><g
   id="g1060-5"
   transform="matrix(0.11472343,0,0,0.11472343,-283.80834,-191.78831)">
</g><g
   id="g1062-0"
   transform="matrix(0.11472343,0,0,0.11472343,-283.80834,-191.78831)">
</g><g
   id="g1064-3"
   transform="matrix(0.11472343,0,0,0.11472343,-283.80834,-191.78831)">
</g><g
   id="g1066-6"
   transform="matrix(0.11472343,0,0,0.11472343,-283.80834,-191.78831)">
</g><g
   id="g20-1-1"
   transform="translate(-311.24694,-306.80829)">
</g><g
   id="g22-2-0"
   transform="translate(-311.24694,-306.80829)">
</g><g
   id="g24-7-6"
   transform="translate(-311.24694,-306.80829)">
</g><g
   id="g26-0-3"
   transform="translate(-311.24694,-306.80829)">
</g><g
   id="g28-93-2"
   transform="translate(-311.24694,-306.80829)">
</g><g
   id="g30-6-0"
   transform="translate(-311.24694,-306.80829)">
</g><g
   id="g32-0-6"
   transform="translate(-311.24694,-306.80829)">
</g><g
   id="g34-6-1"
   transform="translate(-311.24694,-306.80829)">
</g><g
   id="g36-2-5"
   transform="translate(-311.24694,-306.80829)">
</g><g
   id="g38-6-5"
   transform="translate(-311.24694,-306.80829)">
</g><g
   id="g40-1-4"
   transform="translate(-311.24694,-306.80829)">
</g><g
   id="g42-8-7"
   transform="translate(-311.24694,-306.80829)">
</g><g
   id="g44-7-6"
   transform="translate(-311.24694,-306.80829)">
</g><g
   id="g46-9-5"
   transform="translate(-311.24694,-306.80829)">
</g><g
   id="g48-20-6"
   transform="translate(-311.24694,-306.80829)">
</g><g
   id="g1038-2-9"
   transform="matrix(0.11472343,0,0,0.11472343,-398.29219,-233.9771)">
</g><g
   id="g1040-3-3"
   transform="matrix(0.11472343,0,0,0.11472343,-398.29219,-233.9771)">
</g><g
   id="g1042-7-7"
   transform="matrix(0.11472343,0,0,0.11472343,-398.29219,-233.9771)">
</g><g
   id="g1044-5-4"
   transform="matrix(0.11472343,0,0,0.11472343,-398.29219,-233.9771)">
</g><g
   id="g1046-9-5"
   transform="matrix(0.11472343,0,0,0.11472343,-398.29219,-233.9771)">
</g><g
   id="g1048-2-2"
   transform="matrix(0.11472343,0,0,0.11472343,-398.29219,-233.9771)">
</g><g
   id="g1050-2-5"
   transform="matrix(0.11472343,0,0,0.11472343,-398.29219,-233.9771)">
</g><g
   id="g1052-8-4"
   transform="matrix(0.11472343,0,0,0.11472343,-398.29219,-233.9771)">
</g><g
   id="g1054-9-7"
   transform="matrix(0.11472343,0,0,0.11472343,-398.29219,-233.9771)">
</g><g
   id="g1056-7-4"
   transform="matrix(0.11472343,0,0,0.11472343,-398.29219,-233.9771)">
</g><g
   id="g1058-3-4"
   transform="matrix(0.11472343,0,0,0.11472343,-398.29219,-233.9771)">
</g><g
   id="g1060-6-3"
   transform="matrix(0.11472343,0,0,0.11472343,-398.29219,-233.9771)">
</g><g
   id="g1062-1-0"
   transform="matrix(0.11472343,0,0,0.11472343,-398.29219,-233.9771)">
</g><g
   id="g1064-2-7"
   transform="matrix(0.11472343,0,0,0.11472343,-398.29219,-233.9771)">
</g><g
   id="g1066-9-8"
   transform="matrix(0.11472343,0,0,0.11472343,-398.29219,-233.9771)">
</g><g
   id="g5"
   transform="translate(8.003246)"><g
     id="g1"
     transform="translate(50.077704,13.809306)"><path
       d="m 66.83025,32.098932 v 7.633696 H 64.370355 V 20.267373 h 6.203214 c 1.880571,0 3.319966,0.557041 4.318185,1.671124 1.007131,1.114083 1.510696,2.535652 1.510696,4.264709 0,1.871659 -0.499109,3.319967 -1.497327,4.344923 -0.989306,1.024956 -2.419788,1.54189 -4.291447,1.550803 z m 0,-9.719258 V 30 h 3.743319 c 1.194297,0 2.054368,-0.35205 2.580215,-1.05615 0.525847,-0.704101 0.788771,-1.608736 0.788771,-2.713906 0,-0.998218 -0.262924,-1.889484 -0.788771,-2.673799 -0.525847,-0.784314 -1.385918,-1.176471 -2.580215,-1.176471 z m 22.085579,15.441188 c -0.392157,0.552585 -0.962568,1.05615 -1.711232,1.510696 -0.739751,0.445633 -1.733512,0.66845 -2.981285,0.66845 -1.729057,0 -3.09715,-0.516935 -4.104281,-1.550804 -1.007131,-1.042781 -1.515153,-2.655973 -1.524066,-4.839575 v -1.697863 c 0,-2.549021 0.552585,-4.33601 1.657755,-5.360966 1.105171,-1.033869 2.339575,-1.550804 3.703212,-1.550804 1.809271,0 3.106063,0.58378 3.890377,1.751339 0.784315,1.167559 1.176472,2.856508 1.176472,5.066848 v 1.377007 h -8.061504 v 0.347594 c 0,1.541891 0.289662,2.669342 0.868985,3.382355 0.588235,0.704101 1.430482,1.056151 2.52674,1.056151 0.793227,0 1.443851,-0.151515 1.951873,-0.454546 0.516934,-0.311943 0.97148,-0.708557 1.363637,-1.189841 z M 83.955932,27.032084 c -0.819965,0 -1.501784,0.285205 -2.045456,0.855615 -0.543673,0.561498 -0.855616,1.657756 -0.93583,3.288773 h 5.681823 v -0.334225 c -0.06239,-1.114083 -0.271834,-2.027631 -0.628343,-2.740644 -0.347594,-0.713013 -1.038325,-1.069519 -2.072194,-1.069519 z m 12.834234,0.347593 c -1.212122,0 -2.058825,0.659537 -2.540109,1.978612 V 39.732628 H 91.883745 V 25.267376 h 2.286098 l 0.05348,1.457221 c 0.632799,-1.149734 1.528522,-1.724601 2.687168,-1.724601 0.418895,0 0.730839,0.06239 0.93583,0.187166 l 0.01337,2.299467 c -0.347594,-0.0713 -0.704101,-0.106952 -1.06952,-0.106952 z m 8.315514,-0.294117 c -1.18539,0 -2.02318,0.588236 -2.51337,1.764707 v 10.882361 h -2.35294 V 25.267376 h 2.21925 l 0.0668,1.310162 c 0.86453,-1.051695 2.02318,-1.577542 3.47594,-1.577542 1.59537,0 2.71836,0.699644 3.36899,2.098933 0.90909,-1.399289 2.17469,-2.098933 3.79679,-2.098933 1.31908,0 2.33067,0.414439 3.03477,1.243317 0.71301,0.828877 1.06952,2.156864 1.06952,3.98396 v 9.505355 h -2.36632 v -9.532093 c 0,-1.212122 -0.22282,-2.032087 -0.66845,-2.459895 -0.43672,-0.43672 -1.03387,-0.65508 -1.79144,-0.65508 -0.73084,0 -1.31462,0.285205 -1.75134,0.855615 -0.42781,0.561498 -0.68182,1.252229 -0.76203,2.072194 v 9.719259 h -2.36631 v -9.719259 c -0.0446,-1.951873 -0.86457,-2.927809 -2.4599,-2.927809 z m 25.60163,10.735302 c -0.39216,0.552585 -0.96257,1.05615 -1.71124,1.510696 -0.73975,0.445633 -1.73351,0.66845 -2.98128,0.66845 -1.72906,0 -3.09715,-0.516935 -4.10428,-1.550804 -1.00713,-1.042781 -1.51516,-2.655973 -1.52407,-4.839575 v -1.697863 c 0,-2.549021 0.55259,-4.33601 1.65776,-5.360966 1.10517,-1.033869 2.33957,-1.550804 3.70321,-1.550804 1.80927,0 3.10606,0.58378 3.89038,1.751339 0.78431,1.167559 1.17647,2.856508 1.17647,5.066848 v 1.377007 h -8.06151 v 0.347594 c 0,1.541891 0.28966,2.669342 0.86899,3.382355 0.58823,0.704101 1.43048,1.056151 2.52674,1.056151 0.79323,0 1.44385,-0.151515 1.95187,-0.454546 0.51693,-0.311943 0.97148,-0.708557 1.36364,-1.189841 z m -4.9599,-10.788778 c -0.81997,0 -1.50179,0.285205 -2.04546,0.855615 -0.54367,0.561498 -0.85562,1.657756 -0.93583,3.288773 h 5.68183 v -0.334225 c -0.0624,-1.114083 -0.27185,-2.027631 -0.62835,-2.740644 -0.34759,-0.713013 -1.03832,-1.069519 -2.07219,-1.069519 z m 14.94653,8.997333 c 0,-0.552585 -0.2139,-1.016044 -0.64171,-1.390376 -0.4189,-0.374332 -1.2255,-0.815509 -2.41979,-1.32353 -1.1943,-0.508022 -2.13459,-1.024957 -2.82086,-1.550804 -0.7754,-0.597148 -1.1631,-1.483958 -1.1631,-2.660429 0,-1.149734 0.41889,-2.121214 1.25668,-2.914441 0.83779,-0.793227 1.94742,-1.189841 3.32888,-1.189841 1.47951,0 2.62924,0.418895 3.4492,1.256686 0.81997,0.83779 1.22995,1.880572 1.22995,3.128345 h -2.35294 c 0,-0.597149 -0.20054,-1.136365 -0.60161,-1.617649 -0.40107,-0.490196 -0.97593,-0.735294 -1.7246,-0.735294 -0.79323,0 -1.36364,0.200535 -1.71123,0.601604 -0.33868,0.40107 -0.50802,0.864529 -0.50802,1.390376 0,0.525847 0.16934,0.935829 0.50802,1.229947 0.33868,0.285205 1.01159,0.650625 2.01872,1.096258 1.46168,0.579323 2.58022,1.180927 3.35562,1.804814 0.7754,0.623886 1.1631,1.519609 1.1631,2.687168 0,1.274511 -0.43672,2.286098 -1.31016,3.034761 -0.87344,0.748664 -2.02763,1.122996 -3.46257,1.122996 -1.63993,0 -2.89216,-0.467915 -3.75669,-1.403745 -0.86453,-0.935829 -1.29679,-2.000892 -1.29679,-3.195189 h 2.36631 c 0.0446,1.024956 0.35209,1.711231 0.92246,2.058825 0.57041,0.338681 1.15865,0.508022 1.76471,0.508022 1.60428,0 2.40642,-0.646168 2.40642,-1.938504 z m 12.48664,0 c 0,-0.552585 -0.2139,-1.016044 -0.64171,-1.390376 -0.41889,-0.374332 -1.22549,-0.815509 -2.41979,-1.32353 -1.1943,-0.508022 -2.13459,-1.024957 -2.82086,-1.550804 -0.7754,-0.597148 -1.1631,-1.483958 -1.1631,-2.660429 0,-1.149734 0.4189,-2.121214 1.25669,-2.914441 0.83779,-0.793227 1.94741,-1.189841 3.32887,-1.189841 1.47951,0 2.62924,0.418895 3.44921,1.256686 0.81996,0.83779 1.22994,1.880572 1.22994,3.128345 h -2.35294 c 0,-0.597149 -0.20054,-1.136365 -0.60161,-1.617649 -0.40107,-0.490196 -0.97593,-0.735294 -1.7246,-0.735294 -0.79323,0 -1.36364,0.200535 -1.71123,0.601604 -0.33868,0.40107 -0.50802,0.864529 -0.50802,1.390376 0,0.525847 0.16934,0.935829 0.50802,1.229947 0.33869,0.285205 1.01159,0.650625 2.01872,1.096258 1.46168,0.579323 2.58022,1.180927 3.35562,1.804814 0.7754,0.623886 1.1631,1.519609 1.1631,2.687168 0,1.274511 -0.43672,2.286098 -1.31016,3.034761 -0.87344,0.748664 -2.02763,1.122996 -3.46257,1.122996 -1.63993,0 -2.89216,-0.467915 -3.75669,-1.403745 -0.86453,-0.935829 -1.29679,-2.000892 -1.29679,-3.195189 h 2.36631 c 0.0446,1.024956 0.35209,1.711231 0.92246,2.058825 0.57041,0.338681 1.15865,0.508022 1.76471,0.508022 1.60428,0 2.40642,-0.646168 2.40642,-1.938504 z"
       id="text2"
       style="font-size:27.3797px;font-family:'Roboto Condensed';-inkscape-font-specification:'Roboto Condensed, ';text-align:justify;letter-spacing:0px;fill:#0d7474;stroke-width:3.42246;stroke-linecap:round;stroke-linejoin:round"
       aria-label="Permessi"
       sodipodi:nodetypes="ccccscscccccssssscccsccscsssccscscccscccccssccccccsccsscccccccscscsccscscccccccccsccscsssccscscccscccccsscscsssscccscsccssssscccssscscsssscccscsccssssscccss" /><path
       d="m 158.72511,31.8189 q 0,-3.382059 1.61751,-5.09314 1.61751,-1.72445 3.95688,-1.72445 2.3661,0 3.98361,1.72445 1.63087,1.711081 1.63087,5.09314 v 1.376886 q 0,3.382059 -1.63087,5.09314 -1.61751,1.711081 -3.95688,1.711081 -2.35274,0 -3.98361,-1.711081 -1.61751,-1.711081 -1.61751,-5.09314 z m 2.36611,1.376886 q 0,2.39284 0.92238,3.595944 0.92238,1.189736 2.31263,1.189736 3.12807,0 3.22165,-4.518324 V 31.8189 q 0,-2.366105 -0.93575,-3.569209 -0.92238,-1.216472 -2.31263,-1.216472 -1.37689,0 -2.29927,1.216472 -0.90901,1.203104 -0.90901,3.569209 z"
       id="text1"
       style="font-size:27.3773px;font-family:'Roboto Condensed';-inkscape-font-specification:'Roboto Condensed, ';text-align:justify;letter-spacing:0px;fill:#0d7474;stroke-width:3.42216;stroke-linecap:round;stroke-linejoin:round"
       aria-label="o" /></g><path
     d="m 122.27305,24.411487 4.81928,-15.0539188 h 2.98035 V 27.823032 h -2.32086 v -7.20356 l 0.21559,-7.152831 -4.81928,14.356391 h -1.77552 l -4.81929,-14.381755 0.2156,7.178195 v 7.20356 h -2.32086 V 9.3575682 h 2.99303 z m 11.02094,-4.096391 q 0,-3.208628 1.53456,-4.831965 1.53456,-1.63602 3.75397,-1.63602 2.24477,0 3.77933,1.63602 1.54725,1.623337 1.54725,4.831965 v 1.30628 q 0,3.208628 -1.54725,4.831965 -1.53456,1.623338 -3.75396,1.623338 -2.23209,0 -3.77934,-1.623338 -1.53456,-1.623337 -1.53456,-4.831965 z m 2.24477,1.30628 q 0,2.270136 0.87508,3.411545 0.87508,1.128727 2.19405,1.128727 2.96766,0 3.05644,-4.286626 v -1.559926 q 0,-2.244771 -0.88777,-3.38618 -0.87508,-1.154092 -2.19404,-1.154092 -1.30628,0 -2.18136,1.154092 -0.8624,1.141409 -0.8624,3.38618 z m 18.64302,6.201656 -0.10146,-1.483832 q -1.09068,1.737479 -3.18326,1.737479 -2.02917,0 -3.31009,-1.597973 -1.26823,-1.597973 -1.26823,-4.85733 v -1.280915 q 0,-3.386181 1.26823,-4.933424 1.26823,-1.559926 3.33545,-1.559926 1.99113,0 3.06913,1.597973 V 8.3429823 h 2.23208 V 27.823032 Z m -5.61827,-6.201656 q 0,2.295501 0.68485,3.38618 0.68484,1.077998 2.23209,1.077998 1.67406,0 2.5111,-1.699431 V 17.49962 q -0.87509,-1.674066 -2.48574,-1.674066 -1.54724,0 -2.24477,1.09068 -0.68485,1.090679 -0.69753,3.335451 z M 159.73664,10.46093 q 0,-0.5707041 0.31706,-0.9638562 0.31706,-0.3931521 0.95117,-0.3931521 0.62144,0 0.95118,0.3931521 0.32974,0.3931521 0.32974,0.9638562 0,0.54534 -0.32974,0.938492 -0.32974,0.38047 -0.95118,0.38047 -0.63411,0 -0.95117,-0.38047 -0.31706,-0.393152 -0.31706,-0.938492 z m 2.35891,3.639828 v 13.722274 h -2.23209 V 14.100758 Z m 8.63667,1.80089 h -2.21941 v 11.921384 h -2.24477 V 15.901648 h -1.78821 v -1.80089 h 1.78821 V 12.85789 q 0.0127,-2.308183 1.17945,-3.5383687 1.16678,-1.2428678 3.18327,-1.2428678 1.2175,0 3.05644,0.7736218 l -0.38047,1.9784427 q -1.2936,-0.646799 -2.49842,-0.646799 -1.26823,0 -1.78821,0.684846 -0.50729,0.672163 -0.50729,2.041854 v 1.192139 h 2.21941 z m 4.03297,-1.80089 v 13.722274 h -2.24477 V 14.100758 Z m 8.37034,12.06089 q 1.0019,0 1.7248,-0.621434 0.72289,-0.634116 0.81166,-2.054537 h 2.10527 q -0.0761,2.067219 -1.4331,3.335452 -1.35701,1.25555 -3.20863,1.25555 -2.65061,0 -3.91884,-1.63602 -1.26823,-1.648702 -1.2936,-4.591001 v -1.661385 q 0,-2.993028 1.26824,-4.667095 1.28091,-1.674067 3.9442,-1.674067 2.09258,0 3.32277,1.318962 1.24287,1.306279 1.31896,3.652509 h -2.10527 q -0.17755,-3.043758 -2.53646,-3.043758 -1.77553,0 -2.37159,1.204821 -0.59607,1.204821 -0.59607,3.208628 v 1.547244 q 0,2.016489 0.58338,3.22131 0.59607,1.204821 2.38428,1.204821 z m 14.30566,1.661384 q -0.2156,-0.49461 -0.30438,-1.483832 -0.46924,0.697528 -1.24287,1.217504 -0.77362,0.519975 -1.7882,0.519975 -1.80089,0 -2.89157,-1.014586 -1.078,-1.014586 -1.078,-2.980346 0,-1.978443 1.35701,-3.27204 1.35701,-1.306279 4.05834,-1.306279 h 1.54724 v -1.47115 q 0,-1.217503 -0.55802,-1.737478 -0.54534,-0.519976 -1.6487,-0.519976 -1.078,0 -1.68675,0.634117 -0.59607,0.634116 -0.59607,1.496514 h -2.24477 q 0,-1.47115 1.25555,-2.764747 1.25555,-1.293597 3.38618,-1.293597 1.90235,0 3.11985,0.951174 1.21751,0.951175 1.21751,3.259358 v 6.544079 q 0,1.940396 0.41851,3.018393 v 0.202917 z m -2.99303,-1.788207 q 0.95117,0 1.6487,-0.494611 0.69753,-0.494611 1.0019,-1.103362 V 21.15213 h -1.17945 q -1.61066,0 -2.57451,0.684845 -0.96386,0.684846 -0.96386,1.965761 0,1.230185 0.50729,1.737478 0.51998,0.494611 1.55993,0.494611 z"
     id="text5"
     style="font-size:25.9734px;font-family:'Roboto Condensed';-inkscape-font-specification:'Roboto Condensed, ';text-align:justify;letter-spacing:0px;fill:#0d7474;stroke-width:3.24667;stroke-linecap:round;stroke-linejoin:round"
     aria-label="Modifica" /></g><g
   id="g20-50"
   transform="translate(13.413107,-96.254299)">
</g><g
   id="g22-64"
   transform="translate(13.413107,-96.254299)">
</g><g
   id="g24-62"
   transform="translate(13.413107,-96.254299)">
</g><g
   id="g26-58"
   transform="translate(13.413107,-96.254299)">
</g><g
   id="g28-6"
   transform="translate(13.413107,-96.254299)">
</g><g
   id="g30-2"
   transform="translate(13.413107,-96.254299)">
</g><g
   id="g32-8"
   transform="translate(13.413107,-96.254299)">
</g><g
   id="g34-4"
   transform="translate(13.413107,-96.254299)">
</g><g
   id="g36-72"
   transform="translate(13.413107,-96.254299)">
</g><g
   id="g38-4"
   transform="translate(13.413107,-96.254299)">
</g><g
   id="g40-0"
   transform="translate(13.413107,-96.254299)">
</g><g
   id="g42-62"
   transform="translate(13.413107,-96.254299)">
</g><g
   id="g44-9"
   transform="translate(13.413107,-96.254299)">
</g><g
   id="g46-90"
   transform="translate(13.413107,-96.254299)">
</g><g
   id="g48-8"
   transform="translate(13.413107,-96.254299)">
</g><g
   id="g20-3-1"
   transform="translate(-220.52726,-167.61432)">
</g><g
   id="g22-5-3"
   transform="translate(-220.52726,-167.61432)">
</g><g
   id="g24-6-11"
   transform="translate(-220.52726,-167.61432)">
</g><g
   id="g26-2-0"
   transform="translate(-220.52726,-167.61432)">
</g><g
   id="g28-9-3"
   transform="translate(-220.52726,-167.61432)">
</g><g
   id="g30-1-4"
   transform="translate(-220.52726,-167.61432)">
</g><g
   id="g32-2-0"
   transform="translate(-220.52726,-167.61432)">
</g><g
   id="g34-7-3"
   transform="translate(-220.52726,-167.61432)">
</g><g
   id="g36-0-91"
   transform="translate(-220.52726,-167.61432)">
</g><g
   id="g38-9-96"
   transform="translate(-220.52726,-167.61432)">
</g><g
   id="g40-3-9"
   transform="translate(-220.52726,-167.61432)">
</g><g
   id="g42-6-3"
   transform="translate(-220.52726,-167.61432)">
</g><g
   id="g44-0-3"
   transform="translate(-220.52726,-167.61432)">
</g><g
   id="g46-6-80"
   transform="translate(-220.52726,-167.61432)">
</g><g
   id="g48-2-5"
   transform="translate(-220.52726,-167.61432)">
</g><g
   id="g1038-6"
   transform="matrix(0.11472343,0,0,0.11472343,-307.57251,-94.783131)">
</g><g
   id="g1040-6"
   transform="matrix(0.11472343,0,0,0.11472343,-307.57251,-94.783131)">
</g><g
   id="g1042-4"
   transform="matrix(0.11472343,0,0,0.11472343,-307.57251,-94.783131)">
</g><g
   id="g1044-0"
   transform="matrix(0.11472343,0,0,0.11472343,-307.57251,-94.783131)">
</g><g
   id="g1046-0"
   transform="matrix(0.11472343,0,0,0.11472343,-307.57251,-94.783131)">
</g><g
   id="g1048-4"
   transform="matrix(0.11472343,0,0,0.11472343,-307.57251,-94.783131)">
</g><g
   id="g1050-6"
   transform="matrix(0.11472343,0,0,0.11472343,-307.57251,-94.783131)">
</g><g
   id="g1052-2"
   transform="matrix(0.11472343,0,0,0.11472343,-307.57251,-94.783131)">
</g><g
   id="g1054-67"
   transform="matrix(0.11472343,0,0,0.11472343,-307.57251,-94.783131)">
</g><g
   id="g1056-5"
   transform="matrix(0.11472343,0,0,0.11472343,-307.57251,-94.783131)">
</g><g
   id="g1058-6"
   transform="matrix(0.11472343,0,0,0.11472343,-307.57251,-94.783131)">
</g><g
   id="g1060-98"
   transform="matrix(0.11472343,0,0,0.11472343,-307.57251,-94.783131)">
</g><g
   id="g1062-7"
   transform="matrix(0.11472343,0,0,0.11472343,-307.57251,-94.783131)">
</g><g
   id="g1064-28"
   transform="matrix(0.11472343,0,0,0.11472343,-307.57251,-94.783131)">
</g><g
   id="g1066-2"
   transform="matrix(0.11472343,0,0,0.11472343,-307.57251,-94.783131)">
</g><g
   id="g20-1-99"
   transform="translate(-335.01111,-209.80311)">
</g><g
   id="g22-2-6"
   transform="translate(-335.01111,-209.80311)">
</g><g
   id="g24-7-0"
   transform="translate(-335.01111,-209.80311)">
</g><g
   id="g26-0-2"
   transform="translate(-335.01111,-209.80311)">
</g><g
   id="g28-93-7"
   transform="translate(-335.01111,-209.80311)">
</g><g
   id="g30-6-6"
   transform="translate(-335.01111,-209.80311)">
</g><g
   id="g32-0-1"
   transform="translate(-335.01111,-209.80311)">
</g><g
   id="g34-6-32"
   transform="translate(-335.01111,-209.80311)">
</g><g
   id="g36-2-1"
   transform="translate(-335.01111,-209.80311)">
</g><g
   id="g38-6-59"
   transform="translate(-335.01111,-209.80311)">
</g><g
   id="g40-1-9"
   transform="translate(-335.01111,-209.80311)">
</g><g
   id="g42-8-1"
   transform="translate(-335.01111,-209.80311)">
</g><g
   id="g44-7-49"
   transform="translate(-335.01111,-209.80311)">
</g><g
   id="g46-9-1"
   transform="translate(-335.01111,-209.80311)">
</g><g
   id="g48-20-0"
   transform="translate(-335.01111,-209.80311)">
</g><g
   id="g1038-2-7"
   transform="matrix(0.11472343,0,0,0.11472343,-422.05636,-136.97192)">
</g><g
   id="g1040-3-5"
   transform="matrix(0.11472343,0,0,0.11472343,-422.05636,-136.97192)">
</g><g
   id="g1042-7-8"
   transform="matrix(0.11472343,0,0,0.11472343,-422.05636,-136.97192)">
</g><g
   id="g1044-5-7"
   transform="matrix(0.11472343,0,0,0.11472343,-422.05636,-136.97192)">
</g><g
   id="g1046-9-0"
   transform="matrix(0.11472343,0,0,0.11472343,-422.05636,-136.97192)">
</g><g
   id="g1048-2-4"
   transform="matrix(0.11472343,0,0,0.11472343,-422.05636,-136.97192)">
</g><g
   id="g1050-2-8"
   transform="matrix(0.11472343,0,0,0.11472343,-422.05636,-136.97192)">
</g><g
   id="g1052-8-04"
   transform="matrix(0.11472343,0,0,0.11472343,-422.05636,-136.97192)">
</g><g
   id="g1054-9-2"
   transform="matrix(0.11472343,0,0,0.11472343,-422.05636,-136.97192)">
</g><g
   id="g1056-7-9"
   transform="matrix(0.11472343,0,0,0.11472343,-422.05636,-136.97192)">
</g><g
   id="g1058-3-6"
   transform="matrix(0.11472343,0,0,0.11472343,-422.05636,-136.97192)">
</g><g
   id="g1060-6-1"
   transform="matrix(0.11472343,0,0,0.11472343,-422.05636,-136.97192)">
</g><g
   id="g1062-1-04"
   transform="matrix(0.11472343,0,0,0.11472343,-422.05636,-136.97192)">
</g><g
   id="g1064-2-2"
   transform="matrix(0.11472343,0,0,0.11472343,-422.05636,-136.97192)">
</g><g
   id="g1066-9-2"
   transform="matrix(0.11472343,0,0,0.11472343,-422.05636,-136.97192)">
</g><g
   id="g20-9"
   transform="translate(-336.59527,-250.33688)">
</g><g
   id="g22-0"
   transform="translate(-336.59527,-250.33688)">
</g><g
   id="g24-9"
   transform="translate(-336.59527,-250.33688)">
</g><g
   id="g26-1"
   transform="translate(-336.59527,-250.33688)">
</g><g
   id="g28-7"
   transform="translate(-336.59527,-250.33688)">
</g><g
   id="g30-7"
   transform="translate(-336.59527,-250.33688)">
</g><g
   id="g32-1-5"
   transform="translate(-336.59527,-250.33688)">
</g><g
   id="g34-1"
   transform="translate(-336.59527,-250.33688)">
</g><g
   id="g36-5"
   transform="translate(-336.59527,-250.33688)">
</g><g
   id="g38-9-9-2"
   transform="translate(-336.59527,-250.33688)">
</g><g
   id="g40-7"
   transform="translate(-336.59527,-250.33688)">
</g><g
   id="g42-7"
   transform="translate(-336.59527,-250.33688)">
</g><g
   id="g44-6-9"
   transform="translate(-336.59527,-250.33688)">
</g><g
   id="g46-7"
   transform="translate(-336.59527,-250.33688)">
</g><g
   id="g48-3"
   transform="translate(-336.59527,-250.33688)">
</g><g
   id="g20-3-2-0"
   transform="translate(-346.67506,-278.53555)">
</g><g
   id="g22-5-0"
   transform="translate(-346.67506,-278.53555)">
</g><g
   id="g24-6-2"
   transform="translate(-346.67506,-278.53555)">
</g><g
   id="g26-2-3"
   transform="translate(-346.67506,-278.53555)">
</g><g
   id="g28-9-7-2"
   transform="translate(-346.67506,-278.53555)">
</g><g
   id="g30-1-5"
   transform="translate(-346.67506,-278.53555)">
</g><g
   id="g32-2-92"
   transform="translate(-346.67506,-278.53555)">
</g><g
   id="g34-7-28"
   transform="translate(-346.67506,-278.53555)">
</g><g
   id="g36-0-9"
   transform="translate(-346.67506,-278.53555)">
</g><g
   id="g38-93"
   transform="translate(-346.67506,-278.53555)">
</g><g
   id="g40-6"
   transform="translate(-346.67506,-278.53555)">
</g><g
   id="g42-0"
   transform="translate(-346.67506,-278.53555)">
</g><g
   id="g44-62"
   transform="translate(-346.67506,-278.53555)">
</g><g
   id="g46-6-7"
   transform="translate(-346.67506,-278.53555)">
</g><g
   id="g48-1"
   transform="translate(-346.67506,-278.53555)">
</g><g
   id="g20-0"
   transform="translate(-590.70184,-259.49509)">
</g><g
   id="g22-6"
   transform="translate(-590.70184,-259.49509)">
</g><g
   id="g24-1"
   transform="translate(-590.70184,-259.49509)">
</g><g
   id="g26-5"
   transform="translate(-590.70184,-259.49509)">
</g><g
   id="g28-5"
   transform="translate(-590.70184,-259.49509)">
</g><g
   id="g30-4"
   transform="translate(-590.70184,-259.49509)">
</g><g
   id="g32-7-8"
   transform="translate(-590.70184,-259.49509)">
</g><g
   id="g34-6-3"
   transform="translate(-590.70184,-259.49509)">
</g><g
   id="g36-5-8"
   transform="translate(-590.70184,-259.49509)">
</g><g
   id="g38-6-6"
   transform="translate(-590.70184,-259.49509)">
</g><g
   id="g40-9-3"
   transform="translate(-590.70184,-259.49509)">
</g><g
   id="g42-3-8"
   transform="translate(-590.70184,-259.49509)">
</g><g
   id="g44-7-1"
   transform="translate(-590.70184,-259.49509)">
</g><g
   id="g46-4"
   transform="translate(-590.70184,-259.49509)">
</g><g
   id="g48-5"
   transform="translate(-590.70184,-259.49509)">
</g><g
   id="g714"
   transform="translate(-1240.9564,-392.22765)">
</g><g
   id="g716"
   transform="translate(-1240.9564,-392.22765)">
</g><g
   id="g718"
   transform="translate(-1240.9564,-392.22765)">
</g><g
   id="g720"
   transform="translate(-1240.9564,-392.22765)">
</g><g
   id="g722"
   transform="translate(-1240.9564,-392.22765)">
</g><g
   id="g724"
   transform="translate(-1240.9564,-392.22765)">
</g><g
   id="g726"
   transform="translate(-1240.9564,-392.22765)">
</g><g
   id="g728"
   transform="translate(-1240.9564,-392.22765)">
</g><g
   id="g730"
   transform="translate(-1240.9564,-392.22765)">
</g><g
   id="g732"
   transform="translate(-1240.9564,-392.22765)">
</g><g
   id="g734"
   transform="translate(-1240.9564,-392.22765)">
</g><g
   id="g736"
   transform="translate(-1240.9564,-392.22765)">
</g><g
   id="g738"
   transform="translate(-1240.9564,-392.22765)">
</g><g
   id="g740"
   transform="translate(-1240.9564,-392.22765)">
</g><g
   id="g742"
   transform="translate(-1240.9564,-392.22765)">
</g><g
   id="g1601"
   transform="matrix(0.22062041,0,0,0.22062041,-515.57039,-258.33711)">
</g><g
   id="g1603"
   transform="matrix(0.22062041,0,0,0.22062041,-515.57039,-258.33711)">
</g><g
   id="g1605"
   transform="matrix(0.22062041,0,0,0.22062041,-515.57039,-258.33711)">
</g><g
   id="g1607"
   transform="matrix(0.22062041,0,0,0.22062041,-515.57039,-258.33711)">
</g><g
   id="g1609"
   transform="matrix(0.22062041,0,0,0.22062041,-515.57039,-258.33711)">
</g><g
   id="g1611"
   transform="matrix(0.22062041,0,0,0.22062041,-515.57039,-258.33711)">
</g><g
   id="g1613"
   transform="matrix(0.22062041,0,0,0.22062041,-515.57039,-258.33711)">
</g><g
   id="g1615"
   transform="matrix(0.22062041,0,0,0.22062041,-515.57039,-258.33711)">
</g><g
   id="g1617"
   transform="matrix(0.22062041,0,0,0.22062041,-515.57039,-258.33711)">
</g><g
   id="g1619"
   transform="matrix(0.22062041,0,0,0.22062041,-515.57039,-258.33711)">
</g><g
   id="g1621"
   transform="matrix(0.22062041,0,0,0.22062041,-515.57039,-258.33711)">
</g><g
   id="g1623"
   transform="matrix(0.22062041,0,0,0.22062041,-515.57039,-258.33711)">
</g><g
   id="g1625"
   transform="matrix(0.22062041,0,0,0.22062041,-515.57039,-258.33711)">
</g><g
   id="g1627"
   transform="matrix(0.22062041,0,0,0.22062041,-515.57039,-258.33711)">
</g><g
   id="g1629"
   transform="matrix(0.22062041,0,0,0.22062041,-515.57039,-258.33711)">
</g><g
   id="g20-9-7"
   transform="translate(-336.63841,-250.3189)">
</g><g
   id="g22-0-5"
   transform="translate(-336.63841,-250.3189)">
</g><g
   id="g24-9-3"
   transform="translate(-336.63841,-250.3189)">
</g><g
   id="g26-1-5"
   transform="translate(-336.63841,-250.3189)">
</g><g
   id="g28-7-6"
   transform="translate(-336.63841,-250.3189)">
</g><g
   id="g30-7-2"
   transform="translate(-336.63841,-250.3189)">
</g><g
   id="g32-1-9"
   transform="translate(-336.63841,-250.3189)">
</g><g
   id="g34-1-1"
   transform="translate(-336.63841,-250.3189)">
</g><g
   id="g36-5-2"
   transform="translate(-336.63841,-250.3189)">
</g><g
   id="g38-9-7"
   transform="translate(-336.63841,-250.3189)">
</g><g
   id="g40-7-0"
   transform="translate(-336.63841,-250.3189)">
</g><g
   id="g42-7-9"
   transform="translate(-336.63841,-250.3189)">
</g><g
   id="g44-6-3"
   transform="translate(-336.63841,-250.3189)">
</g><g
   id="g46-7-6"
   transform="translate(-336.63841,-250.3189)">
</g><g
   id="g48-3-0"
   transform="translate(-336.63841,-250.3189)">
</g><g
   id="g20-3-6"
   transform="translate(-346.7182,-278.51757)">
</g><g
   id="g22-5-2-0"
   transform="translate(-346.7182,-278.51757)">
</g><g
   id="g24-6-6"
   transform="translate(-346.7182,-278.51757)">
</g><g
   id="g26-2-1"
   transform="translate(-346.7182,-278.51757)">
</g><g
   id="g28-9-8-4"
   transform="translate(-346.7182,-278.51757)">
</g><g
   id="g30-1-7"
   transform="translate(-346.7182,-278.51757)">
</g><g
   id="g32-2-9"
   transform="translate(-346.7182,-278.51757)">
</g><g
   id="g34-7-2"
   transform="translate(-346.7182,-278.51757)">
</g><g
   id="g36-0-0"
   transform="translate(-346.7182,-278.51757)">
</g><g
   id="g38-93-2"
   transform="translate(-346.7182,-278.51757)">
</g><g
   id="g40-6-3"
   transform="translate(-346.7182,-278.51757)">
</g><g
   id="g42-0-7"
   transform="translate(-346.7182,-278.51757)">
</g><g
   id="g44-62-5"
   transform="translate(-346.7182,-278.51757)">
</g><g
   id="g46-6-9"
   transform="translate(-346.7182,-278.51757)">
</g><g
   id="g48-1-2"
   transform="translate(-346.7182,-278.51757)">
</g><g
   id="g20-0-2"
   transform="translate(-590.74498,-259.47711)">
</g><g
   id="g22-6-8"
   transform="translate(-590.74498,-259.47711)">
</g><g
   id="g24-1-9"
   transform="translate(-590.74498,-259.47711)">
</g><g
   id="g26-5-7"
   transform="translate(-590.74498,-259.47711)">
</g><g
   id="g28-5-3"
   transform="translate(-590.74498,-259.47711)">
</g><g
   id="g30-4-6"
   transform="translate(-590.74498,-259.47711)">
</g><g
   id="g32-7-1"
   transform="translate(-590.74498,-259.47711)">
</g><g
   id="g34-6-2"
   transform="translate(-590.74498,-259.47711)">
</g><g
   id="g36-5-8-9"
   transform="translate(-590.74498,-259.47711)">
</g><g
   id="g38-6-3"
   transform="translate(-590.74498,-259.47711)">
</g><g
   id="g40-9-1"
   transform="translate(-590.74498,-259.47711)">
</g><g
   id="g42-3-9"
   transform="translate(-590.74498,-259.47711)">
</g><g
   id="g44-7-4"
   transform="translate(-590.74498,-259.47711)">
</g><g
   id="g46-4-7"
   transform="translate(-590.74498,-259.47711)">
</g><g
   id="g48-5-8"
   transform="translate(-590.74498,-259.47711)">
</g><g
   id="g714-4"
   transform="translate(-1240.9995,-392.20967)">
</g><g
   id="g716-5"
   transform="translate(-1240.9995,-392.20967)">
</g><g
   id="g718-0"
   transform="translate(-1240.9995,-392.20967)">
</g><g
   id="g720-3"
   transform="translate(-1240.9995,-392.20967)">
</g><g
   id="g722-6"
   transform="translate(-1240.9995,-392.20967)">
</g><g
   id="g724-1"
   transform="translate(-1240.9995,-392.20967)">
</g><g
   id="g726-0"
   transform="translate(-1240.9995,-392.20967)">
</g><g
   id="g728-6"
   transform="translate(-1240.9995,-392.20967)">
</g><g
   id="g730-3"
   transform="translate(-1240.9995,-392.20967)">
</g><g
   id="g732-2"
   transform="translate(-1240.9995,-392.20967)">
</g><g
   id="g734-0"
   transform="translate(-1240.9995,-392.20967)">
</g><g
   id="g736-6"
   transform="translate(-1240.9995,-392.20967)">
</g><g
   id="g738-1"
   transform="translate(-1240.9995,-392.20967)">
</g><g
   id="g740-5"
   transform="translate(-1240.9995,-392.20967)">
</g><g
   id="g742-5"
   transform="translate(-1240.9995,-392.20967)">
</g><g
   id="g1601-4"
   transform="matrix(0.22062041,0,0,0.22062041,-515.61353,-258.31914)">
</g><g
   id="g1603-7"
   transform="matrix(0.22062041,0,0,0.22062041,-515.61353,-258.31914)">
</g><g
   id="g1605-6"
   transform="matrix(0.22062041,0,0,0.22062041,-515.61353,-258.31914)">
</g><g
   id="g1607-5"
   transform="matrix(0.22062041,0,0,0.22062041,-515.61353,-258.31914)">
</g><g
   id="g1609-6"
   transform="matrix(0.22062041,0,0,0.22062041,-515.61353,-258.31914)">
</g><g
   id="g1611-9"
   transform="matrix(0.22062041,0,0,0.22062041,-515.61353,-258.31914)">
</g><g
   id="g1613-3"
   transform="matrix(0.22062041,0,0,0.22062041,-515.61353,-258.31914)">
</g><g
   id="g1615-7"
   transform="matrix(0.22062041,0,0,0.22062041,-515.61353,-258.31914)">
</g><g
   id="g1617-4"
   transform="matrix(0.22062041,0,0,0.22062041,-515.61353,-258.31914)">
</g><g
   id="g1619-5"
   transform="matrix(0.22062041,0,0,0.22062041,-515.61353,-258.31914)">
</g><g
   id="g1621-2"
   transform="matrix(0.22062041,0,0,0.22062041,-515.61353,-258.31914)">
</g><g
   id="g1623-5"
   transform="matrix(0.22062041,0,0,0.22062041,-515.61353,-258.31914)">
</g><g
   id="g1625-4"
   transform="matrix(0.22062041,0,0,0.22062041,-515.61353,-258.31914)">
</g><g
   id="g1627-7"
   transform="matrix(0.22062041,0,0,0.22062041,-515.61353,-258.31914)">
</g><g
   id="g1629-4"
   transform="matrix(0.22062041,0,0,0.22062041,-515.61353,-258.31914)">
</g><g
   id="g3"
   transform="translate(51.238561,77.96634)"><path
     d="m 51.204929,-50.496811 c 0,-0.122751 -0.24551,-1.227537 -1.88427,-2.289361 -1.63877,-1.061822 -2.72514,-0.840864 -2.84789,-0.810176 a 0.67514663,0.67514663 0 0 0 -0.39282,0.282334 l -9.1697,13.944848 a 0.68128432,0.68128432 0 0 0 -0.10436,0.288473 l -0.613752,5.186352 a 0.67514663,0.67514663 0 0 0 0.294612,0.61377 0.68128432,0.68128432 0 0 0 0.69969,0 l 4.5419,-2.583972 a 0.61376966,0.61376966 0 0 0 0.22095,-0.208689 l 9.15131,-13.950984 a 0.66900892,0.66900892 0 0 0 0.10435,-0.472604 z m -12.18332,15.049632 a 5.0635996,5.0635996 0 0 0 -0.71197,-0.546254 6.8128432,6.8128432 0 0 0 -0.78563,-0.441915 l 0.18412,-1.552837 a 4.9101572,4.9101572 0 0 1 2.6699,1.749245 z"
     id="path6-8"
     style="fill:#0d7474;fill-opacity:1;stroke-width:0.613769" /><g
     style="fill:#0d7474;fill-opacity:1"
     id="g47"
     transform="matrix(1.6709834,0,0,1.6709834,1.434909,-74.702074)"><path
       d="M 20.938,4.031 H 7 v 23.938 h 17.967038 v -2 L 9,25.969 V 6.031 h 10 v 3 h 4 v 4.803415 h 2 V 7.969 Z"
       id="path1-6-7"
       style="fill:#0d7474;fill-opacity:1"
       sodipodi:nodetypes="cccccccccccccc" /></g><path
     id="rect1"
     style="fill:#0d7474;stroke-width:0.469357;stroke-linecap:round;stroke-linejoin:round"
     d="m 19.116959,-56.977965 h 17.66936 v 3.341967 h -17.66936 z" /><path
     id="rect2"
     style="fill:#0d7474;stroke-width:0.469357;stroke-linecap:round;stroke-linejoin:round"
     d="m 19.116959,-51.635999 h 17.66936 v 3.341967 h -17.66936 z" /><path
     id="rect3"
     style="fill:#0d7474;stroke-width:0.469357;stroke-linecap:round;stroke-linejoin:round"
     d="m 19.116959,-46.29403 h 17.66936 v 3.341967 h -17.66936 z" /></g></svg>
