<?xml version="1.0" encoding="UTF-8" standalone="no"?>
<!-- Generator: Adobe Illustrator 19.0.0, SVG Export Plug-In . SVG Version: 6.00 Build 0)  -->

<svg
   version="1.1"
   id="Layer_1"
   x="0px"
   y="0px"
   viewBox="0 0 200 230"
   xml:space="preserve"
   sodipodi:docname="places_logo.svg"
   inkscape:version="1.2.1 (9c6d41e410, 2022-07-14, custom)"
   width="200"
   height="230"
   xmlns:inkscape="http://www.inkscape.org/namespaces/inkscape"
   xmlns:sodipodi="http://sodipodi.sourceforge.net/DTD/sodipodi-0.dtd"
   xmlns="http://www.w3.org/2000/svg"
   xmlns:svg="http://www.w3.org/2000/svg"><defs
   id="defs53">










	
	






		
		
		
	












































</defs><sodipodi:namedview
   id="namedview51"
   pagecolor="#ffffff"
   bordercolor="#000000"
   borderopacity="0.25"
   inkscape:showpageshadow="false"
   inkscape:pageopacity="0.0"
   inkscape:pagecheckerboard="0"
   inkscape:deskcolor="#d1d1d1"
   showgrid="false"
   inkscape:zoom="2.8367136"
   inkscape:cx="15.687167"
   inkscape:cy="91.655358"
   inkscape:window-width="2534"
   inkscape:window-height="1408"
   inkscape:window-x="26"
   inkscape:window-y="0"
   inkscape:window-maximized="1"
   inkscape:current-layer="g1905" />







<g
   id="g20">
</g>
<g
   id="g22">
</g>
<g
   id="g24">
</g>
<g
   id="g26">
</g>
<g
   id="g28">
</g>
<g
   id="g30">
</g>
<g
   id="g32">
</g>
<g
   id="g34">
</g>
<g
   id="g36">
</g>
<g
   id="g38">
</g>
<g
   id="g40">
</g>
<g
   id="g42">
</g>
<g
   id="g44">
</g>
<g
   id="g46">
</g>
<g
   id="g48">
</g>
<g
   id="g714"
   transform="translate(-650.25447,-132.73256)">
</g><g
   id="g716"
   transform="translate(-650.25447,-132.73256)">
</g><g
   id="g718"
   transform="translate(-650.25447,-132.73256)">
</g><g
   id="g720"
   transform="translate(-650.25447,-132.73256)">
</g><g
   id="g722"
   transform="translate(-650.25447,-132.73256)">
</g><g
   id="g724"
   transform="translate(-650.25447,-132.73256)">
</g><g
   id="g726"
   transform="translate(-650.25447,-132.73256)">
</g><g
   id="g728"
   transform="translate(-650.25447,-132.73256)">
</g><g
   id="g730"
   transform="translate(-650.25447,-132.73256)">
</g><g
   id="g732"
   transform="translate(-650.25447,-132.73256)">
</g><g
   id="g734"
   transform="translate(-650.25447,-132.73256)">
</g><g
   id="g736"
   transform="translate(-650.25447,-132.73256)">
</g><g
   id="g738"
   transform="translate(-650.25447,-132.73256)">
</g><g
   id="g740"
   transform="translate(-650.25447,-132.73256)">
</g><g
   id="g742"
   transform="translate(-650.25447,-132.73256)">
</g><g
   id="g1905"
   transform="matrix(2.5158393,0,0,2.5158393,761.39694,-93.61082)"><circle
     style="fill:#0077b5;fill-opacity:1;stroke-width:0.109375"
     cx="-262.89316"
     cy="86.2267"
     r="28"
     id="circle2-6" /><path
     style="fill:#005f8f;fill-opacity:1;stroke-width:0.109375"
     d="m -235.09244,82.884754 -3.1562,-1.855128 -49.30396,12.950502 10.26939,16.265872 c 12.00959,8.91054 42.12312,3.54027 42.39005,-24.01929 0,-1.131158 -0.069,-2.246014 -0.19928,-3.341956 z"
     id="path4-1"
     sodipodi:nodetypes="cccccc" /><rect
     x="-276.69437"
     y="66.352386"
     style="fill:#f5f0f0;stroke-width:0.107921"
     width="0.50787544"
     height="6.0942898"
     id="rect646" /><rect
     x="-276.94797"
     y="74.477753"
     style="fill:#f5f0f0;stroke-width:0.107921"
     width="1.0157509"
     height="9.1419744"
     id="rect648" /><rect
     x="-277.06561"
     y="73.462219"
     style="fill:#b4b9c8;stroke-width:0.107921"
     width="1.2511263"
     height="1.2260886"
     id="rect652" /><polygon
     style="fill:#b4b9c8"
     points="138.974,178.353 135.059,201.882 149.176,201.882 145.261,178.353 "
     id="polygon654"
     transform="matrix(0.10792084,0,0,0.10792084,-291.77738,51.675155)" /><polygon
     style="fill:#f09b8c"
     points="128,192 128,201.882 136,208 148,208 156.235,201.882 156.235,192 "
     id="polygon658"
     transform="matrix(0.10792084,0,0,0.10792084,-291.77738,51.675155)" /><rect
     x="-254.6526"
     y="78.439522"
     style="fill:#faf0dc;stroke-width:0.107921"
     width="8.6336679"
     height="7.7703009"
     id="rect660" /><rect
     x="-279.69025"
     y="81.029625"
     style="fill:#aa9191;stroke-width:0.107921"
     width="7.7703009"
     height="6.9069338"
     id="rect664" /><rect
     x="-282.28033"
     y="80.16626"
     style="fill:#aac3dc;stroke-width:0.107921"
     width="4.316834"
     height="10.360401"
     id="rect666" /><rect
     x="-287.46054"
     y="80.16626"
     style="fill:#f0cdb4;stroke-width:0.107921"
     width="3.4534669"
     height="10.360401"
     id="rect668" /><rect
     x="-277.10016"
     y="81.89299"
     style="fill:#82a5cd;stroke-width:0.107921"
     width="5.1802006"
     height="10.360401"
     id="rect670" /><rect
     x="-267.60312"
     y="78.439522"
     style="fill:#b4b9c8;stroke-width:0.107921"
     width="5.1802006"
     height="5.1802006"
     id="rect672" /><rect
     x="-272.78329"
     y="74.986061"
     style="fill:#faf0dc;stroke-width:0.107921"
     width="6.0435672"
     height="12.950501"
     id="rect674" /><rect
     x="-275.37341"
     y="86.209824"
     style="fill:#ffffff;stroke-width:0.107921"
     width="7.7703009"
     height="5.1802006"
     id="rect676" /><rect
     x="-267.60312"
     y="81.89299"
     style="fill:#968282;stroke-width:0.107921"
     width="5.1802006"
     height="9.4970341"
     id="rect678" /><path
     style="fill:#aa9191;stroke-width:0.0915382"
     d="m -238.24864,88.066036 v -7.03641 h -3.48694 v 13.813868 c 1.46739,-2.02346 2.6533,-4.305206 3.48694,-6.777458 z"
     id="path680" /><rect
     x="-247.74567"
     y="76.712791"
     style="fill:#82a5cd;stroke-width:0.107921"
     width="6.9069338"
     height="15.540602"
     id="rect682" /><rect
     x="-253.78923"
     y="81.89299"
     style="fill:#aa9191;stroke-width:0.107921"
     width="4.316834"
     height="12.950501"
     id="rect684" /><rect
     x="-250.33577"
     y="80.16626"
     style="fill:#ebe1c3;stroke-width:0.107921"
     width="6.0435672"
     height="12.950501"
     id="rect686" /><rect
     x="-257.24271"
     y="74.986061"
     style="fill:#b4b9c8;stroke-width:0.107921"
     width="4.316834"
     height="18.130701"
     id="rect688" /><rect
     x="-263.28629"
     y="70.669228"
     style="fill:#82a5cd;stroke-width:0.107921"
     width="6.9069338"
     height="23.310902"
     id="rect690" /><rect
     x="-260.69617"
     y="87.936562"
     style="fill:#ffffff;stroke-width:0.107921"
     width="7.7703009"
     height="5.1802006"
     id="rect692" /><rect
     x="-265.87637"
     y="87.073189"
     style="fill:#faf0dc;stroke-width:0.107921"
     width="3.4534669"
     height="4.316834"
     id="rect698" /><rect
     x="-279.69025"
     y="86.209824"
     style="fill:#f0cdb4;stroke-width:0.107921"
     width="3.4534669"
     height="4.316834"
     id="rect700" /><rect
     x="-284.87042"
     y="82.756363"
     style="fill:#faf0dc;stroke-width:0.107921"
     width="4.316834"
     height="7.7703009"
     id="rect702" /><path
     style="fill:#558c73;stroke-width:0.107921"
     d="m -269.18221,93.980124 h 9.63712 c 0,0 -0.55763,-2.69802 -4.8205,-2.69802 0,0 -2.15842,-1.834654 -4.6406,-1.025248 0,0 -0.91732,-0.755446 -2.96782,-0.16188 0,0 -2.37426,-0.701486 -4.37079,0.485644 0,0 -1.13317,-1.079208 -2.5901,-0.593564 0,0 -2.3203,-0.539604 -3.61535,0.485644 0,0 -1.34901,-1.349012 -4.15495,-1.025248 0,0 -1.5477,-1.045322 -3.49362,-0.934056 0.6826,1.930272 1.57381,3.760502 2.64622,5.46673 h 3.38559 c -0.4209,0.262032 -0.70343,0.725336 -0.70343,1.257818 h 5.51508 c 0,-0.472802 -0.16005,-0.905132 -0.42154,-1.257818 h 5.54788 c -0.006,0.0078 -0.0128,0.0142 -0.0182,0.02224 -0.52978,0.05288 -1.0029,0.292142 -1.34577,0.66231 -0.11493,-0.0286 -0.23332,-0.04814 -0.35711,-0.04814 -0.81998,0 -1.48477,0.664792 -1.48477,1.484774 h 5.51497 c 0,-0.4728 -0.16004,-0.905132 -0.42154,-1.257816 h 3.34652 c 0,-0.308222 -0.0691,-0.599178 -0.18724,-0.863368 z"
     id="path708" /><path
     style="fill:#558c73;stroke-width:0.250272"
     d="m -238.24864,89.089514 c -6.26682,-3.524642 -12.10452,-0.395618 -12.10452,-0.395618 -4.20521,-1.450482 -7.86206,1.8373 -7.86206,1.8373 -7.22212,0 -8.16665,4.835428 -8.16665,4.835428 h 26.79254 c 0.48038,-2.05216 0.93001,-4.142452 1.34069,-6.27711 z"
     id="path710" /></g><g
   id="g1875"
   transform="matrix(1.0760808,0,0,1.0760808,220.99426,86.621335)"><path
     d="m -177.11433,-57.710556 v 5.286468 h -23.24223 q -4.9948,0 -5.01303,-4.903654 v -23.169313 h 10.02606 v 21.328163 q 0,1.458336 1.34896,1.458336 z"
     id="path2012"
     style="font-size:18.6667px;font-family:Interceptor;-inkscape-font-specification:Interceptor;letter-spacing:3px;fill:#0077b5;fill-opacity:1;stroke-width:1;stroke-linecap:round;stroke-linejoin:round" /><path
     d="m -151.97367,-74.116835 h 10.02606 v 21.692747 h -23.24223 q -4.9948,0 -5.01303,-4.903654 v -16.789093 h 10.02606 v 14.947943 q 0,1.458336 1.34896,1.458336 h 6.87241 z"
     id="path2009"
     style="font-size:18.6667px;font-family:Interceptor;-inkscape-font-specification:Interceptor;letter-spacing:3px;fill:#0077b5;fill-opacity:1;stroke-width:1;stroke-linecap:round;stroke-linejoin:round" /><path
     d="m -130.02312,-52.424088 q -4.9948,0 -5.01303,-4.903654 V -69.19495 q 0,-4.921885 5.01303,-4.940114 h 18.21097 q 5.03126,0.01822 5.03126,4.940114 v 11.848978 q 0,4.921884 -5.01303,4.921884 z m 5.01303,-16.406278 v 9.661474 q 0,1.458336 1.34896,1.458336 h 6.87241 l -0.0182,-9.661476 q 0,-1.440106 -1.38542,-1.458334 z"
     id="path2006"
     style="font-size:18.6667px;font-family:Interceptor;-inkscape-font-specification:Interceptor;letter-spacing:3px;fill:#0077b5;fill-opacity:1;stroke-width:1;stroke-linecap:round;stroke-linejoin:round" /><path
     d="m -89.843373,-68.830366 v 9.661474 q 0,1.458336 1.34897,1.458336 h 6.872404 l -0.0182,-9.661476 q 0,-1.440106 -1.38542,-1.458334 z m 8.203144,17.50003 v -1.093752 h -13.216174 q -4.9948,0 -5.01303,-4.903654 V -69.19495 q 0,-4.921885 5.01303,-4.940114 l 23.24223,0.01822 v 23.151092 q 0,4.921882 -5.01302,4.921882 h -14.12764 v -5.286466 z"
     id="path2003"
     style="font-size:18.6667px;font-family:Interceptor;-inkscape-font-specification:Interceptor;letter-spacing:3px;fill:#0077b5;fill-opacity:1;stroke-width:1;stroke-linecap:round;stroke-linejoin:round" /><path
     d="m -54.676653,-74.116835 h 13.21616 q 4.9948,0 5.01304,4.903655 v 16.789092 h -10.02606 v -14.947944 q 0,-1.458334 -1.34896,-1.458334 h -6.87242 l 0.018,16.406278 h -10.02606 v -28.072967 h 10.02606 z"
     id="path2000"
     style="font-size:18.6667px;font-family:Interceptor;-inkscape-font-specification:Interceptor;letter-spacing:3px;fill:#0077b5;fill-opacity:1;stroke-width:1;stroke-linecap:round;stroke-linejoin:round" /><path
     d="m -19.509933,-80.497055 v 5.286468 l -10.00782,-0.01822 -0.018,-5.268239 z m 0,6.38022 v 21.692747 h -10.02606 v -21.692747 z"
     id="path1997"
     style="font-size:18.6667px;font-family:Interceptor;-inkscape-font-specification:Interceptor;letter-spacing:3px;fill:#0077b5;fill-opacity:1;stroke-width:1;stroke-linecap:round;stroke-linejoin:round" /></g></svg>
