<?xml version="1.0" encoding="UTF-8" standalone="no"?>
<!-- Generator: Adobe Illustrator 19.0.0, SVG Export Plug-In . SVG Version: 6.00 Build 0)  -->

<svg
   version="1.1"
   id="Layer_1"
   x="0px"
   y="0px"
   viewBox="0 0 200 160"
   xml:space="preserve"
   sodipodi:docname="places_logo.svg"
   inkscape:version="1.3 (0e150ed6c4, 2023-07-21)"
   width="200"
   height="160"
   xmlns:inkscape="http://www.inkscape.org/namespaces/inkscape"
   xmlns:sodipodi="http://sodipodi.sourceforge.net/DTD/sodipodi-0.dtd"
   xmlns="http://www.w3.org/2000/svg"
   xmlns:svg="http://www.w3.org/2000/svg"><defs
   id="defs53">&#10;&#10;&#10;&#10;&#10;&#10;&#10;&#10;&#10;&#10;&#10;	&#10;	&#10;&#10;&#10;&#10;&#10;&#10;&#10;		&#10;		&#10;		&#10;	&#10;&#10;&#10;&#10;&#10;&#10;&#10;&#10;&#10;&#10;&#10;&#10;&#10;&#10;&#10;</defs><sodipodi:namedview
   id="namedview51"
   pagecolor="#ffffff"
   bordercolor="#000000"
   borderopacity="0.25"
   inkscape:showpageshadow="false"
   inkscape:pageopacity="0.0"
   inkscape:pagecheckerboard="0"
   inkscape:deskcolor="#d1d1d1"
   showgrid="false"
   inkscape:zoom="2.8367136"
   inkscape:cx="95.356825"
   inkscape:cy="96.061866"
   inkscape:window-width="2016"
   inkscape:window-height="1108"
   inkscape:window-x="32"
   inkscape:window-y="0"
   inkscape:window-maximized="1"
   inkscape:current-layer="Layer_1" />&#10;&#10;&#10;&#10;&#10;&#10;&#10;&#10;<g
   id="g20">&#10;</g>&#10;<g
   id="g22">&#10;</g>&#10;<g
   id="g24">&#10;</g>&#10;<g
   id="g26">&#10;</g>&#10;<g
   id="g28">&#10;</g>&#10;<g
   id="g30">&#10;</g>&#10;<g
   id="g32">&#10;</g>&#10;<g
   id="g34">&#10;</g>&#10;<g
   id="g36">&#10;</g>&#10;<g
   id="g38">&#10;</g>&#10;<g
   id="g40">&#10;</g>&#10;<g
   id="g42">&#10;</g>&#10;<g
   id="g44">&#10;</g>&#10;<g
   id="g46">&#10;</g>&#10;<g
   id="g48">&#10;</g>&#10;<g
   id="g1038"
   transform="matrix(0.11472343,0,0,0.11472343,-87.04525,72.831185)">&#10;</g><g
   id="g1040"
   transform="matrix(0.11472343,0,0,0.11472343,-87.04525,72.831185)">&#10;</g><g
   id="g1042"
   transform="matrix(0.11472343,0,0,0.11472343,-87.04525,72.831185)">&#10;</g><g
   id="g1044"
   transform="matrix(0.11472343,0,0,0.11472343,-87.04525,72.831185)">&#10;</g><g
   id="g1046"
   transform="matrix(0.11472343,0,0,0.11472343,-87.04525,72.831185)">&#10;</g><g
   id="g1048"
   transform="matrix(0.11472343,0,0,0.11472343,-87.04525,72.831185)">&#10;</g><g
   id="g1050"
   transform="matrix(0.11472343,0,0,0.11472343,-87.04525,72.831185)">&#10;</g><g
   id="g1052"
   transform="matrix(0.11472343,0,0,0.11472343,-87.04525,72.831185)">&#10;</g><g
   id="g1054"
   transform="matrix(0.11472343,0,0,0.11472343,-87.04525,72.831185)">&#10;</g><g
   id="g1056"
   transform="matrix(0.11472343,0,0,0.11472343,-87.04525,72.831185)">&#10;</g><g
   id="g1058"
   transform="matrix(0.11472343,0,0,0.11472343,-87.04525,72.831185)">&#10;</g><g
   id="g1060"
   transform="matrix(0.11472343,0,0,0.11472343,-87.04525,72.831185)">&#10;</g><g
   id="g1062"
   transform="matrix(0.11472343,0,0,0.11472343,-87.04525,72.831185)">&#10;</g><g
   id="g1064"
   transform="matrix(0.11472343,0,0,0.11472343,-87.04525,72.831185)">&#10;</g><g
   id="g1066"
   transform="matrix(0.11472343,0,0,0.11472343,-87.04525,72.831185)">&#10;</g><g
   id="g4209"
   transform="matrix(0.17356997,0,0,0.17356997,-229.5756,69.108898)">&#10;</g><g
   id="g4211"
   transform="matrix(0.17356997,0,0,0.17356997,-229.5756,69.108898)">&#10;</g><g
   id="g4213"
   transform="matrix(0.17356997,0,0,0.17356997,-229.5756,69.108898)">&#10;</g><g
   id="g4215"
   transform="matrix(0.17356997,0,0,0.17356997,-229.5756,69.108898)">&#10;</g><g
   id="g4217"
   transform="matrix(0.17356997,0,0,0.17356997,-229.5756,69.108898)">&#10;</g><g
   id="g4219"
   transform="matrix(0.17356997,0,0,0.17356997,-229.5756,69.108898)">&#10;</g><g
   id="g4221"
   transform="matrix(0.17356997,0,0,0.17356997,-229.5756,69.108898)">&#10;</g><g
   id="g4223"
   transform="matrix(0.17356997,0,0,0.17356997,-229.5756,69.108898)">&#10;</g><g
   id="g4225"
   transform="matrix(0.17356997,0,0,0.17356997,-229.5756,69.108898)">&#10;</g><g
   id="g4227"
   transform="matrix(0.17356997,0,0,0.17356997,-229.5756,69.108898)">&#10;</g><g
   id="g4229"
   transform="matrix(0.17356997,0,0,0.17356997,-229.5756,69.108898)">&#10;</g><g
   id="g4231"
   transform="matrix(0.17356997,0,0,0.17356997,-229.5756,69.108898)">&#10;</g><g
   id="g4233"
   transform="matrix(0.17356997,0,0,0.17356997,-229.5756,69.108898)">&#10;</g><g
   id="g4235"
   transform="matrix(0.17356997,0,0,0.17356997,-229.5756,69.108898)">&#10;</g><g
   id="g4237"
   transform="matrix(0.17356997,0,0,0.17356997,-229.5756,69.108898)">&#10;</g><g
   id="g6387"
   transform="translate(-1182.4826,-153.00001)">&#10;</g><g
   id="g6389"
   transform="translate(-1182.4826,-153.00001)">&#10;</g><g
   id="g6391"
   transform="translate(-1182.4826,-153.00001)">&#10;</g><g
   id="g6393"
   transform="translate(-1182.4826,-153.00001)">&#10;</g><g
   id="g6395"
   transform="translate(-1182.4826,-153.00001)">&#10;</g><g
   id="g6397"
   transform="translate(-1182.4826,-153.00001)">&#10;</g><g
   id="g6399"
   transform="translate(-1182.4826,-153.00001)">&#10;</g><g
   id="g6401"
   transform="translate(-1182.4826,-153.00001)">&#10;</g><g
   id="g6403"
   transform="translate(-1182.4826,-153.00001)">&#10;</g><g
   id="g6405"
   transform="translate(-1182.4826,-153.00001)">&#10;</g><g
   id="g6407"
   transform="translate(-1182.4826,-153.00001)">&#10;</g><g
   id="g6409"
   transform="translate(-1182.4826,-153.00001)">&#10;</g><g
   id="g6411"
   transform="translate(-1182.4826,-153.00001)">&#10;</g><g
   id="g6413"
   transform="translate(-1182.4826,-153.00001)">&#10;</g><g
   id="g6415"
   transform="translate(-1182.4826,-153.00001)">&#10;</g><g
   id="g6781"
   transform="matrix(0.1605273,0,0,0.1605273,282.9552,32.086102)"><path
     style="fill:#f5ca47"
     d="m -1018.7826,-44.44501 h -74.303 c -9.618,0 -17.415,7.797 -17.415,17.415 v 81.27 h -32.508 c -9.618,0 -17.415,7.797 -17.415,17.415 0,9.618 7.797,17.415 17.415,17.415 h 42.643 c 2.92,5.524 8.724,9.288 15.406,9.288 h 66.177 c 9.618,0 17.415,-7.797 17.415,-17.415 v -107.973 c 0,-9.618 -7.797,-17.415 -17.415,-17.415 z"
     id="path6313" /><path
     style="fill:#f7f4a3"
     d="m -1055.9336,-44.44501 h -37.152 c -9.618,0 -17.415,7.797 -17.415,17.415 v 81.27 h -32.508 c -9.618,0 -17.415,7.797 -17.415,17.415 0,9.618 7.797,17.415 17.415,17.415 h 42.643 c 2.92,5.524 8.724,9.288 15.406,9.288 h 29.025 v -142.803 z"
     id="path6315" /><path
     style="fill:#f5ca47"
     d="m -671.0746,76.44499 c -2.036,-7.618 -8.939,-12.917 -16.824,-12.917 h -17.415 v -41.796 c 0,-9.618 -7.797,-17.415 -17.415,-17.415 h -40.635 c -9.618,0 -17.415,7.797 -17.415,17.415 v 81.27 c 0,9.618 7.797,17.415 17.415,17.415 h 37.152 c 3.05,0 6.046,-0.801 8.689,-2.322 l 38.313,-22.059 c 6.835,-3.937 10.171,-11.972 8.135,-19.591 z"
     id="path6317" /><path
     style="fill:#e56c1e"
     d="m -771.9446,-40.96301 h -101.125 c -9.618,0 -16.844,7.748 -16.844,17.366 v 122.267 c 0,5.565 2.374,10.795 6.871,14.074 3.017,2.199 6.474,3.341 10.117,3.341 1.787,0 3.513,-0.275 5.257,-0.836 l 101.315,-32.508 c 7.202,-2.315 12.276,-9.015 12.276,-16.579 v -89.759 c 0.002,-9.617 -8.248,-17.366 -17.867,-17.366 z"
     id="path6323" /><path
     style="fill:#f2ba57"
     d="m -821.9936,-40.96301 h -51.074 c -9.618,0 -16.844,7.748 -16.844,17.366 v 122.267 c 0,5.565 2.374,10.795 6.871,14.074 3.017,2.199 6.474,3.341 10.117,3.341 1.787,0 3.513,-0.275 5.257,-0.836 l 45.093,-2.961 z"
     id="path6325" /><path
     style="fill:#e56c1e"
     d="m -960.2876,-102.49501 h -78.372 c -9.618,0 -17.274,8.11 -17.274,17.728 v 162.038 c 0,9.301 7.239,16.96 16.529,17.395 l 78.337,3.672 c 0.273,0.013 0.527,0.02 0.799,0.02 4.466,0 8.545,-1.718 11.791,-4.816 3.444,-3.287 5.162,-7.839 5.162,-12.599 v -165.71 c -0.002,-9.619 -7.355,-17.728 -16.972,-17.728 z"
     id="path6327" /><path
     style="fill:#f2ba57"
     d="m -1003.1346,-102.49501 h -35.525 c -9.618,0 -17.274,8.11 -17.274,17.728 v 162.038 c 0,9.301 7.239,16.96 16.529,17.395 l 36.269,1.7 c 0.274,0.012 10e-4,-198.861 10e-4,-198.861 z"
     id="path6329" /><path
     style="fill:#f5ca47"
     d="m -881.9156,-146.61301 h -78.372 c -9.618,0 -17.86,7.797 -17.86,17.415 v 206.468 c 0,9.618 8.019,17.415 17.637,17.415 9.618,0 69.042,0.048 78.66,0.048 9.618,0 17.481,-7.844 17.481,-17.461 v -206.47 c 0,-9.618 -7.929,-17.415 -17.546,-17.415 z"
     id="path6331" /><path
     style="fill:#f7f4a3"
     d="m -921.2586,-146.61301 h -39.029 c -9.618,0 -17.86,7.797 -17.86,17.415 v 206.468 c 0,9.618 8.019,17.415 17.637,17.415 9.618,0 39.252,0.048 39.252,0.048 z"
     id="path6333" /><g
     id="g6673"
     transform="matrix(1.0590257,0,0,1.0590257,58.066867,-25.881087)"><path
       style="fill:#489b6d;stroke-width:0.589944"
       d="m -909.54397,18.756764 c -24.91453,0 -38.35582,41.808763 -38.35582,58.903579 0,21.148913 17.20572,38.355817 38.35582,38.355817 21.15009,0 38.35582,-17.206904 38.35582,-38.355817 0,-17.095406 -13.44129,-58.903579 -38.35582,-58.903579 z"
       id="path6335" /><path
       style="fill:#a2ce86;stroke-width:0.589944"
       d="m -909.88673,18.756764 c -24.65731,0 -38.35582,41.808763 -38.35582,58.903579 0,21.148913 17.80806,38.355817 38.35582,38.355817 z"
       id="path6337" /><path
       style="fill:#489b6d;stroke-width:0.589944"
       d="m -839.68218,18.756764 c -24.91453,0 -38.35582,41.808763 -38.35582,58.903579 0,21.148913 17.20573,38.355817 38.35582,38.355817 21.15009,0 38.35582,-17.206904 38.35582,-38.355817 0,-17.095406 -13.4407,-58.903579 -38.35582,-58.903579 z"
       id="path6339" /><path
       style="fill:#a2ce86;stroke-width:0.589944"
       d="m -840.02435,18.756764 c -24.65731,0 -38.35581,41.808763 -38.35581,58.903579 0,21.148913 17.80805,38.355817 38.35581,38.355817 z"
       id="path6341" /><path
       style="fill:#489b6d;stroke-width:0.589944"
       d="m -769.81979,18.756764 c -24.91453,0 -38.35582,41.808763 -38.35582,58.903579 0,21.148913 17.20572,38.355817 38.35582,38.355817 21.15009,0 38.35581,-17.206904 38.35581,-38.355817 0,-17.095406 -13.44129,-58.903579 -38.35581,-58.903579 z"
       id="path6343" /><path
       style="fill:#a2ce86;stroke-width:0.589944"
       d="m -770.16255,18.756764 c -24.65731,0 -38.35582,41.808763 -38.35582,58.903579 0,21.148913 17.80806,38.355817 38.35582,38.355817 z"
       id="path6345" /><path
       style="fill:#2a5637;stroke-width:0.589944"
       d="m -946.18718,175.41883 c -5.67409,0 -10.27388,-4.59979 -10.27388,-10.27388 v -34.24626 c 0,-5.67409 4.59979,-10.27388 10.27388,-10.27388 5.67408,0 10.27388,4.59979 10.27388,10.27388 v 34.24626 c 0,5.67409 -4.60039,10.27388 -10.27388,10.27388 z"
       id="path6347" /><path
       style="fill:#4e7f4b;stroke-width:0.589944"
       d="m -946.18718,175.41883 c -5.67409,0 -10.27388,-4.59979 -10.27388,-10.27388 v -34.24626 c 0,-5.67409 4.59979,-10.27388 10.27388,-10.27388 z"
       id="path6349" /><path
       style="fill:#2a5637;stroke-width:0.589944"
       d="m -878.38016,175.41883 c -5.67409,0 -10.27388,-4.59979 -10.27388,-10.27388 v -34.24626 c 0,-5.67409 4.59979,-10.27388 10.27388,-10.27388 5.67408,0 10.27388,4.59979 10.27388,10.27388 v 34.24626 c 0,5.67409 -4.5998,10.27388 -10.27388,10.27388 z"
       id="path6351" /><path
       style="fill:#4e7f4b;stroke-width:0.589944"
       d="m -878.38016,175.41883 c -5.67409,0 -10.27388,-4.59979 -10.27388,-10.27388 v -34.24626 c 0,-5.67409 4.59979,-10.27388 10.27388,-10.27388 z"
       id="path6353" /><path
       style="fill:#2a5637;stroke-width:0.589944"
       d="m -810.57256,175.41883 c -5.67408,0 -10.27388,-4.59979 -10.27388,-10.27388 v -34.24626 c 0,-5.67409 4.5998,-10.27388 10.27388,-10.27388 5.67409,0 10.27388,4.59979 10.27388,10.27388 v 34.24626 c 0,5.67409 -4.60038,10.27388 -10.27388,10.27388 z"
       id="path6355" /><path
       style="fill:#4e7f4b;stroke-width:0.589944"
       d="m -810.57256,175.41883 c -5.67408,0 -10.27388,-4.59979 -10.27388,-10.27388 v -34.24626 c 0,-5.67409 4.5998,-10.27388 10.27388,-10.27388 z"
       id="path6357" /><path
       style="fill:#2a5637;stroke-width:0.589944"
       d="m -742.76554,175.41883 c -5.67408,0 -10.27388,-4.59979 -10.27388,-10.27388 v -34.24626 c 0,-5.67409 4.5998,-10.27388 10.27388,-10.27388 5.67409,0 10.27388,4.59979 10.27388,10.27388 v 34.24626 c 0,5.67409 -4.59979,10.27388 -10.27388,10.27388 z"
       id="path6359" /><path
       style="fill:#4e7f4b;stroke-width:0.589944"
       d="m -742.76554,175.41883 c -5.67408,0 -10.27388,-4.59979 -10.27388,-10.27388 v -34.24626 c 0,-5.67409 4.5998,-10.27388 10.27388,-10.27388 z"
       id="path6361" /><path
       style="fill:#007871;stroke-width:0.589944"
       d="m -945.84501,44.098411 c -24.91453,0 -38.35582,41.808763 -38.35582,58.903579 0,21.14891 17.20572,38.35582 38.35582,38.35582 21.15009,0 38.35581,-17.20691 38.35581,-38.35582 0,-17.094816 -13.4407,-58.903579 -38.35581,-58.903579 z"
       id="path6363" /><path
       style="fill:#489b6d;stroke-width:0.589944"
       d="m -946.18718,44.098411 c -24.65731,0 -38.35582,41.808763 -38.35582,58.903579 0,21.14891 17.80806,38.35582 38.35582,38.35582 z"
       id="path6365" /><path
       style="fill:#007871;stroke-width:0.589944"
       d="m -878.03741,44.098411 c -24.91452,0 -38.35582,41.808763 -38.35582,58.903579 0,21.14891 17.20573,38.35582 38.35582,38.35582 21.1501,0 38.35582,-17.20691 38.35582,-38.35582 -5.9e-4,-17.094816 -13.44129,-58.903579 -38.35582,-58.903579 z"
       id="path6367" /><path
       style="fill:#489b6d;stroke-width:0.589944"
       d="m -878.38016,44.098411 c -24.65732,0 -38.35582,41.808763 -38.35582,58.903579 0,21.14891 17.80806,38.35582 38.35582,38.35582 z"
       id="path6369" /><path
       style="fill:#007871;stroke-width:0.589944"
       d="m -810.23039,44.098411 c -24.91453,0 -38.35582,41.808763 -38.35582,58.903579 0,21.14891 17.20573,38.35582 38.35582,38.35582 21.15009,0 38.35582,-17.20691 38.35582,-38.35582 0,-17.094816 -13.4407,-58.903579 -38.35582,-58.903579 z"
       id="path6371" /><path
       style="fill:#489b6d;stroke-width:0.589944"
       d="m -810.57256,44.098411 c -24.65731,0 -38.35582,41.808763 -38.35582,58.903579 0,21.14891 17.80806,38.35582 38.35582,38.35582 z"
       id="path6373" /><path
       style="fill:#007871;stroke-width:0.589944"
       d="m -742.42278,44.098411 c -24.91453,0 -38.35582,41.808763 -38.35582,58.903579 0,21.14891 17.20573,38.35582 38.35582,38.35582 21.15009,0 38.35582,-17.20691 38.35582,-38.35582 -5.9e-4,-17.094816 -13.44129,-58.903579 -38.35582,-58.903579 z"
       id="path6375" /><path
       style="fill:#489b6d;stroke-width:0.589944"
       d="m -742.76554,44.098411 c -24.65731,0 -38.35582,41.808763 -38.35582,58.903579 0,21.14891 17.80806,38.35582 38.35582,38.35582 z"
       id="path6377" /><path
       style="fill:#0eabd9;stroke-width:0.589944"
       d="m -881.80303,191.2783 c -29.43173,0 -54.80818,-2.46184 -75.54,-7.33478 -5.52306,-1.29847 -8.94828,-6.8286 -7.6504,-12.35166 1.29788,-5.52306 6.82978,-8.94946 12.35107,-7.6504 21.15717,4.97264 47.88814,7.23508 79.45429,6.71828 17.0075,-0.27668 34.17075,-2.82111 52.34163,-5.51479 20.60203,-3.05356 41.90551,-6.21153 66.71857,-6.88288 13.25723,-0.35751 26.95573,-0.0543 40.71972,0.90261 5.65993,0.39408 9.92995,5.30124 9.53645,10.96234 -0.3929,5.66111 -5.30537,9.92582 -10.96234,9.53645 -13.10738,-0.91146 -26.14102,-1.20112 -38.73928,-0.86072 -23.57772,0.63773 -44.25939,3.70367 -64.26028,6.66755 -18.8558,2.79515 -36.6668,5.43574 -55.02056,5.73484 -3.0217,0.0484 -6.00681,0.0732 -8.94887,0.0732 z"
       id="path6379" /></g><rect
     style="fill:#c83737;fill-opacity:1;stroke-width:2;stroke-linecap:round;stroke-linejoin:round"
     id="rect6727"
     width="11.662123"
     height="11.662123"
     x="-1035.3047"
     y="-67.981491" /><rect
     style="fill:#c83737;fill-opacity:1;stroke-width:2;stroke-linecap:round;stroke-linejoin:round"
     id="rect6729"
     width="11.662123"
     height="11.662123"
     x="-1035.3047"
     y="-51.981491" /><rect
     style="fill:#c83737;fill-opacity:1;stroke-width:2;stroke-linecap:round;stroke-linejoin:round"
     id="rect6731"
     width="11.662123"
     height="11.662123"
     x="-1035.3047"
     y="-35.981491" /><rect
     style="fill:#c83737;fill-opacity:1;stroke-width:2;stroke-linecap:round;stroke-linejoin:round"
     id="rect6733"
     width="11.662123"
     height="11.662123"
     x="-1035.3047"
     y="-19.981491" /><rect
     style="fill:#c83737;fill-opacity:1;stroke-width:2;stroke-linecap:round;stroke-linejoin:round"
     id="rect6735"
     width="11.662123"
     height="11.662123"
     x="-1035.3047"
     y="-3.9814911" /><rect
     style="fill:#c83737;fill-opacity:1;stroke-width:2;stroke-linecap:round;stroke-linejoin:round"
     id="rect6737"
     width="11.662123"
     height="11.662123"
     x="-1035.3047"
     y="14.018509" /><rect
     style="fill:#c83737;fill-opacity:1;stroke-width:2;stroke-linecap:round;stroke-linejoin:round"
     id="rect6739"
     width="11.662123"
     height="11.662123"
     x="-1035.3047"
     y="30.018509" /></g><path
   d="M 80.552952,117.15146 V 79.024171 h 7.625458 v 31.628319 h 7.84209 v 6.49897 z m 26.450808,0.34661 q -4.76591,0 -7.018888,-2.66458 -2.252976,-2.68624 -2.252976,-7.88541 V 79.024171 h 7.408824 v 27.620619 q 0,0.95318 0.10832,1.84138 0.10831,0.86653 0.49825,1.42977 0.38994,0.56324 1.25647,0.56324 0.88819,0 1.27813,-0.54158 0.38994,-0.56324 0.47659,-1.45143 0.10832,-0.8882 0.10832,-1.84138 V 79.024171 h 7.40882 v 27.923909 q 0,5.19917 -2.25297,7.88541 -2.25298,2.66458 -7.01889,2.66458 z m 21.29495,0 q -4.57094,0 -6.99722,-2.75123 -2.40462,-2.77289 -2.40462,-7.99373 V 88.642646 q 0,-4.895891 2.38296,-7.430489 2.40462,-2.534598 7.01888,-2.534598 4.61427,0 6.99723,2.534598 2.40462,2.534598 2.40462,7.430489 v 18.110464 q 0,5.22084 -2.42628,7.99373 -2.40462,2.75123 -6.97557,2.75123 z m 0.065,-7.01889 q 1.73306,0 1.73306,-3.3578 V 88.512666 q 0,-2.81622 -1.68973,-2.81622 -1.90636,0 -1.90636,2.88121 v 18.587054 q 0,1.77638 0.43326,2.55626 0.43327,0.75821 1.42977,0.75821 z m 20.27679,7.01889 q -8.16704,0 -8.16704,-11.69814 V 89.357532 q 0,-10.679973 9.35852,-10.679973 3.85605,0 5.91406,1.559753 2.05801,1.538089 2.83788,4.505952 0.77988,2.967863 0.77988,7.235519 h -7.45215 v -3.379464 q 0,-1.234804 -0.34661,-2.058007 -0.32495,-0.844866 -1.38645,-0.844866 -1.32146,0 -1.75472,0.888193 -0.4116,0.888192 -0.4116,1.949691 v 18.47874 q 0,1.53809 0.38994,2.51293 0.4116,0.95318 1.58141,0.95318 1.21314,0 1.60308,-0.95318 0.4116,-0.97484 0.4116,-2.55626 v -5.43747 h -2.03634 v -6.585624 h 9.31519 v 22.204814 h -3.05452 l -1.29979,-3.20616 q -1.99302,3.55277 -6.28234,3.55277 z m 13.64784,-0.34661 V 79.024171 h 7.58213 v 13.626173 h 3.59609 V 79.024171 h 7.58214 v 38.127289 h -7.58214 V 99.8642 h -3.59609 v 17.28726 z m 21.79321,0 V 79.024171 h 7.3655 v 38.127289 z"
   id="path1"
   style="font-size:44.3663px;font-family:Anton;-inkscape-font-specification:Anton;letter-spacing:0px;fill:#007567;stroke-width:3.6972"
   aria-label="LUOGHI" /></svg>
