<?xml version="1.0" encoding="UTF-8" standalone="no"?>
<!-- Generator: Adobe Illustrator 19.0.0, SVG Export Plug-In . SVG Version: 6.00 Build 0)  -->

<svg
   version="1.1"
   id="Layer_1"
   x="0px"
   y="0px"
   viewBox="0 0 200 260"
   xml:space="preserve"
   sodipodi:docname="reasons_logo.svg"
   inkscape:version="1.2.1 (9c6d41e410, 2022-07-14, custom)"
   width="200"
   height="260"
   xmlns:inkscape="http://www.inkscape.org/namespaces/inkscape"
   xmlns:sodipodi="http://sodipodi.sourceforge.net/DTD/sodipodi-0.dtd"
   xmlns="http://www.w3.org/2000/svg"
   xmlns:svg="http://www.w3.org/2000/svg"><defs
   id="defs53">










	
	






		
		
		
	
	
	
	
	
	
	

	
	
	
	
	
	











	
	






		
		
		
			
		
		
		
			
		
	
		
		
		
	
			
			
			
			
			
		














</defs><sodipodi:namedview
   id="namedview51"
   pagecolor="#ffffff"
   bordercolor="#000000"
   borderopacity="0.25"
   inkscape:showpageshadow="false"
   inkscape:pageopacity="0.0"
   inkscape:pagecheckerboard="0"
   inkscape:deskcolor="#d1d1d1"
   showgrid="false"
   inkscape:zoom="2.8367136"
   inkscape:cx="30.316772"
   inkscape:cy="217.85774"
   inkscape:window-width="2534"
   inkscape:window-height="1408"
   inkscape:window-x="26"
   inkscape:window-y="0"
   inkscape:window-maximized="1"
   inkscape:current-layer="Layer_1" />







<g
   id="g20">
</g>
<g
   id="g22">
</g>
<g
   id="g24">
</g>
<g
   id="g26">
</g>
<g
   id="g28">
</g>
<g
   id="g30">
</g>
<g
   id="g32">
</g>
<g
   id="g34">
</g>
<g
   id="g36">
</g>
<g
   id="g38">
</g>
<g
   id="g40">
</g>
<g
   id="g42">
</g>
<g
   id="g44">
</g>
<g
   id="g46">
</g>
<g
   id="g48">
</g>
<circle
   style="fill:#0077b5;fill-opacity:1;stroke-width:0.275171"
   cx="100"
   cy="154.03802"
   r="70.44371"
   id="circle2" /><path
   style="fill:#005f8f;fill-opacity:1;stroke-width:0.275171"
   d="m 167.79242,134.48717 -44.93045,-26.33474 -59.021175,62.51011 31.62191,53.66951 c 1.500782,0.0955 3.012579,0.14671 4.537295,0.14969 39.0251,0.0763 69.23638,-29.00192 70.44371,-70.44371 0.0854,-2.93247 -1.45342,-16.89808 -2.65129,-19.55086 z"
   id="path4"
   sodipodi:nodetypes="ccccssc" /><g
   id="g1038"
   transform="matrix(0.11472343,0,0,0.11472343,-87.04525,72.831185)">
</g><g
   id="g1040"
   transform="matrix(0.11472343,0,0,0.11472343,-87.04525,72.831185)">
</g><g
   id="g1042"
   transform="matrix(0.11472343,0,0,0.11472343,-87.04525,72.831185)">
</g><g
   id="g1044"
   transform="matrix(0.11472343,0,0,0.11472343,-87.04525,72.831185)">
</g><g
   id="g1046"
   transform="matrix(0.11472343,0,0,0.11472343,-87.04525,72.831185)">
</g><g
   id="g1048"
   transform="matrix(0.11472343,0,0,0.11472343,-87.04525,72.831185)">
</g><g
   id="g1050"
   transform="matrix(0.11472343,0,0,0.11472343,-87.04525,72.831185)">
</g><g
   id="g1052"
   transform="matrix(0.11472343,0,0,0.11472343,-87.04525,72.831185)">
</g><g
   id="g1054"
   transform="matrix(0.11472343,0,0,0.11472343,-87.04525,72.831185)">
</g><g
   id="g1056"
   transform="matrix(0.11472343,0,0,0.11472343,-87.04525,72.831185)">
</g><g
   id="g1058"
   transform="matrix(0.11472343,0,0,0.11472343,-87.04525,72.831185)">
</g><g
   id="g1060"
   transform="matrix(0.11472343,0,0,0.11472343,-87.04525,72.831185)">
</g><g
   id="g1062"
   transform="matrix(0.11472343,0,0,0.11472343,-87.04525,72.831185)">
</g><g
   id="g1064"
   transform="matrix(0.11472343,0,0,0.11472343,-87.04525,72.831185)">
</g><g
   id="g1066"
   transform="matrix(0.11472343,0,0,0.11472343,-87.04525,72.831185)">
</g><path
   style="fill:#0ee0b8;stroke-width:0.181715"
   d="M 122.86197,108.15243 H 66.166752 c -2.47133,0 -4.36117,1.88984 -4.36117,4.36117 v 58.14894 l 28.056865,26.89389 h 32.999523 c 2.47133,0 4.36117,-1.88984 4.36117,-4.36117 V 112.5136 c 0,-2.47133 -1.88984,-4.36117 -4.36117,-4.36117 z"
   id="path746" /><path
   style="fill:#e6e6e6;stroke-width:0.181715"
   d="M 122.86197,108.15243 H 66.166752 c -2.47133,0 -4.36117,1.88984 -4.36117,4.36117 v 58.14894 l 28.056865,26.89389 h 32.999523 c 2.47133,0 4.36117,-1.88984 4.36117,-4.36117 V 112.5136 c 0,-2.47133 -1.88984,-4.36117 -4.36117,-4.36117 z"
   id="path748-6" /><path
   style="fill:#cccccc;stroke-width:0.181715"
   d="M 127.22314,177.78579 V 112.5136 c 0,-2.47133 -1.88984,-4.36117 -4.36117,-4.36117 H 66.166752 c -2.47133,0 -4.36117,1.88984 -4.36117,4.36117"
   id="path750" /><path
   style="fill:#b3b3b3;stroke-width:0.181715"
   d="M 127.22314,177.78579 V 112.5136 c 0,-2.47133 -1.88984,-4.36117 -4.36117,-4.36117 H 87.100372"
   id="path752" /><path
   style="fill:#cccccc;stroke-width:0.181715"
   d="m 86.228138,171.53478 v 21.80585 c 0,0.29075 0,0.58149 0.145373,0.87224 l 3.343564,3.19819 c 0.290745,0 0.436117,0.14537 0.726862,0.14537 H 113.2674 Z"
   id="path754-7" /><path
   style="fill:#b3b3b3;stroke-width:0.181715"
   d="m 86.228138,171.53478 v 21.80585 c 0,0.29075 0,0.58149 0.145373,0.87224 l 3.343564,3.19819 c 0.290745,0 0.436117,0.14537 0.726862,0.14537 H 102.07373 L 88.990213,175.75058 Z"
   id="path756" /><path
   style="fill:#f9f9f9;stroke-width:0.181715"
   d="m 89.862447,197.41106 v 0 -22.53272 c 0,-2.47133 -1.889841,-4.36117 -4.361171,-4.36117 H 61.805582 Z"
   id="path758" /><polyline
   style="fill:#ececec"
   points="66,344 220.4,491.2 220.4,491.2 220.4,368 "
   id="polyline760"
   transform="matrix(0.18171545,0,0,0.18171545,49.812362,108.15243)" /><path
   style="fill:#f9f9f9;stroke-width:0.181715"
   d="m 63.840795,170.66254 v 0 -58.14894 c 0,-2.47133 1.88984,-4.36117 4.361171,-4.36117 h -1.889841 c -2.47133,0 -4.361171,1.88984 -4.361171,4.36117 v 58.14894 0 z"
   id="path762" /><path
   style="fill:#b3b3b3;stroke-width:0.181715"
   d="M 99.747768,127.19621 H 117.4832 c 1.16297,0 2.03521,-0.87224 2.03521,-2.03521 0,-1.16298 -0.87224,-2.03522 -2.03521,-2.03522 H 99.747768 c -1.162979,0 -2.035213,0.87224 -2.035213,2.03522 -0.145373,1.0176 0.872234,2.03521 2.035213,2.03521 z"
   id="path766-5" /><path
   style="fill:#b3b3b3;stroke-width:0.181715"
   d="M 117.33782,134.17408 H 99.747768 c -1.162979,0 -2.035213,0.87224 -2.035213,2.03522 0,1.16297 0.872234,2.03521 2.035213,2.03521 H 117.4832 c 1.16297,0 2.03521,-0.87224 2.03521,-2.03521 0,-1.16298 -1.01761,-2.03522 -2.18059,-2.03522 z"
   id="path768" /><path
   style="fill:#b3b3b3;stroke-width:0.181715"
   d="M 117.33782,145.36775 H 76.48819 c -1.162979,0 -2.035213,0.87224 -2.035213,2.03522 0,1.16298 0.872234,2.03521 2.035213,2.03521 h 40.99501 c 1.16297,0 2.03521,-0.87223 2.03521,-2.03521 0,-1.16298 -1.01761,-2.03522 -2.18059,-2.03522 z"
   id="path770" /><path
   style="fill:#b3b3b3;stroke-width:0.181715"
   d="M 117.33782,156.56143 H 76.48819 c -1.162979,0 -2.035213,0.87223 -2.035213,2.03521 0,1.16298 0.872234,2.03521 2.035213,2.03521 h 40.99501 c 1.16297,0 2.03521,-0.87223 2.03521,-2.03521 0,-1.16298 -1.01761,-2.03521 -2.18059,-2.03521 z"
   id="path772-3" /><path
   style="fill:#b3b3b3;stroke-width:0.181715"
   d="M 117.33782,167.60973 H 99.747768 c -1.162979,0 -2.035213,0.87223 -2.035213,2.03521 0,1.16298 0.872234,2.03521 2.035213,2.03521 H 117.4832 c 1.16297,0 2.03521,-0.87223 2.03521,-2.03521 0,-1.16298 -1.01761,-2.03521 -2.18059,-2.03521 z"
   id="path774" /><path
   style="fill:#ffffff;stroke-width:0.181715"
   d="m 74.452977,124.68778 41.576493,0.32784 c 1.16294,0.009 2.03522,-0.87223 2.03522,-2.03521 0,-1.16298 -0.87228,-2.02604 -2.03522,-2.03521 l -41.576493,-0.32785 c -1.162943,-0.009 -2.035213,0.87224 -2.035213,2.03521 0,1.16298 0.87227,2.02605 2.035213,2.03522 z"
   id="path780"
   sodipodi:nodetypes="sssssss" /><path
   style="fill:#ffffff;stroke-width:0.181715"
   d="m 116.02947,131.9935 -41.576493,-0.32785 c -1.162943,-0.009 -2.035213,0.87224 -2.035213,2.03521 0,1.16298 0.87227,2.02605 2.035213,2.03522 l 41.576493,0.32784 c 1.16294,0.009 2.03522,-0.87223 2.03522,-2.03521 0,-1.16298 -0.87228,-2.02604 -2.03522,-2.03521 z"
   id="path782"
   sodipodi:nodetypes="sssssss" /><path
   style="fill:#ffffff;stroke-width:0.181715"
   d="M 116.02947,143.18717 H 75.034466 c -1.162978,0 -2.035213,0.87223 -2.035213,2.03521 0,1.16298 0.872235,2.03521 2.035213,2.03521 h 40.995004 c 1.16298,0 2.03522,-0.87223 2.03522,-2.03521 0,-1.16298 -0.87224,-2.03521 -2.03522,-2.03521 z"
   id="path784" /><path
   style="fill:#ffffff;stroke-width:0.181715"
   d="M 116.02947,154.38084 H 75.034466 c -1.162978,0 -2.035213,0.87223 -2.035213,2.03521 0,1.16298 0.872235,2.03522 2.035213,2.03522 h 40.995004 c 1.16298,0 2.03522,-0.87224 2.03522,-2.03522 0,-1.0176 -0.87224,-2.03521 -2.03522,-2.03521 z"
   id="path786" /><path
   style="fill:#ffffff;stroke-width:0.181715"
   d="M 116.02947,165.57451 H 98.294044 c -1.162979,0 -2.035213,0.87224 -2.035213,2.03522 0,1.16297 0.872234,2.03521 2.035213,2.03521 h 17.735426 c 1.16298,0 2.03522,-0.87224 2.03522,-2.03521 0,-1.01761 -0.87224,-2.03522 -2.03522,-2.03522 z"
   id="path788" /><polygon
   style="fill:#eddcc7"
   points="34.205,56.511 38.852,51.865 36.201,49.214 36.194,49.222 "
   id="polygon885"
   transform="matrix(2.1557947,0,0,2.1557947,34.27482,55.05826)" /><path
   style="fill:#d75a4a;stroke-width:2.15579"
   d="m 153.81579,131.08452 -2.68827,-2.68828 c -1.67074,-1.67074 -4.38058,-1.67074 -6.05132,0 l -7.72206,7.7199 5.71502,5.71501 z"
   id="path887" /><rect
   x="193.3721"
   y="-0.87432939"
   transform="rotate(45)"
   style="fill:#f29c21;stroke-width:2.15577"
   width="8.0819969"
   height="35.406433"
   id="rect889" /><polygon
   style="fill:#d6c4b1"
   points="41.858,54.871 38.852,51.865 34.205,56.511 34.072,57 41.85,54.879 "
   id="polygon891"
   transform="matrix(2.1557947,0,0,2.1557947,34.27482,55.05826)" /><path
   style="fill:#a34740;stroke-width:2.15579"
   d="m 149.54947,148.31147 7.72206,-7.72206 c 1.67074,-1.67074 1.67074,-4.38057 0,-6.05131 l -3.45358,-3.45358 -10.74664,10.74663 z"
   id="path893" /><rect
   x="-210.61993"
   y="-34.534737"
   transform="rotate(-135)"
   style="fill:#e18c25;stroke-width:2.15577"
   width="9.164196"
   height="35.406433"
   id="rect895" /><path
   style="fill:#5e5e5e;stroke-width:2.15579"
   d="m 106.20291,181.6185 c -0.55188,0 -1.10377,-0.21127 -1.52415,-0.63165 -0.84291,-0.84291 -0.84291,-2.20538 0,-3.04829 l 4.75784,-4.75784 c 0.84292,-0.84292 2.20538,-0.84292 3.0483,0 0.84291,0.84291 0.84291,2.20538 0,3.04829 l -4.75784,4.75784 c -0.42038,0.42038 -0.97227,0.63165 -1.52415,0.63165 z"
   id="path897" /><path
   d="m 11.630498,35.540717 7.514273,22.557466 H 11.073886 L 8.0564583,49.045901 v 9.052282 H 2.2027083e-4 V 35.540717 Z m 11.806051,13.505184 -3.295734,9.887202 -4.042766,-12.113653 3.76446,-11.278733 h 11.630278 v 22.557466 h -8.056238 z"
   id="path2043"
   style="font-size:29.9985px;font-family:Interceptor;-inkscape-font-specification:Interceptor;letter-spacing:4.82119px;fill:#0077b5;stroke-width:0.803531;stroke-linecap:round;stroke-linejoin:round" /><path
   d="m 45.102601,35.540717 v 4.247834 l -8.04159,-0.01465 -0.01465,-4.233187 z m 0,5.126697 V 58.098183 H 37.046363 V 40.667414 Z"
   id="path2040"
   style="font-size:29.9985px;font-family:Interceptor;-inkscape-font-specification:Interceptor;letter-spacing:4.82119px;fill:#0077b5;stroke-width:0.803531;stroke-linecap:round;stroke-linejoin:round" /><path
   d="m 54.669648,51.506716 q -4.013471,0 -4.028119,-3.940233 l 0.01465,-2.944189 q 0,-3.95488 4.760504,-3.95488 H 73.36012 v 4.247834 H 58.712415 l -0.01465,1.171817 q 0,1.171816 1.08393,1.171816 h 9.535656 q 4.013472,0 4.028119,3.940233 l 0.01465,2.929541 q 0,3.969528 -4.028119,3.969528 H 50.656177 v -4.247834 h 14.647705 l -0.01465,-1.171817 q 0,-1.171816 -1.08393,-1.171816 z"
   id="path2037"
   style="font-size:29.9985px;font-family:Interceptor;-inkscape-font-specification:Interceptor;letter-spacing:4.82119px;fill:#0077b5;stroke-width:0.803531;stroke-linecap:round;stroke-linejoin:round" /><path
   d="m 82.927167,51.506716 q -4.013472,0 -4.028119,-3.940233 l 0.01465,-2.944189 q 0,-3.95488 4.760505,-3.95488 h 17.943437 v 4.247834 H 86.969933 l -0.01465,1.171817 q 0,1.171816 1.08393,1.171816 h 9.535656 q 4.013471,0 4.028121,3.940233 l 0.0146,2.929541 q 0,3.969528 -4.028123,3.969528 H 78.913695 v -4.247834 h 14.647706 l -0.01465,-1.171817 q 0,-1.171816 -1.08393,-1.171816 z"
   id="path2034"
   style="font-size:29.9985px;font-family:Interceptor;-inkscape-font-specification:Interceptor;letter-spacing:4.82119px;fill:#0077b5;stroke-width:0.803531;stroke-linecap:round;stroke-linejoin:round" /><path
   d="m 115.22745,35.540717 v 4.247834 l -8.04159,-0.01465 -0.0147,-4.233187 z m 0,5.126697 v 17.430769 h -8.05624 V 40.667414 Z"
   id="path2031"
   style="font-size:29.9985px;font-family:Interceptor;-inkscape-font-specification:Interceptor;letter-spacing:4.82119px;fill:#0077b5;stroke-width:0.803531;stroke-linecap:round;stroke-linejoin:round" /><path
   d="m 124.80915,58.098183 q -4.01347,0 -4.02812,-3.940232 v -9.535657 q 0,-3.95488 4.02812,-3.969528 h 14.63305 q 4.04277,0.01465 4.04277,3.969528 v 9.521009 q 0,3.95488 -4.02812,3.95488 z m 4.02812,-13.182935 v 7.763284 q 0,1.171817 1.08393,1.171817 h 5.52218 l -0.0146,-7.763284 q 0,-1.157169 -1.11322,-1.171817 z"
   id="path2028"
   style="font-size:29.9985px;font-family:Interceptor;-inkscape-font-specification:Interceptor;letter-spacing:4.82119px;fill:#0077b5;stroke-width:0.803531;stroke-linecap:round;stroke-linejoin:round" /><path
   d="m 157.09479,58.098183 h -8.05624 V 40.667414 h 18.67582 q 4.01348,0 4.02812,3.940233 v 13.490536 h -8.05623 V 46.087065 q 0,-1.171817 -1.08393,-1.171817 h -5.52219 z"
   id="path2025"
   style="font-size:29.9985px;font-family:Interceptor;-inkscape-font-specification:Interceptor;letter-spacing:4.82119px;fill:#0077b5;stroke-width:0.803531;stroke-linecap:round;stroke-linejoin:round" /><path
   d="m 185.3523,51.506716 v 1.171816 q 0,1.171817 1.08393,1.171817 H 200 v 4.247834 h -18.67582 q -4.01347,0 -4.02812,-3.940232 V 40.667414 h 18.67582 q 4.02812,0 4.02812,3.95488 v 6.884422 z m 6.59146,-5.419651 q 0,-1.171817 -1.09857,-1.171817 h -5.49289 v 2.343633 h 6.59146 z"
   id="path2022"
   style="font-size:29.9985px;font-family:Interceptor;-inkscape-font-specification:Interceptor;letter-spacing:4.82119px;fill:#0077b5;stroke-width:0.803531;stroke-linecap:round;stroke-linejoin:round" /><path
   d="M 43.54994,2.6157367 51.064213,25.173203 H 42.993327 L 39.9759,16.120921 v 9.052282 H 31.919662 V 2.6157367 Z M 55.35599,16.120921 52.060257,26.008122 48.01749,13.89447 51.78195,2.6157367 H 63.412228 V 25.173203 H 55.35599 Z"
   id="path1926"
   style="font-size:29.9985px;font-family:Interceptor;-inkscape-font-specification:Interceptor;letter-spacing:4.82119px;fill:#0077b5;stroke-width:0.803531;stroke-linecap:round;stroke-linejoin:round" /><path
   d="m 72.993923,25.173203 q -4.013471,0 -4.028119,-3.940233 v -9.535656 q 0,-3.9548804 4.028119,-3.9695281 h 14.633058 q 4.042767,0.014648 4.042767,3.9695281 v 9.521009 q 0,3.95488 -4.028119,3.95488 z m 4.028119,-13.182935 v 7.763284 q 0,1.171817 1.083931,1.171817 h 5.522184 l -0.01465,-7.763284 q 0,-1.157169 -1.113226,-1.171817 z"
   id="path1923"
   style="font-size:29.9985px;font-family:Interceptor;-inkscape-font-specification:Interceptor;letter-spacing:4.82119px;fill:#0077b5;stroke-width:0.803531;stroke-linecap:round;stroke-linejoin:round" /><path
   d="m 105.27956,7.7424336 h 7.32386 v 4.2478344 h -7.32386 v 7.763284 q 0,1.171817 1.08394,1.171817 h 6.23992 v 4.247834 h -11.35197 q -4.013475,0 -4.028123,-3.940233 V 2.6157367 h 8.056233 z"
   id="path1920"
   style="font-size:29.9985px;font-family:Interceptor;-inkscape-font-specification:Interceptor;letter-spacing:4.82119px;fill:#0077b5;stroke-width:0.803531;stroke-linecap:round;stroke-linejoin:round" /><path
   d="m 126.21323,2.6157367 v 4.2478346 l -8.04159,-0.014648 -0.0147,-4.2331869 z m 0,5.1266969 V 25.173203 h -8.05624 V 7.7424336 Z"
   id="path1917"
   style="font-size:29.9985px;font-family:Interceptor;-inkscape-font-specification:Interceptor;letter-spacing:4.82119px;fill:#0077b5;stroke-width:0.803531;stroke-linecap:round;stroke-linejoin:round" /><path
   d="m 147.30801,25.173203 h -8.10018 L 130.87329,7.7424336 h 8.10018 z m -3.85234,-9.477065 3.8084,-7.9537044 h 8.10018 l -7.85117,16.4200774 z"
   id="path1914"
   style="font-size:29.9985px;font-family:Interceptor;-inkscape-font-specification:Interceptor;letter-spacing:4.82119px;fill:#0077b5;stroke-width:0.803531;stroke-linecap:round;stroke-linejoin:round" /><path
   d="m 168.08056,2.6157367 v 4.2478346 l -8.04159,-0.014648 -0.0147,-4.2331869 z m 0,5.1266969 V 25.173203 h -8.05624 V 7.7424336 Z"
   id="path1911"
   style="font-size:29.9985px;font-family:Interceptor;-inkscape-font-specification:Interceptor;letter-spacing:4.82119px;fill:#0077b5;stroke-width:0.803531;stroke-linecap:round;stroke-linejoin:round" /></svg>
