<?xml version="1.0" encoding="UTF-8" standalone="no"?>
<!-- Generator: Adobe Illustrator 19.0.0, SVG Export Plug-In . SVG Version: 6.00 Build 0)  -->

<svg
   version="1.1"
   id="Layer_1"
   x="0px"
   y="0px"
   viewBox="0 0 460 60"
   xml:space="preserve"
   sodipodi:docname="refunds_form_icon_new.svg"
   inkscape:version="1.4 (e7c3feb100, 2024-10-09)"
   width="460"
   height="60"
   xmlns:inkscape="http://www.inkscape.org/namespaces/inkscape"
   xmlns:sodipodi="http://sodipodi.sourceforge.net/DTD/sodipodi-0.dtd"
   xmlns="http://www.w3.org/2000/svg"
   xmlns:svg="http://www.w3.org/2000/svg"><defs
   id="defs53">










	
	






		
		
		
	</defs><sodipodi:namedview
   id="namedview51"
   pagecolor="#ffffff"
   bordercolor="#000000"
   borderopacity="0.25"
   inkscape:showpageshadow="false"
   inkscape:pageopacity="0.0"
   inkscape:pagecheckerboard="0"
   inkscape:deskcolor="#d1d1d1"
   showgrid="false"
   inkscape:zoom="4.0804348"
   inkscape:cx="230"
   inkscape:cy="29.898775"
   inkscape:window-width="2528"
   inkscape:window-height="1404"
   inkscape:window-x="2592"
   inkscape:window-y="0"
   inkscape:window-maximized="1"
   inkscape:current-layer="g15350" />







<g
   id="g20">
</g>
<g
   id="g22">
</g>
<g
   id="g24">
</g>
<g
   id="g26">
</g>
<g
   id="g28">
</g>
<g
   id="g30">
</g>
<g
   id="g32">
</g>
<g
   id="g34">
</g>
<g
   id="g36">
</g>
<g
   id="g38">
</g>
<g
   id="g40">
</g>
<g
   id="g42">
</g>
<g
   id="g44">
</g>
<g
   id="g46">
</g>
<g
   id="g48">
</g>
<g
   id="g15350"
   transform="translate(6.0808083,1)"><g
     id="g20-9"
     transform="translate(-286.26331,-77.116236)">
</g><g
     id="g22-0"
     transform="translate(-286.26331,-77.116236)">
</g><g
     id="g24-9"
     transform="translate(-286.26331,-77.116236)">
</g><g
     id="g26-1"
     transform="translate(-286.26331,-77.116236)">
</g><g
     id="g28-7"
     transform="translate(-286.26331,-77.116236)">
</g><g
     id="g30-7"
     transform="translate(-286.26331,-77.116236)">
</g><g
     id="g32-1"
     transform="translate(-286.26331,-77.116236)">
</g><g
     id="g34-1"
     transform="translate(-286.26331,-77.116236)">
</g><g
     id="g36-5"
     transform="translate(-286.26331,-77.116236)">
</g><g
     id="g38-9"
     transform="translate(-286.26331,-77.116236)">
</g><g
     id="g40-7"
     transform="translate(-286.26331,-77.116236)">
</g><g
     id="g42-7"
     transform="translate(-286.26331,-77.116236)">
</g><g
     id="g44-6"
     transform="translate(-286.26331,-77.116236)">
</g><g
     id="g46-7"
     transform="translate(-286.26331,-77.116236)">
</g><g
     id="g48-3"
     transform="translate(-286.26331,-77.116236)">
</g><g
     id="g20-3"
     transform="translate(-296.3431,-105.31491)">
</g><g
     id="g22-5"
     transform="translate(-296.3431,-105.31491)">
</g><g
     id="g24-6"
     transform="translate(-296.3431,-105.31491)">
</g><g
     id="g26-2"
     transform="translate(-296.3431,-105.31491)">
</g><g
     id="g28-9"
     transform="translate(-296.3431,-105.31491)">
</g><g
     id="g30-1"
     transform="translate(-296.3431,-105.31491)">
</g><g
     id="g32-2"
     transform="translate(-296.3431,-105.31491)">
</g><g
     id="g34-7"
     transform="translate(-296.3431,-105.31491)">
</g><g
     id="g36-0"
     transform="translate(-296.3431,-105.31491)">
</g><g
     id="g38-93"
     transform="translate(-296.3431,-105.31491)">
</g><g
     id="g40-6"
     transform="translate(-296.3431,-105.31491)">
</g><g
     id="g42-0"
     transform="translate(-296.3431,-105.31491)">
</g><g
     id="g44-62"
     transform="translate(-296.3431,-105.31491)">
</g><g
     id="g46-6"
     transform="translate(-296.3431,-105.31491)">
</g><g
     id="g48-1"
     transform="translate(-296.3431,-105.31491)">
</g><g
     id="g20-0"
     transform="translate(-540.36988,-86.274445)">
</g><g
     id="g22-6"
     transform="translate(-540.36988,-86.274445)">
</g><g
     id="g24-1"
     transform="translate(-540.36988,-86.274445)">
</g><g
     id="g26-5"
     transform="translate(-540.36988,-86.274445)">
</g><g
     id="g28-5"
     transform="translate(-540.36988,-86.274445)">
</g><g
     id="g30-4"
     transform="translate(-540.36988,-86.274445)">
</g><g
     id="g32-7"
     transform="translate(-540.36988,-86.274445)">
</g><g
     id="g34-6"
     transform="translate(-540.36988,-86.274445)">
</g><g
     id="g36-5-8"
     transform="translate(-540.36988,-86.274445)">
</g><g
     id="g38-6"
     transform="translate(-540.36988,-86.274445)">
</g><g
     id="g40-9"
     transform="translate(-540.36988,-86.274445)">
</g><g
     id="g42-3"
     transform="translate(-540.36988,-86.274445)">
</g><g
     id="g44-7"
     transform="translate(-540.36988,-86.274445)">
</g><g
     id="g46-4"
     transform="translate(-540.36988,-86.274445)">
</g><g
     id="g48-5"
     transform="translate(-540.36988,-86.274445)">
</g><g
     id="g714"
     transform="translate(-1190.6244,-219.00701)">
</g><g
     id="g716"
     transform="translate(-1190.6244,-219.00701)">
</g><g
     id="g718"
     transform="translate(-1190.6244,-219.00701)">
</g><g
     id="g720"
     transform="translate(-1190.6244,-219.00701)">
</g><g
     id="g722"
     transform="translate(-1190.6244,-219.00701)">
</g><g
     id="g724"
     transform="translate(-1190.6244,-219.00701)">
</g><g
     id="g726"
     transform="translate(-1190.6244,-219.00701)">
</g><g
     id="g728"
     transform="translate(-1190.6244,-219.00701)">
</g><g
     id="g730"
     transform="translate(-1190.6244,-219.00701)">
</g><g
     id="g732"
     transform="translate(-1190.6244,-219.00701)">
</g><g
     id="g734"
     transform="translate(-1190.6244,-219.00701)">
</g><g
     id="g736"
     transform="translate(-1190.6244,-219.00701)">
</g><g
     id="g738"
     transform="translate(-1190.6244,-219.00701)">
</g><g
     id="g740"
     transform="translate(-1190.6244,-219.00701)">
</g><g
     id="g742"
     transform="translate(-1190.6244,-219.00701)">
</g><g
     id="g1601"
     transform="matrix(0.22062041,0,0,0.22062041,-465.23843,-85.116473)">
</g><g
     id="g1603"
     transform="matrix(0.22062041,0,0,0.22062041,-465.23843,-85.116473)">
</g><g
     id="g1605"
     transform="matrix(0.22062041,0,0,0.22062041,-465.23843,-85.116473)">
</g><g
     id="g1607"
     transform="matrix(0.22062041,0,0,0.22062041,-465.23843,-85.116473)">
</g><g
     id="g1609"
     transform="matrix(0.22062041,0,0,0.22062041,-465.23843,-85.116473)">
</g><g
     id="g1611"
     transform="matrix(0.22062041,0,0,0.22062041,-465.23843,-85.116473)">
</g><g
     id="g1613"
     transform="matrix(0.22062041,0,0,0.22062041,-465.23843,-85.116473)">
</g><g
     id="g1615"
     transform="matrix(0.22062041,0,0,0.22062041,-465.23843,-85.116473)">
</g><g
     id="g1617"
     transform="matrix(0.22062041,0,0,0.22062041,-465.23843,-85.116473)">
</g><g
     id="g1619"
     transform="matrix(0.22062041,0,0,0.22062041,-465.23843,-85.116473)">
</g><g
     id="g1621"
     transform="matrix(0.22062041,0,0,0.22062041,-465.23843,-85.116473)">
</g><g
     id="g1623"
     transform="matrix(0.22062041,0,0,0.22062041,-465.23843,-85.116473)">
</g><g
     id="g1625"
     transform="matrix(0.22062041,0,0,0.22062041,-465.23843,-85.116473)">
</g><g
     id="g1627"
     transform="matrix(0.22062041,0,0,0.22062041,-465.23843,-85.116473)">
</g><g
     id="g1629"
     transform="matrix(0.22062041,0,0,0.22062041,-465.23843,-85.116473)">
</g><g
     id="g29"
     transform="translate(-33.601971,-14.38086)"><g
       style="fill:#0d7474;fill-opacity:1"
       id="g2"
       transform="matrix(0.64467328,0,0,0.64467328,14.61158,-33.851515)"><path
         fill-rule="evenodd"
         clip-rule="evenodd"
         d="m 123.244,115.763 -4.345,-14.542 c -5.172,1.183 -10.342,-1.3014 -12.9,-6.5294 -17.998,4.859 -41.19,1.313 -57.04,9.7854 1.625,6.424 -1.036,11.501 -4.763,14.546 l 3.973,13.487 c 5.918,-1.535 9.418,1.817 11.332,6.275 5.758,-2.011 11.436,-3.209 16.931,-3.979 -10.766,-7.631 -11.56,-30.649 5.16,-32.245 12.956,-1.237 18.021,10.145 17.946,19.568 -8.312,2.666 -11.944,11.581 -10.117,19.191 -14.206,0.776 -28.904,1.661 -42.886,11.863 L 33.507,107.701 C 53.317,85.4876 73.625,97.1666 103.232,87.9296 l -1.295,-4.604 C 77.64,92.0486 45.852,79.8726 27.554,106.359 l 11,36.925 -6.037,3.757 -12.492,-43.479 C 45.966,67.9626 80.826,87.8596 105.95,73.2656 l 3.85,12.312 c 3.287,-1.33 6.685,-2.938 10.206,-4.895 l 13.189,45.9214 c -4.321,4.399 -8.895,7.406 -13.658,9.492 -3.145,-6.463 -1.871,-17.04 3.707,-20.333 z m -37.732,31.459 c 12.144,0 12.448,19.114 0.843,19.114 -13.766,0 -12.753,-19.114 -0.843,-19.114 z m 18.957,-20.468 c 13.593,0 13.935,21.397 0.942,21.397 -15.409,10e-4 -14.275,-21.397 -0.942,-21.397 z"
         fill="#000000"
         id="path1"
         style="fill:#0d7474;fill-opacity:1" /></g><path
       d="m 51.515231,70.085447 q -0.866909,0.257498 -1.759567,0.257498 -1.690901,0 -2.77239,-1.201655 -1.08149,-1.210239 -1.124406,-3.622133 h -1.244572 v -1.064323 h 1.244572 v -1.167322 h -1.244572 v -1.072907 h 1.244572 q 0.06867,-2.351811 1.141572,-3.527717 1.072907,-1.184489 2.746641,-1.184489 0.781076,0 1.76815,0.266081 l -0.171665,1.381904 q -0.789659,-0.300414 -1.579319,-0.300414 -1.038573,0 -1.656567,0.823992 -0.617995,0.823993 -0.669494,2.540643 h 2.669391 v 1.072907 h -2.669391 v 1.167322 h 2.669391 v 1.064323 h -2.669391 q 0.03433,1.776733 0.66091,2.635059 0.635161,0.849742 1.673735,0.849742 0.823992,0 1.570735,-0.291831 z"
       id="text29"
       style="font-size:17.5785px;font-family:'Roboto Condensed';-inkscape-font-specification:'Roboto Condensed, ';text-align:justify;letter-spacing:0px;fill:#ffffff;stroke-width:0.549328;stroke-linecap:round;stroke-linejoin:round"
       transform="rotate(-21.288405)"
       aria-label="€" /></g><g
     id="g45"
     transform="matrix(1.7333333,0,0,1.7333333,-6.297549,-21.266666)"><path
       d="m 128.4231,24.988281 v 8.314453 h 1.35351 v -8.314453 z"
       style="font-size:15.7377px;font-family:'Roboto Condensed';-inkscape-font-specification:'Roboto Condensed, ';text-align:justify;letter-spacing:0px;fill:#0d7474;stroke-width:0.491803;stroke-linecap:round;stroke-linejoin:round"
       id="path21" /><path
       d="m 101.16724,24.988281 2.49805,8.314453 h 1.02148 l 2.4668,-8.314453 h -1.38282 l -1.58398,6.232422 -1.63672,-6.232422 z"
       style="font-size:15.7377px;font-family:'Roboto Condensed';-inkscape-font-specification:'Roboto Condensed, ';text-align:justify;letter-spacing:0px;fill:#0d7474;stroke-width:0.491803;stroke-linecap:round;stroke-linejoin:round"
       id="path20" /><path
       d="m 86.421145,24.988281 v 5.363281 c 0,1.106558 0.210777,1.901256 0.630859,2.382813 0.420082,0.481557 0.971728,0.722656 1.658203,0.722656 0.860656,0 1.521357,-0.293673 1.982422,-0.882812 l 0.02344,0.728515 h 1.291015 v -8.314453 h -1.359375 v 6.148438 C 90.330084,31.879546 89.760348,32.25 88.940676,32.25 88.653791,32.25 88.38775,32.126761 88.141848,31.880859 87.901069,31.629835 87.77783,31.138832 87.772707,30.40625 v -5.417969 z"
       style="font-size:15.7377px;font-family:'Roboto Condensed';-inkscape-font-specification:'Roboto Condensed, ';text-align:justify;letter-spacing:0px;fill:#0d7474;stroke-width:0.491803;stroke-linecap:round;stroke-linejoin:round"
       id="path19" /><path
       d="m 216.21802,24.835937 c -0.78381,0 -1.49366,0.296363 -2.12891,0.890625 -0.63524,0.58914 -0.95117,1.616868 -0.95117,3.082032 v 0.974609 c 0.005,1.255123 0.29611,2.183818 0.875,2.783203 0.57889,0.594262 1.36552,0.890625 2.35938,0.890625 0.71721,0 1.28768,-0.128618 1.71289,-0.384765 0.43033,-0.261271 0.75896,-0.549565 0.98437,-0.867188 l -0.71484,-0.853516 c -0.22541,0.27664 -0.48607,0.504291 -0.7832,0.683594 -0.29201,0.174181 -0.66711,0.261719 -1.12305,0.261719 -0.63012,0 -1.11306,-0.202709 -1.45117,-0.607422 -0.333,-0.409836 -0.5,-1.057089 -0.5,-1.943359 v -0.201172 h 4.63281 v -0.791016 c 0,-1.270491 -0.22496,-2.241003 -0.67578,-2.912109 -0.45082,-0.671106 -1.19637,-1.00586 -2.23633,-1.00586 z m 0,1.167969 c 0.59426,0 0.99161,0.203446 1.19141,0.613281 0.20491,0.409836 0.32546,0.935804 0.36132,1.576172 v 0.191407 h -3.26562 c 0.0461,-0.9375 0.22461,-1.56788 0.53711,-1.890625 0.3125,-0.327869 0.70447,-0.490235 1.17578,-0.490235 z"
       style="font-size:15.7377px;font-family:'Roboto Condensed';-inkscape-font-specification:'Roboto Condensed, ';text-align:justify;letter-spacing:0px;fill:#0d7474;stroke-width:0.491803;stroke-linecap:round;stroke-linejoin:round"
       id="path18" /><path
       d="m 208.84107,24.835937 c -0.79406,0 -1.43056,0.227652 -1.91211,0.683594 -0.48156,0.455943 -0.72266,1.012968 -0.72266,1.673828 0,0.67623 0.22227,1.18606 0.66797,1.529297 0.39447,0.302254 0.93462,0.60057 1.62109,0.892578 0.68648,0.292008 1.14985,0.544602 1.39063,0.759766 0.2459,0.215164 0.36914,0.481205 0.36914,0.798828 0,0.742828 -0.46068,1.115234 -1.38281,1.115234 -0.34836,0 -0.68581,-0.0983 -1.01368,-0.292968 -0.32786,-0.199795 -0.50563,-0.592502 -0.53125,-1.181641 h -1.35937 c 0,0.686475 0.24721,1.298028 0.74414,1.835938 0.49693,0.537909 1.21753,0.80664 2.16016,0.80664 0.82479,0 1.48818,-0.216156 1.99023,-0.646484 0.50205,-0.430328 0.75391,-1.011559 0.75391,-1.744141 0,-0.671106 -0.22423,-1.184362 -0.66992,-1.542969 -0.4457,-0.358606 -1.08758,-0.70607 -1.92774,-1.039062 -0.57889,-0.256147 -0.96548,-0.464972 -1.16016,-0.628906 -0.19467,-0.169058 -0.29296,-0.404777 -0.29296,-0.707032 0,-0.302254 0.0983,-0.568295 0.29296,-0.798828 0.1998,-0.230532 0.52648,-0.345703 0.98243,-0.345703 0.43032,0 0.76165,0.140113 0.99218,0.421875 0.23054,0.27664 0.34571,0.58645 0.34571,0.929688 h 1.35156 c 0,-0.717213 -0.23572,-1.317271 -0.70703,-1.798828 -0.47131,-0.481558 -1.13201,-0.720704 -1.98242,-0.720704 z"
       style="font-size:15.7377px;font-family:'Roboto Condensed';-inkscape-font-specification:'Roboto Condensed, ';text-align:justify;letter-spacing:0px;fill:#0d7474;stroke-width:0.491803;stroke-linecap:round;stroke-linejoin:round"
       id="path17" /><path
       d="m 201.66333,24.835937 c -0.78381,0 -1.49171,0.296363 -2.12695,0.890625 -0.63525,0.58914 -0.95313,1.616868 -0.95313,3.082032 v 0.974609 c 0.005,1.255123 0.29611,2.183818 0.875,2.783203 0.5789,0.594262 1.36553,0.890625 2.35938,0.890625 0.71721,0 1.28964,-0.128618 1.71484,-0.384765 0.43033,-0.261271 0.75702,-0.549565 0.98242,-0.867188 l -0.71484,-0.853516 c -0.22541,0.27664 -0.48607,0.504291 -0.7832,0.683594 -0.29201,0.174181 -0.66711,0.261719 -1.12305,0.261719 -0.63012,0 -1.11306,-0.202709 -1.45117,-0.607422 -0.33299,-0.409836 -0.5,-1.057089 -0.5,-1.943359 v -0.201172 h 4.63476 v -0.791016 c 0,-1.270491 -0.22691,-2.241003 -0.67773,-2.912109 -0.45082,-0.671106 -1.19637,-1.00586 -2.23633,-1.00586 z m 0,1.167969 c 0.59426,0 0.99161,0.203446 1.19141,0.613281 0.20492,0.409836 0.32547,0.935804 0.36133,1.576172 v 0.191407 h -3.26563 c 0.0461,-0.9375 0.22461,-1.56788 0.53711,-1.890625 0.3125,-0.327869 0.70447,-0.490235 1.17578,-0.490235 z"
       style="font-size:15.7377px;font-family:'Roboto Condensed';-inkscape-font-specification:'Roboto Condensed, ';text-align:justify;letter-spacing:0px;fill:#0d7474;stroke-width:0.491803;stroke-linecap:round;stroke-linejoin:round"
       id="path16" /><path
       d="m 194.34888,24.835937 c -0.85553,0 -1.50817,0.351627 -1.95899,1.058594 l -0.0703,-0.90625 h -1.23633 V 36.5 h 1.35938 v -3.996094 c 0.45082,0.635246 1.09196,0.953125 1.92187,0.953125 0.87091,0 1.54236,-0.323258 2.01368,-0.96875 0.47643,-0.645491 0.71289,-1.626761 0.71289,-2.943359 v -0.90625 c -0.0154,-1.321721 -0.25721,-2.284164 -0.72852,-2.888672 -0.47131,-0.609631 -1.14277,-0.914063 -2.01367,-0.914063 z m -0.42383,1.197266 c 1.20389,0 1.80664,0.912558 1.80664,2.736328 v 0.914063 c -0.0307,1.741803 -0.6281,2.613281 -1.79101,2.613281 -0.65574,0 -1.15481,-0.317879 -1.49805,-0.953125 v -4.333984 c 0.34836,-0.650615 0.84205,-0.976563 1.48242,-0.976563 z"
       style="font-size:15.7377px;font-family:'Roboto Condensed';-inkscape-font-specification:'Roboto Condensed, ';text-align:justify;letter-spacing:0px;fill:#0d7474;stroke-width:0.491803;stroke-linecap:round;stroke-linejoin:round"
       id="path15" /><path
       d="m 174.3313,24.835937 c -0.89652,0 -1.65551,0.329374 -2.27539,0.990235 -0.61988,0.655737 -0.92969,1.631628 -0.92969,2.927734 v 0.791016 c 0,1.296106 0.30981,2.271997 0.92969,2.927734 0.625,0.655738 1.38938,0.984375 2.29102,0.984375 0.89651,0 1.65356,-0.328637 2.27343,-0.984375 0.625,-0.655737 0.9375,-1.631628 0.9375,-2.927734 v -0.791016 c 0,-1.296106 -0.3125,-2.271997 -0.9375,-2.927734 -0.61987,-0.660861 -1.3823,-0.990235 -2.28906,-0.990235 z m 0,1.167969 c 0.53279,0 0.97464,0.233031 1.32813,0.699219 0.3586,0.461065 0.53906,1.144019 0.53906,2.050781 v 0.945313 c -0.0359,1.731557 -0.65279,2.597656 -1.85156,2.597656 -0.53279,0 -0.9766,-0.227651 -1.33008,-0.683594 -0.35349,-0.461065 -0.53125,-1.151351 -0.53125,-2.068359 v -0.791016 c 0,-0.906762 0.17507,-1.589716 0.52344,-2.050781 0.35348,-0.466188 0.7946,-0.699219 1.32226,-0.699219 z"
       style="font-size:15.7377px;font-family:'Roboto Condensed';-inkscape-font-specification:'Roboto Condensed, ';text-align:justify;letter-spacing:0px;fill:#0d7474;stroke-width:0.491803;stroke-linecap:round;stroke-linejoin:round"
       id="path14" /><path
       d="m 166.85474,24.835937 c -0.79406,0 -1.43251,0.227652 -1.91406,0.683594 -0.48156,0.455943 -0.72266,1.012968 -0.72266,1.673828 0,0.67623 0.22227,1.18606 0.66797,1.529297 0.39447,0.302254 0.93462,0.60057 1.62109,0.892578 0.68648,0.292008 1.1518,0.544602 1.39258,0.759766 0.2459,0.215164 0.36719,0.481205 0.36719,0.798828 0,0.742828 -0.46068,1.115234 -1.38281,1.115234 -0.34837,0 -0.68581,-0.0983 -1.01368,-0.292968 -0.32787,-0.199795 -0.50563,-0.592502 -0.53125,-1.181641 h -1.35937 c 0,0.686475 0.24917,1.298028 0.74609,1.835938 0.49693,0.537909 1.21558,0.80664 2.15821,0.80664 0.82479,0 1.48818,-0.216156 1.99023,-0.646484 0.50205,-0.430328 0.75391,-1.011559 0.75391,-1.744141 0,-0.671106 -0.22228,-1.184362 -0.66797,-1.542969 -0.4457,-0.358606 -1.08953,-0.70607 -1.92969,-1.039062 -0.57889,-0.256147 -0.96548,-0.464972 -1.16016,-0.628906 -0.19467,-0.169058 -0.29297,-0.404777 -0.29297,-0.707032 0,-0.302254 0.0983,-0.568295 0.29297,-0.798828 0.1998,-0.230532 0.52844,-0.345703 0.98438,-0.345703 0.43033,0 0.7597,0.140113 0.99023,0.421875 0.23054,0.27664 0.34571,0.58645 0.34571,0.929688 h 1.35351 c 0,-0.717213 -0.23572,-1.317271 -0.70703,-1.798828 -0.47131,-0.481558 -1.13201,-0.720704 -1.98242,-0.720704 z"
       style="font-size:15.7377px;font-family:'Roboto Condensed';-inkscape-font-specification:'Roboto Condensed, ';text-align:justify;letter-spacing:0px;fill:#0d7474;stroke-width:0.491803;stroke-linecap:round;stroke-linejoin:round"
       id="path13" /><path
       d="m 162.32739,24.835937 c -0.66598,0 -1.18119,0.329374 -1.54492,0.990235 l -0.0293,-0.837891 h -1.31446 v 8.314453 h 1.35938 v -5.96289 c 0.27664,-0.758197 0.76421,-1.136719 1.46094,-1.136719 0.21004,0 0.41348,0.01956 0.61328,0.06055 l -0.006,-1.320313 c -0.11783,-0.07172 -0.29829,-0.107422 -0.53907,-0.107422 z"
       style="font-size:15.7377px;font-family:'Roboto Condensed';-inkscape-font-specification:'Roboto Condensed, ';text-align:justify;letter-spacing:0px;fill:#0d7474;stroke-width:0.491803;stroke-linecap:round;stroke-linejoin:round"
       id="path12" /><path
       d="m 154.45825,24.835937 c -0.89651,0 -1.65356,0.329374 -2.27343,0.990235 -0.61988,0.655737 -0.92969,1.631628 -0.92969,2.927734 v 0.791016 c 0,1.296106 0.30981,2.271997 0.92969,2.927734 0.625,0.655738 1.38742,0.984375 2.28906,0.984375 0.89652,0 1.65551,-0.328637 2.27539,-0.984375 0.625,-0.655737 0.9375,-1.631628 0.9375,-2.927734 v -0.791016 c 0,-1.296106 -0.3125,-2.271997 -0.9375,-2.927734 -0.61988,-0.660861 -1.38425,-0.990235 -2.29102,-0.990235 z m 0,1.167969 c 0.53279,0 0.9766,0.233031 1.33008,0.699219 0.35861,0.461065 0.53711,1.144019 0.53711,2.050781 v 0.945313 c -0.0359,1.731557 -0.65279,2.597656 -1.85156,2.597656 -0.53279,0 -0.9766,-0.227651 -1.33008,-0.683594 -0.35348,-0.461065 -0.5293,-1.151351 -0.5293,-2.068359 v -0.791016 c 0,-0.906762 0.17508,-1.589716 0.52344,-2.050781 0.35349,-0.466188 0.79265,-0.699219 1.32031,-0.699219 z"
       style="font-size:15.7377px;font-family:'Roboto Condensed';-inkscape-font-specification:'Roboto Condensed, ';text-align:justify;letter-spacing:0px;fill:#0d7474;stroke-width:0.491803;stroke-linecap:round;stroke-linejoin:round"
       id="path11" /><path
       d="m 135.24732,24.835937 c -0.83504,0 -1.50112,0.301742 -1.99805,0.90625 l -0.0371,-0.753906 h -1.27734 v 8.314453 h 1.35351 v -6.253906 c 0.28176,-0.676229 0.76396,-1.015625 1.44531,-1.015625 0.91701,0 1.38845,0.561668 1.41407,1.683594 v 5.585937 h 1.35937 v -5.585937 c 0.0461,-0.471311 0.1916,-0.868661 0.4375,-1.191406 0.25103,-0.327869 0.58773,-0.492188 1.00781,-0.492188 0.43546,0 0.77828,0.125929 1.0293,0.376953 0.25615,0.245902 0.38477,0.717342 0.38477,1.414063 v 5.478515 h 1.35937 v -5.46289 c 0,-1.050205 -0.2054,-1.814582 -0.61523,-2.291016 -0.40472,-0.476434 -0.98595,-0.712891 -1.74414,-0.712891 -0.93238,0 -1.6591,0.400776 -2.18164,1.205079 -0.37398,-0.804303 -1.0205,-1.205079 -1.9375,-1.205079 z"
       style="font-size:15.7377px;font-family:'Roboto Condensed';-inkscape-font-specification:'Roboto Condensed, ';text-align:justify;letter-spacing:0px;fill:#0d7474;stroke-width:0.491803;stroke-linecap:round;stroke-linejoin:round"
       id="path10" /><path
       d="m 111.37232,24.835937 c -0.89652,0 -1.65552,0.329374 -2.27539,0.990235 -0.61988,0.655737 -0.92969,1.631628 -0.92969,2.927734 v 0.791016 c 0,1.296106 0.30981,2.271997 0.92969,2.927734 0.625,0.655738 1.38937,0.984375 2.29101,0.984375 0.89652,0 1.65356,-0.328637 2.27344,-0.984375 0.625,-0.655737 0.9375,-1.631628 0.9375,-2.927734 v -0.791016 c 0,-1.296106 -0.3125,-2.271997 -0.9375,-2.927734 -0.61988,-0.660861 -1.3823,-0.990235 -2.28906,-0.990235 z m 0,1.167969 c 0.53278,0 0.97659,0.233031 1.33007,0.699219 0.35861,0.461065 0.53711,1.144019 0.53711,2.050781 v 0.945313 c -0.0359,1.731557 -0.65279,2.597656 -1.85156,2.597656 -0.53279,0 -0.97659,-0.227651 -1.33008,-0.683594 -0.35348,-0.461065 -0.52929,-1.151351 -0.52929,-2.068359 v -0.791016 c 0,-0.906762 0.17312,-1.589716 0.52148,-2.050781 0.35348,-0.466188 0.7946,-0.699219 1.32227,-0.699219 z"
       style="font-size:15.7377px;font-family:'Roboto Condensed';-inkscape-font-specification:'Roboto Condensed, ';text-align:justify;letter-spacing:0px;fill:#0d7474;stroke-width:0.491803;stroke-linecap:round;stroke-linejoin:round"
       id="path9" /><path
       d="m 96.971926,24.835937 c -0.896516,0 -1.655514,0.329374 -2.275391,0.990235 -0.619876,0.655737 -0.929687,1.631628 -0.929687,2.927734 v 0.791016 c 0,1.296106 0.309811,2.271997 0.929687,2.927734 0.625,0.655738 1.389377,0.984375 2.291016,0.984375 0.896516,0 1.653561,-0.328637 2.273438,-0.984375 0.624999,-0.655737 0.937501,-1.631628 0.937501,-2.927734 v -0.791016 c 0,-1.296106 -0.312502,-2.271997 -0.937501,-2.927734 -0.619877,-0.660861 -1.382301,-0.990235 -2.289063,-0.990235 z m 0,1.167969 c 0.532787,0 0.976595,0.233031 1.330078,0.699219 0.358607,0.461065 0.53711,1.144019 0.53711,2.050781 v 0.945313 c -0.03586,1.731557 -0.652793,2.597656 -1.851563,2.597656 -0.532787,0 -0.976595,-0.227651 -1.330078,-0.683594 -0.353484,-0.461065 -0.529297,-1.151351 -0.529297,-2.068359 v -0.791016 c 0,-0.906762 0.173124,-1.589716 0.521484,-2.050781 0.353484,-0.466188 0.794602,-0.699219 1.322266,-0.699219 z"
       style="font-size:15.7377px;font-family:'Roboto Condensed';-inkscape-font-specification:'Roboto Condensed, ';text-align:justify;letter-spacing:0px;fill:#0d7474;stroke-width:0.491803;stroke-linecap:round;stroke-linejoin:round"
       id="path8" /><path
       style="font-size:15.7377px;font-family:'Roboto Condensed';-inkscape-font-specification:'Roboto Condensed, ';text-align:justify;letter-spacing:0px;fill:#0d7474;stroke-width:0.491803;stroke-linecap:round;stroke-linejoin:round"
       d="m 128.4231,24.988281 h 1.35351 v 8.314453 h -1.35351 z"
       id="path44" /><path
       style="font-size:15.7377px;font-family:'Roboto Condensed';-inkscape-font-specification:'Roboto Condensed, ';text-align:justify;letter-spacing:0px;fill:#0d7474;stroke-width:0.491803;stroke-linecap:round;stroke-linejoin:round"
       d="m 101.16724,24.988281 h 1.38281 l 1.63672,6.232422 1.58398,-6.232422 h 1.38282 l -2.4668,8.314453 h -1.02148 z"
       id="path43" /><path
       style="font-size:15.7377px;font-family:'Roboto Condensed';-inkscape-font-specification:'Roboto Condensed, ';text-align:justify;letter-spacing:0px;fill:#0d7474;stroke-width:0.491803;stroke-linecap:round;stroke-linejoin:round"
       d="m 86.421145,24.988281 h 1.351562 v 5.417969 c 0.0051,0.732582 0.128362,1.223585 0.369141,1.474609 0.245902,0.245902 0.511943,0.369141 0.798828,0.369141 0.819672,0 1.389408,-0.370454 1.707031,-1.113281 v -6.148438 h 1.359375 v 8.314453 h -1.291015 l -0.02344,-0.728515 c -0.461065,0.589139 -1.121766,0.882812 -1.982422,0.882812 -0.686475,0 -1.238121,-0.241099 -1.658203,-0.722656 -0.420082,-0.481557 -0.630859,-1.276255 -0.630859,-2.382813 z"
       id="path42" /><path
       id="path41"
       style="font-size:15.7377px;font-family:'Roboto Condensed';-inkscape-font-specification:'Roboto Condensed, ';text-align:justify;letter-spacing:0px;fill:#0d7474;stroke-width:0.491803;stroke-linecap:round;stroke-linejoin:round"
       d="m 216.21802,24.835938 c -0.78381,0 -1.49366,0.296362 -2.12891,0.890624 -0.63524,0.58914 -0.95117,1.616868 -0.95117,3.082032 v 0.974609 c 0.005,1.255123 0.29611,2.183818 0.875,2.783203 0.57889,0.594262 1.36552,0.890625 2.35938,0.890625 0.71721,0 1.28768,-0.128618 1.71289,-0.384765 0.43033,-0.261271 0.75896,-0.549565 0.98437,-0.867188 l -0.71484,-0.853516 c -0.22541,0.276641 -0.48607,0.504291 -0.7832,0.683594 -0.29201,0.174179 -0.66711,0.261719 -1.12305,0.261719 -0.63012,0 -1.11306,-0.202709 -1.45117,-0.607422 -0.333,-0.409836 -0.5,-1.057089 -0.5,-1.943359 v -0.201172 h 4.63281 v -0.791016 c 0,-1.270491 -0.22496,-2.241003 -0.67578,-2.912109 -0.45082,-0.671106 -1.19637,-1.005859 -2.23633,-1.005859 z m 0,1.167968 c 0.59426,0 0.99161,0.203446 1.19141,0.613282 0.20491,0.409835 0.32542,0.935803 0.36132,1.576171 v 0.191407 h -3.26562 c 0.0461,-0.9375 0.22461,-1.56788 0.53711,-1.890625 0.3125,-0.327869 0.70447,-0.490235 1.17578,-0.490235 z" /><path
       style="font-size:15.7377px;font-family:'Roboto Condensed';-inkscape-font-specification:'Roboto Condensed, ';text-align:justify;letter-spacing:0px;fill:#0d7474;stroke-width:0.491803;stroke-linecap:round;stroke-linejoin:round"
       d="m 208.84107,24.835937 c 0.85041,0 1.51111,0.239146 1.98242,0.720704 0.47131,0.481557 0.70703,1.081615 0.70703,1.798828 h -1.35156 c 0,-0.343238 -0.11517,-0.653048 -0.34571,-0.929688 -0.23053,-0.281762 -0.56186,-0.421875 -0.99218,-0.421875 -0.45595,0 -0.78263,0.115171 -0.98243,0.345703 -0.19467,0.230533 -0.29296,0.496574 -0.29296,0.798828 0,0.302255 0.0983,0.537974 0.29296,0.707032 0.19468,0.163934 0.58127,0.372759 1.16016,0.628906 0.84016,0.332992 1.48204,0.680456 1.92774,1.039062 0.44569,0.358607 0.66992,0.871863 0.66992,1.542969 0,0.732582 -0.25186,1.313813 -0.75391,1.744141 -0.50205,0.430328 -1.16544,0.646484 -1.99023,0.646484 -0.94263,0 -1.66323,-0.268731 -2.16016,-0.80664 -0.49693,-0.53791 -0.74414,-1.149463 -0.74414,-1.835938 h 1.35937 c 0.0256,0.589139 0.20339,0.981846 0.53125,1.181641 0.32787,0.194672 0.66532,0.292968 1.01368,0.292968 0.92213,0 1.38281,-0.372406 1.38281,-1.115234 0,-0.317623 -0.12324,-0.583664 -0.36914,-0.798828 -0.24078,-0.215164 -0.70415,-0.467758 -1.39063,-0.759766 -0.68647,-0.292008 -1.22662,-0.590324 -1.62109,-0.892578 -0.4457,-0.343237 -0.66797,-0.853067 -0.66797,-1.529297 0,-0.66086 0.2411,-1.217885 0.72266,-1.673828 0.48155,-0.455942 1.11805,-0.683594 1.91211,-0.683594 z"
       id="path40" /><path
       id="path39"
       style="font-size:15.7377px;font-family:'Roboto Condensed';-inkscape-font-specification:'Roboto Condensed, ';text-align:justify;letter-spacing:0px;fill:#0d7474;stroke-width:0.491803;stroke-linecap:round;stroke-linejoin:round"
       d="m 201.66333,24.835938 c -0.78381,0 -1.49171,0.296362 -2.12695,0.890624 -0.63525,0.58914 -0.95313,1.616868 -0.95313,3.082032 v 0.974609 c 0.005,1.255123 0.29611,2.183818 0.875,2.783203 0.5789,0.594262 1.36553,0.890625 2.35938,0.890625 0.71721,0 1.28964,-0.128618 1.71484,-0.384765 0.43033,-0.261271 0.75702,-0.549565 0.98242,-0.867188 l -0.71484,-0.853516 c -0.22541,0.276641 -0.48607,0.504291 -0.7832,0.683594 -0.29201,0.174179 -0.66711,0.261719 -1.12305,0.261719 -0.63012,0 -1.11306,-0.202709 -1.45117,-0.607422 -0.33299,-0.409836 -0.5,-1.057089 -0.5,-1.943359 v -0.201172 h 4.63476 v -0.791016 c 0,-1.270491 -0.22691,-2.241003 -0.67773,-2.912109 -0.45082,-0.671106 -1.19637,-1.005859 -2.23633,-1.005859 z m 0,1.167968 c 0.59426,0 0.99161,0.203446 1.19141,0.613282 0.20492,0.409835 0.32543,0.935803 0.36133,1.576171 v 0.191407 h -3.26563 c 0.0461,-0.9375 0.22461,-1.56788 0.53711,-1.890625 0.3125,-0.327869 0.70447,-0.490235 1.17578,-0.490235 z" /><path
       id="path38"
       style="font-size:15.7377px;font-family:'Roboto Condensed';-inkscape-font-specification:'Roboto Condensed, ';text-align:justify;letter-spacing:0px;fill:#0d7474;stroke-width:0.491803;stroke-linecap:round;stroke-linejoin:round"
       d="m 194.34888,24.835938 c -0.85553,0 -1.50817,0.351626 -1.95899,1.058593 l -0.0703,-0.90625 h -1.23633 V 36.5 h 1.35938 v -3.996094 c 0.45082,0.635246 1.09196,0.953125 1.92187,0.953125 0.87091,0 1.54236,-0.323258 2.01368,-0.96875 0.47643,-0.645491 0.71289,-1.626761 0.71289,-2.943359 v -0.90625 c -0.0154,-1.321721 -0.25721,-2.284164 -0.72852,-2.888672 -0.47131,-0.609631 -1.14277,-0.914062 -2.01367,-0.914062 z m -0.42383,1.197265 c 1.20389,0 1.80664,0.912558 1.80664,2.736328 v 0.914063 c -0.0307,1.741803 -0.6281,2.613281 -1.79101,2.613281 -0.65574,0 -1.15481,-0.317879 -1.49805,-0.953125 v -4.333984 c 0.34836,-0.650615 0.84205,-0.976563 1.48242,-0.976563 z" /><path
       id="path37"
       style="font-size:15.7377px;font-family:'Roboto Condensed';-inkscape-font-specification:'Roboto Condensed, ';text-align:justify;letter-spacing:0px;fill:#0d7474;stroke-width:0.491803;stroke-linecap:round;stroke-linejoin:round"
       d="m 174.3313,24.835938 c -0.89652,-10e-7 -1.65551,0.329373 -2.27539,0.990234 -0.61988,0.655737 -0.92969,1.631628 -0.92969,2.927734 v 0.791016 c 0,1.296106 0.30981,2.271997 0.92969,2.927734 0.625,0.655738 1.38938,0.984375 2.29102,0.984375 0.89651,0 1.65356,-0.328637 2.27343,-0.984375 0.625,-0.655737 0.9375,-1.631628 0.9375,-2.927734 v -0.791016 c 0,-1.296106 -0.3125,-2.271997 -0.9375,-2.927734 -0.61987,-0.660861 -1.3823,-0.990234 -2.28906,-0.990234 z m 0,1.167968 c 0.53279,0 0.97464,0.233031 1.32813,0.699219 0.3586,0.461065 0.53906,1.144019 0.53906,2.050781 v 0.945313 c -0.0359,1.731557 -0.65279,2.597656 -1.85156,2.597656 -0.53279,0 -0.9766,-0.227651 -1.33008,-0.683594 -0.35349,-0.461065 -0.53125,-1.151351 -0.53125,-2.068359 v -0.791016 c 0,-0.906762 0.17507,-1.589716 0.52344,-2.050781 0.35348,-0.466188 0.7946,-0.699219 1.32226,-0.699219 z" /><path
       style="font-size:15.7377px;font-family:'Roboto Condensed';-inkscape-font-specification:'Roboto Condensed, ';text-align:justify;letter-spacing:0px;fill:#0d7474;stroke-width:0.491803;stroke-linecap:round;stroke-linejoin:round"
       d="m 166.85474,24.835937 c 0.85041,0 1.51111,0.239146 1.98242,0.720704 0.47131,0.481557 0.70703,1.081615 0.70703,1.798828 h -1.35351 c 0,-0.343238 -0.11517,-0.653048 -0.34571,-0.929688 -0.23053,-0.281762 -0.5599,-0.421875 -0.99023,-0.421875 -0.45594,0 -0.78458,0.115171 -0.98438,0.345703 -0.19467,0.230533 -0.29297,0.496574 -0.29297,0.798828 0,0.302255 0.0983,0.537974 0.29297,0.707032 0.19468,0.163934 0.58127,0.372759 1.16016,0.628906 0.84016,0.332992 1.48399,0.680456 1.92969,1.039062 0.44569,0.358607 0.66797,0.871863 0.66797,1.542969 0,0.732582 -0.25186,1.313813 -0.75391,1.744141 -0.50205,0.430328 -1.16544,0.646484 -1.99023,0.646484 -0.94263,0 -1.66128,-0.268731 -2.15821,-0.80664 -0.49692,-0.53791 -0.74609,-1.149463 -0.74609,-1.835938 h 1.35937 c 0.0256,0.589139 0.20338,0.981846 0.53125,1.181641 0.32787,0.194672 0.66531,0.292968 1.01368,0.292968 0.92213,0 1.38281,-0.372406 1.38281,-1.115234 0,-0.317623 -0.12129,-0.583664 -0.36719,-0.798828 -0.24078,-0.215164 -0.7061,-0.467758 -1.39258,-0.759766 -0.68647,-0.292008 -1.22662,-0.590324 -1.62109,-0.892578 -0.4457,-0.343237 -0.66797,-0.853067 -0.66797,-1.529297 0,-0.66086 0.2411,-1.217885 0.72266,-1.673828 0.48155,-0.455942 1.12,-0.683594 1.91406,-0.683594 z"
       id="path36" /><path
       style="font-size:15.7377px;font-family:'Roboto Condensed';-inkscape-font-specification:'Roboto Condensed, ';text-align:justify;letter-spacing:0px;fill:#0d7474;stroke-width:0.491803;stroke-linecap:round;stroke-linejoin:round"
       d="m 162.32739,24.835937 c 0.24078,0 0.42124,0.0357 0.53907,0.107422 l 0.006,1.320313 c -0.1998,-0.04098 -0.40324,-0.06055 -0.61328,-0.06055 -0.69673,0 -1.1843,0.378522 -1.46094,1.136719 v 5.96289 h -1.35938 v -8.314453 h 1.31446 l 0.0293,0.837891 c 0.36373,-0.660861 0.87894,-0.990235 1.54492,-0.990235 z"
       id="path35" /><path
       id="path34"
       style="font-size:15.7377px;font-family:'Roboto Condensed';-inkscape-font-specification:'Roboto Condensed, ';text-align:justify;letter-spacing:0px;fill:#0d7474;stroke-width:0.491803;stroke-linecap:round;stroke-linejoin:round"
       d="m 154.45825,24.835938 c -0.89651,-10e-7 -1.65356,0.329373 -2.27343,0.990234 -0.61988,0.655737 -0.92969,1.631628 -0.92969,2.927734 v 0.791016 c 0,1.296106 0.30981,2.271997 0.92969,2.927734 0.625,0.655738 1.38742,0.984375 2.28906,0.984375 0.89652,0 1.65551,-0.328637 2.27539,-0.984375 0.625,-0.655737 0.9375,-1.631628 0.9375,-2.927734 v -0.791016 c 0,-1.296106 -0.3125,-2.271997 -0.9375,-2.927734 -0.61988,-0.660861 -1.38425,-0.990234 -2.29102,-0.990234 z m 0,1.167968 c 0.53279,0 0.9766,0.233031 1.33008,0.699219 0.35861,0.461065 0.53711,1.144019 0.53711,2.050781 v 0.945313 c -0.0359,1.731557 -0.65279,2.597656 -1.85156,2.597656 -0.53279,0 -0.9766,-0.227651 -1.33008,-0.683594 -0.35348,-0.461065 -0.5293,-1.151351 -0.5293,-2.068359 v -0.791016 c 0,-0.906762 0.17508,-1.589716 0.52344,-2.050781 0.35349,-0.466188 0.79265,-0.699219 1.32031,-0.699219 z" /><path
       style="font-size:15.7377px;font-family:'Roboto Condensed';-inkscape-font-specification:'Roboto Condensed, ';text-align:justify;letter-spacing:0px;fill:#0d7474;stroke-width:0.491803;stroke-linecap:round;stroke-linejoin:round"
       d="m 135.24732,24.835937 c 0.917,0 1.56352,0.400776 1.9375,1.205079 0.52254,-0.804303 1.24926,-1.205079 2.18164,-1.205079 0.75819,0 1.33942,0.236457 1.74414,0.712891 0.40983,0.476434 0.61523,1.240811 0.61523,2.291016 v 5.46289 h -1.35937 v -5.478515 c 0,-0.696721 -0.12862,-1.168161 -0.38477,-1.414063 -0.25102,-0.251024 -0.59384,-0.376953 -1.0293,-0.376953 -0.42008,0 -0.75678,0.164319 -1.00781,0.492188 -0.2459,0.322745 -0.39139,0.720095 -0.4375,1.191406 v 5.585937 h -1.35937 v -5.585937 c -0.0256,-1.121926 -0.49706,-1.683594 -1.41407,-1.683594 -0.68135,0 -1.16355,0.339396 -1.44531,1.015625 v 6.253906 h -1.35351 v -8.314453 h 1.27734 l 0.0371,0.753906 c 0.49693,-0.604508 1.16301,-0.90625 1.99805,-0.90625 z"
       id="path33" /><path
       id="path32"
       style="font-size:15.7377px;font-family:'Roboto Condensed';-inkscape-font-specification:'Roboto Condensed, ';text-align:justify;letter-spacing:0px;fill:#0d7474;stroke-width:0.491803;stroke-linecap:round;stroke-linejoin:round"
       d="m 111.37232,24.835938 c -0.89652,-10e-7 -1.65552,0.329373 -2.27539,0.990234 -0.61988,0.655737 -0.92969,1.631628 -0.92969,2.927734 v 0.791016 c 0,1.296106 0.30981,2.271997 0.92969,2.927734 0.625,0.655738 1.38937,0.984375 2.29101,0.984375 0.89652,0 1.65356,-0.328637 2.27344,-0.984375 0.625,-0.655737 0.9375,-1.631628 0.9375,-2.927734 v -0.791016 c 0,-1.296106 -0.3125,-2.271997 -0.9375,-2.927734 -0.61988,-0.660861 -1.3823,-0.990234 -2.28906,-0.990234 z m 0,1.167968 c 0.53278,0 0.97659,0.233031 1.33007,0.699219 0.35861,0.461065 0.53711,1.144019 0.53711,2.050781 v 0.945313 c -0.0359,1.731557 -0.65279,2.597656 -1.85156,2.597656 -0.53279,0 -0.97659,-0.227651 -1.33008,-0.683594 -0.35348,-0.461065 -0.52929,-1.151351 -0.52929,-2.068359 v -0.791016 c 0,-0.906762 0.17312,-1.589716 0.52148,-2.050781 0.35348,-0.466188 0.7946,-0.699219 1.32227,-0.699219 z" /><path
       id="path31"
       style="font-size:15.7377px;font-family:'Roboto Condensed';-inkscape-font-specification:'Roboto Condensed, ';text-align:justify;letter-spacing:0px;fill:#0d7474;stroke-width:0.491803;stroke-linecap:round;stroke-linejoin:round"
       d="m 96.971926,24.835938 c -0.896516,-10e-7 -1.655514,0.329373 -2.275391,0.990234 -0.619876,0.655737 -0.929687,1.631628 -0.929687,2.927734 v 0.791016 c 0,1.296106 0.309811,2.271997 0.929687,2.927734 0.625,0.655738 1.389377,0.984375 2.291016,0.984375 0.896516,0 1.653561,-0.328637 2.273438,-0.984375 0.624999,-0.655737 0.937501,-1.631628 0.937501,-2.927734 v -0.791016 c 0,-1.296106 -0.312502,-2.271997 -0.937501,-2.927734 -0.619877,-0.660861 -1.382301,-0.990234 -2.289063,-0.990234 z m 0,1.167968 c 0.532787,0 0.976595,0.233031 1.330078,0.699219 0.358607,0.461065 0.53711,1.144019 0.53711,2.050781 v 0.945313 c -0.03586,1.731557 -0.652793,2.597656 -1.851563,2.597656 -0.532787,0 -0.976595,-0.227651 -1.330078,-0.683594 -0.353484,-0.461065 -0.529297,-1.151351 -0.529297,-2.068359 v -0.791016 c 0,-0.906762 0.173124,-1.589716 0.521484,-2.050781 0.353484,-0.466188 0.794602,-0.699219 1.322266,-0.699219 z" /><path
       id="path6"
       style="font-size:15.7377px;font-family:'Roboto Condensed';-inkscape-font-specification:'Roboto Condensed, ';text-align:justify;letter-spacing:0px;fill:#0d7474;stroke-width:0.491803;stroke-linecap:round;stroke-linejoin:round"
       d="m 120.15552,22.115234 v 11.1875 h 1.41406 v -4.533203 h 1.9668 l 1.99023,4.533203 h 1.51368 v -0.0918 l -2.17383,-4.763672 c 1.16803,-0.53791 1.75195,-1.529938 1.75195,-2.97461 0,-1.116803 -0.27949,-1.953316 -0.83789,-2.511718 -0.55328,-0.563525 -1.38637,-0.845704 -2.49805,-0.845704 z m 1.41406,1.212891 h 1.71289 c 0.69672,0 1.19237,0.19733 1.48438,0.591797 0.29201,0.389344 0.4375,0.907243 0.4375,1.552734 0,0.578894 -0.16163,1.072586 -0.48438,1.482422 -0.32274,0.404713 -0.80763,0.607422 -1.45312,0.607422 h -1.69727 z" /><path
       d="m 76.876223,22.115234 v 11.1875 h 1.414062 v -8.628906 l 4.480469,8.628906 h 1.421875 v -11.1875 h -1.398437 v 8.652344 l -4.503907,-8.652344 z"
       style="font-size:15.7377px;font-family:'Roboto Condensed';-inkscape-font-specification:'Roboto Condensed, ';text-align:justify;letter-spacing:0px;fill:#0d7474;stroke-width:0.491803;stroke-linecap:round;stroke-linejoin:round"
       id="path5" /><path
       d="m 186.05786,21.960937 c -0.97848,0 -1.75704,0.290248 -2.33593,0.869141 -0.5789,0.578893 -0.86914,1.302927 -0.86914,2.173828 0,0.855533 0.26604,1.535061 0.79882,2.03711 0.53279,0.502049 1.2534,0.916271 2.16016,1.24414 0.90676,0.322746 1.49875,0.637936 1.77539,0.945313 0.27664,0.307377 0.41406,0.7216 0.41406,1.24414 0,0.543033 -0.15894,0.976083 -0.47656,1.298828 -0.31762,0.317623 -0.78368,0.476563 -1.39844,0.476563 -0.59426,0 -1.10409,-0.173124 -1.52929,-0.521484 -0.42009,-0.348361 -0.63086,-0.90465 -0.63086,-1.667969 h -1.41211 c 0,0.742828 0.17312,1.367828 0.52148,1.875 0.35349,0.502049 0.80536,0.880571 1.35352,1.136719 0.54815,0.256147 1.11325,0.384765 1.69726,0.384765 1.00922,0 1.8093,-0.27142 2.39844,-0.814453 0.59426,-0.543033 0.89063,-1.269756 0.89063,-2.181641 0,-0.870901 -0.23841,-1.572682 -0.71485,-2.105468 -0.47643,-0.532787 -1.26306,-0.979284 -2.35937,-1.337891 -0.70697,-0.256147 -1.22829,-0.541016 -1.56641,-0.853516 -0.33299,-0.312499 -0.5,-0.704469 -0.5,-1.175781 0,-0.517418 0.14011,-0.947778 0.42188,-1.291015 0.28688,-0.348361 0.74145,-0.521485 1.36132,-0.521485 0.68136,0 1.17505,0.203446 1.48243,0.613281 0.30737,0.409836 0.46093,0.927735 0.46093,1.552735 h 1.41407 c 0,-0.870902 -0.28756,-1.652152 -0.86133,-2.34375 -0.57377,-0.691598 -1.40491,-1.03711 -2.4961,-1.03711 z"
       style="font-size:15.7377px;font-family:'Roboto Condensed';-inkscape-font-specification:'Roboto Condensed, ';text-align:justify;letter-spacing:0px;fill:#0d7474;stroke-width:0.491803;stroke-linecap:round;stroke-linejoin:round"
       id="path4" /><path
       d="m 129.11646,21.960937 c -0.25615,0 -0.45005,0.07947 -0.57813,0.238282 -0.12807,0.158811 -0.1914,0.353451 -0.1914,0.583984 0,0.220287 0.0633,0.409548 0.1914,0.568359 0.12808,0.153689 0.32198,0.230469 0.57813,0.230469 0.25102,0 0.44297,-0.07678 0.57617,-0.230469 0.1332,-0.158811 0.19922,-0.348072 0.19922,-0.568359 0,-0.230533 -0.066,-0.425173 -0.19922,-0.583984 -0.1332,-0.158812 -0.32515,-0.238282 -0.57617,-0.238282 z"
       style="font-size:15.7377px;font-family:'Roboto Condensed';-inkscape-font-specification:'Roboto Condensed, ';text-align:justify;letter-spacing:0px;fill:#0d7474;stroke-width:0.491803;stroke-linecap:round;stroke-linejoin:round"
       id="path3" /><path
       d="m 143.77661,21.5 v 11.802734 h 1.2461 l 0.0684,-0.982422 c 0.44057,0.758197 1.09858,1.136719 1.97461,1.136719 0.8709,0 1.54505,-0.323258 2.02148,-0.96875 0.47643,-0.645491 0.71484,-1.626761 0.71484,-2.943359 v -0.90625 c -0.0154,-1.321721 -0.26184,-2.284164 -0.73828,-2.888672 -0.47131,-0.609631 -1.14008,-0.914063 -2.00586,-0.914063 -0.84528,0 -1.48447,0.350891 -1.91992,1.052735 V 21.5 Z m 2.92774,4.533203 c 0.65574,0 1.1103,0.226915 1.36133,0.677734 0.25102,0.45082 0.37695,1.136463 0.37695,2.058594 v 0.830078 c -0.005,0.906762 -0.14181,1.575532 -0.4082,2.00586 -0.2664,0.430327 -0.70752,0.644531 -1.32227,0.644531 -0.70184,0 -1.22586,-0.373143 -1.57422,-1.121094 v -3.964844 c 0.34836,-0.753073 0.86969,-1.130859 1.56641,-1.130859 z"
       style="font-size:15.7377px;font-family:'Roboto Condensed';-inkscape-font-specification:'Roboto Condensed, ';text-align:justify;letter-spacing:0px;fill:#0d7474;stroke-width:0.491803;stroke-linecap:round;stroke-linejoin:round"
       id="path2" /></g><g
     style="fill:#0d7474;fill-opacity:1"
     id="g47"
     transform="matrix(1.6709834,0,0,1.6709834,65.179983,2.2642656)"><path
       d="M 20.938,4.031 H 7 v 23.938 h 10 v -2 H 9 V 6.031 h 10 v 3 h 4 v 11 h 2 V 7.969 Z m 2.062,18 h -2 v 2 h -2 v 2 h 2 v 1.938 h 2 v -2 h 2 v -1.938 h -2 z"
       id="path1-6"
       style="fill:#0d7474;fill-opacity:1" /></g></g></svg>
