<?xml version="1.0" encoding="UTF-8" standalone="no"?>
<!-- Generator: Adobe Illustrator 19.0.0, SVG Export Plug-In . SVG Version: 6.00 Build 0)  -->

<svg
   version="1.1"
   id="Layer_1"
   x="0px"
   y="0px"
   viewBox="0 0 200 230"
   xml:space="preserve"
   sodipodi:docname="refunds_logo.svg"
   inkscape:version="1.2.1 (9c6d41e410, 2022-07-14, custom)"
   width="200"
   height="230"
   xmlns:inkscape="http://www.inkscape.org/namespaces/inkscape"
   xmlns:sodipodi="http://sodipodi.sourceforge.net/DTD/sodipodi-0.dtd"
   xmlns="http://www.w3.org/2000/svg"
   xmlns:svg="http://www.w3.org/2000/svg"><defs
   id="defs53">










	
	






		
		
		
	



	
	
	
	
	
	
	
	
	
	
	
	
	
	












</defs><sodipodi:namedview
   id="namedview51"
   pagecolor="#ffffff"
   bordercolor="#000000"
   borderopacity="0.25"
   inkscape:showpageshadow="false"
   inkscape:pageopacity="0.0"
   inkscape:pagecheckerboard="0"
   inkscape:deskcolor="#d1d1d1"
   showgrid="false"
   inkscape:zoom="2.0058594"
   inkscape:cx="157.03992"
   inkscape:cy="122.14216"
   inkscape:window-width="2534"
   inkscape:window-height="1408"
   inkscape:window-x="26"
   inkscape:window-y="0"
   inkscape:window-maximized="1"
   inkscape:current-layer="Layer_1" />







<g
   id="g20">
</g>
<g
   id="g22">
</g>
<g
   id="g24">
</g>
<g
   id="g26">
</g>
<g
   id="g28">
</g>
<g
   id="g30">
</g>
<g
   id="g32">
</g>
<g
   id="g34">
</g>
<g
   id="g36">
</g>
<g
   id="g38">
</g>
<g
   id="g40">
</g>
<g
   id="g42">
</g>
<g
   id="g44">
</g>
<g
   id="g46">
</g>
<g
   id="g48">
</g>
<circle
   style="fill:#0077b5;fill-opacity:1;stroke-width:0.275171"
   cx="100"
   cy="124.03802"
   r="70.44371"
   id="circle2" /><path
   style="fill:#005f8f;fill-opacity:1;stroke-width:0.275171"
   d="M 169.94235,115.63018 143.318,79.610027 C 143.10781,112.46561 94.969565,113.87405 72.70294,168.59721 l 22.759765,25.73484 c 1.500782,0.0955 3.012576,0.14969 4.537295,0.14969 38.90474,0 70.44371,-31.53898 70.44371,-70.44371 0,-2.84582 -0.17363,-5.65063 -0.50136,-8.40785 z"
   id="path4"
   sodipodi:nodetypes="ccccssc" /><polygon
   style="fill:#fee187"
   points="211.245,58.218 126.741,72.08 126.741,220.668 295.914,220.668 334.401,130.12 "
   id="polygon528"
   transform="matrix(0.26349788,0,0,-0.26349788,39.306955,175.04105)" /><polygon
   style="fill:#71e2f0"
   points="380.886,258.325 216.656,244.479 230.502,348.319 380.886,348.319 "
   id="polygon530"
   transform="matrix(0.26349788,0,0,-0.26349788,39.306955,175.04105)" /><polygon
   style="fill:#c2fbff"
   points="380.886,168.331 230.502,168.326 216.656,258.325 380.886,258.325 "
   id="polygon532"
   transform="matrix(0.26349788,0,0,-0.26349788,39.306955,175.04105)" /><polygon
   style="fill:#c2fbff"
   points="79.786,258.658 79.786,348.653 230.502,348.319 230.502,258.325 161.271,237.556 "
   id="polygon534"
   transform="matrix(0.26349788,0,0,-0.26349788,39.306955,175.04105)" /><polygon
   style="fill:#ffffff"
   points="230.502,168.326 79.786,168.664 79.786,258.658 230.502,258.325 "
   id="polygon536"
   transform="matrix(0.26349788,0,0,-0.26349788,39.306955,175.04105)" /><path
   style="fill:#38c6d9;stroke-width:0.263498"
   d="m 100.04374,120.14628 c 7.55633,0 13.68081,-6.12448 13.68081,-13.68081 0,-7.55475 -6.12448,-13.680549 -13.68081,-13.680549 l -3.040235,13.680549 z"
   id="path538" /><path
   style="fill:#71e2f0;stroke-width:0.263498"
   d="M 100.04374,120.14628 V 92.784921 c -7.556325,0 -13.680543,6.125799 -13.680543,13.680549 0,7.55659 6.124481,13.68081 13.680543,13.68081 z"
   id="path540" /><path
   style="fill:#38c6d9;stroke-width:0.263498"
   d="m 129.54655,128.05121 h -29.50281 l -2.634975,2.6363 2.634975,2.61627 H 143.318 V 79.610027 h -43.27426 l -2.634975,2.432612 2.634975,2.837345 h 29.50281 c 0,4.695269 3.80622,8.501233 8.50123,8.501233 v 26.168763 c -4.69501,0 -8.50123,3.80623 -8.50123,8.50123 z"
   id="path542" /><path
   style="fill:#71e2f0;stroke-width:0.263498"
   d="m 70.453195,128.05121 h 29.590545 v 5.25231 H 56.682006 V 79.610027 h 43.362004 v 5.269957 H 70.453195 c 0,4.695269 -3.806227,8.413488 -8.501232,8.413488 v 26.168768 c 4.695005,0 8.501232,3.89397 8.501232,8.58897 z"
   id="path544" /><path
   style="fill:#ffc61b;stroke-width:0.263498"
   d="m 115.34612,133.30378 0.0935,-20.58419 c 0,-3.26896 2.65975,-5.9287 5.9287,-5.9287 3.26896,0 5.92871,2.65974 5.92871,5.9287 v 43.32854 l -32.327505,3.6526 2.63e-4,-3.65287 c -2.63e-4,-11.84449 8.907542,-21.33015 20.376292,-22.74408 z"
   id="path546" /><path
   style="fill:#c83771;stroke-width:0.263498"
   d="m 127.42091,168.4457 c -8.25592,4.21386 -17.60298,6.59535 -27.507861,6.59535 l -6.202477,-8.90781 6.24042,-10.08511 h 27.469658 v 12.39757 z"
   id="path548" /><path
   style="fill:#ff80b2;stroke-width:0.263498"
   d="m 72.70294,156.04813 h 27.248316 l -0.03821,18.99292 c -9.785521,0 -19.027182,-2.32352 -27.210109,-6.44384 0,0 0,-12.54908 0,-12.54908 z"
   id="path550" /><text
   xml:space="preserve"
   style="font-size:28.2828px;font-family:Interceptor;-inkscape-font-specification:Interceptor;fill:#677821;stroke-width:0.757575;stroke-linecap:round;stroke-linejoin:round"
   x="91.06041"
   y="116.78422"
   id="text773"><tspan
     sodipodi:role="line"
     id="tspan771"
     x="91.06041"
     y="116.78422"
     style="font-style:normal;font-variant:normal;font-weight:800;font-stretch:normal;font-family:Barlow;-inkscape-font-specification:'Barlow Ultra-Bold';fill:#ffffff;stroke-width:0.757575">€</tspan></text><path
   d="M 15.32091,21.490728 V 15.66875 q 0,-1.22568 -1.149075,-1.22568 H 8.426462 V 33.594315 H -8.5676089e-5 V 9.9999816 H 19.534184 q 4.213274,0 4.213274,4.1366684 v 7.675819 q -0.01532,4.121348 -4.213274,4.121348 h 0.321741 l 4.090706,7.660498 H 15.458799 L 11.368093,25.933817 H 9.1925118 v -4.443089 z"
   style="font-weight:bold;font-size:31.3774px;font-family:Interceptor;-inkscape-font-specification:'Interceptor Bold';letter-spacing:5.04278px;fill:#0077b5;stroke-width:0.840464;stroke-linecap:round;stroke-linejoin:round"
   id="path1374" /><path
   d="M 37.982836,9.9999816 V 14.44307 l -8.411227,-0.01532 -0.01532,-4.4277674 z m 0,5.3623484 V 33.594315 H 29.556288 V 15.36233 Z"
   style="font-weight:bold;font-size:31.3774px;font-family:Interceptor;-inkscape-font-specification:'Interceptor Bold';letter-spacing:5.04278px;fill:#0077b5;stroke-width:0.840464;stroke-linecap:round;stroke-linejoin:round"
   id="path1371" /><path
   d="m 55.282413,19.805419 h -3.07952 l 0.01532,13.788896 H 43.791666 V 15.36233 h 27.194768 q 4.197953,0 4.213274,4.121348 V 33.594315 H 66.77316 V 21.031099 q 0,-1.22568 -1.149075,-1.22568 h -1.915124 v 13.788896 h -8.426548 z"
   style="font-weight:bold;font-size:31.3774px;font-family:Interceptor;-inkscape-font-specification:'Interceptor Bold';letter-spacing:5.04278px;fill:#0077b5;stroke-width:0.840464;stroke-linecap:round;stroke-linejoin:round"
   id="path1368" /><path
   d="m 89.435083,19.82074 v 8.104807 q 0,1.225679 1.133754,1.225679 h 5.776015 l -0.01532,-8.104806 q 0,-1.210359 -1.164395,-1.22568 z m 0,-4.45841 h 11.092397 q 4.2286,0.01532 4.2286,4.15199 v 9.943326 q 0,4.136669 -4.21327,4.136669 H 85.221809 q -4.197952,0 -4.213273,-4.121348 V 9.9999816 h 8.426547 z"
   style="font-weight:bold;font-size:31.3774px;font-family:Interceptor;-inkscape-font-specification:'Interceptor Bold';letter-spacing:5.04278px;fill:#0077b5;stroke-width:0.840464;stroke-linecap:round;stroke-linejoin:round"
   id="path1365" /><path
   d="m 114.77818,33.594315 q -4.19795,0 -4.21327,-4.121348 v -9.973968 q 0,-4.136669 4.21327,-4.15199 h 15.30568 q 4.22859,0.01532 4.22859,4.15199 v 9.958647 q 0,4.136669 -4.21327,4.136669 z m 4.21328,-13.788896 v 8.120128 q 0,1.225679 1.13375,1.225679 h 5.77602 l -0.0153,-8.120127 q 0,-1.210359 -1.16439,-1.22568 z"
   style="font-weight:bold;font-size:31.3774px;font-family:Interceptor;-inkscape-font-specification:'Interceptor Bold';letter-spacing:5.04278px;fill:#0077b5;stroke-width:0.840464;stroke-linecap:round;stroke-linejoin:round"
   id="path1362" /><path
   d="m 148.54783,33.594315 h -8.42655 V 19.483678 q 0.0153,-4.121348 4.21328,-4.121348 h 11.87377 v 4.443089 h -7.6605 z"
   style="font-weight:bold;font-size:31.3774px;font-family:Interceptor;-inkscape-font-specification:'Interceptor Bold';letter-spacing:5.04278px;fill:#0077b5;stroke-width:0.840464;stroke-linecap:round;stroke-linejoin:round"
   id="path1359" /><path
   d="m 166.21511,26.699867 q -4.19795,0 -4.21327,-4.121348 l 0.0153,-3.07952 q 0,-4.136669 4.97932,-4.136669 h 18.76822 v 4.443089 h -15.321 l -0.0153,1.22568 q 0,1.225679 1.13376,1.225679 h 9.97397 q 4.19795,0 4.21327,4.121348 l 0.0153,3.064199 q 0,4.15199 -4.21327,4.15199 h -19.53427 v -4.443089 h 15.32099 l -0.0153,-1.225679 q 0,-1.22568 -1.13375,-1.22568 z"
   style="font-weight:bold;font-size:31.3774px;font-family:Interceptor;-inkscape-font-specification:'Interceptor Bold';letter-spacing:5.04278px;fill:#0077b5;stroke-width:0.840464;stroke-linecap:round;stroke-linejoin:round"
   id="path1356" /><path
   d="M 200.00009,9.9999816 V 14.44307 l -8.41123,-0.01532 -0.0153,-4.4277674 z m 0,5.3623484 v 18.231985 h -8.42655 V 15.36233 Z"
   style="font-weight:bold;font-size:31.3774px;font-family:Interceptor;-inkscape-font-specification:'Interceptor Bold';letter-spacing:5.04278px;fill:#0077b5;stroke-width:0.840464;stroke-linecap:round;stroke-linejoin:round"
   id="path1353" /></svg>
