<?xml version="1.0" encoding="UTF-8" standalone="no"?>
<!-- Created with Inkscape (http://www.inkscape.org/) -->

<svg
   width="680"
   height="190"
   viewBox="0 0 179.91666 50.270833"
   version="1.1"
   id="svg4981"
   inkscape:version="1.2.1 (9c6d41e410, 2022-07-14, custom)"
   sodipodi:docname="registration_logo.svg"
   xml:space="preserve"
   xmlns:inkscape="http://www.inkscape.org/namespaces/inkscape"
   xmlns:sodipodi="http://sodipodi.sourceforge.net/DTD/sodipodi-0.dtd"
   xmlns="http://www.w3.org/2000/svg"
   xmlns:svg="http://www.w3.org/2000/svg"><sodipodi:namedview
     id="namedview4983"
     pagecolor="#ffffff"
     bordercolor="#000000"
     borderopacity="0.25"
     inkscape:showpageshadow="false"
     inkscape:pageopacity="0.0"
     inkscape:pagecheckerboard="0"
     inkscape:deskcolor="#d1d1d1"
     inkscape:document-units="px"
     showgrid="false"
     inkscape:zoom="4.0000001"
     inkscape:cx="242.62499"
     inkscape:cy="149.75"
     inkscape:window-width="2534"
     inkscape:window-height="1408"
     inkscape:window-x="26"
     inkscape:window-y="0"
     inkscape:window-maximized="1"
     inkscape:current-layer="g26264" /><defs
     id="defs4978">
	
	

	
	

	
	
	
</defs><g
     inkscape:label="Livello 1"
     inkscape:groupmode="layer"
     id="layer1"><g
       id="g24943"
       transform="matrix(0.1591017,0,0,0.1591017,120.56639,73.918804)">
	
	
	
</g><g
       id="g24951"
       transform="matrix(0.1591017,0,0,0.1591017,120.56639,73.918804)">
</g><g
       id="g24953"
       transform="matrix(0.1591017,0,0,0.1591017,120.56639,73.918804)">
</g><g
       id="g24955"
       transform="matrix(0.1591017,0,0,0.1591017,120.56639,73.918804)">
</g><g
       id="g24957"
       transform="matrix(0.1591017,0,0,0.1591017,120.56639,73.918804)">
</g><g
       id="g24959"
       transform="matrix(0.1591017,0,0,0.1591017,120.56639,73.918804)">
</g><g
       id="g24961"
       transform="matrix(0.1591017,0,0,0.1591017,120.56639,73.918804)">
</g><g
       id="g24963"
       transform="matrix(0.1591017,0,0,0.1591017,120.56639,73.918804)">
</g><g
       id="g24965"
       transform="matrix(0.1591017,0,0,0.1591017,120.56639,73.918804)">
</g><g
       id="g24967"
       transform="matrix(0.1591017,0,0,0.1591017,120.56639,73.918804)">
</g><g
       id="g24969"
       transform="matrix(0.1591017,0,0,0.1591017,120.56639,73.918804)">
</g><g
       id="g24971"
       transform="matrix(0.1591017,0,0,0.1591017,120.56639,73.918804)">
</g><g
       id="g24973"
       transform="matrix(0.1591017,0,0,0.1591017,120.56639,73.918804)">
</g><g
       id="g24975"
       transform="matrix(0.1591017,0,0,0.1591017,120.56639,73.918804)">
</g><g
       id="g24977"
       transform="matrix(0.1591017,0,0,0.1591017,120.56639,73.918804)">
</g><g
       id="g24979"
       transform="matrix(0.1591017,0,0,0.1591017,120.56639,73.918804)">
</g><g
       id="g26264"
       transform="translate(12.239957)"><path
         id="path4852-6"
         style="fill:#2c5aa0;fill-opacity:1;stroke:none;stroke-width:3.48438;stroke-linecap:round;stroke-linejoin:round;stroke-dasharray:none;paint-order:stroke markers fill"
         d="M 36.653985,8.2020833 C 27.335801,8.2021196 19.781926,15.78341 19.78189,25.135409 c 3.6e-5,9.352006 7.553911,16.933304 16.872095,16.93334 9.318177,-3.6e-5 16.872066,-7.581327 16.872088,-16.93334 C 53.526051,15.78341 45.972162,8.2021196 36.653985,8.2020833 Z"
         sodipodi:nodetypes="ccccc" /><g
         id="g2005"
         transform="matrix(0.72720535,0,0,-0.72720535,19.78189,43.414011)"
         style="fill:#ffffff"><path
           id="path4858-1"
           style="fill:#ffffff;fill-opacity:1;stroke-width:0.426927;stroke-linecap:round;stroke-linejoin:round;paint-order:stroke markers fill"
           d="m 4.64051,25.135406 a 18.560763,18.812988 0 0 0 18.56077,18.81299 v -18.81299 z" /><path
           id="path4860-0"
           style="fill:#ffffff;fill-opacity:1;stroke-width:0.426927;stroke-linecap:round;stroke-linejoin:round;paint-order:stroke markers fill"
           d="M 41.76204,25.135406 A 18.560763,18.812988 0 0 0 23.20128,6.3224161 V 25.135406 Z" /></g><path
         id="path2760"
         style="fill:#2c5aa0;fill-opacity:1;stroke:none;stroke-width:2.53652;stroke-linecap:round;stroke-linejoin:round;stroke-dasharray:none;paint-order:stroke markers fill"
         d="m 36.653984,12.808497 c -6.783337,2.7e-5 -12.282313,5.518962 -12.282339,12.326914 2.6e-5,6.807958 5.499002,12.326897 12.282339,12.326924 6.78333,-2.7e-5 12.282318,-5.51896 12.282334,-12.326924 -1.6e-5,-6.807952 -5.499004,-12.326887 -12.282334,-12.326914 z"
         sodipodi:nodetypes="ccccc" /><g
         id="g8371"
         transform="matrix(1.0067549,0,0,1.0067549,3.4071757,-0.1009897)"><path
           style="fill:#e6af78;stroke-width:0.0253777"
           d="m 37.147718,26.391249 v -0.94968 h -3.156292 v 0.94968 c 0,0.162722 -0.111966,0.304101 -0.270373,0.341355 l -2.169811,0.510522 c -0.316815,0.07456 -0.540747,0.357291 -0.540747,0.682785 v 1.548669 c 0,0.09684 0.07849,0.175359 0.175359,0.175359 h 8.767437 c 0.09684,0 0.175359,-0.07849 0.175359,-0.175359 v -1.548669 c 0,-0.325494 -0.223907,-0.6082 -0.540773,-0.682759 L 37.418066,26.73263 c -0.158408,-0.03728 -0.270348,-0.178634 -0.270348,-0.341381 z"
           id="path24919" /><path
           style="fill:#5599ff;stroke-width:0.0253777"
           d="M 39.587877,27.243152 37.418066,26.73263 c -0.03276,-0.0077 -0.06291,-0.02081 -0.09111,-0.03667 l -1.7574,1.025155 -1.688882,-1.074743 c -0.0437,0.04116 -0.09798,0.07174 -0.159625,0.08626 l -2.169811,0.510522 c -0.316866,0.07456 -0.540772,0.357291 -0.540772,0.682784 v 1.548695 c 0,0.09682 0.07849,0.175359 0.175359,0.175359 h 8.767436 c 0.09684,0 0.175359,-0.07849 0.175359,-0.175359 v -1.548695 c 0,-0.325493 -0.223906,-0.608225 -0.540747,-0.682784 z"
           id="path24921" /><path
           style="fill:#d5dcec;stroke-width:0.0253777"
           d="m 37.113381,26.820564 -1.543821,0.90055 -1.558644,-0.991885 c 0.113998,0.759552 0.767344,1.342579 1.558669,1.342579 0.759426,-2.6e-5 1.39318,-0.536611 1.543796,-1.251244 z"
           id="path24923" /><path
           style="fill:#d29b6e;stroke-width:0.0253777"
           d="m 33.991426,26.391249 c 0,0.117703 -0.0591,0.223629 -0.151479,0.287656 2.080307,1.042209 3.307746,-1.018657 3.307746,-1.018657 v -0.218654 h -3.156267 z"
           id="path24925" /><path
           style="fill:#f0c087;stroke-width:0.0253777"
           d="m 33.29004,21.320877 0.152824,3.361698 c 0.01429,0.314073 0.168253,0.605281 0.419746,0.793913 l 0.725039,0.543791 c 0.182109,0.136583 0.403631,0.210433 0.631268,0.210433 h 0.701386 c 0.227639,0 0.44916,-0.07382 0.631269,-0.210433 l 0.725038,-0.543791 c 0.251518,-0.188632 0.405484,-0.47984 0.419747,-0.793913 l 0.152799,-3.361698 z"
           id="path24927" /><path
           style="fill:#e6af78;stroke-width:0.0253777"
           d="m 33.29004,21.320877 0.152773,3.361647 c 0.01429,0.314073 0.168255,0.605281 0.419746,0.793938 l 0.725039,0.543793 c 0.182109,0.136582 0.403631,0.210431 0.631268,0.210431 h 0.350719 c -0.526053,-0.17536 -0.876747,-1.578158 -0.876747,-1.578158 V 22.73875 c 0,-0.131836 0.100546,-0.2402 0.231775,-0.252914 0.982215,-0.09514 2.092079,-0.341786 2.924492,-0.92382 V 21.320902 H 33.29004 Z"
           id="path24929" /><path
           style="fill:#5a4146;stroke-width:0.0253777"
           d="m 32.939321,21.145518 v 0.175359 l 0.17536,1.928827 h 0.350718 l 0.35072,-1.05208 c 0,0 2.279545,0 3.506984,-0.701388 l 0.350718,1.753468 h 0.350719 l 0.175359,-1.928827 v -0.175359 c 0,-0.968436 -0.785082,-1.753467 -1.753467,-1.753467 h -1.753466 c -0.968563,-2.6e-5 -1.753645,0.785056 -1.753645,1.753467 z"
           id="path24931" /><path
           style="fill:#f0c087;stroke-width:0.0253777"
           d="m 38.188785,23.525381 -0.198047,0.792111 c -0.02345,0.09387 -0.107805,0.159677 -0.204544,0.159677 v 0 c -0.106307,0 -0.195993,-0.07915 -0.209189,-0.184674 L 37.47575,23.48234 c -0.02708,-0.216649 0.141835,-0.407971 0.360159,-0.407971 h 6.38e-4 c 0.236189,0 0.409468,0.221903 0.352191,0.451012 z"
           id="path24933" /><path
           style="fill:#e6af78;stroke-width:0.0253777"
           d="m 32.95036,23.525381 0.198047,0.792111 c 0.02345,0.09387 0.107805,0.159677 0.204544,0.159677 v 0 c 0.106307,0 0.195991,-0.07915 0.209188,-0.184674 l 0.101256,-0.810155 c 0.02708,-0.216649 -0.141836,-0.407971 -0.360159,-0.407971 h -6.38e-4 c -0.23619,0 -0.409469,0.221903 -0.352192,0.451012 z"
           id="path24935" /><path
           style="fill:#2a7fff;fill-opacity:1;stroke-width:0.0253776"
           d="m 32.297775,28.511929 -1.136258,-1.020688 c -0.09519,0.120569 -0.151022,0.272251 -0.151022,0.434668 v 1.548694 c 0,0.09684 0.07849,0.17536 0.175359,0.17536 h 1.402799 V 29.16421 c 0,-0.248879 -0.105748,-0.486007 -0.290878,-0.652281 z"
           id="path24937" /><path
           style="fill:#2a7fff;stroke-width:0.0253776"
           d="m 38.841343,28.511929 1.136258,-1.020688 c 0.09522,0.120569 0.151047,0.272251 0.151047,0.434668 v 1.548694 c 0,0.09684 -0.07849,0.17536 -0.175359,0.17536 H 38.55049 V 29.16421 c 0,-0.248879 0.105724,-0.486007 0.290853,-0.652281 z"
           id="path24939" /><path
           style="fill:#2a7fff;fill-opacity:1;stroke-width:0.0253776"
           d="m 35.569559,28.422498 c 0.977444,0 1.785443,-0.731434 1.910199,-1.67538 l -0.06169,-0.01452 c -0.03276,-0.0077 -0.06291,-0.02081 -0.09111,-0.03667 l -0.213781,0.124731 c -0.151073,0.71372 -0.785589,1.251142 -1.543619,1.251142 -0.789878,0 -1.44419,-0.584015 -1.558566,-1.342502 l -0.130315,-0.08291 c -0.0437,0.04116 -0.09798,0.07174 -0.159625,0.08626 l -0.06169,0.01452 c 0.124757,0.94387 0.93278,1.675329 1.910199,1.675329 z"
           id="path24941" /><path
           style="fill:#e4eaf6;stroke-width:0.0253776"
           d="m 33.96681,26.278623 1.602774,1.442489 c 0,0 -0.448879,0.226597 -1.002796,0.683293 -0.11425,0.0942 -0.287097,0.05606 -0.34841,-0.0788 l -0.753004,-1.656625 0.238219,-0.357317 c 0.05931,-0.08895 0.183734,-0.104556 0.263217,-0.03304 z"
           id="path24945" /><path
           style="fill:#e4eaf6;stroke-width:0.0253776"
           d="m 37.172333,26.278623 -1.602774,1.442489 c 0,0 0.448879,0.226597 1.002797,0.683293 0.11425,0.0942 0.287097,0.05606 0.348409,-0.0788 L 37.67377,26.66898 37.43555,26.311663 c -0.05931,-0.08895 -0.183734,-0.104556 -0.263217,-0.03304 z"
           id="path24947" /><path
           style="fill:#e6af78;stroke-width:0.0253777"
           d="m 31.502797,26.391249 v -1.220173 l -3.156291,0.270493 v 0.94968 c 0,0.162722 -0.111967,0.304101 -0.270374,0.341355 l -2.169811,0.510522 c -0.316815,0.07456 -0.540747,0.357291 -0.540747,0.682785 v 1.548669 c 0,0.09684 0.07849,0.175359 0.175359,0.175359 h 8.767436 c 0.09684,0 0.175359,-0.07849 0.175359,-0.175359 v -1.548669 c 0,-0.325494 -0.223906,-0.6082 -0.540772,-0.682759 L 31.773145,26.73263 c -0.158408,-0.03728 -0.270348,-0.178634 -0.270348,-0.341381 z"
           id="path25060"
           sodipodi:nodetypes="sccsccssssssccs" /><path
           style="fill:#ff6464;stroke-width:0.0253777"
           d="M 33.942956,27.243152 31.773145,26.73263 c -0.03276,-0.0077 -0.06291,-0.02081 -0.09111,-0.03667 l -1.7574,1.025155 -1.688881,-1.074743 c -0.0437,0.04116 -0.09798,0.07174 -0.159626,0.08626 l -2.169811,0.510522 c -0.316866,0.07456 -0.540772,0.357291 -0.540772,0.682784 v 1.548695 c 0,0.09682 0.07849,0.175359 0.175359,0.175359 h 8.767436 c 0.09684,0 0.175358,-0.07849 0.175358,-0.175359 v -1.548695 c 0,-0.325493 -0.223906,-0.608225 -0.540746,-0.682784 z"
           id="path25062" /><path
           style="fill:#d5dcec;stroke-width:0.0253777"
           d="m 31.468461,26.820564 -1.543822,0.90055 -1.558643,-0.991885 c 0.113997,0.759552 0.767343,1.342579 1.558668,1.342579 0.759426,-2.6e-5 1.39318,-0.536611 1.543797,-1.251244 z"
           id="path25064" /><path
           style="fill:#d29b6e;stroke-width:0.0273916"
           d="m 28.346506,26.302988 c 0,0.137125 -0.05911,0.26053 -0.15148,0.335122 2.080307,1.214182 3.307746,-1.803228 3.307746,-1.803228 V 24.58015 h -3.156266 z"
           id="path25066"
           sodipodi:nodetypes="sccccs" /><path
           style="fill:#f0c087;stroke-width:0.0253777"
           d="m 27.645119,21.320877 0.681991,2.832532 c 0.01429,0.314073 -0.08314,0.52103 0.168353,0.709661 l 0.976432,0.628043 c 0.191453,0.123143 0.160332,0.06097 0.187247,0.06708 l 0.486473,0.110408 c 0.02022,0.0046 0.132856,0.03292 0.308216,0.03292 0.201679,-0.148439 0.332908,-0.126605 0.705623,-0.688429 0.182719,-0.309683 0.348552,-0.545609 0.362815,-0.859682 l 0.681965,-2.832532 z"
           id="path25068"
           sodipodi:nodetypes="cccsssccccc" /><path
           style="fill:#e6af78;stroke-width:0.0253777"
           d="m 27.645119,21.320877 0.68194,3.361647 c 0.01429,0.314073 -0.08309,-0.0081 0.168404,0.180546 l 0.695048,0.578499 c 0.156001,0.116764 0.684963,0.259951 0.9126,0.259951 h 0.35072 C 29.927778,25.526159 29.577084,24.652528 29.577084,24.652528 L 29.047917,22.73875 c -0.03513,-0.127069 0.100546,-0.2402 0.231775,-0.252914 0.982215,-0.09514 2.092079,-0.341786 2.924491,-0.92382 v -0.241114 h -4.559064 z"
           id="path25070"
           sodipodi:nodetypes="ccccsccsccccc" /><path
           style="fill:#5a4146;stroke-width:0.0253777"
           d="m 27.2944,21.145518 v 0.175359 l -0.246665,4.977811 h 1.616794 l -0.493331,-4.101064 c 0,0 2.279545,0 3.506984,-0.701388 l -0.493334,4.802452 h 1.616795 l -0.246666,-4.977811 v -0.175359 c 0,-0.968436 -0.785081,-1.753467 -1.753465,-1.753467 h -1.753467 c -0.968563,-2.6e-5 -1.753645,0.785056 -1.753645,1.753467 z"
           id="path25072"
           sodipodi:nodetypes="sccccccccsscs" /><path
           style="fill:#d2555a;stroke-width:0.0253776"
           d="m 26.652854,28.51193 -1.136258,-1.020688 c -0.09519,0.120569 -0.151022,0.272251 -0.151022,0.434668 v 1.548694 c 0,0.09684 0.07849,0.17536 0.175359,0.17536 h 1.402799 v -0.485753 c 0,-0.248879 -0.105748,-0.486007 -0.290878,-0.652281 z"
           id="path25078" /><path
           style="fill:#d2555a;stroke-width:0.0253776"
           d="m 33.196422,28.51193 1.136258,-1.020688 c 0.09522,0.120569 0.151047,0.272251 0.151047,0.434668 v 1.548694 c 0,0.09684 -0.07849,0.17536 -0.175359,0.17536 h -1.402799 v -0.485753 c 0,-0.248879 0.105724,-0.486007 0.290853,-0.652281 z"
           id="path25080" /><path
           style="fill:#d2555a;stroke-width:0.0253776"
           d="m 29.924638,28.422499 c 0.977444,0 1.785443,-0.731434 1.910199,-1.67538 l -0.06169,-0.01452 c -0.03276,-0.0077 -0.06291,-0.02081 -0.09111,-0.03667 l -0.213781,0.124731 c -0.151073,0.71372 -0.785589,1.251142 -1.543619,1.251142 -0.789878,0 -1.44419,-0.584015 -1.558566,-1.342502 l -0.130315,-0.08291 c -0.0437,0.04116 -0.09798,0.07174 -0.159625,0.08626 l -0.06169,0.01452 c 0.124757,0.94387 0.93278,1.675329 1.910199,1.675329 z"
           id="path25082" /><path
           style="fill:#e4eaf6;stroke-width:0.0253776"
           d="m 28.321889,26.278623 1.602774,1.442489 c 0,0 -0.448879,0.226597 -1.002796,0.683293 -0.11425,0.0942 -0.287097,0.05606 -0.34841,-0.0788 l -0.753004,-1.656625 0.238219,-0.357317 c 0.05931,-0.08895 0.183734,-0.104556 0.263217,-0.03304 z"
           id="path25086" /><path
           style="fill:#e4eaf6;stroke-width:0.0253776"
           d="m 31.527412,26.278623 -1.602774,1.442489 c 0,0 0.448879,0.226597 1.002797,0.683293 0.11425,0.0942 0.287097,0.05606 0.348409,-0.0788 l 0.753005,-1.656625 -0.23822,-0.357317 c -0.05931,-0.08895 -0.183734,-0.104556 -0.263217,-0.03304 z"
           id="path25088" /></g><path
         d="m 73.729301,24.107767 q 0,1.427892 -1.362988,2.069722 -1.00962,0.475963 -2.6178,0.475963 h -5.343776 v 3.180304 h -2.033663 v -9.259659 h 7.449554 q 1.406257,0 2.459147,0.418271 1.449526,0.576926 1.449526,1.752412 z m -2.019241,-0.05048 v -0.980774 q 0,-0.389425 -0.771638,-0.605772 -0.562503,-0.158654 -1.10337,-0.158654 h -5.430315 v 2.596166 h 5.437526 q 1.867797,0 1.867797,-0.850966 z"
         id="path8430"
         style="font-size:14.7693px;font-family:Neuropolitical;-inkscape-font-specification:Neuropolitical;letter-spacing:2.37364px;fill:#2c5aa0;stroke-width:1.58243;stroke-linecap:round;stroke-linejoin:round" /><path
         d="m 81.792871,24.158248 h -1.500007 q -1.471161,0 -1.471161,0.64183 v 5.040889 h -1.954336 v -5.040889 q 0,-2.358184 3.605787,-2.358184 h 1.319717 z"
         id="path8427"
         style="font-size:14.7693px;font-family:Neuropolitical;-inkscape-font-specification:Neuropolitical;letter-spacing:2.37364px;fill:#2c5aa0;stroke-width:1.58243;stroke-linecap:round;stroke-linejoin:round" /><path
         d="m 94.918965,27.425091 q 0,1.28366 -1.225967,1.896643 -0.937505,0.468752 -2.365396,0.468752 H 88.79634 q -1.427891,0 -2.4303,-0.475963 -1.312506,-0.620196 -1.312506,-1.889432 v -2.545685 q 0,-1.254814 1.305294,-1.918279 1.031255,-0.519233 2.4303,-0.519233 h 2.538474 q 3.591363,0 3.591363,2.423088 z m -1.975971,-0.07212 v -2.516839 q 0,-0.375002 -0.656253,-0.548079 -0.454329,-0.129809 -1.002409,-0.129809 h -2.473569 q -0.526445,0 -1.067313,0.173078 -0.73558,0.223559 -0.73558,0.620195 v 2.401454 q 0,0.382213 0.757215,0.584137 0.540868,0.144232 1.05289,0.144232 h 2.473569 q 0.447117,0 0.973562,-0.165866 0.677888,-0.216348 0.677888,-0.562503 z"
         id="path8424"
         style="font-size:14.7693px;font-family:Neuropolitical;-inkscape-font-specification:Neuropolitical;letter-spacing:2.37364px;fill:#2c5aa0;stroke-width:1.58243;stroke-linecap:round;stroke-linejoin:round" /><path
         d="m 103.09792,24.273633 h -2.9279 v 5.516853 h -1.954334 v -6.966379 q 0,-2.257222 3.627424,-2.257222 h 1.25481 v 1.629816 h -1.93991 q -0.8077,0 -0.82933,0.375001 h 2.76924 z"
         id="path8421"
         style="font-size:14.7693px;font-family:Neuropolitical;-inkscape-font-specification:Neuropolitical;letter-spacing:2.37364px;fill:#2c5aa0;stroke-width:1.58243;stroke-linecap:round;stroke-linejoin:round" /><path
         d="m 108.59417,21.446697 q 0,0.454329 -0.39664,0.728369 -0.34615,0.245193 -0.82211,0.245193 -0.48318,0 -0.82212,-0.245193 -0.38222,-0.281251 -0.38222,-0.750004 0,-0.468752 0.38222,-0.742792 0.33894,-0.252405 0.82212,-0.252405 0.47596,0 0.82933,0.266828 0.38942,0.288463 0.38942,0.750004 z m -0.29567,8.343789 h -1.94713 v -7.168303 h 1.94713 z"
         id="path8418"
         style="font-size:14.7693px;font-family:Neuropolitical;-inkscape-font-specification:Neuropolitical;letter-spacing:2.37364px;fill:#2c5aa0;stroke-width:1.58243;stroke-linecap:round;stroke-linejoin:round" /><path
         d="m 113.72985,29.840967 h -2.03367 v -9.317351 h 2.03367 z"
         id="path8415"
         style="font-size:14.7693px;font-family:Neuropolitical;-inkscape-font-specification:Neuropolitical;letter-spacing:2.37364px;fill:#2c5aa0;stroke-width:1.58243;stroke-linecap:round;stroke-linejoin:round" /><path
         d="m 126.93527,27.425091 q 0,1.28366 -1.22597,1.896643 -0.9375,0.468752 -2.3654,0.468752 h -2.53126 q -1.42789,0 -2.4303,-0.475963 -1.3125,-0.620196 -1.3125,-1.889432 v -2.545685 q 0,-1.254814 1.30529,-1.918279 1.03126,-0.519233 2.4303,-0.519233 h 2.53847 q 3.59137,0 3.59137,2.423088 z m -1.97597,-0.07212 v -2.516839 q 0,-0.375002 -0.65626,-0.548079 -0.45433,-0.129809 -1.00241,-0.129809 h -2.47356 q -0.52645,0 -1.06732,0.173078 -0.73558,0.223559 -0.73558,0.620195 v 2.401454 q 0,0.382213 0.75722,0.584137 0.54087,0.144232 1.05289,0.144232 h 2.47357 q 0.44711,0 0.97356,-0.165866 0.67789,-0.216348 0.67789,-0.562503 z"
         id="path8412"
         style="font-size:14.7693px;font-family:Neuropolitical;-inkscape-font-specification:Neuropolitical;letter-spacing:2.37364px;fill:#2c5aa0;stroke-width:1.58243;stroke-linecap:round;stroke-linejoin:round" /></g></g></svg>
