<?xml version="1.0" encoding="UTF-8" standalone="no"?>
<!-- Created with Inkscape (http://www.inkscape.org/) -->

<svg
   width="680"
   height="190"
   viewBox="0 0 179.91666 50.270833"
   version="1.1"
   id="svg4981"
   inkscape:version="1.2.1 (9c6d41e410, 2022-07-14, custom)"
   sodipodi:docname="registration_logo.svg"
   xml:space="preserve"
   xmlns:inkscape="http://www.inkscape.org/namespaces/inkscape"
   xmlns:sodipodi="http://sodipodi.sourceforge.net/DTD/sodipodi-0.dtd"
   xmlns="http://www.w3.org/2000/svg"
   xmlns:svg="http://www.w3.org/2000/svg"><sodipodi:namedview
     id="namedview4983"
     pagecolor="#ffffff"
     bordercolor="#000000"
     borderopacity="0.25"
     inkscape:showpageshadow="false"
     inkscape:pageopacity="0.0"
     inkscape:pagecheckerboard="0"
     inkscape:deskcolor="#d1d1d1"
     inkscape:document-units="px"
     showgrid="false"
     inkscape:zoom="11.313709"
     inkscape:cx="154.59122"
     inkscape:cy="97.227182"
     inkscape:window-width="2534"
     inkscape:window-height="1408"
     inkscape:window-x="26"
     inkscape:window-y="0"
     inkscape:window-maximized="1"
     inkscape:current-layer="g26264" /><defs
     id="defs4978">
	
	

	
	

	
	
	
</defs><g
     inkscape:label="Livello 1"
     inkscape:groupmode="layer"
     id="layer1"><g
       id="g24943"
       transform="matrix(0.1591017,0,0,0.1591017,120.56639,73.918804)">
	
	
	
</g><g
       id="g24951"
       transform="matrix(0.1591017,0,0,0.1591017,120.56639,73.918804)">
</g><g
       id="g24953"
       transform="matrix(0.1591017,0,0,0.1591017,120.56639,73.918804)">
</g><g
       id="g24955"
       transform="matrix(0.1591017,0,0,0.1591017,120.56639,73.918804)">
</g><g
       id="g24957"
       transform="matrix(0.1591017,0,0,0.1591017,120.56639,73.918804)">
</g><g
       id="g24959"
       transform="matrix(0.1591017,0,0,0.1591017,120.56639,73.918804)">
</g><g
       id="g24961"
       transform="matrix(0.1591017,0,0,0.1591017,120.56639,73.918804)">
</g><g
       id="g24963"
       transform="matrix(0.1591017,0,0,0.1591017,120.56639,73.918804)">
</g><g
       id="g24965"
       transform="matrix(0.1591017,0,0,0.1591017,120.56639,73.918804)">
</g><g
       id="g24967"
       transform="matrix(0.1591017,0,0,0.1591017,120.56639,73.918804)">
</g><g
       id="g24969"
       transform="matrix(0.1591017,0,0,0.1591017,120.56639,73.918804)">
</g><g
       id="g24971"
       transform="matrix(0.1591017,0,0,0.1591017,120.56639,73.918804)">
</g><g
       id="g24973"
       transform="matrix(0.1591017,0,0,0.1591017,120.56639,73.918804)">
</g><g
       id="g24975"
       transform="matrix(0.1591017,0,0,0.1591017,120.56639,73.918804)">
</g><g
       id="g24977"
       transform="matrix(0.1591017,0,0,0.1591017,120.56639,73.918804)">
</g><g
       id="g24979"
       transform="matrix(0.1591017,0,0,0.1591017,120.56639,73.918804)">
</g><g
       id="g26264"
       transform="translate(12.239957)"><g
         id="g24612"
         transform="matrix(0.72720535,0,0,0.72720535,14.720565,6.8568071)"><path
           id="path4852"
           style="fill:#009aeb;fill-opacity:1;stroke:none;stroke-width:4.79147;stroke-linecap:round;stroke-linejoin:round;stroke-dasharray:none;paint-order:stroke markers fill"
           d="m 24.788781,1.8499261 c -12.81369,5e-5 -23.20123,10.4252899 -23.20128,23.2854799 5e-5,12.8602 10.38759,23.28545 23.20128,23.2855 12.81368,-5e-5 23.20124,-10.42529 23.20127,-23.2855 -3e-5,-12.86019 -10.38759,-23.2854299 -23.20127,-23.2854799 z"
           sodipodi:nodetypes="ccccc" /><path
           id="path4854"
           style="fill:#52c6ff;fill-opacity:1;stroke-width:0.426927;stroke-linecap:round;stroke-linejoin:round;paint-order:stroke markers fill"
           d="m 41.491231,25.135406 c 0,10.39014 -6.45163,16.95468 -16.70245,16.95468 v -16.95468 z"
           sodipodi:nodetypes="cccc" /><path
           id="path4856"
           style="fill:#52c6ff;fill-opacity:1;stroke-width:0.426927;stroke-linecap:round;stroke-linejoin:round;paint-order:stroke markers fill"
           d="m 8.086321,25.135406 c 0,-10.39013 6.45162,-16.9546799 16.70246,-16.9546799 V 25.135406 Z"
           sodipodi:nodetypes="cccc" /><path
           id="path4858"
           style="fill:#b8ebff;fill-opacity:1;stroke-width:0.426927;stroke-linecap:round;stroke-linejoin:round;paint-order:stroke markers fill"
           d="m 6.228011,25.135406 a 18.560763,18.812988 0 0 0 18.56077,18.81299 v -18.81299 z" /><path
           id="path4860"
           style="fill:#b8ebff;fill-opacity:1;stroke-width:0.426927;stroke-linecap:round;stroke-linejoin:round;paint-order:stroke markers fill"
           d="M 43.349541,25.135406 A 18.560763,18.812988 0 0 0 24.788781,6.3224161 V 25.135406 Z" /><path
           id="path24604"
           style="fill:#009aeb;fill-opacity:1;stroke:none;stroke-width:2.73611;stroke-linecap:round;stroke-linejoin:round;stroke-dasharray:none;paint-order:stroke markers fill"
           d="m 24.788779,11.838528 c -7.317098,2.9e-5 -13.248773,5.953232 -13.248801,13.296882 2.8e-5,7.343657 5.931703,13.296866 13.248801,13.296894 7.317092,-2.8e-5 13.248778,-5.953231 13.248795,-13.296894 -1.7e-5,-7.34365 -5.931703,-13.296853 -13.248795,-13.296882 z"
           sodipodi:nodetypes="ccccc" /></g><text
         xml:space="preserve"
         style="font-size:16.9505px;font-family:Interceptor;-inkscape-font-specification:Interceptor;letter-spacing:2.72418px;fill:#009aeb;stroke-width:0.454031;stroke-linecap:round;stroke-linejoin:round"
         x="55.969193"
         y="31.342867"
         id="text24668"><tspan
           sodipodi:role="line"
           id="tspan24666"
           style="stroke-width:0.454031"
           x="55.969193"
           y="31.342867">Profilo</tspan></text><path
         style="fill:#e6af78;stroke-width:0.0253777"
         d="m 37.147718,26.391249 v -0.94968 h -3.156292 v 0.94968 c 0,0.162722 -0.111966,0.304101 -0.270373,0.341355 l -2.169811,0.510522 c -0.316815,0.07456 -0.540747,0.357291 -0.540747,0.682785 v 1.548669 c 0,0.09684 0.07849,0.175359 0.175359,0.175359 h 8.767437 c 0.09684,0 0.175359,-0.07849 0.175359,-0.175359 v -1.548669 c 0,-0.325494 -0.223907,-0.6082 -0.540773,-0.682759 L 37.418066,26.73263 c -0.158408,-0.03728 -0.270348,-0.178634 -0.270348,-0.341381 z"
         id="path24919" /><path
         style="fill:#5599ff;stroke-width:0.0253777"
         d="M 39.587877,27.243152 37.418066,26.73263 c -0.03276,-0.0077 -0.06291,-0.02081 -0.09111,-0.03667 l -1.7574,1.025155 -1.688882,-1.074743 c -0.0437,0.04116 -0.09798,0.07174 -0.159625,0.08626 l -2.169811,0.510522 c -0.316866,0.07456 -0.540772,0.357291 -0.540772,0.682784 v 1.548695 c 0,0.09682 0.07849,0.175359 0.175359,0.175359 h 8.767436 c 0.09684,0 0.175359,-0.07849 0.175359,-0.175359 v -1.548695 c 0,-0.325493 -0.223906,-0.608225 -0.540747,-0.682784 z"
         id="path24921" /><path
         style="fill:#d5dcec;stroke-width:0.0253777"
         d="m 37.113381,26.820564 -1.543821,0.90055 -1.558644,-0.991885 c 0.113998,0.759552 0.767344,1.342579 1.558669,1.342579 0.759426,-2.6e-5 1.39318,-0.536611 1.543796,-1.251244 z"
         id="path24923" /><path
         style="fill:#d29b6e;stroke-width:0.0253777"
         d="m 33.991426,26.391249 c 0,0.117703 -0.0591,0.223629 -0.151479,0.287656 2.080307,1.042209 3.307746,-1.018657 3.307746,-1.018657 v -0.218654 h -3.156267 z"
         id="path24925" /><path
         style="fill:#f0c087;stroke-width:0.0253777"
         d="m 33.29004,21.320877 0.152824,3.361698 c 0.01429,0.314073 0.168253,0.605281 0.419746,0.793913 l 0.725039,0.543791 c 0.182109,0.136583 0.403631,0.210433 0.631268,0.210433 h 0.701386 c 0.227639,0 0.44916,-0.07382 0.631269,-0.210433 l 0.725038,-0.543791 c 0.251518,-0.188632 0.405484,-0.47984 0.419747,-0.793913 l 0.152799,-3.361698 z"
         id="path24927" /><path
         style="fill:#e6af78;stroke-width:0.0253777"
         d="m 33.29004,21.320877 0.152773,3.361647 c 0.01429,0.314073 0.168255,0.605281 0.419746,0.793938 l 0.725039,0.543793 c 0.182109,0.136582 0.403631,0.210431 0.631268,0.210431 h 0.350719 c -0.526053,-0.17536 -0.876747,-1.578158 -0.876747,-1.578158 V 22.73875 c 0,-0.131836 0.100546,-0.2402 0.231775,-0.252914 0.982215,-0.09514 2.092079,-0.341786 2.924492,-0.92382 V 21.320902 H 33.29004 Z"
         id="path24929" /><path
         style="fill:#5a4146;stroke-width:0.0253777"
         d="m 32.939321,21.145518 v 0.175359 l 0.17536,1.928827 h 0.350718 l 0.35072,-1.05208 c 0,0 2.279545,0 3.506984,-0.701388 l 0.350718,1.753468 h 0.350719 l 0.175359,-1.928827 v -0.175359 c 0,-0.968436 -0.785082,-1.753467 -1.753467,-1.753467 h -1.753466 c -0.968563,-2.6e-5 -1.753645,0.785056 -1.753645,1.753467 z"
         id="path24931" /><path
         style="fill:#f0c087;stroke-width:0.0253777"
         d="m 38.188785,23.525381 -0.198047,0.792111 c -0.02345,0.09387 -0.107805,0.159677 -0.204544,0.159677 v 0 c -0.106307,0 -0.195993,-0.07915 -0.209189,-0.184674 L 37.47575,23.48234 c -0.02708,-0.216649 0.141835,-0.407971 0.360159,-0.407971 h 6.38e-4 c 0.236189,0 0.409468,0.221903 0.352191,0.451012 z"
         id="path24933" /><path
         style="fill:#e6af78;stroke-width:0.0253777"
         d="m 32.95036,23.525381 0.198047,0.792111 c 0.02345,0.09387 0.107805,0.159677 0.204544,0.159677 v 0 c 0.106307,0 0.195991,-0.07915 0.209188,-0.184674 l 0.101256,-0.810155 c 0.02708,-0.216649 -0.141836,-0.407971 -0.360159,-0.407971 h -6.38e-4 c -0.23619,0 -0.409469,0.221903 -0.352192,0.451012 z"
         id="path24935" /><path
         style="fill:#2a7fff;fill-opacity:1;stroke-width:0.0253776"
         d="m 32.297775,28.511929 -1.136258,-1.020688 c -0.09519,0.120569 -0.151022,0.272251 -0.151022,0.434668 v 1.548694 c 0,0.09684 0.07849,0.17536 0.175359,0.17536 h 1.402799 V 29.16421 c 0,-0.248879 -0.105748,-0.486007 -0.290878,-0.652281 z"
         id="path24937" /><path
         style="fill:#2a7fff;stroke-width:0.0253776"
         d="m 38.841343,28.511929 1.136258,-1.020688 c 0.09522,0.120569 0.151047,0.272251 0.151047,0.434668 v 1.548694 c 0,0.09684 -0.07849,0.17536 -0.175359,0.17536 H 38.55049 V 29.16421 c 0,-0.248879 0.105724,-0.486007 0.290853,-0.652281 z"
         id="path24939" /><path
         style="fill:#2a7fff;fill-opacity:1;stroke-width:0.0253776"
         d="m 35.569559,28.422498 c 0.977444,0 1.785443,-0.731434 1.910199,-1.67538 l -0.06169,-0.01452 c -0.03276,-0.0077 -0.06291,-0.02081 -0.09111,-0.03667 l -0.213781,0.124731 c -0.151073,0.71372 -0.785589,1.251142 -1.543619,1.251142 -0.789878,0 -1.44419,-0.584015 -1.558566,-1.342502 l -0.130315,-0.08291 c -0.0437,0.04116 -0.09798,0.07174 -0.159625,0.08626 l -0.06169,0.01452 c 0.124757,0.94387 0.93278,1.675329 1.910199,1.675329 z"
         id="path24941" /><path
         style="fill:#e4eaf6;stroke-width:0.0253776"
         d="m 33.96681,26.278623 1.602774,1.442489 c 0,0 -0.448879,0.226597 -1.002796,0.683293 -0.11425,0.0942 -0.287097,0.05606 -0.34841,-0.0788 l -0.753004,-1.656625 0.238219,-0.357317 c 0.05931,-0.08895 0.183734,-0.104556 0.263217,-0.03304 z"
         id="path24945" /><path
         style="fill:#e4eaf6;stroke-width:0.0253776"
         d="m 37.172333,26.278623 -1.602774,1.442489 c 0,0 0.448879,0.226597 1.002797,0.683293 0.11425,0.0942 0.287097,0.05606 0.348409,-0.0788 L 37.67377,26.66898 37.43555,26.311663 c -0.05931,-0.08895 -0.183734,-0.104556 -0.263217,-0.03304 z"
         id="path24947" /><path
         style="fill:#e6af78;stroke-width:0.0253777"
         d="m 31.502797,26.391249 v -1.220173 l -3.156291,0.270493 v 0.94968 c 0,0.162722 -0.111967,0.304101 -0.270374,0.341355 l -2.169811,0.510522 c -0.316815,0.07456 -0.540747,0.357291 -0.540747,0.682785 v 1.548669 c 0,0.09684 0.07849,0.175359 0.175359,0.175359 h 8.767436 c 0.09684,0 0.175359,-0.07849 0.175359,-0.175359 v -1.548669 c 0,-0.325494 -0.223906,-0.6082 -0.540772,-0.682759 L 31.773145,26.73263 c -0.158408,-0.03728 -0.270348,-0.178634 -0.270348,-0.341381 z"
         id="path25060"
         sodipodi:nodetypes="sccsccssssssccs" /><path
         style="fill:#ff6464;stroke-width:0.0253777"
         d="M 33.942956,27.243152 31.773145,26.73263 c -0.03276,-0.0077 -0.06291,-0.02081 -0.09111,-0.03667 l -1.7574,1.025155 -1.688881,-1.074743 c -0.0437,0.04116 -0.09798,0.07174 -0.159626,0.08626 l -2.169811,0.510522 c -0.316866,0.07456 -0.540772,0.357291 -0.540772,0.682784 v 1.548695 c 0,0.09682 0.07849,0.175359 0.175359,0.175359 h 8.767436 c 0.09684,0 0.175358,-0.07849 0.175358,-0.175359 v -1.548695 c 0,-0.325493 -0.223906,-0.608225 -0.540746,-0.682784 z"
         id="path25062" /><path
         style="fill:#d5dcec;stroke-width:0.0253777"
         d="m 31.468461,26.820564 -1.543822,0.90055 -1.558643,-0.991885 c 0.113997,0.759552 0.767343,1.342579 1.558668,1.342579 0.759426,-2.6e-5 1.39318,-0.536611 1.543797,-1.251244 z"
         id="path25064" /><path
         style="fill:#d29b6e;stroke-width:0.0273916"
         d="m 28.346506,26.302988 c 0,0.137125 -0.05911,0.26053 -0.15148,0.335122 2.080307,1.214182 3.307746,-1.803228 3.307746,-1.803228 V 24.58015 h -3.156266 z"
         id="path25066"
         sodipodi:nodetypes="sccccs" /><path
         style="fill:#f0c087;stroke-width:0.0253777"
         d="m 27.645119,21.320877 0.681991,2.832532 c 0.01429,0.314073 -0.08314,0.52103 0.168353,0.709661 l 0.976432,0.628043 c 0.191453,0.123143 0.160332,0.06097 0.187247,0.06708 l 0.486473,0.110408 c 0.02022,0.0046 0.132856,0.03292 0.308216,0.03292 0.201679,-0.148439 0.332908,-0.126605 0.705623,-0.688429 0.182719,-0.309683 0.348552,-0.545609 0.362815,-0.859682 l 0.681965,-2.832532 z"
         id="path25068"
         sodipodi:nodetypes="cccsssccccc" /><path
         style="fill:#e6af78;stroke-width:0.0253777"
         d="m 27.645119,21.320877 0.68194,3.361647 c 0.01429,0.314073 -0.08309,-0.0081 0.168404,0.180546 l 0.695048,0.578499 c 0.156001,0.116764 0.684963,0.259951 0.9126,0.259951 h 0.35072 C 29.927778,25.526159 29.577084,24.652528 29.577084,24.652528 L 29.047917,22.73875 c -0.03513,-0.127069 0.100546,-0.2402 0.231775,-0.252914 0.982215,-0.09514 2.092079,-0.341786 2.924491,-0.92382 v -0.241114 h -4.559064 z"
         id="path25070"
         sodipodi:nodetypes="ccccsccsccccc" /><path
         style="fill:#5a4146;stroke-width:0.0253777"
         d="m 27.2944,21.145518 v 0.175359 l -0.246665,4.977811 h 1.616794 l -0.493331,-4.101064 c 0,0 2.279545,0 3.506984,-0.701388 l -0.493334,4.802452 h 1.616795 l -0.246666,-4.977811 v -0.175359 c 0,-0.968436 -0.785081,-1.753467 -1.753465,-1.753467 h -1.753467 c -0.968563,-2.6e-5 -1.753645,0.785056 -1.753645,1.753467 z"
         id="path25072"
         sodipodi:nodetypes="sccccccccsscs" /><path
         style="fill:#d2555a;stroke-width:0.0253776"
         d="m 26.652854,28.51193 -1.136258,-1.020688 c -0.09519,0.120569 -0.151022,0.272251 -0.151022,0.434668 v 1.548694 c 0,0.09684 0.07849,0.17536 0.175359,0.17536 h 1.402799 v -0.485753 c 0,-0.248879 -0.105748,-0.486007 -0.290878,-0.652281 z"
         id="path25078" /><path
         style="fill:#d2555a;stroke-width:0.0253776"
         d="m 33.196422,28.51193 1.136258,-1.020688 c 0.09522,0.120569 0.151047,0.272251 0.151047,0.434668 v 1.548694 c 0,0.09684 -0.07849,0.17536 -0.175359,0.17536 h -1.402799 v -0.485753 c 0,-0.248879 0.105724,-0.486007 0.290853,-0.652281 z"
         id="path25080" /><path
         style="fill:#d2555a;stroke-width:0.0253776"
         d="m 29.924638,28.422499 c 0.977444,0 1.785443,-0.731434 1.910199,-1.67538 l -0.06169,-0.01452 c -0.03276,-0.0077 -0.06291,-0.02081 -0.09111,-0.03667 l -0.213781,0.124731 c -0.151073,0.71372 -0.785589,1.251142 -1.543619,1.251142 -0.789878,0 -1.44419,-0.584015 -1.558566,-1.342502 l -0.130315,-0.08291 c -0.0437,0.04116 -0.09798,0.07174 -0.159625,0.08626 l -0.06169,0.01452 c 0.124757,0.94387 0.93278,1.675329 1.910199,1.675329 z"
         id="path25082" /><path
         style="fill:#e4eaf6;stroke-width:0.0253776"
         d="m 28.321889,26.278623 1.602774,1.442489 c 0,0 -0.448879,0.226597 -1.002796,0.683293 -0.11425,0.0942 -0.287097,0.05606 -0.34841,-0.0788 l -0.753004,-1.656625 0.238219,-0.357317 c 0.05931,-0.08895 0.183734,-0.104556 0.263217,-0.03304 z"
         id="path25086" /><path
         style="fill:#e4eaf6;stroke-width:0.0253776"
         d="m 31.527412,26.278623 -1.602774,1.442489 c 0,0 0.448879,0.226597 1.002797,0.683293 0.11425,0.0942 0.287097,0.05606 0.348409,-0.0788 l 0.753005,-1.656625 -0.23822,-0.357317 c -0.05931,-0.08895 -0.183734,-0.104556 -0.263217,-0.03304 z"
         id="path25088" /></g></g></svg>
