<?xml version="1.0" encoding="UTF-8" standalone="no"?>
<!-- Generator: Adobe Illustrator 19.0.0, SVG Export Plug-In . SVG Version: 6.00 Build 0)  -->

<svg
   version="1.1"
   id="Layer_1"
   x="0px"
   y="0px"
   viewBox="0 0 320 60"
   xml:space="preserve"
   sodipodi:docname="roads_form_icon.svg"
   inkscape:version="1.2.1 (9c6d41e410, 2022-07-14, custom)"
   width="320"
   height="60"
   xmlns:inkscape="http://www.inkscape.org/namespaces/inkscape"
   xmlns:sodipodi="http://sodipodi.sourceforge.net/DTD/sodipodi-0.dtd"
   xmlns="http://www.w3.org/2000/svg"
   xmlns:svg="http://www.w3.org/2000/svg"><defs
   id="defs53">










	
	






		
		
		
	</defs><sodipodi:namedview
   id="namedview51"
   pagecolor="#ffffff"
   bordercolor="#000000"
   borderopacity="0.25"
   inkscape:showpageshadow="false"
   inkscape:pageopacity="0.0"
   inkscape:pagecheckerboard="0"
   inkscape:deskcolor="#d1d1d1"
   showgrid="false"
   inkscape:zoom="17.209211"
   inkscape:cx="60.200318"
   inkscape:cy="33.354231"
   inkscape:window-width="2534"
   inkscape:window-height="1408"
   inkscape:window-x="26"
   inkscape:window-y="0"
   inkscape:window-maximized="1"
   inkscape:current-layer="g15350" />







<g
   id="g20">
</g>
<g
   id="g22">
</g>
<g
   id="g24">
</g>
<g
   id="g26">
</g>
<g
   id="g28">
</g>
<g
   id="g30">
</g>
<g
   id="g32">
</g>
<g
   id="g34">
</g>
<g
   id="g36">
</g>
<g
   id="g38">
</g>
<g
   id="g40">
</g>
<g
   id="g42">
</g>
<g
   id="g44">
</g>
<g
   id="g46">
</g>
<g
   id="g48">
</g>
<g
   id="g15350"
   transform="translate(6.0808083,1)"><circle
     style="fill:#0077b5;fill-opacity:1;stroke-width:0.109375"
     cx="30"
     cy="29"
     r="28"
     id="circle2" /><path
     style="fill:#005f8f;fill-opacity:1;stroke-width:0.109375"
     d="M 57.800717,25.658046 41.658409,11.028267 C 33.764419,23.200918 21.970781,27.067106 7.1415895,24.467402 L 28.196514,56.940499 c 0.596531,0.03795 1.19744,0.0595 1.803485,0.0595 15.463874,0 28,-12.536126 28,-28 0,-1.131156 -0.06902,-2.246014 -0.199282,-3.341953 z"
     id="path4"
     sodipodi:nodetypes="ccccssc" /><polygon
     style="fill:#4d4d4d"
     points="272.322,454.597 10.161,192.435 172.456,30.14 272.322,130.015 272.322,1 501.839,1 501.839,513 272.322,513 "
     id="polygon1890"
     transform="matrix(0.07020208,0,0,0.07020208,6.4282663,10.958064)" /><path
     style="fill:#ffffff;stroke-width:0.0702022"
     d="m 33.602439,18.863451 c -0.342727,0 -0.619741,-0.277018 -0.619741,-0.619744 v -2.390242 c 0,-0.342726 0.277014,-0.619744 0.619741,-0.619744 0.342727,0 0.619745,0.277018 0.619745,0.619744 v 2.390242 c 0,0.342726 -0.277018,0.619744 -0.619745,0.619744 m 0,5.975881 c -0.342727,0 -0.619741,-0.277649 -0.619741,-0.619744 v -2.390872 c 0,-0.342726 0.277014,-0.619744 0.619741,-0.619744 0.342727,0 0.619745,0.277018 0.619745,0.619744 v 2.390872 c 0,0.342165 -0.277018,0.619744 -0.619745,0.619744 m 0,5.975322 c -0.342727,0 -0.619741,-0.277018 -0.619741,-0.619747 v -2.389605 c 0,-0.342729 0.277014,-0.619745 0.619741,-0.619745 0.342727,0 0.619745,0.277016 0.619745,0.619745 v 2.389605 c 0,0.342729 -0.277018,0.619747 -0.619745,0.619747 m 0,5.976514 c -0.342727,0 -0.619741,-0.277651 -0.619741,-0.619745 v -2.390871 c 0,-0.342096 0.277014,-0.619745 0.619741,-0.619745 0.342727,0 0.619745,0.277649 0.619745,0.619745 v 2.390871 c 0,0.342094 -0.277018,0.619745 -0.619745,0.619745 m 0,5.97532 c -0.342727,0 -0.619741,-0.277019 -0.619741,-0.619745 v -2.390242 c 0,-0.342725 0.277014,-0.619743 0.619741,-0.619743 0.342727,0 0.619745,0.277018 0.619745,0.619743 v 2.390242 c 0,0.342726 -0.277018,0.619745 -0.619745,0.619745"
     id="path1892" /><path
     style="fill:#ffffff;stroke-width:0.0702022"
     d="m 17.927999,24.480248 c -0.158656,0 -0.317313,-0.06072 -0.438131,-0.181541 l -1.685622,-1.685621 c -0.241706,-0.241708 -0.241706,-0.633997 0,-0.876264 0.242337,-0.241706 0.634556,-0.241706 0.876262,0 l 1.685622,1.685622 c 0.242338,0.242337 0.242338,0.633996 0,0.876263 -0.12082,0.12082 -0.279474,0.181541 -0.438131,0.181541 m 4.213458,4.213459 c -0.15866,0 -0.317312,-0.06072 -0.43813,-0.18154 l -1.685621,-1.685621 c -0.242339,-0.241704 -0.242339,-0.633993 0,-0.87626 0.242335,-0.24234 0.634555,-0.24234 0.876261,0 l 1.685623,1.685622 c 0.241706,0.241704 0.241706,0.633994 0,0.876259 -0.120821,0.120761 -0.279474,0.18154 -0.438133,0.18154"
     id="path1894" /><path
     style="fill:#ffffff;stroke-width:0.0702022"
     d="m 25.54619,32.098368 c -0.15866,0 -0.317314,-0.06072 -0.438132,-0.18154 l -0.876263,-0.876265 c -0.242337,-0.242335 -0.242337,-0.633995 0,-0.876261 0.242339,-0.242338 0.633995,-0.242338 0.876263,0 l 0.876262,0.876261 c 0.242337,0.242339 0.242337,0.633997 0,0.876265 -0.120881,0.12082 -0.279544,0.18154 -0.43813,0.18154"
     id="path1896" /><g
     id="g2287"
     transform="matrix(1.1591909,0,0,1.1591909,74.000099,3.7329449)"
     style="fill:#0077b5;fill-opacity:1"><path
       d="M -8.5676089e-5,9.9999816 H 19.534184 q 4.213274,0 4.213274,4.1366684 v 7.675819 q -0.01532,4.121348 -4.213274,4.121348 H 9.1925118 V 21.490728 H 15.32091 V 15.66875 q 0,-1.22568 -1.149075,-1.22568 H 8.426462 V 33.594315 H -8.5676089e-5 Z"
       id="path2196"
       style="font-size:31.3774px;font-family:Interceptor;-inkscape-font-specification:Interceptor;letter-spacing:5.04278px;fill:#0077b5;fill-opacity:1;stroke-width:0.840463;stroke-linecap:round;stroke-linejoin:round" /><path
       d="m 37.982836,26.699867 v 1.22568 q 0,1.225679 1.133753,1.225679 h 14.187242 v 4.443089 H 33.769562 q -4.197953,0 -4.213274,-4.121348 V 15.36233 h 19.53427 q 4.213273,0 4.213273,4.136669 v 7.200868 z m 6.894448,-5.668768 q 0,-1.22568 -1.149075,-1.22568 h -5.745373 v 2.451359 h 6.894448 z"
       id="path2193"
       style="font-size:31.3774px;font-family:Interceptor;-inkscape-font-specification:Interceptor;letter-spacing:5.04278px;fill:#0077b5;fill-opacity:1;stroke-width:0.840463;stroke-linecap:round;stroke-linejoin:round" /><path
       d="M 67.539209,33.594315 H 59.112662 V 19.483678 q 0.01532,-4.121348 4.213273,-4.121348 h 11.873772 v 4.443089 h -7.660498 z"
       id="path2190"
       style="font-size:31.3774px;font-family:Interceptor;-inkscape-font-specification:Interceptor;letter-spacing:5.04278px;fill:#0077b5;fill-opacity:1;stroke-width:0.840463;stroke-linecap:round;stroke-linejoin:round" /><path
       d="m 104.75608,29.151226 v 4.443089 H 85.221809 q -4.197952,0 -4.213273,-4.121348 V 15.36233 h 23.747544 v 4.443089 H 89.435083 v 8.120128 q 0,1.225679 1.133754,1.225679 z"
       id="path2187"
       style="font-size:31.3774px;font-family:Interceptor;-inkscape-font-specification:Interceptor;letter-spacing:5.04278px;fill:#0077b5;fill-opacity:1;stroke-width:0.840463;stroke-linecap:round;stroke-linejoin:round" /><path
       d="m 114.77818,33.594315 q -4.19795,0 -4.21327,-4.121348 v -9.973968 q 0,-4.136669 4.21327,-4.15199 h 15.30568 q 4.22859,0.01532 4.22859,4.15199 v 9.958647 q 0,4.136669 -4.21327,4.136669 z m 4.21328,-13.788896 v 8.120128 q 0,1.225679 1.13375,1.225679 h 5.77602 l -0.0153,-8.120127 q 0,-1.210359 -1.16439,-1.22568 z"
       id="path2184"
       style="font-size:31.3774px;font-family:Interceptor;-inkscape-font-specification:Interceptor;letter-spacing:5.04278px;fill:#0077b5;fill-opacity:1;stroke-width:0.840463;stroke-linecap:round;stroke-linejoin:round" /><path
       d="m 148.54783,33.594315 h -8.42655 V 19.483678 q 0.0153,-4.121348 4.21328,-4.121348 h 11.87377 v 4.443089 h -7.6605 z"
       id="path2181"
       style="font-size:31.3774px;font-family:Interceptor;-inkscape-font-specification:Interceptor;letter-spacing:5.04278px;fill:#0077b5;fill-opacity:1;stroke-width:0.840463;stroke-linecap:round;stroke-linejoin:round" /><path
       d="m 166.21511,26.699867 q -4.19795,0 -4.21327,-4.121348 l 0.0153,-3.07952 q 0,-4.136669 4.97932,-4.136669 h 18.76822 v 4.443089 h -15.321 l -0.0153,1.22568 q 0,1.225679 1.13376,1.225679 h 9.97397 q 4.19795,0 4.21327,4.121348 l 0.0153,3.064199 q 0,4.15199 -4.21327,4.15199 h -19.53427 v -4.443089 h 15.32099 l -0.0153,-1.225679 q 0,-1.22568 -1.13375,-1.22568 z"
       id="path2178"
       style="font-size:31.3774px;font-family:Interceptor;-inkscape-font-specification:Interceptor;letter-spacing:5.04278px;fill:#0077b5;fill-opacity:1;stroke-width:0.840463;stroke-linecap:round;stroke-linejoin:round" /><path
       d="M 200.00009,9.9999816 V 14.44307 l -8.41123,-0.01532 -0.0153,-4.4277674 z m 0,5.3623484 v 18.231985 h -8.42655 V 15.36233 Z"
       id="path2175"
       style="font-size:31.3774px;font-family:Interceptor;-inkscape-font-specification:Interceptor;letter-spacing:5.04278px;fill:#0077b5;fill-opacity:1;stroke-width:0.840463;stroke-linecap:round;stroke-linejoin:round" /></g></g></svg>
