<?xml version="1.0" encoding="UTF-8" standalone="no"?>
<!-- Generator: Adobe Illustrator 19.0.0, SVG Export Plug-In . SVG Version: 6.00 Build 0)  -->

<svg
   version="1.1"
   id="Layer_1"
   x="0px"
   y="0px"
   viewBox="0 0 200 230"
   xml:space="preserve"
   sodipodi:docname="roads_logo.svg"
   inkscape:version="1.2.1 (9c6d41e410, 2022-07-14, custom)"
   width="200"
   height="230"
   xmlns:inkscape="http://www.inkscape.org/namespaces/inkscape"
   xmlns:sodipodi="http://sodipodi.sourceforge.net/DTD/sodipodi-0.dtd"
   xmlns="http://www.w3.org/2000/svg"
   xmlns:svg="http://www.w3.org/2000/svg"><defs
   id="defs53">










	
	






		
		
		
	</defs><sodipodi:namedview
   id="namedview51"
   pagecolor="#ffffff"
   bordercolor="#000000"
   borderopacity="0.25"
   inkscape:showpageshadow="false"
   inkscape:pageopacity="0.0"
   inkscape:pagecheckerboard="0"
   inkscape:deskcolor="#d1d1d1"
   showgrid="false"
   inkscape:zoom="2.8367136"
   inkscape:cx="45.122638"
   inkscape:cy="151.23134"
   inkscape:window-width="2534"
   inkscape:window-height="1408"
   inkscape:window-x="26"
   inkscape:window-y="0"
   inkscape:window-maximized="1"
   inkscape:current-layer="Layer_1" />







<g
   id="g20">
</g>
<g
   id="g22">
</g>
<g
   id="g24">
</g>
<g
   id="g26">
</g>
<g
   id="g28">
</g>
<g
   id="g30">
</g>
<g
   id="g32">
</g>
<g
   id="g34">
</g>
<g
   id="g36">
</g>
<g
   id="g38">
</g>
<g
   id="g40">
</g>
<g
   id="g42">
</g>
<g
   id="g44">
</g>
<g
   id="g46">
</g>
<g
   id="g48">
</g>
<circle
   style="fill:#0077b5;fill-opacity:1;stroke-width:0.275171"
   cx="100"
   cy="124.03802"
   r="70.44371"
   id="circle2" /><path
   style="fill:#005f8f;fill-opacity:1;stroke-width:0.275171"
   d="M 169.94235,115.63018 129.33078,78.823898 C 129.12059,111.67948 100.42835,123.14062 42.49174,112.6347 l 52.970965,81.69735 c 1.500782,0.0955 3.012576,0.14969 4.537295,0.14969 38.90474,0 70.44371,-31.53898 70.44371,-70.44371 0,-2.84582 -0.17363,-5.65063 -0.50136,-8.40785 z"
   id="path4"
   sodipodi:nodetypes="ccccssc" /><polygon
   style="fill:#4d4d4d"
   points="10.161,192.435 172.456,30.14 272.322,130.015 272.322,1 501.839,1 501.839,513 272.322,513 272.322,454.597 "
   id="polygon1890"
   transform="matrix(0.17661769,0,0,0.17661769,40.697128,78.64728)" /><path
   style="fill:#ffffff;stroke-width:0.176618"
   d="m 109.06319,98.536023 c -0.86225,0 -1.55918,-0.696935 -1.55918,-1.55918 v -6.013484 c 0,-0.862245 0.69693,-1.55918 1.55918,-1.55918 0.86224,0 1.55918,0.696935 1.55918,1.55918 v 6.013484 c 0,0.862245 -0.69694,1.55918 -1.55918,1.55918 m 0,15.034397 c -0.86225,0 -1.55918,-0.69852 -1.55918,-1.55918 v -6.01507 c 0,-0.86224 0.69693,-1.55918 1.55918,-1.55918 0.86224,0 1.55918,0.69694 1.55918,1.55918 v 6.01507 c 0,0.86084 -0.69694,1.55918 -1.55918,1.55918 m 0,15.033 c -0.86225,0 -1.55918,-0.69693 -1.55918,-1.55919 v -6.01188 c 0,-0.86225 0.69693,-1.55918 1.55918,-1.55918 0.86224,0 1.55918,0.69693 1.55918,1.55918 v 6.01188 c 0,0.86226 -0.69694,1.55919 -1.55918,1.55919 m 0,15.03599 c -0.86225,0 -1.55918,-0.69852 -1.55918,-1.55918 v -6.01507 c 0,-0.86066 0.69693,-1.55918 1.55918,-1.55918 0.86224,0 1.55918,0.69852 1.55918,1.55918 v 6.01507 c 0,0.86066 -0.69694,1.55918 -1.55918,1.55918 m 0,15.03299 c -0.86225,0 -1.55918,-0.69693 -1.55918,-1.55918 v -6.01348 c 0,-0.86225 0.69693,-1.55918 1.55918,-1.55918 0.86224,0 1.55918,0.69693 1.55918,1.55918 v 6.01348 c 0,0.86225 -0.69694,1.55918 -1.55918,1.55918"
   id="path1892" /><path
   style="fill:#ffffff;stroke-width:0.176618"
   d="m 69.628696,112.66702 c -0.399156,0 -0.798312,-0.15277 -1.102271,-0.45672 l -4.240768,-4.24077 c -0.608095,-0.6081 -0.608095,-1.59504 0,-2.20455 0.609685,-0.60809 1.596448,-0.60809 2.204543,0 l 4.240767,4.24077 c 0.609684,0.60969 0.609684,1.59504 0,2.20455 -0.303959,0.30395 -0.703115,0.45672 -1.102271,0.45672 m 10.600417,10.60042 c -0.399156,0 -0.798312,-0.15277 -1.102271,-0.45673 l -4.240767,-4.24077 c -0.609685,-0.60809 -0.609685,-1.59503 0,-2.20454 0.609684,-0.60969 1.596447,-0.60969 2.204542,0 l 4.240767,4.24077 c 0.608095,0.60809 0.608095,1.59503 0,2.20454 -0.303959,0.30379 -0.703115,0.45673 -1.102271,0.45673"
   id="path1894" /><path
   style="fill:#ffffff;stroke-width:0.176618"
   d="m 88.794895,131.83305 c -0.399157,0 -0.798313,-0.15277 -1.102272,-0.45673 l -2.204541,-2.20455 c -0.609685,-0.60968 -0.609685,-1.59503 0,-2.20454 0.609684,-0.60968 1.595034,-0.60968 2.204541,0 l 2.204543,2.20454 c 0.609684,0.60969 0.609684,1.59504 0,2.20455 -0.304136,0.30396 -0.703292,0.45673 -1.102271,0.45673"
   id="path1896" /><g
   id="g2287"
   style="fill:#0077b5;fill-opacity:1"><path
     d="M -8.5676089e-5,9.9999816 H 19.534184 q 4.213274,0 4.213274,4.1366684 v 7.675819 q -0.01532,4.121348 -4.213274,4.121348 H 9.1925118 V 21.490728 H 15.32091 V 15.66875 q 0,-1.22568 -1.149075,-1.22568 H 8.426462 V 33.594315 H -8.5676089e-5 Z"
     id="path2196"
     style="font-size:31.3774px;font-family:Interceptor;-inkscape-font-specification:Interceptor;letter-spacing:5.04278px;fill:#0077b5;stroke-width:0.840463;stroke-linecap:round;stroke-linejoin:round;fill-opacity:1" /><path
     d="m 37.982836,26.699867 v 1.22568 q 0,1.225679 1.133753,1.225679 h 14.187242 v 4.443089 H 33.769562 q -4.197953,0 -4.213274,-4.121348 V 15.36233 h 19.53427 q 4.213273,0 4.213273,4.136669 v 7.200868 z m 6.894448,-5.668768 q 0,-1.22568 -1.149075,-1.22568 h -5.745373 v 2.451359 h 6.894448 z"
     id="path2193"
     style="font-size:31.3774px;font-family:Interceptor;-inkscape-font-specification:Interceptor;letter-spacing:5.04278px;fill:#0077b5;stroke-width:0.840463;stroke-linecap:round;stroke-linejoin:round;fill-opacity:1" /><path
     d="M 67.539209,33.594315 H 59.112662 V 19.483678 q 0.01532,-4.121348 4.213273,-4.121348 h 11.873772 v 4.443089 h -7.660498 z"
     id="path2190"
     style="font-size:31.3774px;font-family:Interceptor;-inkscape-font-specification:Interceptor;letter-spacing:5.04278px;fill:#0077b5;stroke-width:0.840463;stroke-linecap:round;stroke-linejoin:round;fill-opacity:1" /><path
     d="m 104.75608,29.151226 v 4.443089 H 85.221809 q -4.197952,0 -4.213273,-4.121348 V 15.36233 h 23.747544 v 4.443089 H 89.435083 v 8.120128 q 0,1.225679 1.133754,1.225679 z"
     id="path2187"
     style="font-size:31.3774px;font-family:Interceptor;-inkscape-font-specification:Interceptor;letter-spacing:5.04278px;fill:#0077b5;stroke-width:0.840463;stroke-linecap:round;stroke-linejoin:round;fill-opacity:1" /><path
     d="m 114.77818,33.594315 q -4.19795,0 -4.21327,-4.121348 v -9.973968 q 0,-4.136669 4.21327,-4.15199 h 15.30568 q 4.22859,0.01532 4.22859,4.15199 v 9.958647 q 0,4.136669 -4.21327,4.136669 z m 4.21328,-13.788896 v 8.120128 q 0,1.225679 1.13375,1.225679 h 5.77602 l -0.0153,-8.120127 q 0,-1.210359 -1.16439,-1.22568 z"
     id="path2184"
     style="font-size:31.3774px;font-family:Interceptor;-inkscape-font-specification:Interceptor;letter-spacing:5.04278px;fill:#0077b5;stroke-width:0.840463;stroke-linecap:round;stroke-linejoin:round;fill-opacity:1" /><path
     d="m 148.54783,33.594315 h -8.42655 V 19.483678 q 0.0153,-4.121348 4.21328,-4.121348 h 11.87377 v 4.443089 h -7.6605 z"
     id="path2181"
     style="font-size:31.3774px;font-family:Interceptor;-inkscape-font-specification:Interceptor;letter-spacing:5.04278px;fill:#0077b5;stroke-width:0.840463;stroke-linecap:round;stroke-linejoin:round;fill-opacity:1" /><path
     d="m 166.21511,26.699867 q -4.19795,0 -4.21327,-4.121348 l 0.0153,-3.07952 q 0,-4.136669 4.97932,-4.136669 h 18.76822 v 4.443089 h -15.321 l -0.0153,1.22568 q 0,1.225679 1.13376,1.225679 h 9.97397 q 4.19795,0 4.21327,4.121348 l 0.0153,3.064199 q 0,4.15199 -4.21327,4.15199 h -19.53427 v -4.443089 h 15.32099 l -0.0153,-1.225679 q 0,-1.22568 -1.13375,-1.22568 z"
     id="path2178"
     style="font-size:31.3774px;font-family:Interceptor;-inkscape-font-specification:Interceptor;letter-spacing:5.04278px;fill:#0077b5;stroke-width:0.840463;stroke-linecap:round;stroke-linejoin:round;fill-opacity:1" /><path
     d="M 200.00009,9.9999816 V 14.44307 l -8.41123,-0.01532 -0.0153,-4.4277674 z m 0,5.3623484 v 18.231985 h -8.42655 V 15.36233 Z"
     id="path2175"
     style="font-size:31.3774px;font-family:Interceptor;-inkscape-font-specification:Interceptor;letter-spacing:5.04278px;fill:#0077b5;stroke-width:0.840463;stroke-linecap:round;stroke-linejoin:round;fill-opacity:1" /></g></svg>
