<?xml version="1.0" encoding="UTF-8" standalone="no"?>
<!-- Generator: Adobe Illustrator 19.0.0, SVG Export Plug-In . SVG Version: 6.00 Build 0)  -->

<svg
   version="1.1"
   id="Layer_1"
   x="0px"
   y="0px"
   viewBox="0 0 200 160"
   xml:space="preserve"
   sodipodi:docname="roads_logo.svg"
   inkscape:version="1.3 (0e150ed6c4, 2023-07-21)"
   width="200"
   height="160"
   xmlns:inkscape="http://www.inkscape.org/namespaces/inkscape"
   xmlns:sodipodi="http://sodipodi.sourceforge.net/DTD/sodipodi-0.dtd"
   xmlns="http://www.w3.org/2000/svg"
   xmlns:svg="http://www.w3.org/2000/svg"><defs
   id="defs53">&#10;&#10;&#10;&#10;&#10;&#10;&#10;&#10;&#10;&#10;&#10;	&#10;	&#10;&#10;&#10;&#10;&#10;&#10;&#10;		&#10;		&#10;		&#10;	</defs><sodipodi:namedview
   id="namedview51"
   pagecolor="#ffffff"
   bordercolor="#000000"
   borderopacity="0.25"
   inkscape:showpageshadow="false"
   inkscape:pageopacity="0.0"
   inkscape:pagecheckerboard="0"
   inkscape:deskcolor="#d1d1d1"
   showgrid="false"
   inkscape:zoom="2.8367136"
   inkscape:cx="-19.917414"
   inkscape:cy="92.88918"
   inkscape:window-width="2016"
   inkscape:window-height="1108"
   inkscape:window-x="32"
   inkscape:window-y="0"
   inkscape:window-maximized="1"
   inkscape:current-layer="Layer_1" />&#10;&#10;&#10;&#10;&#10;&#10;&#10;&#10;<g
   id="g20">&#10;</g>&#10;<g
   id="g22">&#10;</g>&#10;<g
   id="g24">&#10;</g>&#10;<g
   id="g26">&#10;</g>&#10;<g
   id="g28">&#10;</g>&#10;<g
   id="g30">&#10;</g>&#10;<g
   id="g32">&#10;</g>&#10;<g
   id="g34">&#10;</g>&#10;<g
   id="g36">&#10;</g>&#10;<g
   id="g38">&#10;</g>&#10;<g
   id="g40">&#10;</g>&#10;<g
   id="g42">&#10;</g>&#10;<g
   id="g44">&#10;</g>&#10;<g
   id="g46">&#10;</g>&#10;<g
   id="g48">&#10;</g>&#10;<g
   id="g1"
   transform="translate(38,-14)"><polygon
     style="fill:#666666"
     points="501.839,1 501.839,513 272.322,513 272.322,454.597 10.161,192.435 172.456,30.14 272.322,130.015 272.322,1 "
     id="polygon1890"
     transform="matrix(0.12661446,0,0,0.12661446,57.486697,19.960085)" /><path
     style="fill:#ffffff;stroke-width:0.126615"
     d="m 106.49726,34.218014 c -0.61813,0 -1.11775,-0.499622 -1.11775,-1.117752 v -4.310973 c 0,-0.61813 0.49962,-1.117752 1.11775,-1.117752 0.61813,0 1.11775,0.499622 1.11775,1.117752 v 4.310973 c 0,0.61813 -0.49962,1.117752 -1.11775,1.117752 m 0,10.777924 c -0.61813,0 -1.11775,-0.500758 -1.11775,-1.117752 v -4.312109 c 0,-0.618127 0.49962,-1.117752 1.11775,-1.117752 0.61813,0 1.11775,0.499625 1.11775,1.117752 v 4.312109 c 0,0.617123 -0.49962,1.117752 -1.11775,1.117752 m 0,10.776923 c -0.61813,0 -1.11775,-0.499618 -1.11775,-1.117759 v -4.309823 c 0,-0.618133 0.49962,-1.117752 1.11775,-1.117752 0.61813,0 1.11775,0.499619 1.11775,1.117752 v 4.309823 c 0,0.618141 -0.49962,1.117759 -1.11775,1.117759 m 0,10.779066 c -0.61813,0 -1.11775,-0.500758 -1.11775,-1.117751 v -4.31211 c 0,-0.616994 0.49962,-1.117752 1.11775,-1.117752 0.61813,0 1.11775,0.500758 1.11775,1.117752 v 4.31211 c 0,0.616993 -0.49962,1.117751 -1.11775,1.117751 m 0,10.776916 c -0.61813,0 -1.11775,-0.499618 -1.11775,-1.117752 v -4.31097 c 0,-0.618133 0.49962,-1.117751 1.11775,-1.117751 0.61813,0 1.11775,0.499618 1.11775,1.117751 v 4.31097 c 0,0.618134 -0.49962,1.117752 -1.11775,1.117752"
     id="path1892" /><path
     style="fill:#ffffff;stroke-width:0.126615"
     d="m 78.227287,44.348305 c -0.286149,0 -0.572298,-0.109519 -0.790201,-0.327416 l -3.040141,-3.040141 c -0.435933,-0.435938 -0.435933,-1.14346 0,-1.580408 0.437074,-0.43593 1.144469,-0.43593 1.580403,0 l 3.040139,3.040142 c 0.437073,0.437077 0.437073,1.143459 0,1.580407 -0.217903,0.217897 -0.504052,0.327416 -0.7902,0.327416 m 7.599273,7.599275 c -0.286149,0 -0.572297,-0.109518 -0.790201,-0.327422 l -3.04014,-3.040142 c -0.437073,-0.43593 -0.437073,-1.143452 0,-1.5804 0.437073,-0.437078 1.144468,-0.437078 1.580402,0 l 3.04014,3.040141 c 0.435934,0.435931 0.435934,1.143452 0,1.580401 -0.217904,0.217782 -0.504052,0.327422 -0.790201,0.327422"
     id="path1894" /><path
     style="fill:#ffffff;stroke-width:0.126615"
     d="m 91.967235,58.088132 c -0.286149,0 -0.572298,-0.109518 -0.790201,-0.327422 l -1.580401,-1.580408 c -0.437074,-0.43707 -0.437074,-1.143452 0,-1.5804 0.437073,-0.43707 1.143455,-0.43707 1.580401,0 l 1.580402,1.5804 c 0.437073,0.437077 0.437073,1.14346 0,1.580408 -0.21803,0.217904 -0.504179,0.327422 -0.790201,0.327422"
     id="path1896" /><text
     xml:space="preserve"
     style="font-size:32px;font-family:Anton;-inkscape-font-specification:Anton;letter-spacing:0px;fill:#007567;fill-opacity:1;stroke-width:2.66667"
     x="44.109375"
     y="135.84654"
     id="text1"><tspan
       sodipodi:role="line"
       id="tspan1"
       x="44.109375"
       y="135.84654"
       style="fill:#007567;fill-opacity:1;stroke-width:2.66667">PERCORSI</tspan></text></g></svg>
