<?xml version="1.0" encoding="UTF-8" standalone="no"?>
<!-- Created with Inkscape (http://www.inkscape.org/) -->

<svg
   width="512"
   height="512"
   viewBox="0 0 135.46666 135.46667"
   version="1.1"
   id="svg8"
   inkscape:version="1.2.1 (9c6d41e410, 2022-07-14, custom)"
   sodipodi:docname="secondary_logo.svg"
   xml:space="preserve"
   xmlns:inkscape="http://www.inkscape.org/namespaces/inkscape"
   xmlns:sodipodi="http://sodipodi.sourceforge.net/DTD/sodipodi-0.dtd"
   xmlns="http://www.w3.org/2000/svg"
   xmlns:svg="http://www.w3.org/2000/svg"
   xmlns:rdf="http://www.w3.org/1999/02/22-rdf-syntax-ns#"
   xmlns:cc="http://creativecommons.org/ns#"
   xmlns:dc="http://purl.org/dc/elements/1.1/"><defs
     id="defs2" /><sodipodi:namedview
     id="base"
     pagecolor="#ffffff"
     bordercolor="#666666"
     borderopacity="1.0"
     inkscape:pageopacity="0.0"
     inkscape:pageshadow="2"
     inkscape:zoom="1.5799417"
     inkscape:cx="36.393748"
     inkscape:cy="301.27694"
     inkscape:document-units="px"
     inkscape:current-layer="g1523"
     showgrid="false"
     units="px"
     inkscape:showpageshadow="false"
     inkscape:window-width="2534"
     inkscape:window-height="1408"
     inkscape:window-x="26"
     inkscape:window-y="0"
     inkscape:window-maximized="1"
     inkscape:pagecheckerboard="0"
     inkscape:deskcolor="#d1d1d1" /><metadata
     id="metadata5"><rdf:RDF><cc:Work
         rdf:about=""><dc:format>image/svg+xml</dc:format><dc:type
           rdf:resource="http://purl.org/dc/dcmitype/StillImage" /></cc:Work></rdf:RDF></metadata><g
     inkscape:label="Livello 1"
     inkscape:groupmode="layer"
     id="layer1"
     transform="translate(0,-238.26247)"><g
       id="g1523"
       transform="matrix(1.2513439,0,0,1.2523715,-32.149355,-60.076402)"><g
         id="g33950"
         transform="matrix(0.86598035,0,0,0.86598035,10.720012,37.705239)"><path
           inkscape:connector-curvature="0"
           id="path834"
           d="m 79.988347,259.9643 c -11.796736,0 -21.374314,9.58271 -21.374314,21.37944 0,11.79674 9.577578,21.37432 21.374314,21.37432 11.796731,0 21.374313,-9.57758 21.374313,-21.37432 0,-11.79673 -9.577582,-21.37944 -21.374313,-21.37944 z m 0,1.39507 c 11.042948,0 19.979215,8.94142 19.979211,19.98437 4e-6,11.04296 -8.936263,19.97924 -19.979211,19.97924 -11.042953,0 -19.979218,-8.93628 -19.979218,-19.97924 0,-11.04295 8.936265,-19.98437 19.979218,-19.98437 z"
           style="color:#000000;font-style:normal;font-variant:normal;font-weight:normal;font-stretch:normal;font-size:medium;line-height:normal;font-family:sans-serif;font-variant-ligatures:normal;font-variant-position:normal;font-variant-caps:normal;font-variant-numeric:normal;font-variant-alternates:normal;font-feature-settings:normal;text-indent:0;text-align:start;text-decoration:none;text-decoration-line:none;text-decoration-style:solid;text-decoration-color:#000000;letter-spacing:normal;word-spacing:normal;text-transform:none;writing-mode:lr-tb;direction:ltr;text-orientation:mixed;dominant-baseline:auto;baseline-shift:baseline;text-anchor:start;white-space:normal;shape-padding:0;clip-rule:nonzero;display:inline;overflow:visible;visibility:visible;isolation:auto;mix-blend-mode:normal;color-interpolation:sRGB;color-interpolation-filters:linearRGB;solid-color:#000000;solid-opacity:1;vector-effect:none;fill:#0074c2;fill-opacity:1;fill-rule:nonzero;stroke:none;stroke-width:1.39475;stroke-linecap:round;stroke-linejoin:round;stroke-miterlimit:4;stroke-dasharray:none;stroke-dashoffset:0;stroke-opacity:1;color-rendering:auto;image-rendering:auto;shape-rendering:auto;text-rendering:auto;enable-background:accumulate" /><path
           inkscape:connector-curvature="0"
           id="path1079"
           style="font-style:normal;font-variant:normal;font-weight:normal;font-stretch:normal;font-size:4.69684px;line-height:1.25;font-family:Mandatory;-inkscape-font-specification:Mandatory;letter-spacing:0px;word-spacing:0px;fill:#0074c2;fill-opacity:1;stroke:none;stroke-width:0.321002"
           d="m 73.977676,304.31186 c -0.0893,0.4797 -0.133224,0.7153 -0.133224,0.7153 -0.06434,0.34504 -0.03699,0.62001 0.08146,0.82494 0.104987,0.18497 0.301735,0.34352 0.590583,0.47569 l 1.216869,0.47909 c 0.174231,0.0932 0.243231,0.23688 0.207181,0.43041 l -0.08767,0.47127 c -0.04227,0.22722 -0.180424,0.31468 -0.416133,0.27079 l -0.732118,-0.13646 c -0.26089,-0.0486 -0.372027,-0.1999 -0.32344,-0.46077 l -0.986393,0.0601 c -0.05649,0.30296 -0.0277,0.56951 0.08767,0.79128 0.134497,0.26012 0.364938,0.42496 0.709973,0.48919 l 1.38853,0.25856 c 0.311355,0.058 0.575783,-0.005 0.791675,-0.18338 0.195939,-0.16386 0.325538,-0.39215 0.381944,-0.69511 l 0.164575,-0.88359 c 0.104986,-0.56384 -0.123741,-0.97213 -0.691458,-1.24328 l -1.183189,-0.47283 c -0.192566,-0.0882 -0.266904,-0.24998 -0.224604,-0.47719 l 0.06268,-0.33661 c 0.04392,-0.23564 0.192054,-0.32995 0.436104,-0.2845 l 0.757379,0.14103 c 0.235632,0.0439 0.329927,0.19203 0.282925,0.44449 l 0.986395,-0.0601 c 0.123741,-0.66482 -0.17661,-1.15609 -0.790858,-1.2705 l -1.321204,-0.24603 c -0.698478,-0.13009 -1.119311,0.16607 -1.255653,0.8981 z" /><path
           inkscape:connector-curvature="0"
           id="path1081"
           style="font-style:normal;font-variant:normal;font-weight:normal;font-stretch:normal;font-size:4.69684px;line-height:1.25;font-family:Mandatory;-inkscape-font-specification:Mandatory;letter-spacing:0px;word-spacing:0px;fill:#0074c2;fill-opacity:1;stroke:none;stroke-width:0.321002"
           d="m 68.681847,305.81397 c -0.102423,0.26328 -0.114274,0.50663 -0.05011,0.74287 0.08075,0.2885 0.284586,0.49638 0.603706,0.62047 l 2.249843,0.87477 1.960503,-5.04219 -0.893554,-0.34744 -0.806529,2.07433 -1.316397,-0.51184 c -0.630276,-0.24506 -1.139519,0.0253 -1.350456,0.56783 z m 1.185137,-0.4025 c 0.0758,-0.21852 0.222929,-0.28988 0.430367,-0.20922 l 1.100974,0.42809 -0.459106,1.18076 -1.100976,-0.4281 c -0.199455,-0.0775 -0.262841,-0.22159 -0.179153,-0.43698 z" /><path
           inkscape:connector-curvature="0"
           id="path1083"
           style="font-style:normal;font-variant:normal;font-weight:normal;font-stretch:normal;font-size:4.69684px;line-height:1.25;font-family:Mandatory;-inkscape-font-specification:Mandatory;letter-spacing:0px;word-spacing:0px;fill:#0074c2;fill-opacity:1;stroke:none;stroke-width:0.321002"
           d="m 64.868257,304.86756 0.776842,0.4852 3.925874,-3.92638 -0.842179,-0.52604 -0.654916,0.66077 -0.87123,-0.54416 0.306435,-0.87841 -0.842195,-0.52603 z m 2.508968,-2.61123 -0.922495,0.92761 0.428797,-1.23596 z" /><path
           inkscape:connector-curvature="0"
           id="path1085"
           style="font-style:normal;font-variant:normal;font-weight:normal;font-stretch:normal;font-size:4.69684px;line-height:1.25;font-family:Mandatory;-inkscape-font-specification:Mandatory;letter-spacing:0px;word-spacing:0px;fill:#0074c2;fill-opacity:1;stroke:none;stroke-width:0.321002"
           d="m 63.335629,298.46604 c 0.174029,-0.18884 0.349175,-0.20206 0.525422,-0.0397 l 0.579083,0.5337 c 0.176241,0.16241 0.188956,0.32547 0.04392,0.48283 l -1.914388,2.07719 c -0.156631,0.16993 -0.320168,0.17067 -0.496413,0.008 l -0.54762,-0.50467 c -0.195128,-0.17989 -0.208822,-0.36706 -0.02897,-0.5622 l -0.867412,-0.47348 c -0.44669,0.48466 -0.483487,1.06772 -0.0052,1.5086 l 1.038591,0.95719 c 0.453201,0.41769 1.043418,0.33304 1.466902,-0.1265 l 2.192847,-2.37932 c 0.203027,-0.2203 0.314618,-0.45505 0.334739,-0.70425 0.02442,-0.29178 -0.09532,-0.55343 -0.340752,-0.77969 l -1.032288,-0.95137 c -0.459504,-0.42348 -1.032816,-0.36981 -1.491108,0.12731 z" /><path
           inkscape:connector-curvature="0"
           id="path1087"
           style="font-style:normal;font-variant:normal;font-weight:normal;font-stretch:normal;font-size:4.69684px;line-height:1.25;font-family:Mandatory;-inkscape-font-specification:Mandatory;letter-spacing:0px;word-spacing:0px;fill:#0074c2;fill-opacity:1;stroke:none;stroke-width:0.321002"
           d="m 60.214339,294.08829 1.473602,1.97641 -1.015646,0.75725 -0.900536,-1.20778 -0.768594,0.57306 0.900534,1.20779 -1.015645,0.75726 -1.473603,-1.97639 -0.768595,0.57307 2.046669,2.74498 4.337079,-3.23371 -2.046669,-2.74501 z" /><path
           inkscape:connector-curvature="0"
           id="path1089"
           style="font-style:normal;font-variant:normal;font-weight:normal;font-stretch:normal;font-size:4.69684px;line-height:1.25;font-family:Mandatory;-inkscape-font-specification:Mandatory;letter-spacing:0px;word-spacing:0px;fill:#0074c2;fill-opacity:1;stroke:none;stroke-width:0.321002"
           d="m 57.239417,288.43525 c 0.243093,-0.0827 0.403269,-0.0114 0.480531,0.21616 l 0.253854,0.7455 c 0.07727,0.22687 0.01045,0.3762 -0.192026,0.44516 l -2.674018,0.91057 c -0.218783,0.0744 -0.362754,-0.003 -0.440014,-0.22995 l -0.24006,-0.70497 c -0.08555,-0.2512 -0.0082,-0.42223 0.243056,-0.50778 l -0.535929,-0.83027 c -0.623937,0.21247 -0.93475,0.70714 -0.725045,1.32297 l 0.455285,1.33701 c 0.198671,0.58341 0.757647,0.79095 1.349171,0.58952 l 3.062967,-1.04301 c 0.283608,-0.0966 0.493764,-0.24952 0.630466,-0.45883 0.160826,-0.24467 0.180647,-0.53175 0.07303,-0.84777 l -0.452525,-1.32892 c -0.201431,-0.59151 -0.730753,-0.81818 -1.370898,-0.60019 z" /><path
           inkscape:connector-curvature="0"
           id="path1091"
           style="font-style:normal;font-variant:normal;font-weight:normal;font-stretch:normal;font-size:4.69684px;line-height:1.25;font-family:Mandatory;-inkscape-font-specification:Mandatory;letter-spacing:0px;word-spacing:0px;fill:#0074c2;fill-opacity:1;stroke:none;stroke-width:0.321002"
           d="m 53.274078,283.5637 c -0.635693,0.0899 -1.033444,0.51769 -0.946063,1.13642 l 0.201094,1.42396 c 0.08738,0.61876 0.59655,0.91857 1.215293,0.83119 l 3.203892,-0.45247 c 0.61874,-0.0875 1.024968,-0.51648 0.937587,-1.13523 l -0.201095,-1.42395 c -0.08737,-0.61873 -0.588075,-0.91975 -1.223766,-0.82998 z m 3.134533,0.52557 c 0.211899,-0.0299 0.337646,0.0646 0.369966,0.29356 l 0.113703,0.80521 c 0.0323,0.22884 -0.06111,0.36307 -0.273007,0.39299 l -2.814002,0.39739 c -0.211895,0.0299 -0.338842,-0.0731 -0.371159,-0.30201 l -0.113719,-0.80521 c -0.0323,-0.22884 0.06232,-0.35461 0.274205,-0.38453 z" /><path
           inkscape:connector-curvature="0"
           id="path1093"
           style="font-style:normal;font-variant:normal;font-weight:normal;font-stretch:normal;font-size:4.69684px;line-height:1.25;font-family:Mandatory;-inkscape-font-specification:Mandatory;letter-spacing:0px;word-spacing:0px;fill:#0074c2;fill-opacity:1;stroke:none;stroke-width:0.321002"
           d="m 52.265237,278.52684 -0.04422,0.95769 3.12108,0.14413 -3.192927,1.41217 -0.04183,0.90641 5.40417,0.24949 0.04422,-0.95773 -3.129629,-0.14445 3.201873,-1.42035 0.04146,-0.89786 z" /><path
           inkscape:connector-curvature="0"
           id="path1095"
           style="font-style:normal;font-variant:normal;font-weight:normal;font-stretch:normal;font-size:4.69684px;line-height:1.25;font-family:Mandatory;-inkscape-font-specification:Mandatory;letter-spacing:0px;word-spacing:0px;fill:#0074c2;fill-opacity:1;stroke:none;stroke-width:0.321002"
           d="m 53.292095,273.44613 -0.784401,3.33294 5.26605,1.23936 0.219632,-0.93323 -2.166412,-0.50985 0.345136,-1.46649 -0.933223,-0.21966 -0.345138,1.4665 -1.233188,-0.29021 0.564767,-2.39974 z" /><path
           inkscape:connector-curvature="0"
           id="path1097"
           style="font-style:normal;font-variant:normal;font-weight:normal;font-stretch:normal;font-size:4.69684px;line-height:1.25;font-family:Mandatory;-inkscape-font-specification:Mandatory;letter-spacing:0px;word-spacing:0px;fill:#0074c2;fill-opacity:1;stroke:none;stroke-width:0.321002"
           d="m 59.317613,270.44276 -1.002388,2.25228 -1.157429,-0.51511 0.612571,-1.37639 -0.875895,-0.38985 -0.612569,1.37643 -1.15743,-0.51513 1.002389,-2.25229 -0.875893,-0.38983 -1.392205,3.12821 4.942534,2.19967 1.392208,-3.12818 z" /><path
           inkscape:connector-curvature="0"
           id="path1099"
           style="font-style:normal;font-variant:normal;font-weight:normal;font-stretch:normal;font-size:4.69684px;line-height:1.25;font-family:Mandatory;-inkscape-font-specification:Mandatory;letter-spacing:0px;word-spacing:0px;fill:#0074c2;fill-opacity:1;stroke:none;stroke-width:0.321002"
           d="m 58.97431,264.89427 c -0.527599,-0.36579 -1.110157,-0.3218 -1.466197,0.19174 l -1.385145,1.99782 0.787877,0.54625 0.136554,-0.19698 2.87013,1.98993 -0.136554,0.19698 0.787877,0.54625 1.385148,-1.99783 c 0.356039,-0.51354 0.192927,-1.07453 -0.33467,-1.44031 z m 1.944001,2.51441 c 0.175871,0.12193 0.203912,0.2768 0.07223,0.46673 l -0.526746,0.75975 -2.870126,-1.98993 0.526745,-0.75973 c 0.131674,-0.18995 0.28654,-0.218 0.462407,-0.096 z" /><path
           inkscape:connector-curvature="0"
           id="path1101"
           style="font-style:normal;font-variant:normal;font-weight:normal;font-stretch:normal;font-size:4.69684px;line-height:1.25;font-family:Mandatory;-inkscape-font-specification:Mandatory;letter-spacing:0px;word-spacing:0px;fill:#0074c2;fill-opacity:1;stroke:none;stroke-width:0.321002"
           d="m 64.776879,263.68072 -1.755263,1.73108 -0.889587,-0.90201 1.072661,-1.05788 -0.673199,-0.68262 -1.072661,1.05791 -0.889589,-0.90202 1.755265,-1.73108 -0.673199,-0.68261 -2.437869,2.40428 3.798774,3.85186 2.437863,-2.40432 z" /><path
           inkscape:connector-curvature="0"
           id="path1103"
           style="font-style:normal;font-variant:normal;font-weight:normal;font-stretch:normal;font-size:4.69684px;line-height:1.25;font-family:Mandatory;-inkscape-font-specification:Mandatory;letter-spacing:0px;word-spacing:0px;fill:#0074c2;fill-opacity:1;stroke:none;stroke-width:0.321002"
           d="m 66.931732,260.57445 c 0.158377,-0.14805 0.266635,-0.32421 0.310756,-0.51914 0.06287,-0.2591 0.0018,-0.51757 -0.170046,-0.7731 l -0.612399,-0.90857 c -0.162752,-0.24133 -0.360527,-0.39701 -0.598326,-0.47416 -0.278242,-0.0911 -0.56527,-0.0423 -0.849197,0.14919 l -1.994572,1.34441 3.023723,4.48602 0.794992,-0.53585 -1.243949,-1.84552 0.511067,-0.34447 1.925365,1.38622 0.851784,-0.57414 z m -0.821802,-1.00481 c 0.129225,0.19164 0.103876,0.35322 -0.07363,0.47281 l -0.979541,0.66025 -0.708098,-1.05054 0.979541,-0.66024 c 0.177512,-0.11965 0.331933,-0.0896 0.461111,0.10218 z" /><path
           inkscape:connector-curvature="0"
           id="path1105"
           style="font-style:normal;font-variant:normal;font-weight:normal;font-stretch:normal;font-size:4.69684px;line-height:1.25;font-family:Mandatory;-inkscape-font-specification:Mandatory;letter-spacing:0px;word-spacing:0px;fill:#0074c2;fill-opacity:1;stroke:none;stroke-width:0.321002"
           d="m 69.398327,255.77265 -0.841084,0.36262 0.994138,5.46268 0.911834,-0.39313 -0.170581,-0.91455 0.943272,-0.40665 0.547883,0.75188 0.911816,-0.39312 z m 0.719143,3.54915 -0.237693,-1.28646 0.772215,1.05598 z" /><path
           inkscape:connector-curvature="0"
           id="path1107"
           style="font-style:normal;font-variant:normal;font-weight:normal;font-stretch:normal;font-size:4.69684px;line-height:1.25;font-family:Mandatory;-inkscape-font-specification:Mandatory;letter-spacing:0px;word-spacing:0px;fill:#0074c2;fill-opacity:1;stroke:none;stroke-width:0.321002"
           d="m 75.584924,253.97973 -3.34165,0.74646 0.209005,0.93568 1.202998,-0.26874 0.970393,4.34414 0.935671,-0.20901 -0.970409,-4.34414 1.202998,-0.26873 z" /><path
           inkscape:connector-curvature="0"
           id="path1109"
           style="font-style:normal;font-variant:normal;font-weight:normal;font-stretch:normal;font-size:4.69684px;line-height:1.25;font-family:Mandatory;-inkscape-font-specification:Mandatory;letter-spacing:0px;word-spacing:0px;fill:#0074c2;fill-opacity:1;stroke:none;stroke-width:0.321002"
           d="m 78.007033,253.75083 -0.95503,0.0841 0.474326,5.38908 0.955026,-0.0841 z" /><path
           inkscape:connector-curvature="0"
           id="path1111"
           style="font-style:normal;font-variant:normal;font-weight:normal;font-stretch:normal;font-size:4.69684px;line-height:1.25;font-family:Mandatory;-inkscape-font-specification:Mandatory;letter-spacing:0px;word-spacing:0px;fill:#0074c2;fill-opacity:1;stroke:none;stroke-width:0.321002"
           d="m 82.834024,254.87981 c 0.02752,-0.64143 -0.320888,-1.11044 -0.945205,-1.13718 l -1.436753,-0.0614 c -0.624318,-0.0268 -1.011837,0.41936 -1.038552,1.04368 l -0.138333,3.23272 c -0.0268,0.62429 0.321253,1.10187 0.945571,1.12857 l 1.436752,0.0614 c 0.624315,0.0268 1.011454,-0.41082 1.038918,-1.05223 z m -1.087451,2.98646 c -0.009,0.21377 -0.125014,0.3202 -0.355991,0.31032 l -0.812452,-0.0348 c -0.230913,-0.01 -0.345876,-0.12601 -0.336727,-0.33999 l 0.121554,-2.83933 c 0.009,-0.21381 0.133583,-0.31984 0.364537,-0.30998 l 0.812474,0.0348 c 0.23089,0.01 0.337325,0.12568 0.328159,0.33962 z" /><path
           inkscape:connector-curvature="0"
           id="path1113"
           style="font-style:normal;font-variant:normal;font-weight:normal;font-stretch:normal;font-size:4.69684px;line-height:1.25;font-family:Mandatory;-inkscape-font-specification:Mandatory;letter-spacing:0px;word-spacing:0px;fill:#0074c2;fill-opacity:1;stroke:none;stroke-width:0.321002"
           d="m 87.962712,254.79264 -0.934051,-0.21607 -0.704141,3.04404 -0.813713,-3.39513 -0.884024,-0.20452 -1.219199,5.27077 0.934052,0.21606 0.706072,-3.05236 0.820108,3.4054 0.875678,0.20256 z" /><path
           inkscape:connector-curvature="0"
           id="path1115"
           style="font-style:normal;font-variant:normal;font-weight:normal;font-stretch:normal;font-size:4.69684px;line-height:1.25;font-family:Mandatory;-inkscape-font-specification:Mandatory;letter-spacing:0px;word-spacing:0px;fill:#0074c2;fill-opacity:1;stroke:none;stroke-width:0.321002"
           d="m 95.233518,259.47604 c 0.330765,-0.55024 0.249026,-1.12871 -0.286552,-1.45066 l -1.232524,-0.74088 c -0.535578,-0.32194 -1.089182,-0.1154 -1.411127,0.42016 l -1.667008,2.77321 c -0.321947,0.53559 -0.244617,1.12139 0.290944,1.4433 l 1.23254,0.74091 c 0.53558,0.32195 1.084774,0.12275 1.41554,-0.4275 z m -2.382871,2.10321 c -0.110258,0.18338 -0.26295,0.22144 -0.461037,0.1025 l -0.696963,-0.41895 c -0.198086,-0.11899 -0.243466,-0.27619 -0.133224,-0.45959 l 1.464143,-2.43573 c 0.110259,-0.1834 0.270295,-0.21707 0.468384,-0.0981 l 0.69698,0.41895 c 0.198088,0.11915 0.236123,0.27176 0.125944,0.45518 z" /><path
           inkscape:connector-curvature="0"
           id="path1117"
           style="font-style:normal;font-variant:normal;font-weight:normal;font-stretch:normal;font-size:4.69684px;line-height:1.25;font-family:Mandatory;-inkscape-font-specification:Mandatory;letter-spacing:0px;word-spacing:0px;fill:#0074c2;fill-opacity:1;stroke:none;stroke-width:0.321002"
           d="m 99.781519,261.86507 -2.556754,-2.27746 -3.598386,4.03967 0.715897,0.6377 1.480349,-1.66192 1.124956,1.0021 0.637695,-0.71587 -1.124977,-1.0021 0.842671,-0.94601 1.840857,1.63978 z" /><path
           inkscape:connector-curvature="0"
           id="path1119"
           style="font-style:normal;font-variant:normal;font-weight:normal;font-stretch:normal;font-size:4.69684px;line-height:1.25;font-family:Mandatory;-inkscape-font-specification:Mandatory;letter-spacing:0px;word-spacing:0px;fill:#0074c2;fill-opacity:1;stroke:none;stroke-width:0.321002"
           d="m 101.78059,270.70335 c 0.33195,-0.19543 0.52933,-0.45072 0.58477,-0.76148 0.27651,0.1154 0.58812,0.071 0.92743,-0.12878 l 0.6344,-0.37346 c 0.55324,-0.3257 0.75747,-0.87308 0.44046,-1.41157 l -1.23333,-2.09496 -0.82619,0.48639 0.12155,0.20654 -3.009659,1.77183 -0.121553,-0.20656 -0.826179,0.48639 1.233326,2.09496 c 0.317005,0.5385 0.894705,0.62553 1.447965,0.29983 z m 0.95944,-1.67737 c -0.18442,0.10855 -0.33677,0.0691 -0.44533,-0.1154 l -0.4777,-0.81142 1.09173,-0.64272 0.46901,0.79665 c 0.11718,0.19917 0.0778,0.35156 -0.10662,0.46012 z m -1.91793,1.12911 c -0.18442,0.10855 -0.33677,0.0691 -0.45403,-0.13009 l -0.468999,-0.79667 1.091729,-0.64271 0.4777,0.81144 c 0.10861,0.18441 0.0691,0.33675 -0.11537,0.44531 z" /><path
           inkscape:connector-curvature="0"
           id="path1121"
           style="font-style:normal;font-variant:normal;font-weight:normal;font-stretch:normal;font-size:4.69684px;line-height:1.25;font-family:Mandatory;-inkscape-font-specification:Mandatory;letter-spacing:0px;word-spacing:0px;fill:#0074c2;fill-opacity:1;stroke:none;stroke-width:0.321002"
           d="m 106.77725,273.71498 -0.32453,-0.90211 -3.88235,1.39662 c -0.20137,0.0725 -0.34374,0.005 -0.42198,-0.21208 l -0.27527,-0.7652 c -0.0782,-0.21747 -0.0145,-0.36791 0.18728,-0.44033 l 3.88235,-1.39662 -0.32452,-0.90215 -4.06763,1.46327 c -0.61214,0.22022 -0.89255,0.73045 -0.68682,1.30234 l 0.48679,1.3532 c 0.20574,0.57187 0.74692,0.78655 1.36713,0.56343 z" /><path
           inkscape:connector-curvature="0"
           id="path1123"
           style="font-style:normal;font-variant:normal;font-weight:normal;font-stretch:normal;font-size:4.69684px;line-height:1.25;font-family:Mandatory;-inkscape-font-specification:Mandatory;letter-spacing:0px;word-spacing:0px;fill:#0074c2;fill-opacity:1;stroke:none;stroke-width:0.321002"
           d="m 104.49765,278.48842 c 0.0674,0.20599 0.18153,0.37855 0.33951,0.5008 0.20841,0.16626 0.46833,0.22034 0.77269,0.17198 l 1.08213,-0.1718 c 0.28744,-0.0455 0.51207,-0.15931 0.68236,-0.34233 0.20008,-0.21378 0.27684,-0.49462 0.22315,-0.83281 l -0.37711,-2.37561 -5.34302,0.84817 0.15037,0.94687 2.19808,-0.34894 0.0966,0.60869 -2.06925,1.16055 0.1611,1.01449 z m 1.25778,-0.32104 c -0.22827,0.0364 -0.36406,-0.0548 -0.39761,-0.26622 l -0.18521,-1.16666 1.25121,-0.19863 0.1852,1.16668 c 0.0335,0.21136 -0.0589,0.33871 -0.28715,0.37495 z" /><path
           inkscape:connector-curvature="0"
           id="path1125"
           style="font-style:normal;font-variant:normal;font-weight:normal;font-stretch:normal;font-size:4.69684px;line-height:1.25;font-family:Mandatory;-inkscape-font-specification:Mandatory;letter-spacing:0px;word-spacing:0px;fill:#0074c2;fill-opacity:1;stroke:none;stroke-width:0.321002"
           d="m 103.31982,283.88199 0.0722,-2.46424 1.26635,0.0372 -0.0441,1.50591 0.95833,0.0281 0.0441,-1.50591 1.26633,0.0372 -0.0722,2.46422 0.95831,0.0281 0.10025,-3.42253 -5.4076,-0.15833 -0.10024,3.42254 z" /><path
           inkscape:connector-curvature="0"
           id="path1127"
           style="font-style:normal;font-variant:normal;font-weight:normal;font-stretch:normal;font-size:4.69684px;line-height:1.25;font-family:Mandatory;-inkscape-font-specification:Mandatory;letter-spacing:0px;word-spacing:0px;fill:#0074c2;fill-opacity:1;stroke:none;stroke-width:0.321002"
           d="m 107.09579,287.87932 0.19463,-0.89501 -5.02078,-2.37086 -0.21101,0.97031 0.84298,0.39357 -0.21828,1.0037 -0.9303,0.008 -0.21101,0.97028 z m -3.30465,-1.48081 1.18446,0.55543 -1.30816,0.0131 z" /><path
           inkscape:connector-curvature="0"
           id="path1129"
           style="font-style:normal;font-variant:normal;font-weight:normal;font-stretch:normal;font-size:4.69684px;line-height:1.25;font-family:Mandatory;-inkscape-font-specification:Mandatory;letter-spacing:0px;word-spacing:0px;fill:#0074c2;fill-opacity:1;stroke:none;stroke-width:0.321002"
           d="m 104.95255,293.95454 0.37474,-0.88244 -3.79768,-1.61273 c -0.19698,-0.0837 -0.2559,-0.22956 -0.16548,-0.44229 l 0.31786,-0.74852 c 0.0904,-0.21273 0.23961,-0.27954 0.43659,-0.19588 l 3.79767,1.61271 0.37475,-0.88243 -3.97891,-1.68969 c -0.5988,-0.25429 -1.15118,-0.0704 -1.38875,0.48904 l -0.56211,1.32367 c -0.23757,0.55939 0.0145,1.08459 0.62038,1.34224 z" /><path
           inkscape:connector-curvature="0"
           id="path1131"
           style="font-style:normal;font-variant:normal;font-weight:normal;font-stretch:normal;font-size:4.69684px;line-height:1.25;font-family:Mandatory;-inkscape-font-specification:Mandatory;letter-spacing:0px;word-spacing:0px;fill:#0074c2;fill-opacity:1;stroke:none;stroke-width:0.321002"
           d="m 99.356711,295.30885 c -0.213505,-0.14265 -0.253673,-0.31368 -0.12046,-0.51295 l 0.437621,-0.65476 c 0.133225,-0.19925 0.292292,-0.23705 0.470208,-0.11817 l 2.34853,1.56968 c 0.19215,0.12846 0.21808,0.28989 0.0849,0.48917 l -0.41384,0.61916 c -0.14742,0.22062 -0.33031,0.26314 -0.55092,0.11573 l -0.33348,0.93027 c 0.54799,0.36624 1.12971,0.31233 1.49122,-0.22853 l 0.78485,-1.17426 c 0.34248,-0.51241 0.16748,-1.08241 -0.35206,-1.42965 l -2.69014,-1.79801 c -0.24908,-0.16644 -0.49827,-0.24037 -0.747593,-0.22168 -0.292036,0.0211 -0.532006,0.17989 -0.717518,0.45736 l -0.780086,1.16716 c -0.347242,0.51951 -0.205452,1.07761 0.356774,1.45339 z" /><path
           inkscape:connector-curvature="0"
           id="path1133"
           style="font-style:normal;font-variant:normal;font-weight:normal;font-stretch:normal;font-size:4.69684px;line-height:1.25;font-family:Mandatory;-inkscape-font-specification:Mandatory;letter-spacing:0px;word-spacing:0px;fill:#0074c2;fill-opacity:1;stroke:none;stroke-width:0.321002"
           d="m 97.016125,299.36826 c -0.12539,0.17676 -0.196045,0.37121 -0.200109,0.57098 -0.009,0.26645 0.101868,0.50745 0.322,0.72318 l 0.782454,0.76698 c 0.207857,0.20374 0.432954,0.31648 0.681397,0.34426 0.290892,0.0333 0.562224,-0.0723 0.801902,-0.31671 l 1.683771,-1.71776 -3.863431,-3.78698 -0.671118,0.68466 1.589386,1.55792 -0.431421,0.44015 -2.164626,-0.97111 -0.719049,0.7336 z m 1.006953,0.8192 c -0.165127,-0.16176 -0.172776,-0.32513 -0.02297,-0.47796 l 0.826888,-0.84358 0.904727,0.8868 -0.826888,0.8436 c -0.149808,0.15278 -0.307183,0.15441 -0.472228,-0.008 z" /><path
           inkscape:connector-curvature="0"
           id="path1135"
           style="font-style:normal;font-variant:normal;font-weight:normal;font-stretch:normal;font-size:4.69684px;line-height:1.25;font-family:Mandatory;-inkscape-font-specification:Mandatory;letter-spacing:0px;word-spacing:0px;fill:#0074c2;fill-opacity:1;stroke:none;stroke-width:0.321002"
           d="m 95.568111,304.56649 0.750726,-0.52472 -2.074829,-5.15017 -0.813877,0.56883 0.351415,0.86141 -0.841941,0.58846 -0.688194,-0.62602 -0.813878,0.56884 z m -1.419767,-3.33134 0.492112,1.21216 -0.969206,-0.87869 z" /><path
           inkscape:connector-curvature="0"
           id="path1137"
           style="font-style:normal;font-variant:normal;font-weight:normal;font-stretch:normal;font-size:4.69684px;line-height:1.25;font-family:Mandatory;-inkscape-font-specification:Mandatory;letter-spacing:0px;word-spacing:0px;fill:#0074c2;fill-opacity:1;stroke:none;stroke-width:0.321002"
           d="m 89.079434,303.47104 c -0.105705,-0.23407 -0.04921,-0.40041 0.169125,-0.49903 l 0.717776,-0.32403 c 0.218444,-0.0986 0.373467,-0.0465 0.461511,0.14853 l 1.16234,2.57458 c 0.09513,0.21066 0.03171,0.36138 -0.18679,0.45999 l -0.678753,0.30643 c -0.241848,0.10904 -0.419523,0.0485 -0.528709,-0.19332 l -0.775167,0.61294 c 0.271208,0.60074 0.793355,0.86279 1.386288,0.59509 l 1.287307,-0.58118 c 0.561713,-0.25359 0.714805,-0.82987 0.457685,-1.39939 l -1.331412,-2.94907 c -0.123186,-0.27306 -0.295627,-0.46761 -0.517079,-0.58365 -0.258942,-0.13678 -0.546587,-0.12878 -0.850853,0.01 l -1.27949,0.57767 c -0.569532,0.25713 -0.744493,0.80569 -0.466233,1.42205 z" /><path
           inkscape:connector-curvature="0"
           id="path1139"
           style="font-style:normal;font-variant:normal;font-weight:normal;font-stretch:normal;font-size:4.69684px;line-height:1.25;font-family:Mandatory;-inkscape-font-specification:Mandatory;letter-spacing:0px;word-spacing:0px;fill:#0074c2;fill-opacity:1;stroke:none;stroke-width:0.321002"
           d="m 84.870836,308.95187 0.931937,-0.22499 -0.08236,-0.34115 c -0.01453,-0.0583 -0.01986,-0.1185 -0.009,-0.18285 l 0.321307,-1.73307 1.064287,1.38096 c 0.03899,0.0524 0.0718,0.11491 0.08785,0.18136 l 0.08236,0.34114 0.931957,-0.22499 -0.108431,-0.44934 c -0.03207,-0.13319 -0.09751,-0.25822 -0.189961,-0.38562 l -1.701306,-2.19582 -0.468054,-1.9388 -0.931937,0.22501 0.468054,1.93877 -0.509771,2.70322 c -0.02843,0.17417 -0.02752,0.32366 0.0055,0.4568 z" /><g
           id="g31226"
           transform="matrix(0.95178646,0,0,0.95178646,72.242515,-17.893497)"><path
             id="path31214"
             style="fill:#de6400;fill-opacity:1;stroke-width:0.341035;stroke-linecap:round;stroke-linejoin:round;paint-order:stroke markers fill"
             d="m 21.485818,314.39267 c 0,8.29638 -5.155761,13.53806 -13.34761,13.53806 v -13.53806 z"
             sodipodi:nodetypes="cccc" /><path
             id="path31216"
             style="fill:#de6400;fill-opacity:1;stroke-width:0.341035;stroke-linecap:round;stroke-linejoin:round;paint-order:stroke markers fill"
             d="m -5.2094099,314.39267 c 0,-8.29636 5.15575306,-13.53806 13.3476179,-13.53806 v 13.53806 z"
             sodipodi:nodetypes="cccc" /><path
             id="path31218"
             style="fill:#f7903e;fill-opacity:1;stroke-width:0.341035;stroke-linecap:round;stroke-linejoin:round;paint-order:stroke markers fill"
             d="m -6.6944613,314.39267 a 14.832664,15.021891 0 0 0 14.8326693,15.0219 v -15.0219 z" /><path
             id="path31220"
             style="fill:#f7903e;fill-opacity:1;stroke-width:0.341035;stroke-linecap:round;stroke-linejoin:round;paint-order:stroke markers fill"
             d="M 22.970869,314.39267 A 14.832664,15.021891 0 0 0 8.138208,299.37078 v 15.02189 z" /></g></g><g
         id="g32718"
         transform="matrix(0.72149238,0,0,0.72149238,122.37268,102.20314)"
         style="fill:#0074c2;fill-opacity:1"><g
           id="g25621"
           style="fill:#0074c2;fill-opacity:1"
           transform="matrix(0.79914084,0,0,0.79848512,-130.12912,277.83934)"><path
             d="m 33.55991,16.00256 v 3.62511 H 28.28886 V 35.2532 H 21.43849 V 19.62767 h -6.22761 v -3.62511 z"
             style="font-size:14.1111px;line-height:1.25;font-family:Interceptor;-inkscape-font-specification:Interceptor;fill:#0074c2;fill-opacity:1;stroke-width:0.479147"
             id="path4862"
             sodipodi:nodetypes="ccccccccc" /><path
             d="m 48.55099,25.37787 v -4.75016 c 0,-0.66668 -0.31137,-1.00004 -0.93413,-1.00004 H 42.94615 V 35.2532 H 36.09578 V 16.00256 h 15.88041 c 2.28344,0 3.42517,1.12503 3.42517,3.37511 v 6.26271 c -0.009,2.24174 -1.15003,3.36261 -3.42517,3.36261 h 0.26156 l 3.32554,6.25021 h -6.9002 l -3.32555,-6.25021 h -0.81206 v -3.62512 z"
             style="font-size:14.1111px;line-height:1.25;font-family:Interceptor;-inkscape-font-specification:Interceptor;fill:#0074c2;fill-opacity:1;stroke-width:0.479147"
             id="path4864"
             sodipodi:nodetypes="cssccccssccccccccc" /><path
             d="m 68.2128,16.00256 c 2.23364,0 3.78639,1.30838 4.65824,3.92513 l 5.08174,15.32551 h -6.86282 l -1.03378,-3.1251 h -3.37785 l 1.2206,-3.62511 h 0.94909 L 67.59004,24.72784 64.09013,35.2532 h -6.86284 l 6.38954,-19.25064 z"
             style="font-size:14.1111px;line-height:1.25;font-family:Interceptor;-inkscape-font-specification:Interceptor;fill:#0074c2;fill-opacity:1;stroke-width:0.479147"
             id="path4866"
             sodipodi:nodetypes="scccccccccccs" /><path
             d="M 86.62908,28.40048 V 35.2532 H 79.77873 V 18.08764 Z m -0.57293,-2.6351 -6.48917,-9.76282 h 6.93755 l 5.72939,8.62529 v -8.62529 h 6.85037 V 35.2532 h -6.7258 z"
             style="font-size:14.1111px;line-height:1.25;font-family:Interceptor;-inkscape-font-specification:Interceptor;fill:#0074c2;fill-opacity:1;stroke-width:0.479147"
             id="path4868"
             sodipodi:nodetypes="cccccccccccccc" /><path
             d="m 119.01264,16.00256 v 3.62511 H 113.7416 V 35.2532 h -6.85037 V 19.62767 h -5.27105 v -3.62511 z"
             style="font-size:14.1111px;line-height:1.25;font-family:Interceptor;-inkscape-font-specification:Interceptor;fill:#0074c2;fill-opacity:1;stroke-width:0.479147"
             id="path4870"
             sodipodi:nodetypes="ccccccccc" /><path
             d="m 124.9737,35.2532 c -2.27514,0 -3.41687,-1.12087 -3.42517,-3.36261 V 19.37767 c 0,-2.25008 1.14173,-3.37928 3.42517,-3.38762 h 12.44277 c 2.29175,0.009 3.43764,1.13756 3.43764,3.38762 v 12.50041 c 0,2.25009 -1.14173,3.37512 -3.42519,3.37512 z m 3.4252,-15.62553 v 11.00038 c 0,0.66669 0.30722,1.00003 0.92168,1.00003 h 4.69561 l -0.0123,-11.00036 c 0,-0.65837 -0.31553,-0.9917 -0.9466,-1.00005 z"
             style="font-size:14.1111px;line-height:1.25;font-family:Interceptor;-inkscape-font-specification:Interceptor;fill:#0074c2;fill-opacity:1;stroke-width:0.479147"
             id="path4872"
             sodipodi:nodetypes="scsccsssscsscccc" /><path
             d="m 155.8452,25.37787 v -4.75016 c 0,-0.66668 -0.31137,-1.00004 -0.93413,-1.00004 h -4.6707 V 35.2532 H 143.39 V 16.00256 h 15.88041 c 2.28344,0 3.42517,1.12503 3.42517,3.37511 v 6.26271 c -0.009,2.24174 -1.15017,3.36261 -3.42517,3.36261 h 0.26154 l 3.32555,6.25021 h -6.90019 l -3.32554,-6.25021 h -0.81209 v -3.62512 z"
             style="font-size:14.1111px;line-height:1.25;font-family:Interceptor;-inkscape-font-specification:Interceptor;fill:#0074c2;fill-opacity:1;stroke-width:0.479147"
             id="path4874"
             sodipodi:nodetypes="cssccccssccccccccc" /></g><g
           id="g19937"
           style="fill:#0074c2;fill-opacity:1;stroke:none;stroke-width:0.132292;stroke-dasharray:none"
           transform="matrix(0.79914084,0,0,0.79848512,-130.12912,277.83934)"><path
             d="m 98.13768,39.3123 q 0,0.0813 -0.0648,0.14644 -0.0486,0.0488 -0.12976,0.0488 H 94.5701 q -0.0811,0 -0.0811,0.0813 v 2.57149 q 0,0.0813 0.0811,0.0813 h 1.92975 q 0.0811,0 0.12976,0.0651 0.0648,0.0488 0.0648,0.13029 v 1.5787 q 0,0.0813 -0.0648,0.14644 -0.0486,0.0488 -0.12976,0.0488 H 94.5701 q -0.0811,0 -0.0811,0.0813 v 4.44316 q 0,0.0813 -0.0648,0.14644 -0.0486,0.0488 -0.12976,0.0488 h -1.89732 q -0.0811,0 -0.14592,-0.0488 -0.0486,-0.0651 -0.0486,-0.14644 V 37.7333 q 0,-0.0813 0.0486,-0.13028 0.0648,-0.0651 0.14592,-0.0651 h 5.54602 q 0.0811,0 0.12976,0.0651 0.0648,0.0488 0.0648,0.13028 z"
             style="font-weight:bold;font-stretch:condensed;font-size:8.97089px;line-height:1.25;font-family:'Barlow Condensed';-inkscape-font-specification:'Barlow Condensed,  Bold Condensed';fill:#0074c2;fill-opacity:1;stroke:none;stroke-width:0.132292;stroke-dasharray:none"
             id="path4876" /><path
             d="m 102.14314,49.06122 q -1.49193,0 -2.38383,-0.87887 -0.8919,-0.87886 -0.8919,-2.34364 v -5.2081 q 0,-1.46478 0.8919,-2.34364 0.89192,-0.87887 2.38383,-0.87887 1.49191,0 2.38381,0.87887 0.90813,0.87886 0.90813,2.34364 v 5.2081 q 0,1.46478 -0.90813,2.34364 -0.8919,0.87887 -2.38381,0.87887 z m 0,-1.96931 q 0.45405,0 0.72973,-0.30923 0.27569,-0.32551 0.27569,-0.84632 v -5.4034 q 0,-0.52081 -0.27569,-0.83004 -0.27568,-0.32551 -0.72973,-0.32551 -0.45408,0 -0.72975,0.32551 -0.25945,0.30923 -0.25945,0.83004 v 5.4034 q 0,0.52081 0.25945,0.84632 0.27567,0.30923 0.72975,0.30923 z"
             style="font-weight:bold;font-stretch:condensed;font-size:8.97089px;line-height:1.25;font-family:'Barlow Condensed';-inkscape-font-specification:'Barlow Condensed,  Bold Condensed';fill:#0074c2;fill-opacity:1;stroke:none;stroke-width:0.132292;stroke-dasharray:none"
             id="path4878" /><path
             d="m 109.87837,49.06122 q -1.45948,0 -2.35138,-0.91141 -0.8757,-0.92771 -0.8757,-2.45758 V 37.7336 q 0,-0.0813 0.0486,-0.13029 0.0648,-0.0651 0.14591,-0.0651 h 1.89733 q 0.0811,0 0.12976,0.0651 0.0648,0.0488 0.0648,0.13029 v 8.18648 q 0,0.52081 0.25947,0.84632 0.25947,0.32551 0.68109,0.32551 0.42162,0 0.66489,-0.32551 0.25945,-0.32551 0.25945,-0.84632 V 37.7336 q 0,-0.0813 0.0486,-0.13029 0.0648,-0.0651 0.14592,-0.0651 h 1.89732 q 0.0811,0 0.12976,0.0651 0.0648,0.0488 0.0648,0.13029 v 7.95863 q 0,1.52987 -0.8919,2.45758 -0.87568,0.91141 -2.31895,0.91141 z"
             style="font-weight:bold;font-stretch:condensed;font-size:8.97089px;line-height:1.25;font-family:'Barlow Condensed';-inkscape-font-specification:'Barlow Condensed,  Bold Condensed';fill:#0074c2;fill-opacity:1;stroke:none;stroke-width:0.132292;stroke-dasharray:none"
             id="path4880" /><path
             d="m 119.00823,37.7336 q 0,-0.0813 0.0486,-0.13029 0.0648,-0.0651 0.14591,-0.0651 h 1.8811 q 0.0811,0 0.12976,0.0651 0.0648,0.0488 0.0648,0.13029 v 11.00211 q 0,0.0815 -0.0648,0.14645 -0.0486,0.0488 -0.12976,0.0488 h -2.14056 q -0.16225,0 -0.21082,-0.16277 l -2.01084,-6.29855 q -0.0158,-0.0488 -0.0648,-0.0325 -0.0325,0 -0.0325,0.0488 l 0.0158,6.24972 q 0,0.0813 -0.0648,0.14644 -0.0486,0.0488 -0.12976,0.0488 h -1.88111 q -0.0811,0 -0.14591,-0.0488 -0.0486,-0.0652 -0.0486,-0.14644 V 37.73358 q 0,-0.0813 0.0486,-0.13029 0.0648,-0.0651 0.14591,-0.0651 h 2.12435 q 0.16224,0 0.21081,0.16277 l 2.02707,6.29855 q 0.0158,0.0488 0.0486,0.0488 0.0486,-0.0158 0.0486,-0.0651 z"
             style="font-weight:bold;font-stretch:condensed;font-size:8.97089px;line-height:1.25;font-family:'Barlow Condensed';-inkscape-font-specification:'Barlow Condensed,  Bold Condensed';fill:#0074c2;fill-opacity:1;stroke:none;stroke-width:0.132292;stroke-dasharray:none"
             id="path4882" /><path
             d="m 122.90017,48.93102 q -0.0811,0 -0.14591,-0.0488 -0.0486,-0.0651 -0.0486,-0.14644 V 37.73366 q 0,-0.0813 0.0486,-0.13011 0.0648,-0.0651 0.14591,-0.0651 h 2.93518 q 1.4757,0 2.36761,0.8626 0.8919,0.86258 0.8919,2.29482 v 5.07789 q 0,1.43222 -0.8919,2.29482 -0.89191,0.86258 -2.36761,0.86258 z m 2.09193,-2.05068 q 0,0.0813 0.0811,0.0813 l 0.72973,-0.0158 q 0.43784,-0.0158 0.71352,-0.37432 0.27569,-0.35806 0.2919,-0.94396 V 40.8426 q 0,-0.61845 -0.27568,-0.97652 -0.27567,-0.35804 -0.74595,-0.35804 h -0.71352 q -0.0811,0 -0.0811,0.0813 z"
             style="font-weight:bold;font-stretch:condensed;font-size:8.97089px;line-height:1.25;font-family:'Barlow Condensed';-inkscape-font-specification:'Barlow Condensed,  Bold Condensed';fill:#0074c2;fill-opacity:1;stroke:none;stroke-width:0.132292;stroke-dasharray:none"
             id="path4884" /><path
             d="m 134.8679,48.93102 q -0.19458,0 -0.21081,-0.17903 l -0.25947,-1.56242 q 0,-0.0813 -0.0973,-0.0813 h -2.05948 q -0.0973,0 -0.0973,0.0813 l -0.25947,1.56242 q -0.0158,0.17903 -0.21081,0.17903 h -1.89732 q -0.21082,0 -0.16225,-0.21158 l 2.38383,-11.00212 q 0.0325,-0.17901 0.21081,-0.17901 h 2.18921 q 0.1784,0 0.21083,0.17901 l 2.3676,11.00212 0.0158,0.0651 q 0,0.14644 -0.17837,0.14644 z m -2.40003,-3.67821 q 0,0.0813 0.0648,0.0813 h 1.45948 q 0.0811,0 0.0648,-0.0813 l -0.76216,-4.44317 q -0.0158,-0.0488 -0.0486,-0.0488 -0.0325,0 -0.0486,0.0488 z"
             style="font-weight:bold;font-stretch:condensed;font-size:8.97089px;line-height:1.25;font-family:'Barlow Condensed';-inkscape-font-specification:'Barlow Condensed,  Bold Condensed';fill:#0074c2;fill-opacity:1;stroke:none;stroke-width:0.132292;stroke-dasharray:none"
             id="path4886" /><path
             d="m 143.25181,37.53831 q 0.0811,0 0.12976,0.0651 0.0648,0.0488 0.0648,0.13028 v 1.57872 q 0,0.0813 -0.0648,0.14644 -0.0486,0.0488 -0.12976,0.0488 h -2.02705 q -0.0811,0 -0.0811,0.0813 v 9.14672 q 0,0.0815 -0.0648,0.14644 -0.0486,0.0488 -0.12976,0.0488 h -1.89733 q -0.0811,0 -0.14591,-0.0488 -0.0486,-0.0651 -0.0486,-0.14644 v -9.14672 q 0,-0.0813 -0.0811,-0.0813 h -1.94598 q -0.0811,0 -0.14592,-0.0488 -0.0486,-0.0651 -0.0486,-0.14644 v -1.57872 q 0,-0.0813 0.0486,-0.13028 0.0648,-0.0651 0.14592,-0.0651 z"
             style="font-weight:bold;font-stretch:condensed;font-size:8.97089px;line-height:1.25;font-family:'Barlow Condensed';-inkscape-font-specification:'Barlow Condensed,  Bold Condensed';fill:#0074c2;fill-opacity:1;stroke:none;stroke-width:0.132292;stroke-dasharray:none"
             id="path4888" /><path
             d="m 144.74374,48.93102 q -0.0811,0 -0.14592,-0.0488 -0.0486,-0.0651 -0.0486,-0.14644 V 37.73366 q 0,-0.0813 0.0486,-0.13011 0.0648,-0.0651 0.14592,-0.0651 h 1.89732 q 0.0811,0 0.12976,0.0651 0.0648,0.0488 0.0648,0.13011 v 11.00212 q 0,0.0815 -0.0648,0.14644 -0.0486,0.0488 -0.12976,0.0488 z"
             style="font-weight:bold;font-stretch:condensed;font-size:8.97089px;line-height:1.25;font-family:'Barlow Condensed';-inkscape-font-specification:'Barlow Condensed,  Bold Condensed';fill:#0074c2;fill-opacity:1;stroke:none;stroke-width:0.132292;stroke-dasharray:none"
             id="path4890" /><path
             d="m 151.39246,49.06122 q -1.49191,0 -2.38381,-0.87887 -0.8919,-0.87886 -0.8919,-2.34364 v -5.2081 q 0,-1.46478 0.8919,-2.34364 0.8919,-0.87887 2.38381,-0.87887 1.49192,0 2.38383,0.87887 0.90811,0.87886 0.90811,2.34364 v 5.2081 q 0,1.46478 -0.90811,2.34364 -0.89191,0.87887 -2.38383,0.87887 z m 0,-1.96931 q 0.45407,0 0.72975,-0.30923 0.27569,-0.32551 0.27569,-0.84632 v -5.4034 q 0,-0.52081 -0.27569,-0.83004 -0.27568,-0.32551 -0.72975,-0.32551 -0.45406,0 -0.72973,0.32551 -0.25947,0.30923 -0.25947,0.83004 v 5.4034 q 0,0.52081 0.25947,0.84632 0.27567,0.30923 0.72973,0.30923 z"
             style="font-weight:bold;font-stretch:condensed;font-size:8.97089px;line-height:1.25;font-family:'Barlow Condensed';-inkscape-font-specification:'Barlow Condensed,  Bold Condensed';fill:#0074c2;fill-opacity:1;stroke:none;stroke-width:0.132292;stroke-dasharray:none"
             id="path4892" /><path
             d="m 160.58718,37.7336 q 0,-0.0813 0.0486,-0.13029 0.065,-0.0651 0.14592,-0.0651 h 1.8811 q 0.0809,0 0.12976,0.0651 0.065,0.0488 0.065,0.13029 v 11.00211 q 0,0.0815 -0.065,0.14645 -0.0486,0.0488 -0.12976,0.0488 h -2.14057 q -0.16224,0 -0.21081,-0.16277 l -2.01085,-6.29855 q -0.0158,-0.0488 -0.065,-0.0325 -0.0323,0 -0.0323,0.0488 l 0.0158,6.24972 q 0,0.0813 -0.065,0.14644 -0.0486,0.0488 -0.12976,0.0488 h -1.8811 q -0.0809,0 -0.14591,-0.0488 -0.0486,-0.0652 -0.0486,-0.14644 V 37.73358 q 0,-0.0813 0.0486,-0.13029 0.065,-0.0651 0.14591,-0.0651 h 2.12436 q 0.16207,0 0.21082,0.16277 l 2.02706,6.29855 q 0.0158,0.0488 0.0486,0.0488 0.0486,-0.0158 0.0486,-0.0651 z"
             style="font-weight:bold;font-stretch:condensed;font-size:8.97089px;line-height:1.25;font-family:'Barlow Condensed';-inkscape-font-specification:'Barlow Condensed,  Bold Condensed';fill:#0074c2;fill-opacity:1;stroke:none;stroke-width:0.132292;stroke-dasharray:none"
             id="path4894" /></g></g></g></g></svg>
