<?xml version="1.0" encoding="UTF-8" standalone="no"?>
<!-- Generator: Adobe Illustrator 19.0.0, SVG Export Plug-In . SVG Version: 6.00 Build 0)  -->

<svg
   version="1.1"
   id="Layer_1"
   x="0px"
   y="0px"
   viewBox="0 0 200 230"
   xml:space="preserve"
   sodipodi:docname="structures_logo.svg"
   inkscape:version="1.2.1 (9c6d41e410, 2022-07-14, custom)"
   width="200"
   height="230"
   xmlns:inkscape="http://www.inkscape.org/namespaces/inkscape"
   xmlns:sodipodi="http://sodipodi.sourceforge.net/DTD/sodipodi-0.dtd"
   xmlns="http://www.w3.org/2000/svg"
   xmlns:svg="http://www.w3.org/2000/svg"><defs
   id="defs53">










	
	






		
		
		
	












































</defs><sodipodi:namedview
   id="namedview51"
   pagecolor="#ffffff"
   bordercolor="#000000"
   borderopacity="0.25"
   inkscape:showpageshadow="false"
   inkscape:pageopacity="0.0"
   inkscape:pagecheckerboard="0"
   inkscape:deskcolor="#d1d1d1"
   showgrid="false"
   inkscape:zoom="2.8367136"
   inkscape:cx="71.385423"
   inkscape:cy="119.85701"
   inkscape:window-width="2534"
   inkscape:window-height="1408"
   inkscape:window-x="26"
   inkscape:window-y="0"
   inkscape:window-maximized="1"
   inkscape:current-layer="Layer_1" />







<g
   id="g20">
</g>
<g
   id="g22">
</g>
<g
   id="g24">
</g>
<g
   id="g26">
</g>
<g
   id="g28">
</g>
<g
   id="g30">
</g>
<g
   id="g32">
</g>
<g
   id="g34">
</g>
<g
   id="g36">
</g>
<g
   id="g38">
</g>
<g
   id="g40">
</g>
<g
   id="g42">
</g>
<g
   id="g44">
</g>
<g
   id="g46">
</g>
<g
   id="g48">
</g>
<g
   id="g714"
   transform="translate(-650.25447,-132.73256)">
</g><g
   id="g716"
   transform="translate(-650.25447,-132.73256)">
</g><g
   id="g718"
   transform="translate(-650.25447,-132.73256)">
</g><g
   id="g720"
   transform="translate(-650.25447,-132.73256)">
</g><g
   id="g722"
   transform="translate(-650.25447,-132.73256)">
</g><g
   id="g724"
   transform="translate(-650.25447,-132.73256)">
</g><g
   id="g726"
   transform="translate(-650.25447,-132.73256)">
</g><g
   id="g728"
   transform="translate(-650.25447,-132.73256)">
</g><g
   id="g730"
   transform="translate(-650.25447,-132.73256)">
</g><g
   id="g732"
   transform="translate(-650.25447,-132.73256)">
</g><g
   id="g734"
   transform="translate(-650.25447,-132.73256)">
</g><g
   id="g736"
   transform="translate(-650.25447,-132.73256)">
</g><g
   id="g738"
   transform="translate(-650.25447,-132.73256)">
</g><g
   id="g740"
   transform="translate(-650.25447,-132.73256)">
</g><g
   id="g742"
   transform="translate(-650.25447,-132.73256)">
</g><circle
   style="fill:#0077b5;fill-opacity:1;stroke-width:0.27517"
   cx="100"
   cy="123.3217"
   r="70.443497"
   id="circle2-6" /><path
   style="fill:#005f8f;fill-opacity:1;stroke-width:0.27517"
   d="m 169.94214,114.9139 -28.92591,-16.42551 -79.978001,52.932 2.758714,32.33001 c 30.214199,22.41749 105.974997,8.90675 106.646557,-60.42867 0,-2.84582 -0.1736,-5.65061 -0.50136,-8.40783 z"
   id="path4-1"
   sodipodi:nodetypes="cccccc" /><path
   d="m 3.7973026,13.567369 q -3.78371529,0 -3.79752446898,-3.7146689 v -4.833213 q 0,-3.7284785 4.48798346898,-3.7284785 H 21.404007 V 5.2956707 H 7.5948271 v 3.1623022 q 0,1.1047344 1.0218793,1.1047344 h 8.9897756 q 3.783716,0 3.797525,3.7146697 v 5.537481 q 0,3.742288 -3.797525,3.742288 H -2.2186898e-4 V 18.552483 H 13.808958 v -3.880379 q 0,-1.104735 -1.021879,-1.104735 z"
   id="path2127"
   style="font-size:28.2812px;font-family:Interceptor;-inkscape-font-specification:Interceptor;letter-spacing:4.54518px;fill:#0077b5;stroke-width:0.75753;stroke-linecap:round;stroke-linejoin:round" /><path
   d="m 34.234695,6.1242215 h 6.90459 v 4.0046625 h -6.90459 v 7.318865 q 0,1.104734 1.021879,1.104734 h 5.882711 v 4.004663 H 30.43717 q -3.783715,0 -3.797524,-3.71467 V 1.2910086 h 7.595049 z"
   id="path2124"
   style="font-size:28.2812px;font-family:Interceptor;-inkscape-font-specification:Interceptor;letter-spacing:4.54518px;fill:#0077b5;stroke-width:0.75753;stroke-linecap:round;stroke-linejoin:round" /><path
   d="M 53.969972,22.557146 H 46.374923 V 9.8388909 q 0.01381,-3.7146694 3.797525,-3.7146694 h 10.702114 v 4.0046625 h -6.90459 z"
   id="path2121"
   style="font-size:28.2812px;font-family:Interceptor;-inkscape-font-specification:Interceptor;letter-spacing:4.54518px;fill:#0077b5;stroke-width:0.75753;stroke-linecap:round;stroke-linejoin:round" /><path
   d="m 79.919378,6.1242215 h 7.595049 V 22.557146 H 69.907723 q -3.783715,0 -3.797525,-3.71467 V 6.1242215 h 7.595049 V 17.447749 q 0,1.104734 1.02188,1.104734 h 5.20606 z"
   id="path2118"
   style="font-size:28.2812px;font-family:Interceptor;-inkscape-font-specification:Interceptor;letter-spacing:4.54518px;fill:#0077b5;stroke-width:0.75753;stroke-linecap:round;stroke-linejoin:round" /><path
   d="m 100.34512,6.1242215 h 6.90459 v 4.0046625 h -6.90459 v 7.318865 q 0,1.104734 1.02188,1.104734 h 5.88271 v 4.004663 H 96.547593 q -3.783716,0 -3.797525,-3.71467 V 1.2910086 h 7.595052 z"
   id="path2115"
   style="font-size:28.2812px;font-family:Interceptor;-inkscape-font-specification:Interceptor;letter-spacing:4.54518px;fill:#0077b5;stroke-width:0.75753;stroke-linecap:round;stroke-linejoin:round" /><path
   d="m 120.0804,6.1242215 h 6.90459 v 4.0046625 h -6.90459 v 7.318865 q 0,1.104734 1.02188,1.104734 h 5.88271 v 4.004663 h -10.70211 q -3.78372,0 -3.79753,-3.71467 V 1.2910086 h 7.59505 z"
   id="path2112"
   style="font-size:28.2812px;font-family:Interceptor;-inkscape-font-specification:Interceptor;letter-spacing:4.54518px;fill:#0077b5;stroke-width:0.75753;stroke-linecap:round;stroke-linejoin:round" /><path
   d="m 146.0298,6.1242215 h 7.59505 V 22.557146 h -17.60671 q -3.78371,0 -3.79752,-3.71467 V 6.1242215 h 7.59505 V 17.447749 q 0,1.104734 1.02188,1.104734 h 5.20606 z"
   id="path2109"
   style="font-size:28.2812px;font-family:Interceptor;-inkscape-font-specification:Interceptor;letter-spacing:4.54518px;fill:#0077b5;stroke-width:0.75753;stroke-linecap:round;stroke-linejoin:round" /><path
   d="M 166.45554,22.557146 H 158.8605 V 9.8388909 q 0.0138,-3.7146694 3.79752,-3.7146694 h 10.70211 v 4.0046625 h -6.90459 z"
   id="path2106"
   style="font-size:28.2812px;font-family:Interceptor;-inkscape-font-specification:Interceptor;letter-spacing:4.54518px;fill:#0077b5;stroke-width:0.75753;stroke-linecap:round;stroke-linejoin:round" /><path
   d="m 186.19082,16.343015 v 1.104734 q 0,1.104734 1.02188,1.104734 H 200 v 4.004663 h -17.6067 q -3.78372,0 -3.79753,-3.71467 V 6.1242215 h 17.60671 q 3.79752,0 3.79752,3.7284786 v 6.4903149 z m 6.21413,-5.109397 q 0,-1.104734 -1.03569,-1.104734 h -5.17844 v 2.209468 h 6.21413 z"
   id="path2103"
   style="font-size:28.2812px;font-family:Interceptor;-inkscape-font-specification:Interceptor;letter-spacing:4.54518px;fill:#0077b5;stroke-width:0.75753;stroke-linecap:round;stroke-linejoin:round" /><g
   id="g2418"
   transform="translate(59.010229,74.45539)"><path
     fill="#34495e"
     d="m 40.972,72.902 c 0,0 -38.986,0.031 -38.944,0.041 0.017,0.865 0,4.022 0,4.022 l 38.943,23.052 38.944,-23.052 c 0,0 -0.035,-3.198 -0.008,-3.987 -0.092,-0.194 -38.935,-0.076 -38.935,-0.076 z"
     id="path2370" /><path
     fill="#ecf0f1"
     d="m 40.972,25.932 c 0,0 -38.986,0.031 -38.944,0.041 0.017,0.865 0,46.996 0,46.996 L 40.972,96.02 79.916,72.969 c 0,0 -0.004,-46.171 0.022,-46.96 -0.089,-0.196 -38.966,-0.077 -38.966,-0.077 z"
     id="path2372" /><path
     fill="#2c3e50"
     d="m 2.028,72.943 c 0.017,0.865 0,4.022 0,4.022 l 38.943,23.052 V 72.902 c 0.001,0 -38.986,0.032 -38.943,0.041 z"
     id="path2374" /><path
     fill="#bdc3c7"
     d="m 2.028,25.973 c 0.017,0.865 0,46.996 0,46.996 L 40.972,96.02 V 25.932 c 0,0 -38.987,0.031 -38.944,0.041 z"
     id="path2376" /><path
     fill="#bdc3c7"
     d="m 40.972,23.968 c 0,0 -40.983,0.031 -40.941,0.041 0.018,0.865 0,4.022 0,4.022 l 40.94,24.051 40.94,-24.051 c 0,0 -0.033,-3.198 -0.008,-3.987 -0.09,-0.195 -40.931,-0.076 -40.931,-0.076 z"
     id="path2378" /><path
     fill="#95a5a6"
     d="m 46.994,54.949 7.004,-3.998 v 12.992 l -7.004,3.996 z m 10.007,-5.997 7.005,-3.998 v 12.993 l -7.005,3.996 z M 0.034,28.032 40.86,52.016 h 0.111 V 24.033 H 0.034 v 0.217 c 0.008,0.758 0.003,2.276 0,3.141 z m 66.974,14.924 7.007,-3.997 V 51.95 l -7.007,3.997 z m -20.014,28.993 7.004,-3.998 v 12.992 l -7.004,3.998 z M 67.008,59.955 74.015,55.958 V 68.95 l -7.007,3.997 z"
     id="path2380" /><path
     fill="#2c3e50"
     d="m 57.008,72.955 7.005,-3.997 v 17.421 l -7.005,4.146 z"
     id="path2382" /><path
     fill="#c0392c"
     d="m 57.008,65.955 7.005,-3.997 v 3.992 l -7.005,3.997 z"
     id="path2384" /><path
     fill="#ecf0f1"
     d="M 40.972,-0.018 0,24.033 40.972,48.084 82.006,24.033 Z"
     id="path2386" /><path
     fill="#d48a6d"
     d="M 40.972,4.011 5.991,24.033 40.972,44.055 75.953,24.033 Z"
     id="path2388" /><path
     fill="#7f8c8d"
     d="m 34.981,54.98 -6.989,-3.998 v 12.992 l 6.989,3.996 z m -9.985,-5.997 -6.989,-3.998 v 12.994 l 6.989,3.996 z M 15.011,42.987 8.022,38.989 V 51.98 l 6.989,3.998 z m 19.97,28.982 -6.989,-3.996 v 12.99 l 6.989,3.998 z m -9.985,-5.996 -6.989,-3.996 v 12.99 l 6.989,3.998 z M 15.011,59.977 8.022,55.979 v 12.992 l 6.989,3.998 z"
     id="path2390" /><path
     fill="#bdc3c7"
     d="m 74.015,44.58 -7.007,4.372 v 1.999 l 7.007,-4.372 z m 0,17 -7.007,4.372 v 1.999 l 7.007,-4.373 z M 64.006,50.576 57.001,54.949 v 1.998 l 7.005,-4.373 z m -10.008,5.996 -7.004,4.373 v 1.998 l 7.004,-4.371 z m 0,17 -7.004,4.373 v 1.998 l 7.004,-4.371 z"
     id="path2392" /><path
     fill="#95a5a6"
     d="m 27.992,56.604 v 2 l 6.989,4.371 v -1.998 z m 0,16.99 v 1.998 l 6.989,4.373 v -2 z m -9.985,-5.996 v 1.998 l 6.989,4.373 v -2 z m 0,-16.991 v 1.998 l 6.989,4.374 V 54.98 Z M 8.019,61.6 v 1.998 l 6.992,4.375 v -2 z m 0,-16.991 v 1.999 l 6.992,4.374 v -1.999 z"
     id="path2394" /><path
     fill="#aa6f57"
     d="m 40.972,6.011 33.234,19.022 1.747,-1 L 40.972,4.011 5.991,24.033 l 1.747,1 z"
     id="path2396" /></g></svg>
