<?xml version="1.0" encoding="UTF-8" standalone="no"?>
<!-- Generator: Adobe Illustrator 19.0.0, SVG Export Plug-In . SVG Version: 6.00 Build 0)  -->

<svg
   version="1.1"
   id="Layer_1"
   x="0px"
   y="0px"
   viewBox="0 0 200 160"
   xml:space="preserve"
   sodipodi:docname="transports_logo.svg"
   inkscape:version="1.2.2 (b0a8486541, 2022-12-01)"
   width="200"
   height="160"
   xmlns:inkscape="http://www.inkscape.org/namespaces/inkscape"
   xmlns:sodipodi="http://sodipodi.sourceforge.net/DTD/sodipodi-0.dtd"
   xmlns="http://www.w3.org/2000/svg"
   xmlns:svg="http://www.w3.org/2000/svg"><defs
   id="defs53">










	
	






		
		
		
	














</defs><sodipodi:namedview
   id="namedview51"
   pagecolor="#ffffff"
   bordercolor="#000000"
   borderopacity="0.25"
   inkscape:showpageshadow="false"
   inkscape:pageopacity="0.0"
   inkscape:pagecheckerboard="0"
   inkscape:deskcolor="#d1d1d1"
   showgrid="false"
   inkscape:zoom="2.0058594"
   inkscape:cx="12.962025"
   inkscape:cy="135.60272"
   inkscape:window-width="2534"
   inkscape:window-height="1408"
   inkscape:window-x="26"
   inkscape:window-y="0"
   inkscape:window-maximized="1"
   inkscape:current-layer="Layer_1" />







<g
   id="g20">
</g>
<g
   id="g22">
</g>
<g
   id="g24">
</g>
<g
   id="g26">
</g>
<g
   id="g28">
</g>
<g
   id="g30">
</g>
<g
   id="g32">
</g>
<g
   id="g34">
</g>
<g
   id="g36">
</g>
<g
   id="g38">
</g>
<g
   id="g40">
</g>
<g
   id="g42">
</g>
<g
   id="g44">
</g>
<g
   id="g46">
</g>
<g
   id="g48">
</g>
<g
   id="g1038"
   transform="matrix(0.11472343,0,0,0.11472343,-87.04525,72.831185)">
</g><g
   id="g1040"
   transform="matrix(0.11472343,0,0,0.11472343,-87.04525,72.831185)">
</g><g
   id="g1042"
   transform="matrix(0.11472343,0,0,0.11472343,-87.04525,72.831185)">
</g><g
   id="g1044"
   transform="matrix(0.11472343,0,0,0.11472343,-87.04525,72.831185)">
</g><g
   id="g1046"
   transform="matrix(0.11472343,0,0,0.11472343,-87.04525,72.831185)">
</g><g
   id="g1048"
   transform="matrix(0.11472343,0,0,0.11472343,-87.04525,72.831185)">
</g><g
   id="g1050"
   transform="matrix(0.11472343,0,0,0.11472343,-87.04525,72.831185)">
</g><g
   id="g1052"
   transform="matrix(0.11472343,0,0,0.11472343,-87.04525,72.831185)">
</g><g
   id="g1054"
   transform="matrix(0.11472343,0,0,0.11472343,-87.04525,72.831185)">
</g><g
   id="g1056"
   transform="matrix(0.11472343,0,0,0.11472343,-87.04525,72.831185)">
</g><g
   id="g1058"
   transform="matrix(0.11472343,0,0,0.11472343,-87.04525,72.831185)">
</g><g
   id="g1060"
   transform="matrix(0.11472343,0,0,0.11472343,-87.04525,72.831185)">
</g><g
   id="g1062"
   transform="matrix(0.11472343,0,0,0.11472343,-87.04525,72.831185)">
</g><g
   id="g1064"
   transform="matrix(0.11472343,0,0,0.11472343,-87.04525,72.831185)">
</g><g
   id="g1066"
   transform="matrix(0.11472343,0,0,0.11472343,-87.04525,72.831185)">
</g><g
   id="g3215"
   transform="translate(4.6366043,-23.755894)"><circle
     style="fill:#2c5aa0;fill-opacity:1;stroke-width:0.197266"
     cx="95.363396"
     cy="76.25589"
     r="50.499996"
     id="circle2-1" /><path
     style="fill:#1b335a;fill-opacity:1;stroke-width:0.197266"
     d="M 145.50397,70.228441 110.75419,53.597322 c -0.15069,23.553654 1.3234,43.47548 -39.665599,49.022168 l 21.022084,24.02909 c 1.07589,0.0685 2.15967,0.10731 3.25272,0.10731 27.890205,0 50.499995,-22.6098 50.499995,-50.499993 0,-2.040124 -0.12447,-4.050848 -0.35942,-6.027456 z"
     id="path4-9"
     sodipodi:nodetypes="ccccssc" /></g><path
   d="m 82.554766,119.26458 h -2.523129 v -7.32781 l -5.386254,6.63887 q -0.581572,0.71579 -1.467351,0.71579 -0.903674,0 -1.485246,-0.71579 l -5.484674,-6.6836 v 7.3636 l -2.523129,0.009 V 109.0826 q 0,-0.59052 0.375785,-0.93052 0.384733,-0.34 0.9842,-0.34 0.867884,0 1.377878,0.60842 l 6.77308,8.01675 6.612029,-8.0257 q 0.509995,-0.61736 1.34209,-0.61736 0.617362,0 1.011041,0.38473 0.39368,0.37579 0.39368,0.9842 z"
   id="path3486"
   style="font-size:18.324px;font-family:Neuropolitical;-inkscape-font-specification:Neuropolitical;letter-spacing:2.94492px;fill:#2c5aa0;stroke-width:1.96328;stroke-linecap:round;stroke-linejoin:round" /><path
   d="m 98.732692,115.83778 h -9.895676 q 0,1.26157 3.552064,1.26157 0.232629,0 0.563678,-0.009 0.331049,-0.009 0.420522,-0.009 v 2.12945 h -1.762612 q -3.015228,0 -4.124689,-0.85894 -1.154197,-0.88578 -1.154197,-2.12945 v -3.15838 q 0,-1.61946 1.691033,-2.39787 1.270512,-0.59052 3.104701,-0.59052 h 3.525223 q 1.538929,0 2.657337,0.56368 1.422616,0.70683 1.422616,2.08471 z m -2.379973,-2.17418 v -0.69789 q 0,-0.78736 -1.986293,-0.78736 h -3.525223 q -2.084712,0 -2.084712,0.76946 v 0.71579 z"
   id="path3483"
   style="font-size:18.324px;font-family:Neuropolitical;-inkscape-font-specification:Neuropolitical;letter-spacing:2.94492px;fill:#2c5aa0;stroke-width:1.96328;stroke-linecap:round;stroke-linejoin:round" /><path
   d="M 114.15905,119.20195 H 104.0039 q -0.59052,0 -1.05578,-0.33999 -0.50999,-0.37579 -0.50999,-0.94841 0,-0.46526 0.62631,-1.0021 l 7.72149,-6.54045 h 3.37312 l -7.83781,6.69256 h 7.83781 z"
   id="path3480"
   style="font-size:18.324px;font-family:Neuropolitical;-inkscape-font-specification:Neuropolitical;letter-spacing:2.94492px;fill:#2c5aa0;stroke-width:1.96328;stroke-linecap:round;stroke-linejoin:round" /><path
   d="m 129.54066,119.20195 h -10.15514 q -0.59052,0 -1.05578,-0.33999 -0.50999,-0.37579 -0.50999,-0.94841 0,-0.46526 0.62631,-1.0021 l 7.72149,-6.54045 h 3.37311 l -7.8378,6.69256 h 7.8378 z"
   id="path3477"
   style="font-size:18.324px;font-family:Neuropolitical;-inkscape-font-specification:Neuropolitical;letter-spacing:2.94492px;fill:#2c5aa0;stroke-width:1.96328;stroke-linecap:round;stroke-linejoin:round" /><path
   d="m 136.31502,108.84997 q 0,0.56367 -0.4921,0.90367 -0.42947,0.30421 -1.01999,0.30421 -0.59947,0 -1.01999,-0.30421 -0.4742,-0.34894 -0.4742,-0.93051 0,-0.58158 0.4742,-0.92157 0.42052,-0.31316 1.01999,-0.31316 0.59052,0 1.02894,0.33105 0.48315,0.35789 0.48315,0.93052 z m -0.36684,10.35198 h -2.41576 v -8.89358 h 2.41576 z"
   id="path3474"
   style="font-size:18.324px;font-family:Neuropolitical;-inkscape-font-specification:Neuropolitical;letter-spacing:2.94492px;fill:#2c5aa0;stroke-width:1.96328;stroke-linecap:round;stroke-linejoin:round" /><path
   d="m 102.8267,132.58553 q 0,1.52103 -1.78051,2.30839 -1.359982,0.59947 -3.104699,0.59947 h -2.881019 q -4.759945,0 -4.759945,-2.67523 v -3.4447 q 0,-2.92576 4.733103,-2.92576 h 5.36836 v -2.42471 h 2.42471 z m -2.42471,-0.0358 v -3.98154 h -5.484674 q -2.19208,0 -2.19208,0.85 v 3.04207 q 0,0.93946 1.7984,0.92156 l 3.229963,-0.009 q 2.648391,0 2.648391,-0.82315 z"
   id="path3471"
   style="font-size:18.324px;font-family:Neuropolitical;-inkscape-font-specification:Neuropolitical;letter-spacing:2.94492px;fill:#2c5aa0;stroke-width:1.96328;stroke-linecap:round;stroke-linejoin:round" /><path
   d="m 109.69947,125.1414 q 0,0.56368 -0.4921,0.90368 -0.42947,0.3042 -1.01999,0.3042 -0.59947,0 -1.01999,-0.3042 -0.4742,-0.34895 -0.4742,-0.93052 0,-0.58157 0.4742,-0.92157 0.42052,-0.31315 1.01999,-0.31315 0.59052,0 1.02894,0.33105 0.48315,0.35789 0.48315,0.93051 z m -0.36684,10.35199 h -2.41576 v -8.89358 h 2.41576 z"
   id="path3468"
   style="font-size:18.324px;font-family:Neuropolitical;-inkscape-font-specification:Neuropolitical;letter-spacing:2.94492px;fill:#2c5aa0;stroke-width:1.96328;stroke-linecap:round;stroke-linejoin:round" /><path
   d="m 51.746792,139.36896 h -5.13573 v 9.34094 H 44.09688 v -9.34094 h -5.117836 v -2.15629 h 12.767748 z"
   id="path3465"
   style="font-size:18.324px;font-family:Neuropolitical;-inkscape-font-specification:Neuropolitical;letter-spacing:2.94492px;fill:#2c5aa0;stroke-width:1.96328;stroke-linecap:round;stroke-linejoin:round" /><path
   d="m 58.691139,141.65946 h -1.861031 q -1.825242,0 -1.825242,0.79631 v 6.25413 h -2.424709 v -6.25413 q 0,-2.92576 4.473633,-2.92576 h 1.637349 z"
   id="path3462"
   style="font-size:18.324px;font-family:Neuropolitical;-inkscape-font-specification:Neuropolitical;letter-spacing:2.94492px;fill:#2c5aa0;stroke-width:1.96328;stroke-linecap:round;stroke-linejoin:round" /><path
   d="m 75.468533,145.80204 q 0,2.84523 -4.133637,2.84523 h -4.616789 q -1.538929,0 -2.764705,-0.60841 -1.529982,-0.76052 -1.529982,-2.14734 v -1.09157 q 0,-1.46735 1.458404,-2.20998 1.14525,-0.59052 2.773652,-0.59052 h 6.191508 q 0,-0.42946 -1.512088,-0.42946 h -2.639443 v -2.03998 h 2.639443 q 1.673139,0 2.764705,0.60841 1.368932,0.76052 1.368932,2.29945 z m -2.415762,-1.01999 v -0.25947 l -0.0089,-0.40262 H 66.61074 q -1.762611,0 -1.762611,0.93946 v 0.63526 q 0,0.83209 1.816295,0.83209 h 4.867312 q 1.064724,0 1.324195,-0.35789 0.19684,-0.27736 0.19684,-1.38683 z"
   id="path3459"
   style="font-size:18.324px;font-family:Neuropolitical;-inkscape-font-specification:Neuropolitical;letter-spacing:2.94492px;fill:#2c5aa0;stroke-width:1.96328;stroke-linecap:round;stroke-linejoin:round" /><path
   d="m 90.653312,145.9273 q 0,2.71997 -4.008375,2.71997 h -7.372546 v -2.1205 h 7.381493 q 1.503141,0 1.503141,-0.59947 v -0.3221 q 0,-0.50999 -1.34209,-0.50999 h -3.068912 q -4.500474,0 -4.500474,-2.6305 v -0.46526 q 0,-1.54787 1.494193,-2.11155 0.939463,-0.35789 2.800494,-0.35789 h 2.433656 v 2.12945 h -2.353131 q -1.950503,0 -1.950503,0.40263 v 0.38473 q 0,0.38473 0.894726,0.4742 0.241576,0.0268 1.189986,0.0268 h 3.131543 q 3.766799,0 3.766799,2.58575 z"
   id="path3456"
   style="font-size:18.324px;font-family:Neuropolitical;-inkscape-font-specification:Neuropolitical;letter-spacing:2.94492px;fill:#2c5aa0;stroke-width:1.96328;stroke-linecap:round;stroke-linejoin:round" /><path
   d="m 107.04597,145.64994 q 0,2.92575 -4.34837,2.92575 h -5.618881 v 2.44261 H 94.65401 v -8.6699 q 0,-2.81839 4.581,-2.81839 h 3.00628 q 4.80468,0 4.80468,2.79155 z m -2.4426,0.0268 v -3.32838 q 0,-0.69789 -1.83419,-0.69789 h -3.453645 q -2.236816,0 -2.236816,0.74262 v 4.07101 h 5.699411 q 1.82524,0 1.82524,-0.78736 z"
   id="path3453"
   style="font-size:18.324px;font-family:Neuropolitical;-inkscape-font-specification:Neuropolitical;letter-spacing:2.94492px;fill:#2c5aa0;stroke-width:1.96328;stroke-linecap:round;stroke-linejoin:round" /><path
   d="m 123.33126,145.71257 q 0,1.59261 -1.52104,2.35313 -1.16314,0.58157 -2.9347,0.58157 h -3.14049 q -1.77156,0 -3.01523,-0.59052 -1.6284,-0.76946 -1.6284,-2.34418 v -3.15838 q 0,-1.55683 1.61946,-2.37998 1.27945,-0.6442 3.01522,-0.6442 h 3.14944 q 4.45574,0 4.45574,3.00628 z m -2.45155,-0.0895 v -3.1226 q 0,-0.46526 -0.8142,-0.67999 -0.56368,-0.16105 -1.24367,-0.16105 h -3.06891 q -0.65315,0 -1.3242,0.21473 -0.91262,0.27737 -0.91262,0.76947 v 2.97944 q 0,0.4742 0.93946,0.72473 0.67105,0.17894 1.3063,0.17894 h 3.06892 q 0.55473,0 1.20788,-0.20579 0.84104,-0.26841 0.84104,-0.69788 z"
   id="path3450"
   style="font-size:18.324px;font-family:Neuropolitical;-inkscape-font-specification:Neuropolitical;letter-spacing:2.94492px;fill:#2c5aa0;stroke-width:1.96328;stroke-linecap:round;stroke-linejoin:round" /><path
   d="m 133.51452,141.65946 h -1.86103 q -1.82524,0 -1.82524,0.79631 v 6.25413 h -2.42471 v -6.25413 q 0,-2.92576 4.47363,-2.92576 h 1.63735 z"
   id="path3447"
   style="font-size:18.324px;font-family:Neuropolitical;-inkscape-font-specification:Neuropolitical;letter-spacing:2.94492px;fill:#2c5aa0;stroke-width:1.96328;stroke-linecap:round;stroke-linejoin:round" /><path
   d="m 145.09355,141.71314 h -3.71311 v 6.98782 h -2.42471 v -6.98782 h -1.40472 v -2.1026 h 1.40472 v -2.44261 h 2.42471 v 2.43366 h 3.71311 z"
   id="path3444"
   style="font-size:18.324px;font-family:Neuropolitical;-inkscape-font-specification:Neuropolitical;letter-spacing:2.94492px;fill:#2c5aa0;stroke-width:1.96328;stroke-linecap:round;stroke-linejoin:round" /><path
   d="m 161.02096,145.71257 q 0,1.59261 -1.52104,2.35313 -1.16314,0.58157 -2.9347,0.58157 h -3.14049 q -1.77156,0 -3.01523,-0.59052 -1.6284,-0.76946 -1.6284,-2.34418 v -3.15838 q 0,-1.55683 1.61945,-2.37998 1.27946,-0.6442 3.01523,-0.6442 h 3.14944 q 4.45574,0 4.45574,3.00628 z m -2.45155,-0.0895 v -3.1226 q 0,-0.46526 -0.8142,-0.67999 -0.56368,-0.16105 -1.24367,-0.16105 h -3.06892 q -0.65315,0 -1.32419,0.21473 -0.91262,0.27737 -0.91262,0.76947 v 2.97944 q 0,0.4742 0.93946,0.72473 0.67104,0.17894 1.3063,0.17894 h 3.06891 q 0.55473,0 1.20788,-0.20579 0.84105,-0.26841 0.84105,-0.69788 z"
   id="path3441"
   style="font-size:18.324px;font-family:Neuropolitical;-inkscape-font-specification:Neuropolitical;letter-spacing:2.94492px;fill:#2c5aa0;stroke-width:1.96328;stroke-linecap:round;stroke-linejoin:round" /><g
   id="g561"
   transform="matrix(0.85487803,0,0,0.85487803,14.443732,10.027167)"><path
     style="fill:#cc584c;stroke-width:0.193509"
     d="M 118.08358,35.562449 V 23.177881 c 0,-1.277159 -1.03643,-2.456788 -2.30275,-2.621658 l -14.7268,-1.189692 c -1.27639,-0.03251 -3.36629,-0.03793 -4.643447,-0.01161 l -14.72602,1.202076 c -1.26632,0.164096 -2.302753,1.343726 -2.302753,2.620885 v 12.384567 z"
     id="path4103" /><path
     style="fill:#bf5347;stroke-width:0.193509"
     d="m 115.78083,20.556223 -14.7268,-1.189692 c -1.02715,-0.02632 -2.57367,-0.03406 -3.806711,-0.02244 0.544149,0.0047 1.060425,0.01239 1.484602,0.02244 l 14.726799,1.189692 c 1.26632,0.16487 2.30275,1.344499 2.30275,2.621658 v 12.384568 h 2.32211 V 23.177881 c 0,-1.277159 -1.03643,-2.456788 -2.30275,-2.621658 z"
     id="path4105" /><path
     style="fill:#c2e2f2;stroke-width:0.193509"
     d="M 82.477942,34.788413 V 23.598182 l 14.089772,-1.148668 c 0.516287,-0.01003 1.154865,-0.0147 1.811248,-0.0147 0.890139,0 1.814338,0.0085 2.512518,0.02477 l 14.09596,1.13938 v 11.189457 z"
     id="path4107" /><path
     style="fill:#cceeff;stroke-width:0.193509"
     d="M 84.026013,35.562449 V 25.025504 l 12.619106,-1.029467 c 0.499253,-0.0093 1.10842,-0.01316 1.733843,-0.01316 0.858398,0 1.749318,0.0077 2.432788,0.02322 l 12.62762,1.020953 v 10.535396 z"
     id="path4109" /><rect
     id="SVGCleanerId_0"
     x="97.184624"
     y="23.951918"
     style="fill:#c2e2f2;stroke-width:0.193509"
     width="3.0961421"
     height="10.062462" /><path
     style="fill:#cc584c;stroke-width:0.193509"
     d="M 122.72779,70.394049 V 37.884556 c 0,-1.702879 -1.38552,-3.241661 -3.07988,-3.417367 l -17.81985,-1.163375 c -1.7021,-0.03483 -4.48863,-0.04103 -6.191513,-0.01239 l -17.819843,1.17576 c -1.693585,0.17648 -3.079107,1.714488 -3.079107,3.417367 v 32.509494 z"
     id="path4112" /><path
     style="fill:#bf5347;stroke-width:0.193509"
     d="m 119.64791,34.467189 -17.81985,-1.163375 c -1.36771,-0.02787 -3.425886,-0.03638 -5.068387,-0.02399 0.722183,0.0047 1.408745,0.01394 1.972248,0.02399 l 17.819839,1.163375 c 1.69437,0.17648 3.07989,1.714488 3.07989,3.417367 v 32.509493 h 3.09614 V 37.884556 c 0,-1.702879 -1.38552,-3.240887 -3.07988,-3.417367 z"
     id="path4114" /><path
     style="fill:#994239;stroke-width:0.193509"
     d="M 101.0548,47.947016 V 33.28988 C 99.36585,33.26821 96.410583,33.24035 96.410583,33.24035 V 47.947016 H 74.737597 v 5.418249 h 20.89895 5.418253 21.67299 v -5.418249 z"
     id="path4116" /><circle
     style="fill:#f5f5f5;stroke-width:0.193509"
     cx="98.732689"
     cy="50.269123"
     r="8.5143909"
     id="circle4118" /><circle
     style="fill:none;stroke:#242424;stroke-width:0.774036;stroke-miterlimit:10"
     cx="98.732689"
     cy="50.269123"
     r="8.5143909"
     id="circle4138" /><circle
     style="fill:#b3b3b3;stroke-width:0.193509"
     cx="82.477959"
     cy="64.201767"
     r="4.6442132"
     id="circle4140" /><circle
     style="fill:#e6e6e6;stroke-width:0.193509"
     cx="82.477959"
     cy="64.201767"
     r="3.0961421"
     id="circle4142" /><circle
     style="fill:#b3b3b3;stroke-width:0.193509"
     cx="114.98743"
     cy="64.201767"
     r="4.6442132"
     id="circle4144" /><circle
     style="fill:#e6e6e6;stroke-width:0.193509"
     cx="114.98743"
     cy="64.201767"
     r="3.0961421"
     id="circle4146" /><path
     style="fill:#cc584c;stroke-width:0.193509"
     d="m 103.3769,17.759633 c 0,2.564379 -2.0806,4.644213 -4.64421,4.644213 -2.564381,0 -4.644214,-2.080607 -4.644214,-4.644213 0,-2.563606 2.079833,-3.096143 4.644214,-3.096143 2.56438,0 4.64421,0.532537 4.64421,3.096143 z"
     id="path4148" /><path
     style="fill:#bf5347;stroke-width:0.193509"
     d="m 98.73269,14.66349 c -0.130808,0 -0.259298,0.0023 -0.387018,0.0055 2.383258,0.05495 4.257198,0.656383 4.257198,3.090725 0,2.434341 -1.87394,4.428256 -4.257198,4.624861 0.12772,0.01082 0.25621,0.01936 0.387018,0.01936 2.56438,0 4.64421,-2.080608 4.64421,-4.644213 0,-2.563606 -2.07983,-3.096143 -4.64421,-3.096143 z"
     id="path4150" /><path
     id="SVGCleanerId_1"
     style="fill:#f5f5f5;stroke-width:0.193509"
     d="m 102.60287,17.759633 c 0,2.137886 -1.7323,3.870177 -3.87018,3.870177 -2.137105,0 -3.870178,-1.732291 -3.870178,-3.870177 0,-2.137886 1.733073,-2.322107 3.870178,-2.322107 2.13788,0 3.87018,0.184221 3.87018,2.322107 z" /><path
     style="fill:#c83737;stroke-width:0.193509"
     d="M 118.08358,35.562449 V 23.177881 c 0,-1.277159 -1.03643,-2.456788 -2.30275,-2.621658 l -14.7268,-1.189692 c -1.27639,-0.03251 -3.36629,-0.03793 -4.643447,-0.01161 l -14.72602,1.202076 c -1.26632,0.164096 -2.302753,1.343726 -2.302753,2.620885 v 12.384567 z"
     id="path4153" /><path
     style="fill:#c83737;stroke-width:0.193509"
     d="m 115.78083,20.556223 -14.7268,-1.189692 c -1.02715,-0.02632 -2.57367,-0.03406 -3.806711,-0.02244 0.544149,0.0047 1.060425,0.01239 1.484602,0.02244 l 14.726799,1.189692 c 1.26632,0.16487 2.30275,1.344499 2.30275,2.621658 v 12.384568 h 2.32211 V 23.177881 c 0,-1.277159 -1.03643,-2.456788 -2.30275,-2.621658 z"
     id="path4155" /><path
     style="fill:#c2e2f2;stroke-width:0.193509"
     d="M 82.477942,34.788413 V 23.598182 l 14.089772,-1.148668 c 0.516287,-0.01003 1.154865,-0.0147 1.811248,-0.0147 0.890139,0 1.814338,0.0085 2.512518,0.02477 l 14.09596,1.13938 v 11.189457 z"
     id="path4157" /><path
     style="fill:#e6f7ff;stroke-width:0.193509"
     d="M 84.026013,35.562449 V 25.025504 l 12.619106,-1.029467 c 0.499253,-0.0093 1.10842,-0.01316 1.733843,-0.01316 0.858398,0 1.749318,0.0077 2.432788,0.02322 l 12.62762,1.020953 v 10.535396 z"
     id="path4159" /><g
     id="g4162"
     transform="matrix(0.19350887,0,0,0.19350887,49.194421,4.6010296)">
	<rect
   id="SVGCleanerId_0_1_"
   x="248"
   y="100"
   style="fill:#c2e2f2"
   width="16"
   height="52" />
</g><path
     style="fill:#d35f5f;stroke-width:0.193509"
     d="M 122.72779,70.394049 V 37.884556 c 0,-1.702879 -1.38552,-3.241661 -3.07988,-3.417367 l -17.81985,-1.163375 c -1.7021,-0.03483 -4.48863,-0.04103 -6.191513,-0.01239 l -17.819843,1.17576 c -1.693585,0.17648 -3.079107,1.714488 -3.079107,3.417367 v 32.509494 z"
     id="path4164" /><path
     style="fill:#c83737;stroke-width:0.193509"
     d="m 119.64791,34.467189 -17.81985,-1.163375 c -1.36771,-0.02787 -3.425886,-0.03638 -5.068387,-0.02399 0.722183,0.0047 1.408745,0.01394 1.972248,0.02399 l 17.819839,1.163375 c 1.69437,0.17648 3.07989,1.714488 3.07989,3.417367 v 32.509493 h 3.09614 V 37.884556 c 0,-1.702879 -1.38552,-3.240887 -3.07988,-3.417367 z"
     id="path4166" /><g
     id="g4172"
     transform="matrix(0.19350887,0,0,0.19350887,49.194421,4.6010296)">
	<path
   style="fill:#f5f5f5"
   d="M 268,224 V 148.256 C 259.272,148.144 244,148 244,148 v 76 H 132 v 28 h 108 28 112 v -28 z"
   id="path4168" />
	<circle
   style="fill:#f5f5f5"
   cx="256"
   cy="236"
   r="44"
   id="circle4170" />
</g><polygon
     style="fill:#e6e6e6"
     points="404,407.952 256,436 108,407.952 124,340 388,340 "
     id="polygon4174"
     transform="matrix(0.18813362,0,0,0.14904465,51.366021,19.718864)" /><path
     style="fill:#e9afaf;stroke-width:0.193509"
     d="m 98.73269,60.331586 c -5.548289,0 -10.062463,-4.514175 -10.062463,-10.062464 0,-5.548288 4.514174,-10.062463 10.062463,-10.062463 5.54829,0 10.06246,4.514175 10.06246,10.062463 0,5.548289 -4.51417,10.062464 -10.06246,10.062464 z m 0,-17.028784 c -3.841537,0 -6.966321,3.124783 -6.966321,6.96632 0,3.841537 3.125564,6.966321 6.966321,6.966321 3.84077,0 6.96632,-3.124784 6.96632,-6.966321 0,-3.841537 -3.12555,-6.96632 -6.96632,-6.96632 z"
     id="path4192" /><circle
     style="fill:#b3b3b3;stroke-width:0.193509"
     cx="82.477959"
     cy="64.201767"
     r="4.6442132"
     id="circle4194" /><circle
     style="fill:#e6e6e6;stroke-width:0.193509"
     cx="82.477959"
     cy="64.201767"
     r="3.0961421"
     id="circle4196" /><circle
     style="fill:#b3b3b3;stroke-width:0.193509"
     cx="114.98743"
     cy="64.201767"
     r="4.6442132"
     id="circle4198" /><circle
     style="fill:#e6e6e6;stroke-width:0.193509"
     cx="114.98743"
     cy="64.201767"
     r="3.0961421"
     id="circle4200" /><path
     style="fill:#c83737;stroke-width:0.193509"
     d="m 103.3769,17.759633 c 0,2.564379 -2.0806,4.644213 -4.64421,4.644213 -2.564381,0 -4.644214,-2.080607 -4.644214,-4.644213 0,-2.563606 2.079833,-3.096143 4.644214,-3.096143 2.56438,0 4.64421,0.532537 4.64421,3.096143 z"
     id="path4202" /><path
     style="fill:#c83737;stroke-width:0.193509"
     d="m 98.73269,14.66349 c -0.130808,0 -0.259298,0.0023 -0.387018,0.0055 2.383258,0.05495 4.257198,0.656383 4.257198,3.090725 0,2.434341 -1.87394,4.428256 -4.257198,4.624861 0.12772,0.01082 0.25621,0.01936 0.387018,0.01936 2.56438,0 4.64421,-2.080608 4.64421,-4.644213 0,-2.563606 -2.07983,-3.096143 -4.64421,-3.096143 z"
     id="path4204" /><g
     id="g4207"
     transform="matrix(0.19350887,0,0,0.19350887,49.194421,4.6010296)">
	<path
   id="SVGCleanerId_1_1_"
   style="fill:#f5f5f5"
   d="m 276,68 c 0,11.048 -8.952,20 -20,20 -11.044,0 -20,-8.952 -20,-20 0,-11.048 8.956,-12 20,-12 11.048,0 20,0.952 20,12 z" />
</g></g><g
   id="g4209"
   transform="matrix(0.17356997,0,0,0.17356997,-229.5756,69.108898)">
</g><g
   id="g4211"
   transform="matrix(0.17356997,0,0,0.17356997,-229.5756,69.108898)">
</g><g
   id="g4213"
   transform="matrix(0.17356997,0,0,0.17356997,-229.5756,69.108898)">
</g><g
   id="g4215"
   transform="matrix(0.17356997,0,0,0.17356997,-229.5756,69.108898)">
</g><g
   id="g4217"
   transform="matrix(0.17356997,0,0,0.17356997,-229.5756,69.108898)">
</g><g
   id="g4219"
   transform="matrix(0.17356997,0,0,0.17356997,-229.5756,69.108898)">
</g><g
   id="g4221"
   transform="matrix(0.17356997,0,0,0.17356997,-229.5756,69.108898)">
</g><g
   id="g4223"
   transform="matrix(0.17356997,0,0,0.17356997,-229.5756,69.108898)">
</g><g
   id="g4225"
   transform="matrix(0.17356997,0,0,0.17356997,-229.5756,69.108898)">
</g><g
   id="g4227"
   transform="matrix(0.17356997,0,0,0.17356997,-229.5756,69.108898)">
</g><g
   id="g4229"
   transform="matrix(0.17356997,0,0,0.17356997,-229.5756,69.108898)">
</g><g
   id="g4231"
   transform="matrix(0.17356997,0,0,0.17356997,-229.5756,69.108898)">
</g><g
   id="g4233"
   transform="matrix(0.17356997,0,0,0.17356997,-229.5756,69.108898)">
</g><g
   id="g4235"
   transform="matrix(0.17356997,0,0,0.17356997,-229.5756,69.108898)">
</g><g
   id="g4237"
   transform="matrix(0.17356997,0,0,0.17356997,-229.5756,69.108898)">
</g></svg>
