<?xml version="1.0" encoding="UTF-8" standalone="no"?>
<!-- Generator: Adobe Illustrator 19.0.0, SVG Export Plug-In . SVG Version: 6.00 Build 0)  -->

<svg
   version="1.1"
   id="Layer_1"
   x="0px"
   y="0px"
   viewBox="0 0 200 160"
   xml:space="preserve"
   sodipodi:docname="transports_logo.svg"
   inkscape:version="1.3 (0e150ed6c4, 2023-07-21)"
   width="200"
   height="160"
   xmlns:inkscape="http://www.inkscape.org/namespaces/inkscape"
   xmlns:sodipodi="http://sodipodi.sourceforge.net/DTD/sodipodi-0.dtd"
   xmlns="http://www.w3.org/2000/svg"
   xmlns:svg="http://www.w3.org/2000/svg"><defs
   id="defs53">&#10;&#10;&#10;&#10;&#10;&#10;&#10;&#10;&#10;&#10;&#10;	&#10;	&#10;&#10;&#10;&#10;&#10;&#10;&#10;		&#10;		&#10;		&#10;	&#10;&#10;&#10;&#10;&#10;&#10;&#10;&#10;&#10;&#10;&#10;&#10;&#10;&#10;&#10;</defs><sodipodi:namedview
   id="namedview51"
   pagecolor="#ffffff"
   bordercolor="#000000"
   borderopacity="0.25"
   inkscape:showpageshadow="false"
   inkscape:pageopacity="0.0"
   inkscape:pagecheckerboard="0"
   inkscape:deskcolor="#d1d1d1"
   showgrid="false"
   inkscape:zoom="2.8367136"
   inkscape:cx="42.126213"
   inkscape:cy="135.8967"
   inkscape:window-width="2016"
   inkscape:window-height="1108"
   inkscape:window-x="32"
   inkscape:window-y="0"
   inkscape:window-maximized="1"
   inkscape:current-layer="Layer_1" />&#10;&#10;&#10;&#10;&#10;&#10;&#10;&#10;<g
   id="g20">&#10;</g>&#10;<g
   id="g22">&#10;</g>&#10;<g
   id="g24">&#10;</g>&#10;<g
   id="g26">&#10;</g>&#10;<g
   id="g28">&#10;</g>&#10;<g
   id="g30">&#10;</g>&#10;<g
   id="g32">&#10;</g>&#10;<g
   id="g34">&#10;</g>&#10;<g
   id="g36">&#10;</g>&#10;<g
   id="g38">&#10;</g>&#10;<g
   id="g40">&#10;</g>&#10;<g
   id="g42">&#10;</g>&#10;<g
   id="g44">&#10;</g>&#10;<g
   id="g46">&#10;</g>&#10;<g
   id="g48">&#10;</g>&#10;<g
   id="g1038"
   transform="matrix(0.11472343,0,0,0.11472343,-87.04525,72.831185)">&#10;</g><g
   id="g1040"
   transform="matrix(0.11472343,0,0,0.11472343,-87.04525,72.831185)">&#10;</g><g
   id="g1042"
   transform="matrix(0.11472343,0,0,0.11472343,-87.04525,72.831185)">&#10;</g><g
   id="g1044"
   transform="matrix(0.11472343,0,0,0.11472343,-87.04525,72.831185)">&#10;</g><g
   id="g1046"
   transform="matrix(0.11472343,0,0,0.11472343,-87.04525,72.831185)">&#10;</g><g
   id="g1048"
   transform="matrix(0.11472343,0,0,0.11472343,-87.04525,72.831185)">&#10;</g><g
   id="g1050"
   transform="matrix(0.11472343,0,0,0.11472343,-87.04525,72.831185)">&#10;</g><g
   id="g1052"
   transform="matrix(0.11472343,0,0,0.11472343,-87.04525,72.831185)">&#10;</g><g
   id="g1054"
   transform="matrix(0.11472343,0,0,0.11472343,-87.04525,72.831185)">&#10;</g><g
   id="g1056"
   transform="matrix(0.11472343,0,0,0.11472343,-87.04525,72.831185)">&#10;</g><g
   id="g1058"
   transform="matrix(0.11472343,0,0,0.11472343,-87.04525,72.831185)">&#10;</g><g
   id="g1060"
   transform="matrix(0.11472343,0,0,0.11472343,-87.04525,72.831185)">&#10;</g><g
   id="g1062"
   transform="matrix(0.11472343,0,0,0.11472343,-87.04525,72.831185)">&#10;</g><g
   id="g1064"
   transform="matrix(0.11472343,0,0,0.11472343,-87.04525,72.831185)">&#10;</g><g
   id="g1066"
   transform="matrix(0.11472343,0,0,0.11472343,-87.04525,72.831185)">&#10;</g><g
   id="g4209"
   transform="matrix(0.17356997,0,0,0.17356997,-229.5756,69.108898)">&#10;</g><g
   id="g4211"
   transform="matrix(0.17356997,0,0,0.17356997,-229.5756,69.108898)">&#10;</g><g
   id="g4213"
   transform="matrix(0.17356997,0,0,0.17356997,-229.5756,69.108898)">&#10;</g><g
   id="g4215"
   transform="matrix(0.17356997,0,0,0.17356997,-229.5756,69.108898)">&#10;</g><g
   id="g4217"
   transform="matrix(0.17356997,0,0,0.17356997,-229.5756,69.108898)">&#10;</g><g
   id="g4219"
   transform="matrix(0.17356997,0,0,0.17356997,-229.5756,69.108898)">&#10;</g><g
   id="g4221"
   transform="matrix(0.17356997,0,0,0.17356997,-229.5756,69.108898)">&#10;</g><g
   id="g4223"
   transform="matrix(0.17356997,0,0,0.17356997,-229.5756,69.108898)">&#10;</g><g
   id="g4225"
   transform="matrix(0.17356997,0,0,0.17356997,-229.5756,69.108898)">&#10;</g><g
   id="g4227"
   transform="matrix(0.17356997,0,0,0.17356997,-229.5756,69.108898)">&#10;</g><g
   id="g4229"
   transform="matrix(0.17356997,0,0,0.17356997,-229.5756,69.108898)">&#10;</g><g
   id="g4231"
   transform="matrix(0.17356997,0,0,0.17356997,-229.5756,69.108898)">&#10;</g><g
   id="g4233"
   transform="matrix(0.17356997,0,0,0.17356997,-229.5756,69.108898)">&#10;</g><g
   id="g4235"
   transform="matrix(0.17356997,0,0,0.17356997,-229.5756,69.108898)">&#10;</g><g
   id="g4237"
   transform="matrix(0.17356997,0,0,0.17356997,-229.5756,69.108898)">&#10;</g><g
   id="g6"
   transform="translate(34,-16)"><g
     id="g3"
     transform="translate(0.4717722)"><path
       style="fill:#cc584c;stroke-width:0.165427"
       d="M 115.39079,40.428723 V 29.841428 c 0,-1.091815 -0.88602,-2.100254 -1.96857,-2.241198 L 100.8326,26.583189 c -1.091156,-0.02779 -2.877765,-0.03243 -3.969579,-0.0099 L 84.27407,27.600892 c -1.082549,0.140282 -1.968573,1.148722 -1.968573,2.240537 v 10.587294 z"
       id="path4103" /><path
       style="fill:#bf5347;stroke-width:0.165427"
       d="M 113.42222,27.60023 100.8326,26.583189 c -0.878086,-0.0225 -2.200172,-0.02912 -3.254272,-0.01918 0.465182,0.004 0.906535,0.01059 1.269154,0.01918 L 111.4371,27.60023 c 1.08255,0.140944 1.96857,1.149383 1.96857,2.241198 v 10.587295 h 1.98512 V 29.841428 c 0,-1.091815 -0.88602,-2.100254 -1.96857,-2.241198 z"
       id="path4105" /><path
       style="fill:#c2e2f2;stroke-width:0.165427"
       d="m 84.952313,39.767017 v -9.566283 l 12.045036,-0.981971 c 0.441363,-0.0086 0.987269,-0.01257 1.548396,-0.01257 0.760961,0 1.551035,0.0073 2.147895,0.02117 l 12.05033,0.974031 v 9.565621 z"
       id="path4107" /><path
       style="fill:#cceeff;stroke-width:0.165427"
       d="m 86.275724,40.428723 v -9.007802 l 10.787797,-0.880069 c 0.4268,-0.008 0.947564,-0.01125 1.482224,-0.01125 0.733826,0 1.495455,0.0066 2.079735,0.01985 l 10.79508,0.87279 v 9.006479 z"
       id="path4109" /><rect
       id="SVGCleanerId_0"
       x="97.524734"
       y="30.503136"
       style="fill:#c2e2f2;stroke-width:0.165427"
       width="2.6468239"
       height="8.6021776" /><path
       style="fill:#cc584c;stroke-width:0.165427"
       d="M 119.36102,70.205493 V 42.413842 c 0,-1.455754 -1.18445,-2.771225 -2.63292,-2.921432 l -15.2338,-0.994544 c -1.45508,-0.02978 -3.837228,-0.03508 -5.292985,-0.01059 l -15.233792,1.005131 c -1.447809,0.150869 -2.632261,1.465678 -2.632261,2.921432 V 70.20549 Z"
       id="path4112" /><path
       style="fill:#bf5347;stroke-width:0.165427"
       d="m 116.7281,39.49241 -15.2338,-0.994544 c -1.16922,-0.02383 -2.928711,-0.0311 -4.332849,-0.02051 0.617378,0.004 1.204305,0.01192 1.686031,0.02051 l 15.233788,0.994544 c 1.44848,0.150869 2.63293,1.465678 2.63293,2.921432 v 27.791651 h 2.64682 V 42.413842 c 0,-1.455754 -1.18445,-2.770563 -2.63292,-2.921432 z"
       id="path4114" /><path
       style="fill:#994239;stroke-width:0.165427"
       d="M 100.83326,51.016018 V 38.485954 c -1.443846,-0.01852 -3.970239,-0.04234 -3.970239,-0.04234 V 51.016018 H 78.335262 v 4.631942 h 17.866053 4.631945 18.52776 v -4.631942 z"
       id="path4116" /><circle
       style="fill:#f5f5f5;stroke-width:0.165427"
       cx="98.848137"
       cy="53.001137"
       r="7.2787657"
       id="circle4118" /><circle
       style="fill:none;stroke:#242424;stroke-width:0.661706;stroke-miterlimit:10"
       cx="98.848137"
       cy="53.001137"
       r="7.2787657"
       id="circle4138" /><circle
       style="fill:#b3b3b3;stroke-width:0.165427"
       cx="84.952324"
       cy="64.91185"
       r="3.9702358"
       id="circle4140" /><circle
       style="fill:#e6e6e6;stroke-width:0.165427"
       cx="84.952324"
       cy="64.91185"
       r="2.6468239"
       id="circle4142" /><circle
       style="fill:#b3b3b3;stroke-width:0.165427"
       cx="112.74396"
       cy="64.91185"
       r="3.9702358"
       id="circle4144" /><circle
       style="fill:#e6e6e6;stroke-width:0.165427"
       cx="112.74396"
       cy="64.91185"
       r="2.6468239"
       id="circle4146" /><path
       style="fill:#cc584c;stroke-width:0.165427"
       d="m 102.81837,25.209487 c 0,2.192231 -1.77866,3.970236 -3.97023,3.970236 -2.192233,0 -3.970237,-1.778665 -3.970237,-3.970236 0,-2.19157 1.778004,-2.646825 3.970237,-2.646825 2.19223,0 3.97023,0.455255 3.97023,2.646825 z"
       id="path4148" /><path
       style="fill:#bf5347;stroke-width:0.165427"
       d="m 98.84814,22.562662 c -0.111825,0 -0.221669,0.002 -0.330854,0.0047 2.037394,0.04698 3.639384,0.561128 3.639384,2.642193 0,2.081065 -1.60199,3.785619 -3.639384,3.953692 0.109185,0.0092 0.219029,0.01655 0.330854,0.01655 2.19223,0 3.97023,-1.778666 3.97023,-3.970236 0,-2.19157 -1.778,-2.646825 -3.97023,-2.646825 z"
       id="path4150" /><path
       id="SVGCleanerId_1"
       style="fill:#f5f5f5;stroke-width:0.165427"
       d="m 102.15667,25.209487 c 0,1.827632 -1.4809,3.308529 -3.30853,3.308529 -1.826965,0 -3.308531,-1.480897 -3.308531,-3.308529 0,-1.827632 1.481566,-1.985118 3.308531,-1.985118 1.82763,0 3.30853,0.157486 3.30853,1.985118 z" /><path
       style="fill:#c83737;stroke-width:0.165427"
       d="M 115.39079,40.428723 V 29.841428 c 0,-1.091815 -0.88602,-2.100254 -1.96857,-2.241198 L 100.8326,26.583189 c -1.091156,-0.02779 -2.877765,-0.03243 -3.969579,-0.0099 L 84.27407,27.600892 c -1.082549,0.140282 -1.968573,1.148722 -1.968573,2.240537 v 10.587294 z"
       id="path4153" /><path
       style="fill:#c83737;stroke-width:0.165427"
       d="M 113.42222,27.60023 100.8326,26.583189 c -0.878086,-0.0225 -2.200172,-0.02912 -3.254272,-0.01918 0.465182,0.004 0.906535,0.01059 1.269154,0.01918 L 111.4371,27.60023 c 1.08255,0.140944 1.96857,1.149383 1.96857,2.241198 v 10.587295 h 1.98512 V 29.841428 c 0,-1.091815 -0.88602,-2.100254 -1.96857,-2.241198 z"
       id="path4155" /><path
       style="fill:#c2e2f2;stroke-width:0.165427"
       d="m 84.952313,39.767017 v -9.566283 l 12.045036,-0.981971 c 0.441363,-0.0086 0.987269,-0.01257 1.548396,-0.01257 0.760961,0 1.551035,0.0073 2.147895,0.02117 l 12.05033,0.974031 v 9.565621 z"
       id="path4157" /><path
       style="fill:#e6f7ff;stroke-width:0.165427"
       d="m 86.275724,40.428723 v -9.007802 l 10.787797,-0.880069 c 0.4268,-0.008 0.947564,-0.01125 1.482224,-0.01125 0.733826,0 1.495455,0.0066 2.079735,0.01985 l 10.79508,0.87279 v 9.006479 z"
       id="path4159" /><g
       id="g4162"
       transform="matrix(0.16542648,0,0,0.16542648,56.498962,13.960486)">&#10;	<rect
   id="SVGCleanerId_0_1_"
   x="248"
   y="100"
   style="fill:#c2e2f2"
   width="16"
   height="52" />&#10;</g><path
       style="fill:#d35f5f;stroke-width:0.165427"
       d="M 119.36102,70.205493 V 42.413842 c 0,-1.455754 -1.18445,-2.771225 -2.63292,-2.921432 l -15.2338,-0.994544 c -1.45508,-0.02978 -3.837228,-0.03508 -5.292985,-0.01059 l -15.233792,1.005131 c -1.447809,0.150869 -2.632261,1.465678 -2.632261,2.921432 V 70.20549 Z"
       id="path4164" /><path
       style="fill:#c83737;stroke-width:0.165427"
       d="m 116.7281,39.49241 -15.2338,-0.994544 c -1.16922,-0.02383 -2.928711,-0.0311 -4.332849,-0.02051 0.617378,0.004 1.204305,0.01192 1.686031,0.02051 l 15.233788,0.994544 c 1.44848,0.150869 2.63293,1.465678 2.63293,2.921432 v 27.791651 h 2.64682 V 42.413842 c 0,-1.455754 -1.18445,-2.770563 -2.63292,-2.921432 z"
       id="path4166" /><g
       id="g4172"
       transform="matrix(0.16542648,0,0,0.16542648,56.498962,13.960486)">&#10;	<path
   style="fill:#f5f5f5"
   d="M 268,224 V 148.256 C 259.272,148.144 244,148 244,148 v 76 H 132 v 28 h 108 28 112 v -28 z"
   id="path4168" />&#10;	<circle
   style="fill:#f5f5f5"
   cx="256"
   cy="236"
   r="44"
   id="circle4170" />&#10;</g><polygon
       style="fill:#cccccc"
       points="124,340 388,340 404,407.952 256,436 108,407.952 "
       id="polygon4174"
       transform="matrix(0.1608313,0,0,0.127415,58.355415,26.884391)" /><path
       style="fill:#e9afaf;stroke-width:0.165427"
       d="m 98.84814,61.603314 c -4.743111,0 -8.602179,-3.859069 -8.602179,-8.602179 0,-4.74311 3.859068,-8.602179 8.602179,-8.602179 4.74311,0 8.60218,3.859069 8.60218,8.602179 0,4.74311 -3.85907,8.602179 -8.60218,8.602179 z m 0,-14.557533 c -3.284046,0 -5.955355,2.671308 -5.955355,5.955354 0,3.284046 2.671976,5.955355 5.955355,5.955355 3.28339,0 5.95535,-2.671309 5.95535,-5.955355 0,-3.284046 -2.67196,-5.955354 -5.95535,-5.955354 z"
       id="path4192" /><circle
       style="fill:#b3b3b3;stroke-width:0.165427"
       cx="84.952324"
       cy="64.91185"
       r="3.9702358"
       id="circle4194" /><circle
       style="fill:#e6e6e6;stroke-width:0.165427"
       cx="84.952324"
       cy="64.91185"
       r="2.6468239"
       id="circle4196" /><circle
       style="fill:#b3b3b3;stroke-width:0.165427"
       cx="112.74396"
       cy="64.91185"
       r="3.9702358"
       id="circle4198" /><circle
       style="fill:#e6e6e6;stroke-width:0.165427"
       cx="112.74396"
       cy="64.91185"
       r="2.6468239"
       id="circle4200" /><path
       style="fill:#c83737;stroke-width:0.165427"
       d="m 102.81837,25.209487 c 0,2.192231 -1.77866,3.970236 -3.97023,3.970236 -2.192233,0 -3.970237,-1.778665 -3.970237,-3.970236 0,-2.19157 1.778004,-2.646825 3.970237,-2.646825 2.19223,0 3.97023,0.455255 3.97023,2.646825 z"
       id="path4202" /><path
       style="fill:#c83737;stroke-width:0.165427"
       d="m 98.84814,22.562662 c -0.111825,0 -0.221669,0.002 -0.330854,0.0047 2.037394,0.04698 3.639384,0.561128 3.639384,2.642193 0,2.081065 -1.60199,3.785619 -3.639384,3.953692 0.109185,0.0092 0.219029,0.01655 0.330854,0.01655 2.19223,0 3.97023,-1.778666 3.97023,-3.970236 0,-2.19157 -1.778,-2.646825 -3.97023,-2.646825 z"
       id="path4204" /><g
       id="g4207"
       transform="matrix(0.16542648,0,0,0.16542648,56.498962,13.960486)">&#10;	<path
   id="SVGCleanerId_1_1_"
   style="fill:#f5f5f5"
   d="m 276,68 c 0,11.048 -8.952,20 -20,20 -11.044,0 -20,-8.952 -20,-20 0,-11.048 8.956,-12 20,-12 11.048,0 20,0.952 20,12 z" />&#10;</g></g><path
     d="M 83.83364,105.3699 V 92.362919 h 3.961218 l 1.093769,7.929831 1.086379,-7.929831 h 3.99817 V 105.3699 h -2.379687 v -9.370937 l -1.492847,9.370937 h -2.335345 l -1.581531,-9.370937 v 9.370937 z m 11.292427,0 V 92.362919 h 5.202793 v 2.512713 h -2.557054 v 2.534884 h 2.453594 v 2.4462 h -2.453594 v 2.978304 h 2.727034 v 2.53488 z m 5.890093,0 v -2.3649 l 2.97831,-8.247613 h -2.69009 v -2.394468 h 5.4319 v 2.276223 l -3.03004,8.336298 h 2.9044 v 2.39446 z m 6.20788,0 v -2.3649 l 2.97831,-8.247613 h -2.69009 v -2.394468 h 5.4319 v 2.276223 l -3.03004,8.336298 h 2.9044 v 2.39446 z m 6.42959,0 V 92.362919 h 2.51271 V 105.3699 Z"
     id="path6"
     style="font-size:15.1354px;font-family:Anton;-inkscape-font-specification:Anton;letter-spacing:0px;fill:#007567;fill-opacity:1;stroke-width:1.26129"
     aria-label="MEZZI" /><path
     d="m 97.130124,116.18507 v -7.57265 h 2.082478 q 0.817498,0 1.230558,0.45608 0.41305,0.45177 0.41305,1.32521 v 3.54538 q 0,1.07566 -0.37863,1.66082 -0.37433,0.58516 -1.31661,0.58516 z m 1.523135,-1.33813 h 0.262461 q 0.417356,0 0.417356,-0.40444 v -3.9068 q 0,-0.37863 -0.103263,-0.4862 -0.09896,-0.11187 -0.408751,-0.11187 h -0.167803 z m 2.753691,1.33813 v -7.57265 h 1.4629 v 7.57265 z"
     id="path5"
     style="font-size:8.81181px;font-family:Anton;-inkscape-font-specification:Anton;letter-spacing:0px;fill:#007567;fill-opacity:1;stroke-width:0.73432"
     aria-label="DI" /><path
     d="m 43.371036,146.75659 v -20.21246 h -2.970749 v -4.80437 h 10.944866 v 4.80437 h -2.970749 v 20.21246 z m 9.3671,0 v -25.01683 h 7.67562 q 1.918905,0 2.899679,0.88127 0.980774,0.86706 1.307698,2.44483 0.341139,1.56355 0.341139,3.68145 0,2.04683 -0.525922,3.26925 -0.511708,1.22241 -1.947333,1.69148 1.179771,0.24164 1.648837,1.17977 0.483279,0.92392 0.483279,2.40218 v 9.4666 h -4.932296 v -9.79352 q 0,-1.09449 -0.454852,-1.35034 -0.440637,-0.27007 -1.435625,-0.27007 v 11.41393 z m 5.088652,-15.74923 h 1.2082 q 1.03763,0 1.03763,-2.26005 0,-1.46405 -0.227426,-1.9189 -0.227426,-0.45485 -0.852847,-0.45485 h -1.165557 z m 8.102042,15.74923 2.416399,-25.01683 h 8.485825 l 2.373757,25.01683 h -4.7333 l -0.355352,-4.03681 h -3.013392 l -0.31271,4.03681 z m 5.52929,-8.03097 h 2.274258 l -1.094487,-12.72163 h -0.227426 z m 15.223313,8.2584 q -3.425601,0 -4.946511,-1.7057 -1.506696,-1.70569 -1.506696,-5.42979 v -2.44482 h 4.946511 v 3.1271 q 0,0.86706 0.255854,1.36456 0.270068,0.48328 0.923917,0.48328 0.682277,0 0.938131,-0.398 0.270068,-0.39799 0.270068,-1.3077 0,-1.15134 -0.227425,-1.9189 -0.227426,-0.78178 -0.795991,-1.47827 -0.55435,-0.71071 -1.549338,-1.64884 l -2.245829,-2.13211 q -2.515898,-2.37376 -2.515898,-5.42979 0,-3.19818 1.478267,-4.87545 1.492482,-1.67726 4.306876,-1.67726 3.439815,0 4.875441,1.83362 1.449839,1.83362 1.449839,5.57193 h -5.088652 v -1.71991 q 0,-0.5117 -0.298496,-0.79599 -0.284283,-0.28428 -0.781776,-0.28428 -0.596993,0 -0.881275,0.34114 -0.270069,0.32693 -0.270069,0.85285 0,0.52592 0.284283,1.13713 0.284282,0.6112 1.122915,1.40719 l 2.885464,2.77175 q 0.867061,0.82442 1.591981,1.74834 0.724919,0.9097 1.165557,2.13212 0.440637,1.2082 0.440637,2.95653 0,3.5251 -1.307698,5.52929 -1.293484,1.98998 -4.520087,1.98998 z m 7.490836,-0.22743 v -25.01683 h 6.609561 q 2.07526,0 3.28346,0.92391 1.22241,0.92392 1.74834,2.62961 0.52592,1.7057 0.52592,4.06524 0,2.27426 -0.44064,3.96574 -0.44064,1.67726 -1.57777,2.60118 -1.12291,0.92392 -3.19817,0.92392 h -2.032619 v 9.90723 z m 4.918082,-14.39889 h 0.284283 q 1.392986,0 1.705696,-0.78178 0.31271,-0.78178 0.31271,-2.30269 0,-1.42141 -0.31271,-2.18897 -0.2985,-0.78177 -1.435628,-0.78177 h -0.554351 z m 14.796889,14.62632 q -2.99917,0 -4.59115,-1.80519 -1.57777,-1.81941 -1.57777,-5.24501 v -11.883 q 0,-3.21239 1.56355,-4.87544 1.57777,-1.66305 4.60537,-1.66305 3.02761,0 4.59116,1.66305 1.57777,1.66305 1.57777,4.87544 v 11.883 q 0,3.4256 -1.59198,5.24501 -1.57777,1.80519 -4.57695,1.80519 z m 0.0426,-4.60537 q 1.13713,0 1.13713,-2.20319 v -12.20992 q 0,-1.84784 -1.10871,-1.84784 -1.25084,0 -1.25084,1.89048 v 12.19571 q 0,1.16555 0.28429,1.67726 0.28428,0.4975 0.93813,0.4975 z m 8.14468,4.37794 v -25.01683 h 7.67562 q 1.91891,0 2.89968,0.88127 0.98078,0.86706 1.3077,2.44483 0.34114,1.56355 0.34114,3.68145 0,2.04683 -0.52592,3.26925 -0.51171,1.22241 -1.94734,1.69148 1.17978,0.24164 1.64884,1.17977 0.48328,0.92392 0.48328,2.40218 v 9.4666 h -4.9323 v -9.79352 q 0,-1.09449 -0.45485,-1.35034 -0.44063,-0.27007 -1.43562,-0.27007 v 11.41393 z m 5.08866,-15.74923 h 1.2082 q 1.03763,0 1.03763,-2.26005 0,-1.46405 -0.22743,-1.9189 -0.22743,-0.45485 -0.85285,-0.45485 h -1.16555 z m 10.93065,15.74923 v -20.21246 h -2.97075 v -4.80437 h 10.94486 v 4.80437 h -2.97075 v 20.21246 z m 15.33702,0.22743 q -2.99918,0 -4.59116,-1.80519 -1.57776,-1.81941 -1.57776,-5.24501 v -11.883 q 0,-3.21239 1.56355,-4.87544 1.57776,-1.66305 4.60537,-1.66305 3.02761,0 4.59116,1.66305 1.57776,1.66305 1.57776,4.87544 v 11.883 q 0,3.4256 -1.59198,5.24501 -1.57776,1.80519 -4.57694,1.80519 z m 0.0426,-4.60537 q 1.13713,0 1.13713,-2.20319 v -12.20992 q 0,-1.84784 -1.1087,-1.84784 -1.25084,0 -1.25084,1.89048 v 12.19571 q 0,1.16555 0.28428,1.67726 0.28428,0.4975 0.93813,0.4975 z"
     id="path4"
     style="font-size:29.1105px;font-family:Anton;-inkscape-font-specification:Anton;letter-spacing:0px;fill:#007567;fill-opacity:1;stroke-width:2.42588"
     aria-label="TRASPORTO" /></g></svg>
