<?xml version="1.0" encoding="UTF-8" standalone="no"?>
<!-- Generator: Adobe Illustrator 19.0.0, SVG Export Plug-In . SVG Version: 6.00 Build 0)  -->

<svg
   version="1.1"
   id="Layer_1"
   x="0px"
   y="0px"
   viewBox="0 0 200 260"
   xml:space="preserve"
   sodipodi:docname="transports_logo.svg"
   inkscape:version="1.2.1 (9c6d41e410, 2022-07-14, custom)"
   width="200"
   height="260"
   xmlns:inkscape="http://www.inkscape.org/namespaces/inkscape"
   xmlns:sodipodi="http://sodipodi.sourceforge.net/DTD/sodipodi-0.dtd"
   xmlns="http://www.w3.org/2000/svg"
   xmlns:svg="http://www.w3.org/2000/svg"><defs
   id="defs53">










	
	






		
		
		
	</defs><sodipodi:namedview
   id="namedview51"
   pagecolor="#ffffff"
   bordercolor="#000000"
   borderopacity="0.25"
   inkscape:showpageshadow="false"
   inkscape:pageopacity="0.0"
   inkscape:pagecheckerboard="0"
   inkscape:deskcolor="#d1d1d1"
   showgrid="false"
   inkscape:zoom="2.0058594"
   inkscape:cx="26.17332"
   inkscape:cy="168.50633"
   inkscape:window-width="2534"
   inkscape:window-height="1408"
   inkscape:window-x="26"
   inkscape:window-y="0"
   inkscape:window-maximized="1"
   inkscape:current-layer="Layer_1" />







<g
   id="g20">
</g>
<g
   id="g22">
</g>
<g
   id="g24">
</g>
<g
   id="g26">
</g>
<g
   id="g28">
</g>
<g
   id="g30">
</g>
<g
   id="g32">
</g>
<g
   id="g34">
</g>
<g
   id="g36">
</g>
<g
   id="g38">
</g>
<g
   id="g40">
</g>
<g
   id="g42">
</g>
<g
   id="g44">
</g>
<g
   id="g46">
</g>
<g
   id="g48">
</g>
<circle
   style="fill:#0077b5;fill-opacity:1;stroke-width:0.275171"
   cx="100"
   cy="154.03802"
   r="70.44371"
   id="circle2" /><path
   style="fill:#005f8f;fill-opacity:1;stroke-width:0.275171"
   d="m 169.94235,145.63018 -41.55407,-34.54837 -65.712617,86.59807 32.787042,26.65217 c 1.500782,0.0955 3.012576,0.14969 4.537295,0.14969 38.90474,0 70.44371,-31.53898 70.44371,-70.44371 0,-2.84582 -0.17363,-5.65063 -0.50136,-8.40785 z"
   id="path4"
   sodipodi:nodetypes="ccccssc" /><path
   d="m 21.539884,46.97208 v 4.030052 H 14.59152 V 68.373043 H 6.9483192 V 51.002132 H -4.5272522e-5 V 46.97208 Z"
   id="path781"
   style="font-size:28.4605px;font-family:Interceptor;-inkscape-font-specification:Interceptor;letter-spacing:2.67858px;fill:#0077b5;stroke-width:0.76233;stroke-linecap:round;stroke-linejoin:round;fill-opacity:1" /><path
   d="M 32.556501,68.373043 H 24.9133 V 55.574155 q 0.0139,-3.73822 3.821601,-3.73822 h 10.769964 v 4.030052 h -6.948364 z"
   id="path778"
   style="font-size:28.4605px;font-family:Interceptor;-inkscape-font-specification:Interceptor;letter-spacing:2.67858px;fill:#0077b5;stroke-width:0.76233;stroke-linecap:round;stroke-linejoin:round;fill-opacity:1" /><path
   d="m 56.77501,58.089463 v -1.111738 q 0,-1.111738 -1.028358,-1.111738 H 42.878281 V 51.835935 H 60.59661 q 3.807704,0 3.821601,3.73822 V 68.373043 H 46.699882 q -3.821601,-0.0139 -3.821601,-3.752117 v -6.531463 z m -6.253528,5.14179 q 0,1.111738 1.042255,1.111738 h 5.211273 v -2.223476 h -6.253528 z"
   id="path775"
   style="font-size:28.4605px;font-family:Interceptor;-inkscape-font-specification:Interceptor;letter-spacing:2.67858px;fill:#0077b5;stroke-width:0.76233;stroke-linecap:round;stroke-linejoin:round;fill-opacity:1" /><path
   d="m 71.59933,62.119515 q -3.807704,0 -3.8216,-3.73822 l 0.0139,-2.793243 q 0,-3.752117 4.516437,-3.752117 H 89.33156 v 4.030052 H 75.434827 l -0.0139,1.111738 q 0,1.111738 1.028358,1.111738 h 9.04677 q 3.807704,0 3.8216,3.73822 l 0.0139,2.779346 q 0,3.766014 -3.8216,3.766014 h -17.71833 v -4.030052 h 13.896729 l -0.0139,-1.111738 q 0,-1.111738 -1.028358,-1.111738 z"
   id="path772"
   style="font-size:28.4605px;font-family:Interceptor;-inkscape-font-specification:Interceptor;letter-spacing:2.67858px;fill:#0077b5;stroke-width:0.76233;stroke-linecap:round;stroke-linejoin:round;fill-opacity:1" /><path
   d="m 110.4372,51.835935 q 3.8077,0 3.8216,3.752117 l -0.0139,9.032874 q 0,3.752117 -3.8216,3.766013 h -10.07513 v 3.474183 l -7.643198,-0.0139 0.0139,-16.245276 q 0,-3.752117 3.8216,-3.766014 z m -3.8355,12.507056 0.0139,-7.365266 q 0,-1.111738 -1.02836,-1.111738 h -5.22517 l -0.0139,7.365266 q 0,1.097842 1.05615,1.111738 z"
   id="path769"
   style="font-size:28.4605px;font-family:Interceptor;-inkscape-font-specification:Interceptor;letter-spacing:2.67858px;fill:#0077b5;stroke-width:0.76233;stroke-linecap:round;stroke-linejoin:round;fill-opacity:1" /><path
   d="m 121.43992,68.373043 q -3.80771,0 -3.8216,-3.73822 v -9.046771 q 0,-3.752117 3.8216,-3.766013 h 13.88283 q 3.8355,0.0139 3.8355,3.766013 v 9.032874 q 0,3.752117 -3.8216,3.752117 z m 3.8216,-12.507056 v 7.365266 q 0,1.111738 1.02836,1.111738 h 5.23906 l -0.0139,-7.365266 q 0,-1.097842 -1.05616,-1.111738 z"
   id="path766"
   style="font-size:28.4605px;font-family:Interceptor;-inkscape-font-specification:Interceptor;letter-spacing:2.67858px;fill:#0077b5;stroke-width:0.76233;stroke-linecap:round;stroke-linejoin:round;fill-opacity:1" /><path
   d="m 150.17486,68.373043 h -7.6432 V 55.574155 q 0.0139,-3.73822 3.8216,-3.73822 h 10.76997 v 4.030052 h -6.94837 z"
   id="path763"
   style="font-size:28.4605px;font-family:Interceptor;-inkscape-font-specification:Interceptor;letter-spacing:2.67858px;fill:#0077b5;stroke-width:0.76233;stroke-linecap:round;stroke-linejoin:round;fill-opacity:1" /><path
   d="m 168.13984,51.835935 h 6.94837 v 4.030052 h -6.94837 v 7.365266 q 0,1.111738 1.02836,1.111738 h 5.92001 v 4.030052 h -10.76997 q -3.8077,0 -3.8216,-3.73822 V 46.97208 h 7.6432 z"
   id="path760"
   style="font-size:28.4605px;font-family:Interceptor;-inkscape-font-specification:Interceptor;letter-spacing:2.67858px;fill:#0077b5;stroke-width:0.76233;stroke-linecap:round;stroke-linejoin:round;fill-opacity:1" /><path
   d="m 182.28323,68.373043 q -3.80771,0 -3.82161,-3.73822 v -9.046771 q 0,-3.752117 3.82161,-3.766013 h 13.88283 q 3.83549,0.0139 3.83549,3.766013 v 9.032874 q 0,3.752117 -3.8216,3.752117 z m 3.8216,-12.507056 v 7.365266 q 0,1.111738 1.02835,1.111738 h 5.23907 l -0.0139,-7.365266 q 0,-1.097842 -1.05615,-1.111738 z"
   id="path757"
   style="font-size:28.4605px;font-family:Interceptor;-inkscape-font-specification:Interceptor;letter-spacing:2.67858px;fill:#0077b5;stroke-width:0.76233;stroke-linecap:round;stroke-linejoin:round;fill-opacity:1" /><path
   d="m 59.684395,3.5628165 7.129022,21.4009625 h -7.657098 l -2.862726,-8.588178 v 8.588178 H 48.650392 V 3.5628165 Z M 70.885158,16.375601 67.758394,25.755893 63.922897,14.263298 67.494356,3.5628165 H 78.528359 V 24.963779 h -7.643201 z"
   id="path754"
   style="font-size:28.4605px;font-family:Interceptor;-inkscape-font-specification:Interceptor;letter-spacing:2.67859px;fill:#0077b5;stroke-width:0.762332;stroke-linecap:round;stroke-linejoin:round;fill-opacity:1" /><path
   d="m 89.544985,18.710251 v 1.111738 q 0,1.111739 1.028358,1.111739 h 12.868367 v 4.030051 H 85.723385 q -3.807704,0 -3.8216,-3.73822 V 8.4266716 h 17.718329 q 3.821596,0 3.821596,3.7521164 v 6.531463 z m 6.253528,-5.14179 q 0,-1.111738 -1.042254,-1.111738 H 89.544985 V 14.6802 h 6.253528 z"
   id="path751"
   style="font-size:28.4605px;font-family:Interceptor;-inkscape-font-specification:Interceptor;letter-spacing:2.67859px;fill:#0077b5;stroke-width:0.762332;stroke-linecap:round;stroke-linejoin:round;fill-opacity:1" /><path
   d="M 117.37666,12.456723 H 106.81514 V 8.4266716 H 128.6747 L 117.79356,20.933728 h 10.56151 v 4.030051 h -21.85955 z"
   id="path748"
   style="font-size:28.4605px;font-family:Interceptor;-inkscape-font-specification:Interceptor;letter-spacing:2.67859px;fill:#0077b5;stroke-width:0.762332;stroke-linecap:round;stroke-linejoin:round;fill-opacity:1" /><path
   d="M 142.29001,12.456723 H 131.72849 V 8.4266716 h 21.85956 L 142.70691,20.933728 h 10.56151 v 4.030051 h -21.85955 z"
   id="path745"
   style="font-size:28.4605px;font-family:Interceptor;-inkscape-font-specification:Interceptor;letter-spacing:2.67859px;fill:#0077b5;stroke-width:0.762332;stroke-linecap:round;stroke-linejoin:round;fill-opacity:1" /><path
   d="m 164.28506,3.5628165 v 4.0300514 l -7.62931,-0.013897 -0.0139,-4.0161547 z m 0,4.8638551 V 24.963779 h -7.64321 V 8.4266716 Z"
   id="path742"
   style="font-size:28.4605px;font-family:Interceptor;-inkscape-font-specification:Interceptor;letter-spacing:2.67859px;fill:#0077b5;stroke-width:0.762332;stroke-linecap:round;stroke-linejoin:round;fill-opacity:1" /><path
   d="m 94.428934,44.56349 q -2.036497,0 -2.04393,-1.999334 l -0.0074,-4.831106 q 0,-2.006767 2.043929,-2.0142 h 5.388541 l 0.0074,-2.601365 h 4.087856 v 9.439238 q 0,2.006767 -2.04393,2.006767 z m 2.036497,-6.681791 0.0074,3.931777 q 0,0.594598 0.550003,0.594598 h 2.802041 l -0.01487,-3.931777 q 0,-0.587165 -0.564867,-0.594598 z"
   id="path739"
   style="font-size:15.2217px;font-family:Interceptor;-inkscape-font-specification:Interceptor;letter-spacing:2.25758px;fill:#0077b5;stroke-width:0.407723;stroke-linecap:round;stroke-linejoin:round;fill-opacity:1" /><path
   d="m 110.6224,33.117485 v 2.155417 l -4.08043,-0.0074 -0.007,-2.147984 z m 0,2.601365 v 8.84464 h -4.08786 v -8.84464 z"
   id="path736"
   style="font-size:15.2217px;font-family:Interceptor;-inkscape-font-specification:Interceptor;letter-spacing:2.25758px;fill:#0077b5;stroke-width:0.407723;stroke-linecap:round;stroke-linejoin:round;fill-opacity:1" /><g
   id="g1153"
   transform="matrix(1.5811699,0,0,1.5811699,187.70007,-8.6180045)"><g
     id="g1010"
     transform="matrix(0.11472343,0,0,0.11472343,-87.04525,72.831185)"
     style="fill:#1a1a1a">
	<rect
   x="373.00601"
   y="424.168"
   style="fill:#1a1a1a"
   width="69.477997"
   height="78.262001"
   id="rect1006" />
	<rect
   x="69.510002"
   y="424.168"
   style="fill:#1a1a1a"
   width="69.477997"
   height="78.262001"
   id="rect1008" />
</g><path
     style="fill:#808080;stroke-width:0.114723"
     d="m -35.038939,108.72482 -22.637113,-3.72817 -22.637112,3.72817 v 3.89956 l 6.652238,3.10671 -6.652238,3.10671 v 3.89842 c 0,0.68352 0.559162,1.24269 1.242684,1.24269 h 42.788742 c 0.683522,0 1.242684,-0.55917 1.242684,-1.24269 v -3.89842 l -6.652238,-3.10671 6.652238,-3.10671 v -3.89956 z"
     id="path1012" /><g
     id="g1020"
     transform="matrix(0.11472343,0,0,0.11472343,-87.04525,72.831185)"
     style="fill:#4d4d4d">
	<path
   style="fill:#4d4d4d"
   d="M 453.319,58.314 V 96.227 L 256,139.556 58.681,96.227 V 58.314 c 0,-26.81 21.935,-48.745 48.745,-48.745 h 297.148 c 26.81,10e-4 48.745,21.936 48.745,48.745 z"
   id="path1014" />
	<path
   style="fill:#4d4d4d"
   d="M 22.206,112.475 C 9.961,112.475 0,122.437 0,134.681 v 65.947 c 0,12.245 9.961,22.206 22.206,22.206 h 3.975 c 4.488,0 8.124,-3.637 8.124,-8.124 0,-4.487 0,-85.987 0,-85.987 h 67.704 v -16.248 c 0.001,0 -79.803,0 -79.803,0 z"
   id="path1016" />
	<path
   style="fill:#4d4d4d"
   d="m 489.794,112.475 c 12.245,0 22.206,9.961 22.206,22.206 v 65.947 c 0,12.245 -9.961,22.206 -22.206,22.206 h -3.975 c -4.488,0 -8.124,-3.637 -8.124,-8.124 0,-4.487 0,-85.987 0,-85.987 H 409.99 v -16.248 c 0,0 79.804,0 79.804,0 z"
   id="path1018" />
</g><rect
     x="-80.313507"
     y="83.870331"
     style="fill:#80b3ff;stroke-width:0.114723"
     width="45.274223"
     height="24.854029"
     id="rect1022" /><path
     style="fill:#333333;stroke-width:0.114723"
     d="m -51.632766,112.62438 c 0.514535,0 0.932013,0.41633 0.932013,0.93202 0,0.51453 -0.417593,0.93201 -0.932013,0.93201 h -12.086572 c -0.514535,0 -0.932013,-0.41759 -0.932013,-0.93201 0,-0.51569 0.417593,-0.93202 0.932013,-0.93202 z"
     id="path1024" /><rect
     x="-56.744381"
     y="85.73436"
     style="fill:#d5e5ff;stroke-width:0.114723"
     width="19.840958"
     height="21.125977"
     id="rect1026" /><rect
     x="-78.449486"
     y="85.73436"
     style="fill:#f9f9f9;stroke-width:0.114723"
     width="19.840958"
     height="21.125977"
     id="rect1028" /><g
     id="g1034"
     transform="matrix(0.11472343,0,0,0.11472343,-87.04525,72.831185)"
     style="fill:#ffe680">
	<path
   style="fill:#ffe680"
   d="m 170.827,346.862 v 27.08 c 0,14.948 -12.121,27.08 -27.08,27.08 H 58.681 v -54.161 h 112.146 z"
   id="path1030" />
	<path
   style="fill:#ffe680"
   d="m 453.319,346.862 v 54.161 h -85.065 c -14.959,0 -27.08,-12.132 -27.08,-27.08 v -27.08 h 112.145 z"
   id="path1032" />
</g><path
     style="fill:#ffd117;stroke-width:0.114723"
     d="m -40.94146,79.831953 h -33.469184 c -0.514879,0 -0.932013,-0.417249 -0.932013,-0.932013 0,-0.514764 0.417134,-0.932013 0.932013,-0.932013 h 33.469299 c 0.514879,0 0.932013,0.417249 0.932013,0.932013 0,0.514764 -0.417249,0.932013 -0.932128,0.932013 z"
     id="path1036" /></g><g
   id="g1038"
   transform="matrix(0.11472343,0,0,0.11472343,-87.04525,72.831185)">
</g><g
   id="g1040"
   transform="matrix(0.11472343,0,0,0.11472343,-87.04525,72.831185)">
</g><g
   id="g1042"
   transform="matrix(0.11472343,0,0,0.11472343,-87.04525,72.831185)">
</g><g
   id="g1044"
   transform="matrix(0.11472343,0,0,0.11472343,-87.04525,72.831185)">
</g><g
   id="g1046"
   transform="matrix(0.11472343,0,0,0.11472343,-87.04525,72.831185)">
</g><g
   id="g1048"
   transform="matrix(0.11472343,0,0,0.11472343,-87.04525,72.831185)">
</g><g
   id="g1050"
   transform="matrix(0.11472343,0,0,0.11472343,-87.04525,72.831185)">
</g><g
   id="g1052"
   transform="matrix(0.11472343,0,0,0.11472343,-87.04525,72.831185)">
</g><g
   id="g1054"
   transform="matrix(0.11472343,0,0,0.11472343,-87.04525,72.831185)">
</g><g
   id="g1056"
   transform="matrix(0.11472343,0,0,0.11472343,-87.04525,72.831185)">
</g><g
   id="g1058"
   transform="matrix(0.11472343,0,0,0.11472343,-87.04525,72.831185)">
</g><g
   id="g1060"
   transform="matrix(0.11472343,0,0,0.11472343,-87.04525,72.831185)">
</g><g
   id="g1062"
   transform="matrix(0.11472343,0,0,0.11472343,-87.04525,72.831185)">
</g><g
   id="g1064"
   transform="matrix(0.11472343,0,0,0.11472343,-87.04525,72.831185)">
</g><g
   id="g1066"
   transform="matrix(0.11472343,0,0,0.11472343,-87.04525,72.831185)">
</g></svg>
