<?xml version="1.0" encoding="UTF-8" standalone="no"?>
<!-- Uploaded to: SVG Repo, www.svgrepo.com, Generator: SVG Repo Mixer Tools -->

<svg
   width="18"
   height="18"
   viewBox="0 0 0.54 0.54"
   fill="none"
   version="1.1"
   id="svg4"
   sodipodi:docname="smile-sad.svg"
   inkscape:version="1.3 (0e150ed6c4, 2023-07-21)"
   xmlns:inkscape="http://www.inkscape.org/namespaces/inkscape"
   xmlns:sodipodi="http://sodipodi.sourceforge.net/DTD/sodipodi-0.dtd"
   xmlns="http://www.w3.org/2000/svg"
   xmlns:svg="http://www.w3.org/2000/svg">
  <defs
     id="defs4" />
  <sodipodi:namedview
     id="namedview4"
     pagecolor="#ffffff"
     bordercolor="#000000"
     borderopacity="0.25"
     inkscape:showpageshadow="false"
     inkscape:pageopacity="0.0"
     inkscape:pagecheckerboard="0"
     inkscape:deskcolor="#d1d1d1"
     showgrid="false"
     inkscape:zoom="58.218458"
     inkscape:cx="6.1234875"
     inkscape:cy="10.56366"
     inkscape:window-width="3038"
     inkscape:window-height="1692"
     inkscape:window-x="34"
     inkscape:window-y="0"
     inkscape:window-maximized="1"
     inkscape:current-layer="svg4" />
  <path
     opacity="0.5"
     d="M 0.06514728,0.474852 C 0.10029432,0.51 0.1568628,0.51 0.27,0.51 c 0.113136,0 0.1697064,0 0.204852,-0.035148 C 0.51,0.4397064 0.51,0.383136 0.51,0.27 0.51,0.1568628 0.51,0.10029432 0.474852,0.06514728 0.4397064,0.03 0.383136,0.03 0.27,0.03 0.1568628,0.03 0.10029432,0.03 0.06514728,0.06514728 0.03,0.10029432 0.03,0.1568628 0.03,0.27 c 0,0.113136 0,0.1697064 0.03514728,0.204852 z"
     fill="#1c274c"
     id="path1"
     style="stroke-width:0.024;fill:#d45500;opacity:1" />
  <path
     d="m 0.20871864,0.40445851 c -0.007986,0.005921 -0.0192595,0.004246 -0.0251794,-0.003742 -0.00592,-0.007987 -0.004244,-0.01926 0.003742,-0.0251784 C 0.2106192,0.35823931 0.23916,0.34799851 0.27,0.34799851 c 0.03084,0 0.0593808,0.0102408 0.0827184,0.02754 0.007987,0.005918 0.009662,0.0171912 0.003742,0.0251784 -0.005918,0.007987 -0.0171912,0.009662 -0.0251784,0.003742 C 0.3138,0.39150331 0.2927016,0.38399851 0.27,0.38399851 c -0.0227016,0 -0.0438,0.007505 -0.0612814,0.02046 z"
     fill="#1c274c"
     id="path2"
     style="fill:#ffffff;stroke-width:0.024" />
  <path
     id="path6"
     style="opacity:1;fill:#ffffff;stroke-width:0.03"
     d="m 0.16165501,0.219 h 0.07269 c 0.00831,0 0.015,0.00669 0.015,0.015 0,0.00831 -0.00669,0.015 -0.015,0.015 h -0.07269 c -0.00831,0 -0.015,-0.00669 -0.015,-0.015 0,-0.00831 0.00669,-0.015 0.015,-0.015 z" />
  <path
     id="path5"
     style="opacity:1;fill:#ffffff;stroke-width:0.03"
     d="m 0.30565499,0.219 h 0.07269 c 0.00831,0 0.015,0.00669 0.015,0.015 0,0.00831 -0.00669,0.015 -0.015,0.015 h -0.07269 c -0.00831,0 -0.015,-0.00669 -0.015,-0.015 0,-0.00831 0.00669,-0.015 0.015,-0.015 z" />
</svg>
