<?xml version="1.0" encoding="UTF-8" standalone="no"?>
<!-- Uploaded to: SVG Repo, www.svgrepo.com, Generator: SVG Repo Mixer Tools -->

<svg
   width="18"
   height="18"
   viewBox="0 0 0.54 0.54"
   fill="none"
   version="1.1"
   id="svg4"
   sodipodi:docname="smile-happy.svg"
   inkscape:version="1.3 (0e150ed6c4, 2023-07-21)"
   xmlns:inkscape="http://www.inkscape.org/namespaces/inkscape"
   xmlns:sodipodi="http://sodipodi.sourceforge.net/DTD/sodipodi-0.dtd"
   xmlns="http://www.w3.org/2000/svg"
   xmlns:svg="http://www.w3.org/2000/svg">
  <defs
     id="defs4" />
  <sodipodi:namedview
     id="namedview4"
     pagecolor="#ffffff"
     bordercolor="#000000"
     borderopacity="0.25"
     inkscape:showpageshadow="false"
     inkscape:pageopacity="0.0"
     inkscape:pagecheckerboard="0"
     inkscape:deskcolor="#d1d1d1"
     showgrid="false"
     inkscape:zoom="58.218458"
     inkscape:cx="6.1234875"
     inkscape:cy="10.56366"
     inkscape:window-width="3038"
     inkscape:window-height="1692"
     inkscape:window-x="34"
     inkscape:window-y="0"
     inkscape:window-maximized="1"
     inkscape:current-layer="svg4" />
  <path
     opacity="0.5"
     d="M 0.06514728,0.474852 C 0.10029432,0.51 0.1568628,0.51 0.27,0.51 c 0.113136,0 0.1697064,0 0.204852,-0.035148 C 0.51,0.4397064 0.51,0.383136 0.51,0.27 0.51,0.1568628 0.51,0.10029432 0.474852,0.06514728 0.4397064,0.03 0.383136,0.03 0.27,0.03 0.1568628,0.03 0.10029432,0.03 0.06514728,0.06514728 0.03,0.10029432 0.03,0.1568628 0.03,0.27 c 0,0.113136 0,0.1697064 0.03514728,0.204852 z"
     fill="#1c274c"
     id="path1"
     style="stroke-width:0.024;fill:#44aa00;opacity:1" />
  <path
     d="m 0.20871864,0.35154 c -0.007986,-0.005921 -0.0192595,-0.004246 -0.0251794,0.003742 -0.00592,0.007987 -0.004244,0.01926 0.003742,0.0251784 C 0.2106192,0.3977592 0.23916,0.408 0.27,0.408 0.30084,0.408 0.3293808,0.3977592 0.3527184,0.38046 0.3607056,0.3745416 0.3623808,0.3632688 0.35646,0.3552816 0.3505416,0.3472944 0.3392688,0.3456192 0.3312816,0.35154 0.3138,0.3644952 0.2927016,0.372 0.27,0.372 0.2472984,0.372 0.2262,0.3644952 0.20871864,0.35154 Z"
     fill="#1c274c"
     id="path2"
     style="stroke-width:0.024;fill:#ffffff" />
  <path
     d="m 0.366,0.234 c 0,0.0198816 -0.0107448,0.036 -0.024,0.036 -0.0132552,0 -0.024,-0.0161184 -0.024,-0.036 0,-0.0198823 0.0107448,-0.036 0.024,-0.036 0.0132552,0 0.024,0.0161177 0.024,0.036 z"
     fill="#1c274c"
     id="path3"
     style="stroke-width:0.024;fill:#ffffff" />
  <path
     d="m 0.222,0.234 c 0,0.0198816 -0.0107453,0.036 -0.024,0.036 -0.0132547,0 -0.024,-0.0161184 -0.024,-0.036 0,-0.0198823 0.0107453,-0.036 0.024,-0.036 0.0132547,0 0.024,0.0161177 0.024,0.036 z"
     fill="#1c274c"
     id="path4"
     style="stroke-width:0.024;fill:#ffffff" />
</svg>
